<svg width="253" height="200" viewBox="0 0 253 200" fill="none" xmlns="http://www.w3.org/2000/svg">
<g clip-path="url(#clip0)">
<path d="M272.299 180H-4.29913C-5.2385 180 -6 180.766 -6 181.71V182.29C-6 183.234 -5.2385 184 -4.29913 184H272.299C273.238 184 274 183.234 274 182.29V181.71C274 180.766 273.238 180 272.299 180Z" fill="#F5F5F5"/>
<path d="M222.963 118.691V106.044H186.228V99.236H82.7472V87.1748H53.9436V106.044H24.9248V80.5039H-7V150.207H261.289V118.691H222.963Z" fill="#A6A6A6"/>
<path d="M240.911 93.9424H216.911V149.942H240.911V93.9424Z" fill="#D9D9D9"/>
<path d="M224.717 97.6602H220.005V100.316H224.717V97.6602Z" fill="#FAFAFA"/>
<path d="M231.339 97.6602H226.627V100.316H231.339V97.6602Z" fill="#FAFAFA"/>
<path d="M237.96 97.6602H233.248V100.316H237.96V97.6602Z" fill="#FAFAFA"/>
<path d="M224.717 102.2H220.005V104.856H224.717V102.2Z" fill="#FAFAFA"/>
<path d="M231.339 102.2H226.627V104.856H231.339V102.2Z" fill="#FAFAFA"/>
<path d="M237.96 102.2H233.248V104.856H237.96V102.2Z" fill="#FAFAFA"/>
<path d="M224.717 106.739H220.005V109.395H224.717V106.739Z" fill="#FAFAFA"/>
<path d="M231.339 106.739H226.627V109.395H231.339V106.739Z" fill="#FAFAFA"/>
<path d="M237.96 106.739H233.248V109.395H237.96V106.739Z" fill="#FAFAFA"/>
<path d="M224.717 111.278H220.005V113.935H224.717V111.278Z" fill="#FAFAFA"/>
<path d="M231.339 111.278H226.627V113.935H231.339V111.278Z" fill="#FAFAFA"/>
<path d="M237.96 111.278H233.248V113.935H237.96V111.278Z" fill="#FAFAFA"/>
<path d="M224.717 115.817H220.005V118.474H224.717V115.817Z" fill="#FAFAFA"/>
<path d="M231.339 115.817H226.627V118.474H231.339V115.817Z" fill="#FAFAFA"/>
<path d="M237.96 115.817H233.248V118.474H237.96V115.817Z" fill="#FAFAFA"/>
<path d="M224.717 120.356H220.005V123.013H224.717V120.356Z" fill="#FAFAFA"/>
<path d="M231.339 120.356H226.627V123.013H231.339V120.356Z" fill="#FAFAFA"/>
<path d="M237.96 120.356H233.248V123.013H237.96V120.356Z" fill="#FAFAFA"/>
<path d="M224.717 124.896H220.005V127.552H224.717V124.896Z" fill="#FAFAFA"/>
<path d="M231.339 124.896H226.627V127.552H231.339V124.896Z" fill="#FAFAFA"/>
<path d="M237.96 124.896H233.248V127.552H237.96V124.896Z" fill="#FAFAFA"/>
<path d="M222.911 59.9424H202.911V149.942H222.911V59.9424Z" fill="#E5E5E5"/>
<path d="M212.696 66.5801H206.765V71.5431H212.696V66.5801Z" fill="#FAFAFA"/>
<path d="M212.696 73.4805H206.765V78.4434H212.696V73.4805Z" fill="#FAFAFA"/>
<path d="M219.826 73.4805H213.895V78.4434H219.826V73.4805Z" fill="#FAFAFA"/>
<path d="M219.826 80.3809H213.895V85.3438H219.826V80.3809Z" fill="#FAFAFA"/>
<path d="M212.696 94.1816H206.765V99.1446H212.696V94.1816Z" fill="#FAFAFA"/>
<path d="M219.826 94.1816H213.895V99.1446H219.826V94.1816Z" fill="#FAFAFA"/>
<path d="M219.826 101.082H213.895V106.045H219.826V101.082Z" fill="#FAFAFA"/>
<path d="M212.696 107.982H206.765V112.945H212.696V107.982Z" fill="#FAFAFA"/>
<path d="M189.823 41.041H152.178V179.742H189.823V41.041Z" fill="#F0F0F0"/>
<path d="M162.065 49.3076H156.438V52.3693H162.065V49.3076Z" fill="white"/>
<path d="M170.505 49.3076H164.878V52.3693H170.505V49.3076Z" fill="white"/>
<path d="M178.947 49.3076H173.319V52.3693H178.947V49.3076Z" fill="white"/>
<path d="M187.388 49.3076H181.761V52.3693H187.388V49.3076Z" fill="white"/>
<path d="M162.065 55.2393H156.438V58.301H162.065V55.2393Z" fill="white"/>
<path d="M170.505 55.2393H164.878V58.301H170.505V55.2393Z" fill="white"/>
<path d="M178.947 55.2393H173.319V58.301H178.947V55.2393Z" fill="white"/>
<path d="M187.388 55.2393H181.761V58.301H187.388V55.2393Z" fill="white"/>
<path d="M162.065 61.1709H156.438V64.2326H162.065V61.1709Z" fill="white"/>
<path d="M170.505 61.1709H164.878V64.2326H170.505V61.1709Z" fill="white"/>
<path d="M178.947 61.1709H173.319V64.2326H178.947V61.1709Z" fill="white"/>
<path d="M187.388 61.1709H181.761V64.2326H187.388V61.1709Z" fill="white"/>
<path d="M162.065 67.1025H156.438V70.1643H162.065V67.1025Z" fill="white"/>
<path d="M170.505 67.1025H164.878V70.1643H170.505V67.1025Z" fill="white"/>
<path d="M178.947 67.1025H173.319V70.1643H178.947V67.1025Z" fill="white"/>
<path d="M187.388 67.1025H181.761V70.1643H187.388V67.1025Z" fill="white"/>
<path d="M162.065 73.0342H156.438V76.0959H162.065V73.0342Z" fill="white"/>
<path d="M170.505 73.0342H164.878V76.0959H170.505V73.0342Z" fill="white"/>
<path d="M178.947 73.0342H173.319V76.0959H178.947V73.0342Z" fill="white"/>
<path d="M187.388 73.0342H181.761V76.0959H187.388V73.0342Z" fill="white"/>
<path d="M162.065 78.9658H156.438V82.0275H162.065V78.9658Z" fill="white"/>
<path d="M170.505 78.9658H164.878V82.0275H170.505V78.9658Z" fill="white"/>
<path d="M178.947 78.9658H173.319V82.0275H178.947V78.9658Z" fill="white"/>
<path d="M187.388 78.9658H181.761V82.0275H187.388V78.9658Z" fill="white"/>
<path d="M162.065 84.8975H156.438V87.9592H162.065V84.8975Z" fill="white"/>
<path d="M170.505 84.8975H164.878V87.9592H170.505V84.8975Z" fill="white"/>
<path d="M178.947 84.8975H173.319V87.9592H178.947V84.8975Z" fill="white"/>
<path d="M187.388 84.8975H181.761V87.9592H187.388V84.8975Z" fill="white"/>
<path d="M42.715 42.1035H16.8965V146.598H42.715V42.1035Z" fill="#E6E6E6"/>
<path d="M23.8937 46.5898H21.6123V133.73H23.8937V46.5898Z" fill="#FAFAFA"/>
<path d="M30.1749 46.5898H27.8936V133.73H30.1749V46.5898Z" fill="#FAFAFA"/>
<path d="M36.4572 46.5898H34.1758V133.73H36.4572V46.5898Z" fill="#FAFAFA"/>
<path d="M84.9469 3H40.668V160.285H84.9469V3Z" fill="#F5F5F5"/>
<path d="M77.5208 9.17676H47.4678V14.5216H77.5208V9.17676Z" fill="white"/>
<path d="M77.5208 18.2412H47.4678V23.5861H77.5208V18.2412Z" fill="white"/>
<path d="M77.5208 27.3066H47.4678V32.6515H77.5208V27.3066Z" fill="white"/>
<path d="M77.5208 36.3701H47.4678V41.715H77.5208V36.3701Z" fill="white"/>
<path d="M77.5208 45.4346H47.4678V50.7794H77.5208V45.4346Z" fill="white"/>
<path d="M137.304 59.4414H63.7598V171.229H137.304V59.4414Z" fill="#A6A6A6"/>
<path d="M100.827 137.185H117.728V120.434H100.827V137.185ZM100.827 102.504H117.728V85.7524H100.827V102.504ZM83.3366 102.504H100.238V85.7524H83.3366V102.504ZM83.3366 119.844H100.238V103.093H83.3366V119.844ZM83.3366 137.185H100.238V120.434H83.3366V137.185ZM100.827 119.844H117.728V103.093H100.827V119.844ZM118.317 66.583V85.1631H130.498V66.583H118.317ZM70.5664 119.844H82.7472V103.093H70.5664V119.844ZM70.5664 137.185H82.7472V120.434H70.5664V137.185ZM70.5664 102.504H82.7472V85.7524H70.5664V102.504ZM118.317 137.185H130.498V120.434H118.317V137.185ZM118.317 102.504H130.498V85.7524H118.317V102.504ZM70.5664 85.1631H82.7472V66.583H70.5664V85.1631ZM70.5664 148.529H82.7472V137.774H70.5664V148.529ZM118.317 148.529H130.498V137.774H118.317V148.529ZM118.317 119.844H130.498V103.093H118.317V119.844ZM83.3366 85.1631H100.238V66.583H83.3366V85.1631ZM83.3366 148.529H100.238V137.774H83.3366V148.529ZM100.827 148.529H117.728V137.774H100.827V148.529ZM100.827 85.1631H117.728V66.583H100.827V85.1631Z" fill="#F5F5F5"/>
<path d="M179.694 147.067L161.905 155.33L146.967 122.977L155.361 119.074L164.754 114.713L167.283 120.185L179.694 147.067Z" fill="#2DBE78"/>
<path d="M162.08 150.182L150.995 126.168C151.265 126.042 151.507 125.865 151.709 125.646C151.91 125.426 152.067 125.169 152.169 124.889C152.272 124.61 152.318 124.312 152.306 124.014C152.294 123.716 152.223 123.424 152.098 123.153L161.574 118.754C161.699 119.024 161.876 119.268 162.094 119.47C162.313 119.672 162.569 119.829 162.848 119.931C163.128 120.034 163.424 120.081 163.721 120.069C164.018 120.056 164.31 119.986 164.58 119.86L175.665 143.874C175.395 144 175.153 144.177 174.951 144.396C174.75 144.616 174.593 144.873 174.491 145.153C174.389 145.433 174.342 145.73 174.354 146.028C174.366 146.326 174.437 146.618 174.562 146.889L165.086 151.288C164.961 151.018 164.785 150.774 164.566 150.572C164.347 150.37 164.091 150.213 163.812 150.111C163.533 150.008 163.236 149.961 162.939 149.974C162.642 149.986 162.35 150.057 162.08 150.182Z" fill="#C7FFE0"/>
<path d="M167.309 133.174C167.673 133.963 167.796 134.843 167.662 135.703C167.528 136.562 167.142 137.362 166.555 138.001C165.967 138.641 165.203 139.091 164.36 139.296C163.517 139.5 162.633 139.449 161.819 139.149C161.005 138.85 160.298 138.315 159.787 137.612C159.276 136.909 158.984 136.07 158.949 135.201C158.914 134.332 159.136 133.472 159.588 132.73C160.04 131.988 160.701 131.396 161.488 131.031C162.01 130.788 162.575 130.651 163.151 130.628C163.726 130.604 164.301 130.694 164.841 130.893C165.382 131.092 165.878 131.396 166.301 131.788C166.725 132.179 167.067 132.65 167.309 133.174Z" fill="#76BFAC"/>
<path opacity="0.25" d="M167.283 120.185L167.105 121.554L166.471 123.954L164.647 130.826L162.739 138.038L159.955 137.823L157.777 137.661C157.777 137.661 157.238 128.137 155.894 121.393C155.732 120.571 155.554 119.793 155.362 119.075L164.755 114.713L167.283 120.185Z" fill="#475784"/>
<path d="M178.896 147.734L159.298 148.326L158.228 112.691L170.316 112.328L177.825 112.101L178.786 143.981L178.896 147.734Z" fill="#2DBE78"/>
<path d="M161.479 143.663L160.685 117.214C161.285 117.196 161.853 116.939 162.265 116.501C162.676 116.063 162.897 115.478 162.879 114.877L173.315 114.562C173.334 115.163 173.589 115.733 174.026 116.146C174.464 116.559 175.046 116.781 175.646 116.763L176.44 143.212C175.84 143.23 175.272 143.487 174.861 143.925C174.449 144.364 174.228 144.948 174.246 145.55L163.81 145.865C163.801 145.567 163.734 145.273 163.612 145.001C163.49 144.729 163.316 144.484 163.099 144.279C162.883 144.075 162.628 143.915 162.35 143.809C162.072 143.704 161.776 143.654 161.479 143.663Z" fill="#C7FFE0"/>
<path d="M171.782 133.197C173.427 131.415 173.319 128.633 171.541 126.983C169.764 125.334 166.99 125.442 165.345 127.224C163.7 129.007 163.808 131.789 165.586 133.439C167.363 135.088 170.137 134.98 171.782 133.197Z" fill="#76BFAC"/>
<path opacity="0.25" d="M178.785 143.979L176.444 143.157L161.425 137.906L164.194 129.938L164.976 127.687L169.496 114.676L170.315 112.328L177.825 112.101L178.785 143.979Z" fill="#475784"/>
<path d="M193.958 110.712L175.444 104.242L163.747 137.909L182.261 144.379L193.958 110.712Z" fill="#2DBE78"/>
<path d="M167.443 134.335L176.126 109.346C176.692 109.544 177.315 109.508 177.855 109.246C178.396 108.984 178.81 108.518 179.008 107.949L188.869 111.394C188.771 111.676 188.729 111.974 188.746 112.272C188.763 112.569 188.839 112.861 188.968 113.129C189.097 113.398 189.278 113.638 189.5 113.836C189.722 114.035 189.981 114.187 190.262 114.285L181.579 139.275C181.299 139.177 181.001 139.135 180.705 139.152C180.408 139.169 180.117 139.245 179.85 139.375C179.582 139.504 179.343 139.686 179.145 139.908C178.947 140.131 178.795 140.39 178.697 140.672L168.836 137.226C169.034 136.657 168.998 136.033 168.737 135.491C168.475 134.949 168.01 134.533 167.443 134.335Z" fill="#C7FFE0"/>
<path d="M182.993 125.758C182.708 126.579 182.186 127.297 181.494 127.821C180.802 128.345 179.97 128.652 179.104 128.702C178.238 128.752 177.377 128.543 176.629 128.102C175.881 127.661 175.281 127.008 174.904 126.224C174.526 125.441 174.389 124.563 174.509 123.702C174.629 122.84 175.001 122.034 175.578 121.385C176.156 120.735 176.912 120.272 177.751 120.054C178.591 119.836 179.476 119.872 180.295 120.158C181.394 120.542 182.295 121.347 182.801 122.398C183.307 123.448 183.376 124.657 182.993 125.758Z" fill="#2DBE78"/>
<path d="M119.113 172.757C119.113 172.757 117.282 166.707 122.916 165.951C123.614 165.838 124.329 165.928 124.977 166.211C125.186 166.303 125.385 166.42 125.567 166.559C128.292 168.58 127.583 174.527 125.265 172.759C125.077 172.618 124.91 172.451 124.77 172.263C123.766 170.915 124.009 168.515 124.977 166.212C125.232 165.616 125.526 165.037 125.855 164.479C126.401 163.547 127.071 162.695 127.849 161.947C128.107 161.694 128.383 161.461 128.676 161.251C128.91 161.079 129.154 160.923 129.407 160.784" stroke="#F0A8CF" stroke-width="2.604" stroke-linecap="round" stroke-linejoin="round"/>
<path d="M207.731 159.967C207.68 160.182 207.184 160.567 206.483 161.011V161.019C204.475 162.3 200.746 164.129 200.746 164.129C199.721 166.786 198.294 169.269 196.515 171.49C193.458 175.334 188.562 179.377 181.258 180.014L182.513 190.552H176.769L170.544 178C170.544 178 148.273 178.547 147.372 179.066C146.472 179.585 145.091 190.552 145.091 190.552H138.12V176.992C138.12 176.992 128.69 176.045 127.841 162.618C127.841 162.391 127.841 162.167 127.848 161.945C127.866 160.516 127.965 159.089 128.144 157.671C129.613 146.208 136.946 137.847 158.013 134.635C169.702 132.857 178.497 132.539 185.003 133.679H185.01C186.573 133.944 188.112 134.338 189.61 134.857C193.864 136.353 196.757 138.767 198.604 142.077C198.604 142.077 203.884 144.728 206.417 146.062C207.133 146.439 207.627 146.713 207.731 146.795C208.218 147.171 207.93 159.13 207.731 159.967Z" fill="#F0A8CF"/>
<path d="M181.259 180.017L182.514 190.555H176.769L170.544 178C170.544 178 148.273 178.548 147.372 179.067C146.472 179.586 145.091 190.553 145.091 190.553H138.12V176.993C138.12 176.993 128.69 176.045 127.841 162.619C127.841 162.391 127.841 162.167 127.848 161.945C127.866 160.516 127.965 159.09 128.144 157.672C128.277 158.968 128.454 160.153 128.676 161.249C130.307 169.529 134.103 172.341 137.75 173.08C142.69 174.088 134.858 149.571 134.858 149.571L147.942 141.539C147.942 141.539 160.665 174.594 179.901 174.342C187.521 174.238 192.86 172.965 196.516 171.491C193.457 175.334 188.562 179.378 181.259 180.017Z" fill="#E87DAA"/>
<path d="M183.433 137.142C184.955 132.925 187.298 130.004 188.241 130.666C189.183 131.328 189.891 136.622 189.891 136.622C189.891 136.622 184.706 138.607 183.622 139.836C182.538 141.065 183.07 138.148 183.433 137.142Z" fill="#E87DAA"/>
<path d="M207.731 159.968C207.68 160.183 207.184 160.568 206.483 161.012C205.743 158.563 205.399 156.01 205.463 153.451C205.411 150.953 205.733 148.462 206.417 146.06C207.133 146.437 207.628 146.711 207.732 146.793C208.218 147.172 207.93 159.131 207.731 159.968Z" fill="#E87DAA"/>
<path d="M192.076 89.911C193.425 85.5603 191.002 80.9364 186.664 79.5833C182.326 78.2302 177.715 80.6602 176.366 85.011C175.017 89.3617 177.44 93.9856 181.778 95.3387C186.116 96.6918 190.727 94.2617 192.076 89.911Z" fill="#FFD101"/>
<path d="M189.126 84.6094C189.688 85.5823 189.949 86.7004 189.878 87.8224C189.806 88.9444 189.404 90.0198 188.723 90.9128C188.042 91.8057 187.112 92.4761 186.051 92.839C184.99 93.202 183.845 93.2412 182.762 92.9519C181.679 92.6625 180.705 92.0574 179.965 91.2133C179.225 90.3691 178.75 89.3237 178.602 88.2092C178.454 87.0948 178.639 85.9614 179.134 84.9523C179.628 83.9432 180.409 83.1038 181.379 82.5401C182.68 81.7844 184.227 81.5779 185.68 81.966C187.133 82.354 188.372 83.3049 189.126 84.6094Z" fill="#E79A4A"/>
<path d="M185.611 90.7938L185.194 90.072C184.739 90.3201 184.234 90.4641 183.717 90.4935L183.433 89.4725C183.942 89.4614 184.44 89.3247 184.883 89.0743C185.315 88.8235 185.515 88.4845 185.337 88.1807C185.17 87.8918 184.823 87.8503 184.152 87.9862C183.183 88.1836 182.41 88.125 181.985 87.3884C181.798 87.0382 181.745 86.6313 181.837 86.2448C181.929 85.8583 182.159 85.519 182.484 85.2912L182.067 84.5694L182.81 84.1377L183.196 84.8066C183.579 84.592 184.002 84.4601 184.439 84.4192L184.716 85.4056C184.28 85.4353 183.856 85.5636 183.476 85.781C182.983 86.0654 182.946 86.3725 183.07 86.5852C183.214 86.8361 183.572 86.8412 184.356 86.7104C185.443 86.5056 186.048 86.7104 186.443 87.3964C186.639 87.7632 186.693 88.19 186.594 88.5944C186.495 88.9988 186.25 89.3519 185.906 89.5857L186.354 90.3609L185.611 90.7938Z" fill="#FFD101"/>
<path d="M163.617 105.963C166.645 104.691 168.071 101.199 166.803 98.1632C165.536 95.1271 162.054 93.6964 159.027 94.9677C155.999 96.2389 154.573 99.7308 155.84 102.767C157.108 105.803 160.59 107.234 163.617 105.963Z" fill="#FFD101"/>
<path d="M165.182 101.839C164.911 102.604 164.42 103.272 163.771 103.758C163.122 104.244 162.343 104.525 161.534 104.567C160.725 104.61 159.922 104.41 159.226 103.994C158.53 103.579 157.973 102.965 157.625 102.232C157.276 101.498 157.153 100.678 157.269 99.874C157.386 99.0701 157.738 98.319 158.28 97.7156C158.823 97.1122 159.531 96.6837 160.316 96.4842C161.102 96.2847 161.928 96.3232 162.692 96.5948C163.715 96.9591 164.553 97.7161 165.02 98.6995C165.487 99.6829 165.545 100.812 165.182 101.839Z" fill="#E79A4A"/>
<path d="M160.142 102.794L160.343 102.225C159.994 102.09 159.679 101.879 159.421 101.607L159.847 100.971C160.091 101.247 160.399 101.458 160.744 101.586C161.084 101.707 161.362 101.658 161.447 101.42C161.527 101.192 161.387 100.981 160.999 100.674C160.437 100.232 160.108 99.778 160.313 99.1956C160.417 98.9282 160.616 98.7087 160.871 98.5785C161.127 98.4484 161.421 98.4168 161.698 98.4897L161.898 97.9209L162.483 98.1291L162.296 98.6552C162.593 98.7661 162.864 98.9382 163.09 99.1603L162.679 99.7746C162.458 99.5473 162.189 99.3732 161.892 99.2655C161.505 99.1273 161.32 99.2502 161.261 99.418C161.191 99.6148 161.356 99.8161 161.794 100.186C162.415 100.69 162.585 101.121 162.395 101.659C162.285 101.939 162.076 102.169 161.808 102.303C161.54 102.438 161.231 102.468 160.942 102.388L160.726 102.997L160.142 102.794Z" fill="#FFD101"/>
<path d="M72.947 62.7185L49.2963 69.3079C46.9235 69.969 45.5344 72.434 46.1936 74.8136L58.7017 119.967C59.3609 122.347 61.8189 123.74 64.1917 123.079L87.8423 116.489C90.2151 115.828 91.6043 113.363 90.9451 110.984L78.4369 65.8302C77.7777 63.4505 75.3198 62.0574 72.947 62.7185Z" fill="#321F3C"/>
<path d="M63.4961 119.031L86.3577 112.661C87.7695 112.268 88.5961 110.801 88.2039 109.385L76.9098 68.6148C76.5176 67.1989 75.0551 66.3699 73.6432 66.7633L50.7817 73.1329C49.3698 73.5262 48.5433 74.9929 48.9355 76.4088L60.2296 117.18C60.6218 118.595 62.0843 119.424 63.4961 119.031Z" fill="white"/>
<path d="M73.5303 92.4156C74.2712 89.4663 72.4877 86.4731 69.5468 85.7301C66.6059 84.9871 63.6213 86.7758 62.8804 89.7251C62.1396 92.6745 63.9231 95.6677 66.864 96.4107C69.8049 97.1536 72.7895 95.365 73.5303 92.4156Z" fill="#FFD101"/>
<path d="M71.8714 90.132C72.0567 90.8592 72.0227 91.6252 71.7739 92.3331C71.525 93.041 71.0725 93.6589 70.4734 94.1089C69.8744 94.5588 69.1557 94.8205 68.4084 94.8608C67.6611 94.9012 66.9186 94.7183 66.2748 94.3355C65.6311 93.9526 65.115 93.3869 64.7918 92.7099C64.4687 92.0329 64.353 91.275 64.4593 90.5321C64.5656 89.7891 64.8893 89.0944 65.3893 88.5359C65.8893 87.9774 66.5432 87.5802 67.2683 87.3944C68.2407 87.1454 69.2719 87.2939 70.1351 87.8073C70.9983 88.3207 71.6229 89.1569 71.8714 90.132Z" fill="#E79A4A"/>
<path d="M68.4954 93.4638L68.3581 92.9246C68.0205 93.0002 67.6703 93.0002 67.3327 92.9246V92.2164C67.6615 92.3019 68.0062 92.305 68.3366 92.2255C68.6593 92.1425 68.847 91.961 68.7903 91.7341C68.7336 91.5179 68.5192 91.428 68.0638 91.3928C67.4058 91.3439 66.9198 91.1653 66.7797 90.6147C66.7221 90.3556 66.7617 90.0843 66.8907 89.8526C67.0198 89.6209 67.2294 89.4449 67.4796 89.3582L67.3418 88.819L67.897 88.6768L68.0246 89.1762C68.3096 89.1084 68.6054 89.1007 68.8935 89.1534V89.836C68.6079 89.7757 68.3124 89.781 68.0292 89.8513C67.6605 89.9458 67.5822 90.1357 67.6225 90.2944C67.6707 90.4816 67.8993 90.5504 68.4267 90.609C69.1641 90.675 69.5129 90.9178 69.6433 91.4286C69.7029 91.6999 69.6602 91.9838 69.5234 92.2253C69.3866 92.4669 69.1655 92.6492 68.9026 92.7369L69.0501 93.3159L68.4954 93.4638Z" fill="#FFD101"/>
<path d="M75.6617 98.3319L65.6472 100.898C65.5642 100.919 65.4762 100.906 65.4026 100.862C65.3289 100.818 65.2755 100.747 65.2542 100.664C65.233 100.581 65.2457 100.492 65.2894 100.419C65.3331 100.345 65.4043 100.291 65.4873 100.27L75.5023 97.7045C75.5434 97.6939 75.5862 97.6916 75.6282 97.6976C75.6702 97.7036 75.7107 97.7179 75.7472 97.7396C75.7837 97.7613 75.8156 97.7901 75.841 97.8242C75.8664 97.8582 75.8849 97.897 75.8953 97.9383C75.9163 98.0216 75.9035 98.1098 75.8597 98.1836C75.8159 98.2574 75.7446 98.3107 75.6617 98.3319Z" fill="#2DBE78"/>
<path d="M74.1465 100.749L68.1345 102.29C68.0515 102.311 67.9634 102.298 67.8897 102.254C67.816 102.21 67.7627 102.139 67.7415 102.056C67.7203 101.973 67.733 101.884 67.7767 101.81C67.8204 101.736 67.8916 101.683 67.9746 101.662L73.9865 100.121C74.0696 100.1 74.1576 100.113 74.2313 100.157C74.305 100.201 74.3583 100.272 74.3796 100.355C74.4006 100.438 74.3878 100.527 74.3442 100.601C74.3005 100.674 74.2294 100.728 74.1465 100.749Z" fill="#2DBE78"/>
<path d="M61.6264 87.1269C61.5612 87.1944 61.472 87.2332 61.3784 87.2348C61.2847 87.2364 61.1942 87.2007 61.1268 87.1355L59.4321 85.4934C59.3646 85.4279 59.3259 85.3383 59.3243 85.2443C59.3227 85.1502 59.3584 85.0593 59.4236 84.9917C59.4888 84.9242 59.578 84.8854 59.6716 84.8838C59.7653 84.8822 59.8558 84.918 59.9232 84.9831L61.6179 86.6253C61.6514 86.6576 61.6781 86.6963 61.6967 86.739C61.7152 86.7817 61.7252 86.8277 61.726 86.8743C61.7267 86.9209 61.7184 86.9672 61.7013 87.0106C61.6842 87.0539 61.6588 87.0935 61.6264 87.1269Z" fill="#FFD101"/>
<path d="M65.7831 83.3486C65.7408 83.3678 65.6952 83.3785 65.6488 83.38C65.6023 83.3815 65.5561 83.3739 65.5126 83.3574C65.4692 83.341 65.4294 83.3162 65.3955 83.2843C65.3616 83.2524 65.3344 83.2142 65.3152 83.1717L64.342 81.0194C64.3034 80.9337 64.3002 80.8363 64.3332 80.7483C64.3661 80.6603 64.4325 80.5891 64.5178 80.5501C64.6033 80.5114 64.7006 80.5082 64.7884 80.5412C64.8762 80.5743 64.9473 80.6409 64.9863 80.7264L65.959 82.8793C65.9782 82.9217 65.989 82.9675 65.9906 83.014C65.9922 83.0606 65.9846 83.107 65.9682 83.1506C65.9519 83.1942 65.9271 83.2341 65.8954 83.2681C65.8636 83.3021 65.8255 83.3294 65.7831 83.3486Z" fill="#FFD101"/>
<path d="M71.6185 83.6046C71.5728 83.5965 71.5291 83.5795 71.4899 83.5545C71.4507 83.5295 71.4168 83.497 71.3902 83.4589C71.3635 83.4208 71.3446 83.3777 71.3346 83.3322C71.3245 83.2868 71.3235 83.2398 71.3316 83.1939L71.7405 80.8664C71.7568 80.7738 71.8091 80.6915 71.8859 80.6375C71.9626 80.5836 72.0576 80.5624 72.15 80.5786C72.1957 80.5866 72.2394 80.6036 72.2786 80.6286C72.3178 80.6536 72.3517 80.6861 72.3784 80.7242C72.405 80.7624 72.4239 80.8054 72.434 80.8509C72.444 80.8964 72.445 80.9434 72.437 80.9892L72.028 83.3168C72.02 83.3626 72.0031 83.4065 71.9781 83.4458C71.9532 83.4851 71.9208 83.5191 71.8828 83.5458C71.8448 83.5725 71.8018 83.5915 71.7565 83.6016C71.7112 83.6117 71.6643 83.6127 71.6185 83.6046Z" fill="#FFD101"/>
<path d="M152.46 187.516V187.324L151.028 183.917L148.524 177.933L147.942 176.547L152.815 173.081C152.815 173.081 153.303 174.392 153.945 176.11C154.573 177.798 155.341 179.887 155.939 181.523C156.486 183.041 156.884 184.174 156.862 184.234C156.796 184.426 159.314 187.011 159.159 187.134C159.003 187.258 152.46 187.516 152.46 187.516Z" fill="#ECB4B4"/>
<path d="M155.94 181.525C154.98 182.429 153.363 183.251 151.03 183.917L148.526 177.933L153.946 176.113C154.573 177.798 155.341 179.888 155.94 181.525Z" fill="#CC7F8E"/>
<path d="M122.304 178L122.148 181.888L121.927 187.324V187.516C121.927 187.516 115.392 187.264 115.229 187.138C115.066 187.013 117.585 184.428 117.526 184.237C117.496 184.149 117.363 183.082 117.252 182.046C117.134 180.994 117.025 179.957 117.025 179.957L122.304 178Z" fill="#ECB4B4"/>
<path d="M122.303 178L122.148 181.888C120.525 182.101 118.885 182.154 117.252 182.044C117.134 180.992 117.025 179.955 117.025 179.955L122.303 178Z" fill="#CC7F8E"/>
<path d="M158.242 178.088C158.493 179.103 149.735 182.502 149.735 182.502C145.807 178.058 141.155 166.647 138.319 159.019V159.012C136.724 154.739 135.705 151.651 135.705 151.651C135.705 151.651 132.848 144.556 130.056 138.232C130.052 138.225 130.05 138.217 130.049 138.209C129.028 135.906 128.026 133.707 127.169 131.989C127.191 132.322 127.199 132.7 127.191 133.107C127.11 138.32 124.607 149.214 124.156 151.11V151.117C124.112 151.303 124.089 151.402 124.089 151.402C124.089 151.402 125.16 162.184 123.211 179.513C122.775 180.335 115.48 181.902 114.977 180.082C114.475 178.262 110.894 132.746 113.147 111.44L124.119 110.075L138.548 108.29C138.548 108.29 139.285 110.907 140.477 115.125C145.401 132.537 158.043 177.281 158.242 178.088Z" fill="#404040"/>
<path d="M137.286 150.393C137.79 153.244 138.135 156.122 138.32 159.013C136.725 154.74 135.706 151.652 135.706 151.652C135.706 151.652 132.848 144.557 130.057 138.233C130.053 138.226 130.05 138.218 130.049 138.211L126.069 126.948L125.287 123.104L124.12 110.079L138.549 108.294C138.549 108.294 139.286 110.91 140.477 115.129C136.851 119.469 136.194 127.882 136.66 131.614C137.227 136.087 135.721 137.473 136.91 142.011C138.099 146.55 136.725 146.799 137.286 150.393Z" fill="#333333"/>
<path d="M127.192 133.108C127.11 138.321 124.608 149.215 124.157 151.111C124.009 147.112 123.456 135.137 114.728 129.781L126.071 126.944L126.358 129.781L127.192 133.108Z" fill="#333333"/>
<path d="M116.234 88.9271C116.234 88.9271 115.775 90.497 115.213 92.3706C115.036 92.9559 114.851 93.5702 114.667 94.1777C113.876 96.7253 113.192 99.058 108.759 98.8726C104.326 98.6871 89.2718 94.0668 89.2718 94.0668L88.1199 94.6811L86.6804 95.4512L85.0498 89.9191C85.0498 89.9191 84.3188 89.6005 83.1816 88.9783H83.1725C82.9071 88.8378 82.619 88.6819 82.3161 88.5045C80.6991 87.5716 81.2453 86.4238 81.5629 86.6086C82.9676 87.1568 84.4183 87.5781 85.8978 87.8674C87.3446 88.1268 88.8068 89.8224 90.0619 89.9634C91.317 90.1045 108.035 91.4298 108.035 91.4298L108.759 89.075L109.261 87.4601L116.234 88.9271Z" fill="#ECB4B4"/>
<path d="M86.2982 91.5184C86.7886 92.6362 87.4001 93.6966 88.1216 94.6803L86.6822 95.4505L85.0499 89.9183C85.0499 89.9183 84.3188 89.5998 83.1816 88.9775C84.0324 89.2295 85.0499 89.1852 85.6205 89.8592C86.4031 90.7846 87.4592 92.3767 88.9803 92.2362C87.9368 92.5183 86.4236 91.5923 86.2982 91.5184Z" fill="#CC7F8E"/>
<path d="M116.233 88.9263C116.233 88.9263 115.775 90.4962 115.213 92.3699C113.448 91.7106 109.889 90.2966 108.759 89.0748L109.261 87.46L116.233 88.9263Z" fill="#CC7F8E"/>
<path d="M141.812 111.284C140.853 112.592 135.115 112.447 129.318 112.491C127.532 112.506 125.737 112.535 124.083 112.639C123.751 112.654 123.433 112.684 123.119 112.706C116.015 113.268 112.877 114.787 112.5 112.706C114.197 102.398 115.785 89.9186 115.785 89.9186C114.209 89.8214 112.647 89.5608 111.125 89.1411C110.898 89.0671 110.667 88.9926 110.453 88.9039C109.486 88.541 108.703 88.0376 108.444 87.3636C110.239 81.8838 114.003 72.101 115.607 68.7832C116.914 66.0802 118.827 65.6508 121.33 65.1844C121.897 65.0803 122.489 64.9694 123.117 64.8363L133.787 64.0968L134.053 64.082L134.548 66.926L136.482 77.9971L136.851 80.1301L138.491 89.5205L138.823 91.4311C138.823 91.4311 140.779 102.398 141.812 111.284Z" fill="#2DBE78"/>
<path d="M141.813 111.284C140.853 112.593 135.116 112.447 129.319 112.491C127.532 112.506 125.737 112.536 124.083 112.64C129.794 103.405 136.356 84.8318 134.99 78.0312L136.85 80.1273L138.49 89.5176L138.822 91.4282C138.822 91.4282 140.779 102.398 141.813 111.284Z" fill="#28A96B"/>
<path d="M135.787 132.648H113.354L109.957 99.7529H132.39L135.787 132.648Z" fill="#FFD101"/>
<path d="M113.349 132.651L108.83 130.57L102.981 132.651L109.958 99.748L113.349 132.651Z" fill="#FFE366"/>
<path d="M113.349 132.651L108.83 130.57L109.96 99.748L113.349 132.651Z" fill="#FFE366"/>
<path d="M133.756 112.924L123.87 115.667L118.375 101.585L128.261 98.8418L133.756 112.924Z" fill="#F0FFFF"/>
<path d="M123.869 115.668L121.625 115.303L119.3 116.935L118.374 101.584L123.869 115.668Z" fill="#FFE366"/>
<path d="M123.87 115.667L121.625 115.303L118.376 101.584L123.87 115.667Z" fill="#FFE366"/>
<path d="M126.857 100.823C126.857 100.823 125.883 97.2779 124.469 95.9941" stroke="#333333" stroke-width="1.302" stroke-linecap="round" stroke-linejoin="round"/>
<path d="M143.09 102.45C137.899 102.301 126.529 97.369 126.04 97.369C125.551 97.369 121.764 98.2876 120.539 97.7171C119.313 97.1466 117.496 95.1996 117.164 94.8071C116.832 94.4147 115.215 93.5256 114.07 93.074C112.926 92.6224 113.029 91.8079 113.389 91.6816C113.75 91.5553 116.609 92.867 118.374 93.0888C119.666 93.2276 120.966 93.2846 122.266 93.2594C122.266 93.2594 120.427 92.4062 119.548 91.9557C118.669 91.5053 118.514 90.5787 119.097 90.66C119.68 90.7414 121.549 90.8153 122.14 90.9262C122.73 91.0371 125.47 93.074 126.637 93.5108C127.803 93.9477 140.527 94.5847 140.527 94.5847L139.392 90.7169L138.764 88.5617L146.06 84.7627C146.06 84.7627 146.555 87.51 146.968 90.5019C147.152 91.8278 147.322 93.2048 147.426 94.405C147.75 98.332 148.274 102.59 143.09 102.45Z" fill="#ECB4B4"/>
<path d="M117.76 104.62C117.76 104.62 115.862 95.5757 119.002 93.251" stroke="#333333" stroke-width="1.302" stroke-linecap="round" stroke-linejoin="round"/>
<path d="M146.967 90.5048C144.439 90.433 141.91 90.5048 139.391 90.7198L138.763 88.5646L146.059 84.7656C146.059 84.7656 146.553 87.5129 146.967 90.5048Z" fill="#CC7F8E"/>
<path d="M148.509 86.3276C148.148 86.5204 147.705 86.7127 147.217 86.9129C144.358 87.941 141.444 88.8112 138.489 89.5197C138.061 89.6232 137.809 89.6824 137.809 89.6824L137.255 87.4072L133.075 70.16L133.231 68.8563L133.784 64.0949C134.338 64.0136 134.995 63.8725 135.704 63.7536C138.51 63.2719 142.15 63.0426 143.649 67.419C145.141 71.7589 146.603 79.6903 147.711 83.904C147.904 84.7343 148.171 85.5455 148.509 86.3276Z" fill="#2DBE78"/>
<path d="M135.705 63.7539C135.451 64.8543 135.061 65.9188 134.546 66.9233C134.193 67.6224 133.752 68.2725 133.232 68.8572C132.763 69.4015 132.192 69.8473 131.55 70.1689C130.909 70.4905 130.211 70.6815 129.495 70.7308C124.703 71.0419 122.274 68.6871 121.328 65.1844C121.895 65.0803 122.487 64.9694 123.115 64.8363L133.785 64.0969C134.339 64.015 134.996 63.8739 135.705 63.7539Z" fill="white"/>
<path d="M117.555 35.5557C117.629 35.6503 117.698 35.7493 117.762 35.852C117.732 35.8076 117.651 35.7041 117.555 35.5557Z" fill="#5E3057"/>
<path d="M138.549 43.2772C140.432 39.4042 137.825 37.323 131.821 35.1826C125.818 33.0422 124.881 27.7404 122.864 28.7176C120.936 29.651 122.702 32.8499 122.857 33.1167C122.65 32.8323 119.526 28.5919 117.267 30.325C115.406 31.7612 116.846 34.45 117.494 35.4641C116.903 34.6718 115.509 33.1758 114.348 34.8953C112.916 37.0204 113.691 41.9155 117.915 44.1816C118.018 43.8556 118.085 43.656 118.085 43.656C121.356 45.8629 130.217 44.322 135.806 45.5148C134.714 46.4329 135.482 47.988 135.038 49.2689C134.595 50.5498 134.175 51.7716 135.068 51.8677C135.961 51.9639 136.752 49.9571 137.742 50.0538C137.979 50.081 138.196 50.2007 138.347 50.3872C140.41 46.9078 140.417 44.3084 138.549 43.2772ZM117.555 35.5529C117.63 35.6475 117.699 35.7465 117.762 35.8492C117.733 35.8071 117.651 35.7036 117.555 35.5551V35.5529Z" fill="#472646"/>
<path d="M135.786 55.3208C134.627 57.9794 133.653 60.1784 131.504 59.7637C131.191 59.6992 130.889 59.5868 130.61 59.4304C131.596 58.8498 132.453 58.0746 133.131 57.1517C133.809 56.2288 134.293 55.1775 134.553 54.0615C134.647 54.3532 134.807 54.6189 135.021 54.8376C135.235 55.0562 135.497 55.2217 135.786 55.3208Z" fill="#472646"/>
<path d="M134.052 64.0815C134.052 64.0815 132.103 68.5244 128.396 68.7764C124.689 69.0284 123.116 64.8369 123.116 64.8369L125.885 64.1407L125.649 61.6448L125.472 59.7933L132.169 57.083C131.829 58.0608 131.859 60.3121 131.942 61.9707C131.999 63.0964 132.076 63.9553 132.076 63.9553L134.052 64.0815Z" fill="#CC7F8E"/>
<path d="M131.94 61.9707L125.649 61.6448L125.472 59.7933L132.169 57.083C131.83 58.0608 131.859 60.3121 131.94 61.9707Z" fill="#A34E64"/>
<path d="M138.024 54.2022C137.287 55.3279 136.452 55.5275 135.787 55.3205C135.498 55.2213 135.236 55.0558 135.022 54.8372C134.808 54.6186 134.647 54.3528 134.554 54.0612C134.293 55.1771 133.809 56.2284 133.132 57.1513C132.454 58.0742 131.596 58.8495 130.611 59.4301C128.952 60.4533 127.025 60.9538 125.08 60.8668C124.776 60.8523 124.472 60.8177 124.172 60.7633C120.945 60.2224 119.454 57.8971 118.25 55.7579C116.929 53.4258 117.807 50.4999 117.372 48.7298C117.236 47.9999 117.241 47.2508 117.386 46.5228C117.495 45.7966 117.656 45.0791 117.866 44.3756C117.881 44.3085 117.903 44.242 117.918 44.1828C118.021 43.8569 118.088 43.6572 118.088 43.6572C121.359 45.8642 130.22 44.3233 135.81 45.5161C134.717 46.4341 135.485 47.9892 135.042 49.2701C134.598 50.5511 134.178 51.7729 135.071 51.869C135.964 51.9651 136.755 49.9584 137.745 50.0551C137.982 50.0823 138.2 50.202 138.35 50.3884C138.948 51.0323 139.117 52.5356 138.024 54.2022Z" fill="#ECB4B4"/>
<path d="M148.509 86.3273C148.148 86.5201 147.705 86.7124 147.217 86.9126C145.932 82.6767 143.799 73.523 142.993 70.0647C142.004 65.8141 140.781 63.259 135.705 63.7556C138.511 63.2738 142.151 63.0446 143.65 67.4209C145.142 71.7609 146.604 79.6922 147.712 83.9059C147.904 84.7355 148.171 85.5459 148.509 86.3273Z" fill="#28A96B"/>
<path d="M116.716 184.694L118.554 186.774H121.946L122.561 190.555H106.488L116.716 184.694Z" fill="#321F3C"/>
<path d="M157.67 184.694L155.832 186.774H152.439L151.825 190.555H167.898L157.67 184.694Z" fill="#321F3C"/>
<path d="M117.917 75.2109L115.784 89.9178C114.208 89.8206 112.647 89.56 111.124 89.1403C110.897 89.0664 110.667 88.9918 110.452 88.9031C114.564 85.112 117.917 75.2109 117.917 75.2109Z" fill="#28A96B"/>
<path d="M140.527 94.5826C143.136 94.7868 144.147 95.992 144.147 95.992C144.147 95.992 143.883 94.0968 140.527 94.5826Z" fill="#CC7F8E"/>
<path d="M108.037 91.4297C108.917 92.2485 109.53 93.3147 109.795 94.4887C109.795 94.4887 110.301 92.1202 108.037 91.4297Z" fill="#CC7F8E"/>
<path d="M137.431 51.4189C136.976 51.7052 136.633 52.1397 136.459 52.6496C136.285 53.1595 136.291 53.7139 136.477 54.2197C136.411 53.7107 136.463 53.1933 136.628 52.7077C136.794 52.222 137.069 51.781 137.431 51.4189Z" fill="#CC7F8E"/>
<path d="M136.453 53.0731C136.807 52.1392 137.897 52.2046 137.838 52.8456C137.827 53.0229 137.765 53.1931 137.659 53.3357C137.553 53.4782 137.409 53.587 137.243 53.6488C137.243 53.6488 137.64 53.1431 137.479 52.7569C137.317 52.3707 136.292 53.1471 136.477 54.2221" fill="#CC7F8E"/>
<path d="M135.041 49.2697C134.605 50.5433 134.177 51.7725 135.07 51.8686C133.8 52.6314 133.512 51.0689 134.177 49.2993C134.93 47.2846 134.081 46.9365 134.59 45.8928C129.739 46.8626 121.299 46.0554 117.865 44.3746C117.88 44.3075 117.902 44.241 117.917 44.1818C118.02 43.8559 118.087 43.6562 118.087 43.6562C121.358 45.8632 130.219 44.3223 135.809 45.5151C134.716 46.4331 135.484 47.9882 135.041 49.2697Z" fill="#CC7F8E"/>
<path d="M120.982 102.65C120.982 102.65 117.812 96.8356 120.763 93.251" stroke="#333333" stroke-width="1.302" stroke-linecap="round" stroke-linejoin="round"/>
<path d="M59.5244 59.5271C59.5244 59.5271 61.1176 10.2167 91.0356 9.08936C111.089 8.33399 104.346 37.8803 94.0415 26.7876C83.7367 15.6948 121.892 -18.6419 147.943 14.382C173.993 47.406 168.564 86.5872 168.564 86.5872" stroke="#FFD101" stroke-width="1.302" stroke-miterlimit="10" stroke-linecap="round" stroke-dasharray="1.3 6.51"/>
<path d="M61.8013 59.8144C61.8013 60.266 61.6677 60.7074 61.4176 61.0829C61.1674 61.4583 60.8119 61.751 60.3959 61.9238C59.9799 62.0966 59.5221 62.1418 59.0805 62.0537C58.6389 61.9656 58.2332 61.7482 57.9148 61.4289C57.5965 61.1095 57.3796 60.7027 57.2918 60.2598C57.2039 59.8169 57.249 59.3579 57.4213 58.9407C57.5937 58.5235 57.8855 58.1669 58.2598 57.916C58.6342 57.6651 59.0744 57.5313 59.5247 57.5312C59.8236 57.5312 60.1197 57.5903 60.3959 57.705C60.6721 57.8198 60.923 57.988 61.1344 58.2C61.3459 58.412 61.5135 58.6637 61.628 58.9407C61.7424 59.2177 61.8013 59.5146 61.8013 59.8144Z" fill="#FFD101"/>
<path d="M170.84 87.4609C170.84 87.9125 170.707 88.3539 170.457 88.7294C170.206 89.1048 169.851 89.3975 169.435 89.5703C169.019 89.7431 168.561 89.7883 168.12 89.7002C167.678 89.6121 167.272 89.3946 166.954 89.0753C166.636 88.756 166.419 88.3492 166.331 87.9063C166.243 87.4634 166.288 87.0044 166.46 86.5872C166.633 86.17 166.925 85.8134 167.299 85.5625C167.673 85.3116 168.113 85.1777 168.564 85.1777C168.863 85.1777 169.159 85.2368 169.435 85.3515C169.711 85.4663 169.962 85.6344 170.174 85.8465C170.385 86.0585 170.553 86.3102 170.667 86.5872C170.781 86.8642 170.84 87.1611 170.84 87.4609Z" fill="#FFD101"/>
</g>
<defs>
<clipPath id="clip0">
<rect width="253" height="200" fill="white"/>
</clipPath>
</defs>
</svg>
