<svg width="360" height="150" viewBox="0 0 360 150" fill="none" xmlns="http://www.w3.org/2000/svg">
<g clip-path="url(#clip0)">
<rect width="360" height="150" fill="white"/>
<circle cx="11" cy="95" r="82" fill="url(#paint0_linear)"/>
<circle cx="158.5" cy="42.5" r="94.5" fill="url(#paint1_linear)"/>
<path d="M385 43.75C343.026 43.75 309 97.8841 309 164.662V193.75H385V43.75Z" fill="url(#paint2_linear)"/>
<path d="M0 51.5625C35.3462 51.5625 64 105.697 64 172.475V201.562H0V51.5625Z" fill="url(#paint3_linear)" fill-opacity="0.1"/>
<path d="M323.057 -149.99C404.446 -148.452 496.785 -122.018 421.179 30.4326C345.573 182.883 265.045 81.0892 257.663 168.176C250.404 255.071 176.889 269.97 128.105 208.932C124.598 204.607 121.276 200.185 118.016 195.956C75.5067 139.916 2.1532 48.6991 -23.5 114.062C-51.1218 184.52 -90.5316 280.159 -143.991 224.408C-163.123 204.511 -176.104 197.59 -187.423 195.667C-207.478 192.303 -221.874 203.165 -255.032 182.595C-269.858 173.367 -279.455 154.527 -285.545 131.361C-288.498 120.115 -290.344 108.676 -291.328 97.1417C-296.434 34.4698 -272.011 -26.7604 -232.824 -49.5414C-223.535 -54.9243 -213.446 -58.1925 -202.741 -58.7692C-201.449 -58.8653 -200.158 -58.8653 -198.866 -58.8653C-169.214 -58.577 -171.982 16.9754 -151.743 40.8138C-144.176 49.7532 -133.41 51.2912 -116.492 39.1797C-59.2188 -1.86461 -4.65186 -84.7223 43.4556 -84.3378C47.7619 -84.3378 52.0682 -83.5688 56.313 -82.0309C107.127 -63.2869 102.206 49.4649 162.125 37.2573C185.625 32.355 202.788 2.36479 219.891 -31.5665C246.836 -85.3951 272.55 -150.951 323.057 -149.99Z" fill="url(#paint4_linear)"/>
</g>
<defs>
<linearGradient id="paint0_linear" x1="189" y1="55.5" x2="-197.375" y2="115.067" gradientUnits="userSpaceOnUse">
<stop stop-color="#E21F98"/>
<stop offset="0.1189" stop-color="#E42D8D"/>
<stop offset="0.3419" stop-color="#E9516F"/>
<stop offset="0.6451" stop-color="#3B0D80" stop-opacity="0.3"/>
<stop offset="0.9958" stop-color="#26055D" stop-opacity="0"/>
</linearGradient>
<linearGradient id="paint1_linear" x1="435.5" y1="-74.5" x2="-188.057" y2="-12.254" gradientUnits="userSpaceOnUse">
<stop stop-color="#E21F98"/>
<stop offset="0.1189" stop-color="#E42D8D"/>
<stop offset="0.3419" stop-color="#E9516F"/>
</linearGradient>
<linearGradient id="paint2_linear" x1="230.808" y1="81.0594" x2="542.342" y2="125.285" gradientUnits="userSpaceOnUse">
<stop stop-color="#E21F98"/>
<stop offset="0.1189" stop-color="#E42D8D"/>
<stop offset="0.3419" stop-color="#E9516F"/>
<stop offset="0.6451" stop-color="#3B0D80" stop-opacity="0.3"/>
<stop offset="0.9958" stop-color="#26055D" stop-opacity="0"/>
</linearGradient>
<linearGradient id="paint3_linear" x1="129.846" y1="88.8719" x2="-81.2921" y2="94.718" gradientUnits="userSpaceOnUse">
<stop stop-color="#E21F98"/>
<stop offset="0.1189" stop-color="#E42D8D"/>
<stop offset="0.3419" stop-color="#E9516F"/>
<stop offset="0.6451" stop-color="#3B0D80" stop-opacity="0.3"/>
<stop offset="0.9958" stop-color="#26055D" stop-opacity="0"/>
</linearGradient>
<linearGradient id="paint4_linear" x1="612.5" y1="285.156" x2="-400.15" y2="57.5557" gradientUnits="userSpaceOnUse">
<stop stop-color="#E21F98"/>
<stop offset="0.1189" stop-color="#E42D8D"/>
<stop offset="0.3419" stop-color="#E9516F"/>
<stop offset="0.53125" stop-color="#E9516F"/>
<stop offset="0.875" stop-color="#3B0D80" stop-opacity="0.3"/>
<stop offset="0.9958" stop-color="#26055D" stop-opacity="0"/>
</linearGradient>
<clipPath id="clip0">
<rect width="360" height="150" fill="white"/>
</clipPath>
</defs>
</svg>
