<svg width="7" height="13" viewBox="0 0 7 13" fill="none" xmlns="http://www.w3.org/2000/svg">
<path d="M6.77695 6.93655L6.77696 6.93654C6.85569 6.85777 6.89993 6.75096 6.89993 6.6396C6.89993 6.52823 6.85569 6.42142 6.77696 6.34266L6.77695 6.34265L1.01752 0.583225C0.97891 0.543419 0.932793 0.511653 0.881834 0.489762C0.830591 0.467751 0.775479 0.456165 0.719712 0.45568C0.663944 0.455195 0.608639 0.465822 0.557023 0.48694C0.505407 0.508058 0.458513 0.539244 0.419078 0.578679C0.379643 0.618114 0.348456 0.665007 0.327338 0.716624C0.30622 0.768241 0.295594 0.823547 0.296078 0.879313C0.296563 0.935082 0.30815 0.990194 0.330161 1.04143C0.35205 1.09239 0.383812 1.1385 0.423614 1.17712L5.88609 6.6396L0.423044 12.1026L0.423032 12.1027C0.364313 12.1614 0.324327 12.2362 0.308128 12.3177C0.29193 12.3991 0.300248 12.4836 0.332029 12.5603C0.36381 12.637 0.417629 12.7026 0.486681 12.7488C0.55571 12.7949 0.636858 12.8196 0.719883 12.8196C0.719911 12.8196 0.719944 12.8196 0.719972 12.8196L6.77695 6.93655ZM6.77695 6.93655L1.01705 12.6964M6.77695 6.93655L1.01705 12.6964M1.01705 12.6964L1.01695 12.6965L1.01705 12.6964Z" fill="#707585" stroke="#707585" stroke-width="0.2"/>
</svg>
