<svg width="19" height="12" viewBox="0 0 19 12" fill="none" xmlns="http://www.w3.org/2000/svg">
<path d="M0.939735 5.59508H16.7741L11.8569 0.677885C11.7841 0.602444 11.7438 0.501403 11.7447 0.396524C11.7456 0.291646 11.7876 0.19132 11.8618 0.117157C11.936 0.042994 12.0363 0.000926489 12.1412 1.51211e-05C12.2461 -0.000896247 12.3471 0.0394215 12.4225 0.112285L18.0225 5.71228C18.0975 5.7873 18.1396 5.88902 18.1396 5.99508C18.1396 6.10115 18.0975 6.20287 18.0225 6.27788L12.4225 11.8779C12.3471 11.9507 12.2461 11.9911 12.1412 11.9902C12.0363 11.9892 11.936 11.9472 11.8618 11.873C11.7876 11.7988 11.7456 11.6985 11.7447 11.5936C11.7438 11.4888 11.7841 11.3877 11.8569 11.3123L16.7741 6.39508H0.939653C0.833567 6.39508 0.731825 6.35294 0.656811 6.27793C0.581797 6.20291 0.539654 6.10117 0.539654 5.99508C0.539654 5.889 0.581797 5.78726 0.656811 5.71224C0.731825 5.63723 0.833567 5.59508 0.939653 5.59508H0.939735Z" fill="#707585"/>
</svg>
