<svg width="26" height="16" viewBox="0 0 26 16" fill="none" xmlns="http://www.w3.org/2000/svg">
<path d="M25.2323 2.3664e-05H0.615019C0.275784 2.3664e-05 0 0.274653 0 0.615043V15.385C0 15.5477 0.0646183 15.7046 0.18001 15.82C0.295401 15.9354 0.452332 16 0.615043 16H25.2324C25.3951 16 25.552 15.9354 25.6674 15.82C25.7828 15.7046 25.8474 15.5477 25.8474 15.385V0.615043C25.8474 0.452344 25.7828 0.295422 25.6674 0.18001C25.552 0.0645979 25.395 2.3664e-05 25.2323 2.3664e-05ZM24.6173 7.38498H1.23122V3.6925H24.6173V7.38498ZM9.2312 13.5387H3.07746C2.73707 13.5387 2.46129 13.2629 2.46129 12.9237C2.46129 12.5833 2.73707 12.3075 3.07746 12.3075H9.2312C9.57158 12.3075 9.84622 12.5833 9.84622 12.9237C9.84622 13.2629 9.57159 13.5387 9.2312 13.5387ZM12.9237 11.0775H3.07746C2.73707 11.0775 2.46129 10.8017 2.46129 10.4613C2.46129 10.1221 2.73707 9.84627 3.07746 9.84627H12.9237C13.2641 9.84627 13.5387 10.1221 13.5387 10.4613C13.5387 10.8017 13.2641 11.0775 12.9237 11.0775Z" fill="#4E5356"/>
</svg>
