<svg width="16" height="16" viewBox="0 0 16 16" fill="none" xmlns="http://www.w3.org/2000/svg">
<path d="M7.99999 0.433609C6.35007 0.433609 4.99999 1.80049 4.99999 3.46673V4.71673L2.66687 4.71735C2.38375 4.71735 2.16687 4.93423 2.16687 5.21735V13.0505C2.16687 14.4336 3.28375 15.5505 4.66687 15.5505H11.3337C12.7169 15.5505 13.8337 14.4336 13.8337 13.0505V5.21735C13.8337 4.93423 13.6169 4.71735 13.3337 4.71735H11V3.46735C11 1.80047 9.64999 0.433594 7.99999 0.433594V0.433609ZM5.99999 3.46737C5.99999 2.35049 6.89999 1.43425 7.99999 1.43425C9.09999 1.43425 9.99999 2.35113 9.99999 3.46737V4.71737H5.99999V3.46737Z" fill="#4E5356"/>
</svg>
