<svg width="12" height="16" viewBox="0 0 12 16" fill="none" xmlns="http://www.w3.org/2000/svg">
<path d="M5.99999 0.43312C4.35007 0.43312 2.99999 1.8 2.99999 3.46624V4.71624L0.66687 4.71687C0.38375 4.71687 0.16687 4.93374 0.16687 5.21687V13.05C0.16687 14.4331 1.28375 15.55 2.66687 15.55H9.33375C10.7169 15.55 11.8337 14.4331 11.8337 13.05V5.21687C11.8337 4.93374 11.6169 4.71687 11.3337 4.71687H8.99999V3.46687C8.99999 1.79999 7.64999 0.433105 5.99999 0.433105V0.43312ZM3.99999 3.46688C3.99999 2.35 4.89999 1.43376 5.99999 1.43376C7.09999 1.43376 7.99999 2.35064 7.99999 3.46688V4.71688H3.99999V3.46688Z" fill="#4E5356"/>
</svg>
