<svg width="18" height="20" viewBox="0 0 18 20" fill="none" xmlns="http://www.w3.org/2000/svg">
<path d="M17.2204 17.3601L15.9602 6.23966C15.9399 6.03966 15.7806 5.91934 15.5806 5.91934L13.4204 5.92012V4.85996C13.4204 2.43956 11.4204 0.459961 8.99996 0.459961C6.57956 0.459961 4.57956 2.43964 4.57956 4.85996V5.92012H2.42016C2.22016 5.92012 2.06 6.08028 2.04048 6.24044L0.779541 17.36V17.4202C0.779541 18.5999 1.7397 19.56 2.91934 19.56H15.0591C16.2388 19.56 17.1989 18.5998 17.1989 17.4202C17.22 17.4202 17.22 17.3796 17.22 17.36L17.2204 17.3601ZM5.84 4.83966C5.84 3.11934 7.26032 1.69986 9.0002 1.69986C10.7401 1.69986 12.1604 3.12018 12.1604 4.83966V5.89982H5.84V4.83966Z" fill="#FEFEFE"/>
</svg>
