<svg width="9" height="9" viewBox="0 0 9 9" fill="none" xmlns="http://www.w3.org/2000/svg">
<path d="M7.2 0.9H6.75V0.45C6.75 0.2025 6.5475 0 6.3 0C6.0525 0 5.85 0.2025 5.85 0.45V0.9H2.25V0.45C2.25 0.2025 2.0475 0 1.8 0C1.5525 0 1.35 0.2025 1.35 0.45V0.9H0.9C0.4005 0.9 0.0045 1.305 0.0045 1.8L0 8.1C0 8.33869 0.0948211 8.56761 0.263604 8.7364C0.432387 8.90518 0.661305 9 0.9 9H7.2C7.695 9 8.1 8.595 8.1 8.1V1.8C8.1 1.305 7.695 0.9 7.2 0.9ZM7.2 7.65C7.2 7.8975 6.9975 8.1 6.75 8.1H1.35C1.1025 8.1 0.9 7.8975 0.9 7.65V3.15H7.2V7.65ZM1.8 4.05H2.7V4.95H1.8V4.05ZM3.6 4.05H4.5V4.95H3.6V4.05ZM5.4 4.05H6.3V4.95H5.4V4.05Z" fill="#8D968D"/>
</svg>
