<svg width="21" height="14" viewBox="0 0 21 14" fill="none" xmlns="http://www.w3.org/2000/svg">
<path d="M20.5003 2.0706e-05H0.499679C0.224064 2.0706e-05 0 0.240321 0 0.538163V13.4618C0 13.6042 0.0524998 13.7415 0.146251 13.8425C0.240002 13.9435 0.367502 14 0.499698 14H20.5003C20.6325 14 20.76 13.9435 20.8537 13.8425C20.9475 13.7415 21 13.6042 21 13.4618V0.538163C21 0.395801 20.9475 0.258494 20.8537 0.157509C20.76 0.0565232 20.6325 2.0706e-05 20.5003 2.0706e-05ZM20.0006 6.46186H1.00032V3.23094H20.0006V6.46186ZM7.49999 11.8464H2.50032C2.22376 11.8464 1.9997 11.6051 1.9997 11.3082C1.9997 11.0104 2.22376 10.7691 2.50032 10.7691H7.49999C7.77654 10.7691 7.99967 11.0104 7.99967 11.3082C7.99967 11.6051 7.77654 11.8464 7.49999 11.8464ZM10.5 9.69278H2.50032C2.22376 9.69278 1.9997 9.45147 1.9997 9.15363C1.9997 8.8568 2.22376 8.61549 2.50032 8.61549H10.5C10.7765 8.61549 10.9997 8.85679 10.9997 9.15363C10.9997 9.45147 10.7765 9.69278 10.5 9.69278Z" fill="#4E5356"/>
</svg>
