<svg width="96" height="96" viewBox="0 0 96 96" fill="none" xmlns="http://www.w3.org/2000/svg">
<g filter="url(#filter0_d)">
<circle cx="48" cy="53" r="28" fill="#87CAFE"/>
</g>
<path d="M36.5329 41.0025C36.5954 41.0087 36.6592 41.0275 36.7179 41.0612L38.8129 42.2387C38.9367 42.3087 39.0242 42.4299 39.0542 42.5725L40.4242 47.8975H59.5152C59.839 47.8975 60.0727 48.22 59.9802 48.54L56.0241 57.3838C55.9628 57.5951 55.7728 57.7401 55.5591 57.7401C55.5591 57.7401 41.5291 57.7313 41.5192 57.7313V57.7326C40.9254 57.7326 40.4429 58.2301 40.4429 58.8413C40.4429 59.4538 40.9267 59.9513 41.5192 59.9513H53.6167C54.9654 59.9513 56.0642 61.0838 56.0642 62.4763C56.0642 63.8675 54.9667 65 53.6167 65C52.268 65 51.1692 63.8675 51.1692 62.4763C51.1692 61.9013 51.3642 61.3775 51.6792 60.9525H45.5081C45.8231 61.3775 46.0168 61.9013 46.0168 62.4763C46.0168 63.8675 44.9193 65 43.5694 65C42.2194 65 41.1219 63.8675 41.1219 62.4763C41.1219 61.9013 41.3169 61.3775 41.6319 60.9525H41.5194C40.3907 60.9525 39.4732 60.0063 39.4732 58.8425C39.4732 57.85 40.1419 57.0226 41.0382 56.7976L38.1532 43.0076L36.2532 41.9388C36.0182 41.8063 35.9307 41.5026 36.0594 41.2601C36.1557 41.0789 36.3457 40.9826 36.5332 41.0026L36.5329 41.0025Z" fill="white"/>
<defs>
<filter id="filter0_d" x="0" y="0" width="96" height="96" filterUnits="userSpaceOnUse" color-interpolation-filters="sRGB">
<feFlood flood-opacity="0" result="BackgroundImageFix"/>
<feColorMatrix in="SourceAlpha" type="matrix" values="0 0 0 0 0 0 0 0 0 0 0 0 0 0 0 0 0 0 127 0"/>
<feOffset dy="-5"/>
<feGaussianBlur stdDeviation="10"/>
<feColorMatrix type="matrix" values="0 0 0 0 0.529412 0 0 0 0 0.792157 0 0 0 0 0.996078 0 0 0 0.16 0"/>
<feBlend mode="normal" in2="BackgroundImageFix" result="effect1_dropShadow"/>
<feBlend mode="normal" in="SourceGraphic" in2="effect1_dropShadow" result="shape"/>
</filter>
</defs>
</svg>
