<svg width="24" height="24" viewBox="0 0 24 24" fill="none" xmlns="http://www.w3.org/2000/svg">
<path d="M0.532942 0.00245317C0.59544 0.00870337 0.659191 0.0274533 0.717942 0.0612015L2.81294 1.2387C2.93669 1.3087 3.02419 1.42995 3.05419 1.57245L4.42416 6.89754H23.5152C23.839 6.89754 24.0727 7.22003 23.9802 7.54003L20.0241 16.3838C19.9628 16.5951 19.7728 16.7401 19.5591 16.7401C19.5591 16.7401 5.52911 16.7313 5.51919 16.7313V16.7326C4.92544 16.7326 4.44294 17.2301 4.44294 17.8413C4.44294 18.4538 4.92668 18.9513 5.51919 18.9513H17.6167C18.9654 18.9513 20.0642 20.0838 20.0642 21.4763C20.0642 22.8675 18.9667 24 17.6167 24C16.268 24 15.1692 22.8675 15.1692 21.4763C15.1692 20.9013 15.3642 20.3775 15.6792 19.9525H9.50809C9.82309 20.3775 10.0168 20.9013 10.0168 21.4763C10.0168 22.8675 8.91933 24 7.56935 24C6.21938 24 5.12188 22.8675 5.12188 21.4763C5.12188 20.9013 5.31688 20.3775 5.6319 19.9525H5.5194C4.39067 19.9525 3.47317 19.0063 3.47317 17.8425C3.47317 16.85 4.1419 16.0226 5.03815 15.7976L2.15318 2.00758L0.253193 0.938847C0.0181965 0.806349 -0.0693004 0.502594 0.0594443 0.2601C0.155693 0.0788501 0.345692 -0.017399 0.533201 0.00260088L0.532942 0.00245317Z" fill="white"/>
</svg>
