<svg width="27" height="18" viewBox="0 0 27 18" fill="none" xmlns="http://www.w3.org/2000/svg">
<path d="M26.0104 1.22016C21.6077 -0.877726 17.2588 0.156743 13.0506 1.16223C8.9416 2.13875 5.05615 3.0615 1.18341 1.22016C0.927899 1.09809 0.626861 1.11568 0.386881 1.26671C0.146887 1.41774 0.00103714 1.68152 4.33594e-06 1.96496V16.0336C-0.00103011 16.3532 0.183104 16.6449 0.471703 16.7825C2.22201 17.607 4.13576 18.0228 6.07028 17.999C8.55297 17.999 11.0357 17.4114 13.4315 16.8404C17.5405 15.8598 21.4259 14.937 25.2986 16.7825C25.5552 16.9046 25.8573 16.887 26.0972 16.7349C26.3372 16.5829 26.4831 16.318 26.482 16.0336V1.96498C26.481 1.64637 26.2979 1.3567 26.0104 1.22016Z" fill="#4E5356"/>
<path d="M12.4228 9.4843H11.6113V11.2939H10.5928V6.35059H12.4295C13.0135 6.35059 13.4639 6.48073 13.7808 6.74103C14.0977 7.00132 14.2561 7.36913 14.2561 7.84445C14.2561 8.1817 14.1826 8.46349 14.0354 8.68984C13.8906 8.91391 13.6699 9.09273 13.3734 9.22627L14.4429 11.2464V11.2939H13.3496L12.4228 9.4843ZM11.6113 8.65928H12.4329C12.6887 8.65928 12.8868 8.59477 13.0271 8.46576C13.1674 8.33448 13.2376 8.15454 13.2376 7.92593C13.2376 7.6928 13.1708 7.50946 13.0373 7.37592C12.906 7.24238 12.7034 7.1756 12.4295 7.1756H11.6113V8.65928Z" fill="white"/>
<path d="M18.3532 9.49109C18.3532 10.0569 18.2242 10.5108 17.9662 10.8525C17.7104 11.1921 17.3641 11.3618 16.9273 11.3618C16.5561 11.3618 16.2562 11.2328 16.0276 10.9748V12.7063H15.0464V7.62037H15.9563L15.9902 7.98025C16.2279 7.69506 16.538 7.55246 16.9205 7.55246C17.3732 7.55246 17.7251 7.71996 17.9764 8.05494C18.2276 8.38993 18.3532 8.85167 18.3532 9.44016V9.49109ZM17.372 9.41979C17.372 9.07801 17.3109 8.81432 17.1887 8.62872C17.0687 8.44312 16.8933 8.35032 16.6624 8.35032C16.3546 8.35032 16.143 8.46802 16.0276 8.70342V10.2075C16.1475 10.4496 16.3614 10.5707 16.6692 10.5707C17.1378 10.5707 17.372 10.1871 17.372 9.41979Z" fill="white"/>
</svg>
