<svg width="17" height="12" viewBox="0 0 17 12" fill="none" xmlns="http://www.w3.org/2000/svg">
<path d="M5.22144 1.44688L5.90772 0.7625C6.19916 0.471875 6.67548 0.46875 6.97005 0.759375L11.7301 5.46875C12.0278 5.7625 12.0278 6.24063 11.7301 6.53438L6.97005 11.2406C6.67548 11.5312 6.20229 11.5312 5.90772 11.2375L5.22144 10.5531C4.91747 10.25 4.93001 9.75937 5.24651 9.46875L7.67827 7.24687H1.67409C1.2573 7.24687 0.921997 6.9125 0.921997 6.49687V5.49687C0.921997 5.08125 1.2573 4.74687 1.67409 4.74687H7.67513L5.24338 2.525C4.93001 2.24063 4.91747 1.74688 5.22144 1.44688ZM16.9666 9V3C16.9666 1.34375 15.6191 0 13.9582 0H11.3259C11.1191 0 10.9499 0.16875 10.9499 0.375V1.625C10.9499 1.83125 11.1191 2 11.3259 2H13.9582C14.5129 2 14.961 2.44688 14.961 3V9C14.961 9.55313 14.5129 10 13.9582 10H11.3259C11.1191 10 10.9499 10.1687 10.9499 10.375V11.625C10.9499 11.8313 11.1191 12 11.3259 12H13.9582C15.6191 12 16.9666 10.6562 16.9666 9Z" fill="#2F9CF1"/>
</svg>
