<svg width="27" height="18" viewBox="0 0 27 18" fill="none" xmlns="http://www.w3.org/2000/svg">
<path d="M26.0104 1.22016C21.6077 -0.877726 17.2588 0.156743 13.0506 1.16223C8.9416 2.13875 5.05615 3.0615 1.18341 1.22016C0.927899 1.09809 0.626861 1.11568 0.386881 1.26671C0.146887 1.41774 0.00103714 1.68152 4.33594e-06 1.96496V16.0336C-0.00103011 16.3532 0.183104 16.6449 0.471703 16.7825C2.22201 17.607 4.13576 18.0228 6.07028 17.999C8.55297 17.999 11.0357 17.4114 13.4315 16.8404C17.5405 15.8598 21.4259 14.937 25.2986 16.7825C25.5552 16.9046 25.8573 16.887 26.0972 16.7349C26.3372 16.5829 26.4831 16.318 26.482 16.0336V1.96498C26.481 1.64637 26.2979 1.3567 26.0104 1.22016Z" fill="#4E5356"/>
<path d="M12.4228 9.48479H11.6113V11.2944H10.5928V6.35107H12.4295C13.0135 6.35107 13.4639 6.48122 13.7808 6.74152C14.0977 7.00181 14.2561 7.36962 14.2561 7.84493C14.2561 8.18218 14.1826 8.46398 14.0354 8.69032C13.8906 8.9144 13.6699 9.09321 13.3734 9.22676L14.4429 11.2469V11.2944H13.3496L12.4228 9.48479ZM11.6113 8.65977H12.4329C12.6887 8.65977 12.8868 8.59526 13.0271 8.46624C13.1674 8.33497 13.2376 8.15502 13.2376 7.92642C13.2376 7.69329 13.1708 7.50995 13.0373 7.37641C12.906 7.24286 12.7034 7.17609 12.4295 7.17609H11.6113V8.65977Z" fill="white"/>
<path d="M18.3532 9.49158C18.3532 10.0574 18.2242 10.5112 17.9662 10.853C17.7104 11.1925 17.3641 11.3623 16.9273 11.3623C16.5561 11.3623 16.2562 11.2333 16.0276 10.9753V12.7068H15.0464V7.62086H15.9563L15.9902 7.98074C16.2279 7.69555 16.538 7.55295 16.9205 7.55295C17.3732 7.55295 17.7251 7.72045 17.9764 8.05543C18.2276 8.39042 18.3532 8.85216 18.3532 9.44065V9.49158ZM17.372 9.42028C17.372 9.0785 17.3109 8.81481 17.1887 8.62921C17.0687 8.44361 16.8933 8.35081 16.6624 8.35081C16.3546 8.35081 16.143 8.46851 16.0276 8.7039V10.208C16.1475 10.4501 16.3614 10.5712 16.6692 10.5712C17.1378 10.5712 17.372 10.1876 17.372 9.42028Z" fill="white"/>
</svg>
