<svg width="18" height="18" viewBox="0 0 18 18" fill="none" xmlns="http://www.w3.org/2000/svg">
<path d="M9.71997 13.1774L15.7687 7.12868L15.7687 7.12865C15.854 7.04337 15.9627 6.9853 16.081 6.96177C16.1993 6.93824 16.3219 6.95032 16.4334 6.99648C16.5448 7.04264 16.6401 7.12081 16.7071 7.2211C16.7741 7.32132 16.8099 7.43915 16.81 7.5597C16.81 7.55977 16.81 7.55985 16.81 7.55993L16.56 7.55998C16.56 7.60726 16.5507 7.65409 16.5326 7.69776L16.7636 7.79348C16.7329 7.86747 16.688 7.93469 16.6313 7.99128L9.71997 13.1774ZM9.71997 13.1774L3.67259 7.13C3.61667 7.07257 3.54997 7.02672 3.47631 6.99508L3.37764 7.22478L3.47631 6.99508C3.40189 6.96311 3.32185 6.94628 3.24085 6.94558C3.15985 6.94487 3.07953 6.96031 3.00456 6.99098C2.9296 7.02165 2.86149 7.06695 2.80421 7.12422C2.74694 7.18149 2.70165 7.2496 2.67097 7.32457C2.6403 7.39954 2.62487 7.47986 2.62557 7.56086C2.62628 7.64185 2.6431 7.72189 2.67507 7.79632C2.70672 7.86998 2.75257 7.93668 2.81 7.9926L9.28868 14.4713L9.2887 14.4713C9.4031 14.5857 9.55822 14.6499 9.71997 14.6499C9.88172 14.6499 10.0369 14.5857 10.1512 14.4713L10.1513 14.4713L16.631 7.99154L9.71997 13.1774Z" fill="#4E5356" stroke="#4E5356" stroke-width="0.5"/>
</svg>
