<svg width="24" height="24" viewBox="0 0 24 24" fill="none" xmlns="http://www.w3.org/2000/svg">
<g clip-path="url(#clip0_4704:2207)">
<path d="M24 4H0V20.0002H24V4Z" fill="#F0F0F0"/>
<path d="M13.5 4H10.5V10.5H0V13.5H10.5V19.9999H13.5V13.5H24V10.5H13.5V4Z" fill="#D80027"/>
<path d="M18.459 14.7822L24.0003 17.8608V14.7822H18.459Z" fill="#0052B4"/>
<path d="M14.6094 14.7822L24.0007 19.9996V18.5243L17.2651 14.7822H14.6094Z" fill="#0052B4"/>
<path d="M21.4992 19.9999L14.6094 16.1719V19.9999H21.4992Z" fill="#0052B4"/>
<path d="M14.6094 14.7822L24.0007 19.9996V18.5243L17.2651 14.7822H14.6094Z" fill="#F0F0F0"/>
<path d="M14.6094 14.7822L24.0007 19.9996V18.5243L17.2651 14.7822H14.6094Z" fill="#D80027"/>
<path d="M4.23473 14.7812L0 17.1339V14.7812H4.23473Z" fill="#0052B4"/>
<path d="M9.39174 15.4443V19.9983H1.19531L9.39174 15.4443Z" fill="#0052B4"/>
<path d="M6.73561 14.7822L0 18.5243V19.9996L9.39131 14.7822H6.73561Z" fill="#D80027"/>
<path d="M5.54133 9.21723L0 6.13867V9.21723H5.54133Z" fill="#0052B4"/>
<path d="M9.39131 9.21737L0 4V5.47534L6.73561 9.21737H9.39131Z" fill="#0052B4"/>
<path d="M2.50195 4L9.39174 7.828V4H2.50195Z" fill="#0052B4"/>
<path d="M9.39131 9.21737L0 4V5.47534L6.73561 9.21737H9.39131Z" fill="#F0F0F0"/>
<path d="M9.39131 9.21737L0 4V5.47534L6.73561 9.21737H9.39131Z" fill="#D80027"/>
<path d="M19.7656 9.21691L24.0004 6.86426V9.21691H19.7656Z" fill="#0052B4"/>
<path d="M14.6094 8.55394V4H22.8058L14.6094 8.55394Z" fill="#0052B4"/>
<path d="M17.2651 9.21737L24.0007 5.47534V4L14.6094 9.21737H17.2651Z" fill="#D80027"/>
</g>
<defs>
<clipPath id="clip0_4704:2207">
<rect width="24" height="24" fill="white"/>
</clipPath>
</defs>
</svg>
