<svg width="227" height="145" viewBox="0 0 227 145" fill="none" xmlns="http://www.w3.org/2000/svg">
<path d="M173.797 143.36C170.89 140.737 169.125 136.592 169.588 132.557C170.051 128.522 172.918 124.813 176.638 123.956C180.357 123.099 184.597 125.471 185.726 129.353C186.348 121.869 187.065 114.071 190.789 107.698C194.161 101.927 200.002 97.7974 206.331 97.0587C212.661 96.32 219.326 99.1101 223.274 104.448C227.221 109.786 228.188 117.546 225.423 123.675C223.386 128.189 219.634 131.549 215.702 134.282C202.997 143.041 187.76 146.602 172.793 144.312L173.797 143.36Z" fill="#F2F2F2"/>
<path d="M217.014 99.2648C211.791 103.81 206.999 108.894 202.709 114.442C195.993 123.095 190.56 132.797 186.596 143.209C186.306 143.969 187.461 144.3 187.747 143.548C194.232 126.626 204.585 111.711 217.858 100.167C218.454 99.6482 217.605 98.7505 217.014 99.2648Z" fill="white"/>
<path d="M73.075 142.647C77.0667 139.044 79.4912 133.351 78.8554 127.809C78.2196 122.267 74.2813 117.172 69.1728 115.995C64.0643 114.818 58.2409 118.076 56.6893 123.408C55.8354 113.129 54.8513 102.419 49.7362 93.6648C45.1046 85.7384 37.0825 80.0668 28.3884 79.0522C19.6942 78.0375 10.5404 81.8697 5.11821 89.2014C-0.303996 96.5331 -1.6316 107.192 2.16597 115.609C4.96351 121.81 10.1176 126.425 15.5177 130.179C32.7461 142.157 54.1179 147.152 74.4535 143.954" fill="#F2F2F2"/>
<path d="M13.7156 82.0822C20.8894 88.3251 27.4705 95.3073 33.3639 102.928C39.2582 110.54 44.4475 118.746 48.8589 127.429C51.3246 132.3 53.5397 137.311 55.4942 142.44C55.8927 143.483 54.307 143.938 53.9129 142.906C50.4511 133.864 46.1681 125.206 41.1255 117.056C36.1074 108.936 30.3638 101.355 23.9756 94.4203C20.3624 90.4997 16.5501 86.7944 12.5561 83.3211C11.7375 82.6088 12.9037 81.3758 13.7156 82.0822L13.7156 82.0822Z" fill="white"/>
<path d="M145 145H68V40.3709C68 18.1103 81.6748 0 98.4835 0H114.516C131.325 0 145 18.1103 145 40.3709V145Z" fill="#F2F2F2"/>
<path d="M143.115 144.683H67.7091V40.2826C67.6883 31.7715 70.2108 23.4755 74.9094 16.6025C75.0826 16.3502 75.2553 16.1013 75.4335 15.855C77.7062 12.6704 80.4107 9.86566 83.4579 7.53353C83.63 7.39971 83.8028 7.26823 83.9782 7.13674C86.5279 5.25152 89.2861 3.71039 92.1899 2.54843C92.3623 2.4786 92.5379 2.40864 92.7134 2.34153C95.3396 1.3402 98.062 0.654294 100.83 0.296477C101.002 0.27143 101.178 0.25183 101.354 0.232229C104.052 -0.0759449 106.773 -0.0759449 109.47 0.232229C109.646 0.25183 109.822 0.271427 109.996 0.296745C112.763 0.654586 115.485 1.34041 118.11 2.34154C118.286 2.40865 118.462 2.47861 118.635 2.54858C121.503 3.69588 124.228 5.21401 126.751 7.06909C126.926 7.19772 127.102 7.32922 127.274 7.46071C128.982 8.76334 130.587 10.2145 132.071 11.7995C133.261 13.0708 134.37 14.426 135.391 15.8559C135.569 16.1013 135.741 16.3502 135.914 16.6021C140.613 23.4751 143.136 31.7713 143.115 40.2826V144.683Z" fill="#CCCCCC"/>
<path d="M136.982 97.9883C139.288 97.9883 141.157 95.9914 141.157 93.528C141.157 91.0646 139.288 89.0676 136.982 89.0676C134.677 89.0676 132.808 91.0646 132.808 93.528C132.808 95.9914 134.677 97.9883 136.982 97.9883Z" fill="#ED2939"/>
<path d="M155.143 141.556H151.944L150.422 128.373L155.143 128.373L155.143 141.556Z" fill="#FFB8B8"/>
<path d="M149.659 140.579H155.828V144.729H145.774C145.774 144.184 145.875 143.644 146.07 143.141C146.265 142.637 146.551 142.18 146.912 141.795C147.273 141.409 147.701 141.103 148.172 140.895C148.644 140.686 149.149 140.579 149.659 140.579Z" fill="#2F2E41"/>
<path d="M171.059 141.556H167.86L166.338 128.373L171.059 128.373L171.059 141.556Z" fill="#FFB8B8"/>
<path d="M165.575 140.579H171.744V144.729H161.69C161.69 144.184 161.791 143.644 161.986 143.141C162.181 142.637 162.467 142.18 162.828 141.795C163.189 141.409 163.617 141.103 164.088 140.895C164.56 140.686 165.065 140.579 165.575 140.579Z" fill="#2F2E41"/>
<path d="M139.096 94.4115C138.866 94.0493 138.713 93.6375 138.648 93.2052C138.583 92.773 138.607 92.3307 138.719 91.9097C138.832 91.4886 139.029 91.0989 139.297 90.7681C139.566 90.4373 139.899 90.1733 140.273 89.9949L151.147 57.9733L156.498 61.0932L144.082 91.6942C144.321 92.3857 144.314 93.1468 144.063 93.8333C143.811 94.5198 143.333 95.084 142.719 95.4189C142.104 95.7539 141.396 95.8363 140.728 95.6506C140.061 95.465 139.48 95.0241 139.096 94.4115Z" fill="#FFB8B8"/>
<path d="M169.424 100.429C169.069 100.211 168.762 99.9124 168.526 99.5544C168.291 99.1964 168.131 98.7875 168.059 98.3565C167.987 97.9255 168.004 97.4828 168.11 97.0598C168.215 96.6367 168.406 96.2435 168.669 95.9078L165.301 62.0344L171.39 62.3316L172.79 95.6506C173.289 96.1602 173.595 96.8474 173.651 97.5821C173.707 98.3168 173.508 99.0479 173.093 99.6368C172.679 100.226 172.076 100.632 171.4 100.778C170.723 100.924 170.021 100.799 169.424 100.429Z" fill="#FFB8B8"/>
<path d="M159.71 52.0421C163.249 52.0421 166.119 48.9766 166.119 45.1952C166.119 41.4137 163.249 38.3483 159.71 38.3483C156.171 38.3483 153.302 41.4137 153.302 45.1952C153.302 48.9766 156.171 52.0421 159.71 52.0421Z" fill="#FFB8B8"/>
<path d="M169.384 92.7248H150.063L150.087 92.5641C150.121 92.324 153.53 68.4674 151.016 60.6626C150.764 59.8956 150.786 59.056 151.078 58.3055C151.371 57.5549 151.913 56.9464 152.6 56.5971H152.6C156.193 54.7892 163.091 52.563 168.912 57.9657C169.769 58.7738 170.438 59.7838 170.866 60.9157C171.295 62.0477 171.471 63.2706 171.381 64.4878L169.384 92.7248Z" fill="#ED2939"/>
<path d="M153.774 71.993L145.076 70.1076L149.153 59.7847C149.397 58.7849 150.003 57.9293 150.836 57.4056C151.67 56.8819 152.664 56.7328 153.6 56.9911C154.537 57.2493 155.339 57.8939 155.831 58.7833C156.323 59.6727 156.465 60.7344 156.226 61.7355L153.774 71.993Z" fill="#ED2939"/>
<path d="M164.914 75.4937L164.391 62.6865C163.994 60.279 165.284 58.003 167.268 57.631C169.253 57.2604 171.19 58.9302 171.589 61.3554L173.554 73.3224L164.914 75.4937Z" fill="#ED2939"/>
<path d="M168.741 91.1915C171.849 103.841 172.189 119.924 171.35 137.468L167.175 136.91L159.609 103.457L155.434 137.468L150.737 137.189C149.334 118.782 147.968 102.979 150.215 92.5853L168.741 91.1915Z" fill="#2F2E41"/>
<path d="M163.933 50.4867C162.738 51.8474 160.517 51.1169 160.362 49.2581C160.349 49.1138 160.35 48.9686 160.364 48.8245C160.445 48.0011 160.89 47.2536 160.783 46.3842C160.759 46.1678 160.684 45.9616 160.564 45.7851C159.611 44.4221 157.375 46.3948 156.476 45.1609C155.925 44.4043 156.573 43.2131 156.15 42.3675C155.591 41.2514 153.937 41.8019 152.9 41.1907C151.746 40.5107 151.815 38.619 152.575 37.4684C153.501 36.0651 155.125 35.3164 156.729 35.2085C158.334 35.1006 159.927 35.5638 161.424 36.1874C163.126 36.8958 164.813 37.8749 165.86 39.4734C167.133 41.4173 167.256 44.0307 166.619 46.3038C166.232 47.6865 164.909 49.3756 163.933 50.4867Z" fill="#2F2E41"/>
<path d="M219.168 144.862H26.5324C26.4502 144.862 26.3714 144.827 26.3133 144.764C26.2553 144.702 26.2227 144.618 26.2227 144.53C26.2227 144.442 26.2553 144.358 26.3133 144.296C26.3714 144.233 26.4502 144.198 26.5324 144.198H219.168C219.25 144.198 219.329 144.233 219.387 144.296C219.445 144.358 219.478 144.442 219.478 144.53C219.478 144.618 219.445 144.702 219.387 144.764C219.329 144.827 219.25 144.862 219.168 144.862Z" fill="#3F3D56"/>
<path d="M122.371 114.436H88.4518C88.0051 114.438 87.5757 114.252 87.2578 113.916C86.9398 113.581 86.7593 113.125 86.7559 112.647V31.7564C86.7593 31.2791 86.9398 30.8228 87.2578 30.4875C87.5757 30.1523 88.0051 29.9654 88.4518 29.968H122.371C122.818 29.9654 123.248 30.1523 123.565 30.4875C123.883 30.8228 124.064 31.2791 124.067 31.7564V112.647C124.064 113.125 123.883 113.581 123.565 113.916C123.248 114.252 122.818 114.438 122.371 114.436Z" fill="white"/>
<path d="M124.067 56.1418H86.7559V56.6993H124.067V56.1418Z" fill="#CCCCCC"/>
<path d="M124.197 87.9525H86.8857V88.5101H124.197V87.9525Z" fill="#CCCCCC"/>
<path d="M99.0189 29.968H98.4971V114.715H99.0189V29.968Z" fill="#CCCCCC"/>
<path d="M112.065 29.968H111.543V114.715H112.065V29.968Z" fill="#CCCCCC"/>
</svg>
