<svg width="14" height="14" viewBox="0 0 14 14" fill="none" xmlns="http://www.w3.org/2000/svg">
<path d="M13.7075 0.292534C13.5201 0.105225 13.266 0 13.0011 0C12.7361 0 12.4821 0.105225 12.2947 0.292534L7.00625 5.58097L1.71781 0.292534C1.52937 0.110533 1.27698 0.00982572 1.01501 0.0121022C0.753042 0.0143786 0.502445 0.119457 0.317197 0.304705C0.131948 0.489953 0.0268701 0.74055 0.0245937 1.00252C0.0223172 1.26449 0.123025 1.51688 0.305026 1.70532L5.59346 6.99375L0.305026 12.2822C0.209598 12.3744 0.133481 12.4846 0.0811169 12.6065C0.0287531 12.7284 0.00119055 12.8595 3.77232e-05 12.9922C-0.0011151 13.1248 0.0241655 13.2564 0.0744031 13.3792C0.124641 13.502 0.19883 13.6135 0.292642 13.7074C0.386453 13.8012 0.498009 13.8754 0.620799 13.9256C0.74359 13.9758 0.875155 14.0011 1.00782 14C1.14049 13.9988 1.27159 13.9712 1.39349 13.9189C1.51539 13.8665 1.62564 13.7904 1.71781 13.695L7.00625 8.40654L12.2947 13.695C12.4831 13.877 12.7355 13.9777 12.9975 13.9754C13.2594 13.9731 13.51 13.8681 13.6953 13.6828C13.8805 13.4976 13.9856 13.247 13.9879 12.985C13.9902 12.723 13.8895 12.4706 13.7075 12.2822L8.41903 6.99375L13.7075 1.70532C13.8948 1.51795 14 1.26386 14 0.998925C14 0.733989 13.8948 0.4799 13.7075 0.292534Z" fill="#9FA3A6"/>
</svg>
