<svg width="38" height="38" viewBox="0 0 38 38" fill="none" xmlns="http://www.w3.org/2000/svg">
<rect width="38" height="38" rx="2" fill="white"/>
<path d="M28.5327 19.1873C28.5327 18.3679 28.4662 17.77 28.3223 17.1499H18.9656V20.8482H24.4578C24.3471 21.7673 23.7491 23.1514 22.4204 24.0815L22.4017 24.2053L25.3601 26.4972L25.5651 26.5176C27.4475 24.7791 28.5327 22.2213 28.5327 19.1873Z" fill="#4285F4"/>
<path d="M18.9657 28.9312C21.6563 28.9312 23.9152 28.0453 25.5651 26.5173L22.4204 24.0812C21.5789 24.6681 20.4494 25.0777 18.9657 25.0777C16.3303 25.0777 14.0936 23.3393 13.2963 20.9365L13.1794 20.9464L10.1032 23.3271L10.063 23.439C11.7018 26.6944 15.068 28.9312 18.9657 28.9312Z" fill="#34A853"/>
<path d="M13.2963 20.9368C13.0859 20.3167 12.9641 19.6523 12.9641 18.9658C12.9641 18.2793 13.0859 17.6149 13.2852 16.9948L13.2796 16.8628L10.1649 14.4438L10.063 14.4923C9.38756 15.8432 9 17.3603 9 18.9658C9 20.5714 9.38756 22.0884 10.063 23.4393L13.2963 20.9368Z" fill="#FBBC05"/>
<path d="M18.9657 12.8534C20.837 12.8534 22.0992 13.6617 22.819 14.3372L25.6315 11.5911C23.9042 9.9855 21.6563 9 18.9657 9C15.068 9 11.7018 11.2367 10.063 14.4921L13.2852 16.9947C14.0936 14.5918 16.3303 12.8534 18.9657 12.8534Z" fill="#EB4335"/>
</svg>
