<svg width="19" height="20" viewBox="0 0 19 20" fill="none" xmlns="http://www.w3.org/2000/svg">
<path d="M10.8559 8.59375C10.8559 8.16227 10.5061 7.8125 10.0746 7.8125H3.90192C3.47043 7.8125 3.12067 8.16227 3.12067 8.59375C3.12067 9.02523 3.47043 9.375 3.90192 9.375H10.0746C10.5061 9.375 10.8559 9.02523 10.8559 8.59375Z" fill="#333333"/>
<path d="M3.90192 10.9375C3.47043 10.9375 3.12067 11.2873 3.12067 11.7188C3.12067 12.1502 3.47043 12.5 3.90192 12.5H6.91211C7.3436 12.5 7.69336 12.1502 7.69336 11.7188C7.69336 11.2873 7.3436 10.9375 6.91211 10.9375H3.90192Z" fill="#333333"/>
<g clip-path="url(#clip0)">
<path d="M13.4152 10.0781C10.9406 10.0781 8.89253 11.9159 8.54952 14.2969H7.0871L9.19648 16.4062L11.3059 14.2969H9.97067C10.2974 12.6942 11.7176 11.4844 13.4152 11.4844C15.3536 11.4844 16.9308 13.0616 16.9308 15C16.9308 16.9384 15.3536 18.5156 13.4152 18.5156C12.2874 18.5156 11.22 17.9684 10.5601 17.0524L9.41894 17.8736C10.3425 19.1563 11.8363 19.9219 13.4152 19.9219C16.1292 19.9219 18.3371 17.7136 18.3371 15C18.3371 12.2864 16.1292 10.0781 13.4152 10.0781Z" fill="#333333"/>
<path d="M12.7121 12.8906V15.7498L14.8112 17.0091L15.5349 15.8034L14.1183 14.9533V12.8906L12.7121 12.8906Z" fill="#333333"/>
</g>
<path d="M7.61211 18.4375H3.125C2.26344 18.4375 1.5625 17.7366 1.5625 16.875V3.125C1.5625 2.26344 2.26344 1.5625 3.125 1.5625H12.73C13.5916 1.5625 14.2925 2.26344 14.2925 3.125V7.30625C14.2925 7.73773 14.6423 8.0875 15.0738 8.0875C15.5053 8.0875 15.855 7.73773 15.855 7.30625C15.855 6.87477 15.855 3.125 15.855 3.125C15.855 1.40188 14.4532 0 12.73 0H3.125C1.40187 0 0 1.40188 0 3.125V16.875C0 18.5981 1.40187 20 3.125 20H7.61211C8.0436 20 8.39336 19.6502 8.39336 19.2188C8.39336 18.7873 8.0436 18.4375 7.61211 18.4375Z" fill="#333333"/>
<path d="M11.9488 4.6875H3.90192C3.47043 4.6875 3.12067 5.03727 3.12067 5.46875C3.12067 5.90023 3.47043 6.25 3.90192 6.25H11.9488C12.3803 6.25 12.73 5.90023 12.73 5.46875C12.73 5.03727 12.3803 4.6875 11.9488 4.6875Z" fill="#333333"/>
<defs>
<clipPath id="clip0">
<rect width="11.25" height="11.25" fill="white" transform="translate(7.0871 8.75)"/>
</clipPath>
</defs>
</svg>
