<svg width="20" height="18" viewBox="0 0 20 18" fill="none" xmlns="http://www.w3.org/2000/svg">
<path d="M17.8722 9.09552L10.3122 3.12C10.12 2.97563 9.87997 2.97563 9.68778 3.12L2.12777 9.09552C1.95996 9.23989 1.83997 9.45552 1.83997 9.67207V17.3043C1.83997 17.6165 2.10435 17.8799 2.41558 17.8799H7.52782C7.69563 17.8799 7.86344 17.7356 7.86344 17.5443L7.86438 11.7356C7.86438 11.4234 8.12876 11.16 8.43999 11.16H11.6322C11.9444 11.16 12.2078 11.4244 12.2078 11.7356V17.5678C12.2078 17.7356 12.3522 17.9035 12.5435 17.9035H17.6557C17.9679 17.9035 18.2313 17.6391 18.2313 17.3278L18.2323 9.67231C18.1601 9.45575 18.0644 9.24012 17.8723 9.09576L17.8722 9.09552Z" fill="#87CAFE"/>
<path d="M19.6244 7.63226L16.48 5.16002V0.504501C16.48 0.288876 16.3121 0.120117 16.0956 0.120117H14.7034C14.4878 0.120117 14.319 0.28793 14.319 0.504501V3.36002L10.5522 0.432261C10.24 0.192261 9.80781 0.192261 9.49658 0.432261C7.72096 1.84788 1.84106 6.45674 0.37658 7.60778C0.064388 7.84778 -0.0556122 8.3034 0.112196 8.6634C0.352196 9.1434 0.97658 9.2634 1.38439 8.95121L9.66439 2.42345C9.85658 2.27907 10.12 2.27907 10.3122 2.42345L18.5922 8.95121C18.7366 9.07121 18.9278 9.14339 19.12 9.14339C19.36 9.14339 19.6 9.02339 19.7678 8.8312C20.0556 8.44775 19.9844 7.91995 19.6244 7.63214L19.6244 7.63226Z" fill="#87CAFE"/>
</svg>
