<svg width="14" height="14" viewBox="0 0 14 14" fill="none" xmlns="http://www.w3.org/2000/svg">
<path d="M13.3743 6.84686C13.6112 6.58623 13.5881 6.18623 13.3231 5.95436L7.47877 0.8406C7.21378 0.608728 6.78814 0.61372 6.52877 0.85185L0.664447 6.22753C0.404447 6.46566 0.392575 6.86441 0.636322 7.11815L0.783197 7.27065C1.02694 7.5244 1.42133 7.55502 1.6632 7.33815L2.10133 6.94566V12.6913C2.10133 13.0438 2.38696 13.3288 2.73945 13.3288H5.02505C5.37692 13.3288 5.66256 13.0438 5.66256 12.6913V8.67126H8.57824V12.6913C8.57324 13.0431 8.82512 13.3288 9.17761 13.3288H11.6002C11.9527 13.3288 12.2383 13.0431 12.2383 12.6906V7.02631C12.2383 7.02631 12.3589 7.13194 12.5083 7.26382C12.6577 7.39444 12.9702 7.28944 13.2077 7.02881L13.3743 6.84686Z" fill="#4E5356"/>
</svg>
