<svg width="22" height="21" viewBox="0 0 22 21" fill="none" xmlns="http://www.w3.org/2000/svg">
<path d="M20.6985 8.88995L11.2531 0.28336C10.8386 -0.094467 10.2134 -0.0944258 9.79895 0.283319L0.353528 8.88999C0.0214239 9.19261 -0.088277 9.65888 0.0739718 10.0778C0.236262 10.4968 0.631399 10.7674 1.08069 10.7674H2.58928V19.3906C2.58928 19.7325 2.86649 20.0097 3.20838 20.0097H8.38563C8.72752 20.0097 9.00473 19.7325 9.00473 19.3906V14.1549H12.0475V19.3906C12.0475 19.7325 12.3247 20.0097 12.6666 20.0097H17.8436C18.1855 20.0097 18.4627 19.7326 18.4627 19.3906V10.7674H19.9716C20.4208 10.7674 20.816 10.4967 20.9783 10.0778C21.1403 9.65884 21.0306 9.19261 20.6985 8.88995Z" fill="#4E5356"/>
<path d="M18.301 1.23535H14.1433L18.9202 5.57882V1.85441C18.9202 1.51252 18.643 1.23535 18.301 1.23535Z" fill="#4E5356"/>
</svg>
