<svg width="230" height="165" viewBox="0 0 230 165" fill="none" xmlns="http://www.w3.org/2000/svg">
<path d="M0.838699 58.3738C1.94206 47.7284 7.31006 37.0654 16.6362 29.4577C31.1552 17.5953 53.1438 14.6363 72.4266 17.4027C80.5005 18.5671 88.5131 20.6069 96.7796 19.9765C108.838 19.0573 119.451 12.6578 130.415 7.9741C145.354 1.60081 162.474 -1.81345 178.368 0.987991C196.39 4.16588 211.171 16.107 212.958 31.9265C213.763 39.0964 205.672 51.7117 208.247 58.5052C210.856 65.395 229.85 86.5196 229.403 102.575C228.948 119.209 219.61 137.824 186.711 156.276C153.813 174.729 44.7697 160.779 24.7822 143.367C4.79475 125.956 9.80577 117.099 14.517 105.753C18.0986 97.1213 8.31711 89.9864 4.53412 81.941C1.15395 74.7798 0.0330505 66.1741 0.838699 58.3738Z" fill="#F8F8FF"/>
<path d="M158.794 14.1559C153.998 8.50274 82.9183 10.8872 80.3462 14.1559C77.1847 18.1747 41.1226 77.0102 41.1226 82.1007C41.1226 86.8161 73.7286 146.053 80.3462 150.045C87.0442 154.064 155.123 152.51 158.82 150.045C164.152 146.482 198.553 87.3787 198.044 82.1007C197.508 76.7154 162.062 18.0139 158.794 14.1559Z" fill="#689EEC"/>
<path opacity="0.5" fill-rule="evenodd" clip-rule="evenodd" d="M180.089 49.4229C152.766 54.9596 147.351 61.8367 138.962 72.49C138.841 72.6448 138.718 72.8005 138.595 72.9569C126.984 87.6939 102.869 84.5679 83.2193 78.7624C78.9118 77.4897 73.4668 75.0582 67.3125 72.3098C61.8545 69.8724 55.8386 67.1859 49.5634 64.8376C44.6365 73.5906 41.1226 80.4141 41.1226 82.0006C41.1226 86.7008 73.6233 145.747 80.2195 149.726C86.8959 153.732 154.755 152.183 158.44 149.726C163.755 146.174 198.045 87.2616 197.537 82.0006C197.281 79.4219 188.993 64.5784 180.089 49.4229Z" fill="#9AC3FF"/>
<path d="M131.296 129.851C132.87 123.32 128.852 116.75 122.321 115.176C115.79 113.602 109.219 117.621 107.645 124.152C106.071 130.683 110.09 137.253 116.621 138.827C123.152 140.401 129.722 136.382 131.296 129.851Z" fill="#2B5A85"/>
<path d="M101.351 34.3026C102.155 30.766 129.778 32.5075 131.09 34.3026C132.912 36.7407 130.501 99.5682 128.786 102.167C127.045 104.766 109.442 104.176 109.442 102.167C109.442 100.158 100.494 38.0535 101.351 34.3026Z" fill="#2B5A85"/>
<path d="M59.5985 93.6224C59.5985 93.6224 61.9435 92.689 62.3078 92.7345C62.672 92.7801 61.602 93.5769 61.306 93.759C61.01 93.9412 64.8122 95.4211 64.926 95.8536C65.0398 96.2862 63.9015 96.7188 63.1501 96.4683C62.3988 96.2179 59.0748 94.6697 59.0748 94.6697L59.5985 93.6224Z" fill="#FFA87B"/>
<path d="M44.0257 81.9201C44.0257 81.9201 44.6404 81.4648 45.2323 81.9201C45.8243 82.3755 50.742 88.5226 52.791 89.6382C54.9539 90.7994 59.9172 92.9395 59.8716 93.4859C59.8261 94.0323 59.3252 94.7836 59.1431 94.8291C59.0292 94.8747 54.7945 93.6453 50.8558 91.3002C48.101 89.661 45.5511 87.1794 44.3672 85.3808C43.8891 84.6067 43.4337 81.9429 44.0257 81.9201Z" fill="#FA7071"/>
<path d="M38.1744 93.4627C38.1744 93.4627 35.3968 94.123 33.621 92.8025C32.0273 91.6186 32.0728 89.3191 32.642 88.3629C33.2112 87.4067 33.9397 86.6781 34.2129 85.7674C34.4861 84.8567 33.4388 83.4679 34.4861 81.7832C35.5107 80.0984 37.6963 79.4154 38.3793 78.277C39.0623 77.1387 37.9695 72.8584 41.7716 72.6535C45.5738 72.4486 47.1902 75.1807 47.1219 75.7271C46.8715 78.0038 45.2095 77.89 43.3881 77.8444C41.5667 77.7989 41.4301 79.0283 41.4301 79.3699C41.4301 79.7114 41.7261 81.3961 40.9975 81.9881C40.269 82.58 38.1744 93.4627 38.1744 93.4627Z" fill="#D0393B"/>
<path d="M40.4967 147.262C40.4967 147.262 39.9275 148.901 40.2918 149.152C40.656 149.402 45.0046 153.113 45.7559 152.294C46.5072 151.474 43.0011 147.422 42.7279 147.262C42.4546 147.103 40.4967 147.262 40.4967 147.262Z" fill="#7A0C0E"/>
<path d="M45.3916 144.256C45.3916 144.256 44.8224 146.305 45.3916 146.351C45.9608 146.397 51.9486 147.626 51.9486 146.761C51.9486 145.896 46.0519 143.983 45.5965 144.256H45.3916Z" fill="#7A0C0E"/>
<path d="M45.4144 144.53C45.8925 144.94 47.0991 145.031 47.3268 144.53C47.5772 144.029 47.8049 128.206 48.3969 124.222C48.9888 120.238 49.4441 107.625 49.1937 107.351C48.9433 107.101 44.8679 106.532 44.8679 106.532C44.8679 106.532 43.4336 125.451 43.5474 126.772C43.6613 128.092 44.6858 143.915 45.4144 144.53Z" fill="#A22224"/>
<path d="M38.1062 106.555C38.1062 106.555 36.0116 108.012 37.6053 113.772C40.0869 122.629 40.3829 129.231 40.3829 130.825C40.3829 134.149 39.9048 147.172 40.3146 147.468C40.7244 147.764 42.6596 147.832 42.8873 147.468C43.1377 147.104 43.0694 132.441 43.7297 129.186C44.3899 125.93 45.2323 124.518 45.8243 120.785C46.4162 117.051 46.8943 107.352 46.8943 106.988C46.8943 106.623 38.1062 106.555 38.1062 106.555Z" fill="#D94B4D"/>
<path d="M41.248 81.9198C41.248 81.9198 36.2393 84.1054 36.9906 87.3156C39.0852 96.3769 33.6666 102.387 37.6281 108.717C38.812 110.606 48.8295 110.037 49.2621 109.354C50.446 107.419 47.2358 100.521 47.1448 96.9461C46.9854 90.8673 49.9223 91.1405 47.3497 85.6991C45.9381 82.7166 45.6877 82.1247 45.0046 81.7832C44.2989 81.4644 41.248 81.9198 41.248 81.9198Z" fill=process.env.REACT_APP_COLOR_PRIMARY/>
<path d="M57.2534 100.772C57.2534 100.772 59.4163 99.2466 59.7806 99.2011C60.1449 99.1555 59.1886 100.271 58.961 100.522C58.7105 100.772 62.7631 101.341 62.968 101.728C63.1729 102.138 62.1711 102.821 61.3971 102.73C60.623 102.662 57.003 102.092 57.003 102.092L57.2534 100.772Z" fill="#FFA87B"/>
<path d="M57.39 100.567C57.6404 101.09 57.39 102.047 57.0257 102.229C56.6615 102.411 48.0327 98.6544 45.073 96.2638C42.136 93.8733 37.446 88.5913 37.5826 86.6788C37.7419 84.607 38.8575 83.6963 40.2463 84.1744C41.7034 84.6981 44.777 92.3706 48.7385 94.6929C52.6772 97.0151 56.0695 99.861 57.39 100.567Z" fill="#FA7071"/>
<path d="M40.6333 81.7614C40.6333 81.7614 40.0642 82.4444 40.1325 82.6721C40.4512 83.6739 43.2971 85.0399 44.0712 84.7667C44.6176 84.5845 44.7314 82.3761 44.7087 82.3761C44.6859 82.3761 44.3899 81.7614 44.2078 81.6703C44.0257 81.602 41.0887 81.215 40.6333 81.7614Z" fill="#D94B4D"/>
<path d="M46.2341 75.978C45.3234 78.323 41.5668 77.1164 40.8838 79.2337L41.157 79.5525L41.0887 82.3528C41.0887 82.3528 41.6806 83.0131 42.3637 83.2863C43.6614 83.8099 43.8435 83.0814 43.8435 83.0814L44.0712 80.964C44.0712 80.964 45.3234 81.0779 45.8243 79.894C46.2796 78.8239 46.7805 76.661 46.2341 75.978Z" fill="#FFA87B"/>
<path d="M179.764 82.2036C183.825 81.5502 189.379 78.9366 189.565 78.7032C189.752 78.4699 182.075 76.2063 181.958 75.8096C181.865 75.4129 182.985 74.0828 183.171 74.0361C183.358 73.9894 193.462 77.6298 193.462 78.6566C193.462 79.9634 182.378 86.0073 182.191 86.194C182.005 86.3807 178.808 82.3669 179.764 82.2036Z" fill=process.env.REACT_APP_COLOR_PRIMARY/>
<path d="M173.067 149.97C173.067 149.97 168.236 153.167 168.773 153.844C169.777 155.127 174.63 152.07 174.77 151.58C174.887 151.09 175.051 150.11 174.63 149.993C174.21 149.853 173.37 149.48 173.067 149.97Z" fill="#7A0C0E"/>
<path d="M186.322 150.227C185.948 150.554 185.902 152.444 186.322 152.538C186.742 152.631 191.572 155.175 192.109 154.078C192.646 152.981 188.165 150.134 187.838 150.227C187.488 150.321 186.322 150.227 186.322 150.227Z" fill="#7A0C0E"/>
<path d="M169.987 105.423C169.987 105.423 170.687 130.696 170.687 133.286C170.687 135.853 172.204 150.578 172.88 150.764C173.58 150.951 174.35 150.788 174.677 150.554C174.98 150.298 176.101 112.82 176.101 112.82H177.174C177.174 112.82 185.855 150.391 186.345 150.764C186.742 151.068 188.375 151.068 188.679 150.648C188.982 150.204 184.151 105.306 183.451 104.746C182.751 104.163 170.313 104.98 169.987 105.423Z" fill="#A22224"/>
<path d="M176.194 82.5309C174.374 83.371 172.087 90.2083 171.807 91.1884C171.55 92.0985 168.447 105.68 169.613 105.867C170.78 106.053 183.825 105.937 184.105 105.353C184.385 104.793 183.125 90.9317 183.125 90.9317C183.125 90.9317 182.145 83.2076 179.974 82.2742C179.344 81.9942 177.057 82.1342 176.194 82.5309Z" fill=process.env.REACT_APP_COLOR_PRIMARY/>
<path d="M174.537 74.8062C174.537 74.8062 173.582 79.3906 174.912 80.4874C175.775 81.1875 176.335 81.0008 176.335 81.0008L176.801 82.857C177.291 83.3237 177.897 84.5372 178.831 82.8103C179.578 81.4802 179.718 76.0896 179.718 76.0896C179.718 76.0896 178.574 74.5028 178.528 74.5028C178.504 74.4561 174.537 74.8062 174.537 74.8062Z" fill="#FFA87B"/>
<path d="M173.884 74.5967C173.604 75.0168 173.3 76.0202 174 76.4636C174.677 76.907 177.571 76.4869 177.687 76.767C177.804 77.047 177.501 77.8404 177.804 78.1204C178.014 78.3305 178.948 77.397 179.251 77.5604C179.764 77.7937 179.414 80.1973 179.414 80.1973C179.414 80.1973 180.114 80.5707 180.324 78.6338C180.558 76.4636 180.534 73.3599 177.501 73.3366C175.447 73.3133 174.35 73.8967 173.884 74.5967Z" fill="#D0393B"/>
<path d="M176.287 82.53C176.264 82.8101 177.361 84.0002 177.711 83.9768C178.061 83.9302 177.337 81.7366 176.731 81.76C176.497 81.76 176.311 82.2733 176.287 82.53Z" fill="#D94B4D"/>
<path d="M179.321 81.6903C179.461 81.737 179.764 82.1804 179.764 82.3204C179.764 82.6704 178.037 84.2339 177.804 83.9072C177.571 83.5338 178.854 81.5036 179.321 81.6903Z" fill="#D94B4D"/>
<path d="M179.181 87.9437C179.018 88.1071 179.204 89.9739 179.181 90.0906C179.158 90.2073 180.021 91.1641 180.324 91.2107C180.628 91.2574 181.071 90.3006 181.141 90.1606C181.211 90.0206 181.118 88.0137 180.978 87.9671C180.814 87.8737 179.344 87.7804 179.181 87.9437Z" fill="#D94B4D"/>
<path d="M182.961 74.5267C182.961 74.5267 181.164 73.3366 179.951 73.1732C178.738 73.0099 176.801 72.5665 176.707 73.0332C176.661 73.3132 180.581 74.5967 180.768 74.7834C181.001 74.9934 179.601 75.2734 179.741 75.5301C179.858 75.7868 181.748 75.5068 182.028 75.4368C182.308 75.3434 183.288 74.8067 182.961 74.5267Z" fill="#FFA87B"/>
<path d="M176.194 82.5299C172.484 82.8099 165.296 80.873 165.063 80.663C164.829 80.453 171.994 76.8593 172.017 76.4393C172.04 76.0426 170.687 74.9458 170.5 74.9224C170.313 74.8991 161.026 80.313 161.212 81.3164C161.446 82.5999 173.44 86.567 173.65 86.707C173.884 86.8703 177.151 82.4599 176.194 82.5299Z" fill=process.env.REACT_APP_COLOR_PRIMARY/>
<path d="M170.827 75.3663C170.827 75.3663 172.39 73.8729 173.534 73.4995C174.677 73.1028 176.521 72.3327 176.707 72.7761C176.801 73.0561 173.184 75.0163 173.02 75.2263C172.81 75.483 174.257 75.5064 174.164 75.7864C174.094 76.0664 172.18 76.1131 171.9 76.0897C171.62 76.0664 170.57 75.7164 170.827 75.3663Z" fill="#FFA87B"/>
</svg>
