<svg width="16" height="16" viewBox="0 0 16 16" fill="none" xmlns="http://www.w3.org/2000/svg">
<path d="M8.00005 0.799805C4.01637 0.799805 0.800049 4.01612 0.800049 7.9998C0.800049 11.9835 4.01637 15.1998 8.00005 15.1998C11.9837 15.1998 15.2 11.9835 15.2 7.9998C15.2 4.01612 11.9837 0.799805 8.00005 0.799805ZM9.1363 11.9998C9.1363 12.3517 8.83256 12.6561 8.48005 12.6561H7.48818C7.1363 12.6561 6.83192 12.3523 6.83192 11.9998V7.80796C6.83192 7.43984 7.13566 7.15171 7.48818 7.15171H8.48005C8.83192 7.15171 9.1363 7.45545 9.1363 7.80796V11.9998ZM7.98381 6.06348C7.24755 6.06348 6.64006 5.45536 6.64006 4.70348C6.64006 3.95161 7.24819 3.34348 7.98381 3.34348C8.73568 3.34348 9.34381 3.95161 9.34381 4.70348C9.34381 5.45598 8.7363 6.06348 7.98381 6.06348Z" fill="#9FA3A6"/>
</svg>
