<svg width="37" height="40" viewBox="0 0 37 40" fill="none" xmlns="http://www.w3.org/2000/svg">
<path d="M37 0H36V40H37V0Z" fill="white"/>
<path d="M21.9338 15.4648C21.8803 14.2939 21.6943 13.4943 21.4224 12.7947C21.1463 12.0607 20.7132 11.3958 20.1536 10.8463C19.6043 10.2867 18.9393 9.8535 18.2053 9.57722C17.5055 9.30548 16.7061 9.11967 15.5352 9.06647C14.3621 9.01276 13.9873 9 11 9C8.01265 9 7.63785 9.01276 6.46477 9.06613C5.29387 9.11967 4.49442 9.30565 3.79467 9.57756C3.06068 9.85367 2.39584 10.2867 1.84631 10.8463C1.28671 11.3957 0.853499 12.0605 0.577224 12.7945C0.30548 13.4943 0.119674 14.2939 0.0664671 15.4646C0.0127563 16.6378 0 17.0125 0 19.9998C0 22.9873 0.0127563 23.3621 0.0664671 24.5352C0.119842 25.7059 0.305816 26.5055 0.577727 27.2053C0.853834 27.9391 1.28688 28.6041 1.84648 29.1535C2.39584 29.7131 3.06085 30.1461 3.79484 30.4222C4.49442 30.6943 5.29404 30.8801 6.46494 30.9337C7.63818 30.9872 8.01282 30.9998 11.0001 30.9998C13.9875 30.9998 14.3623 30.9872 15.5354 30.9337C16.7062 30.8801 17.5057 30.6943 18.2055 30.4222C19.683 29.8509 20.851 28.6828 21.4224 27.2053C21.6945 26.5055 21.8803 25.7059 21.9338 24.5352C21.9872 23.3619 22 22.9873 22 20C22 17.0125 21.9872 16.6378 21.9338 15.4648V15.4648ZM19.9537 24.4451C19.9049 25.5176 19.7256 26.1 19.5751 26.4876C19.205 27.447 18.4468 28.2051 17.4874 28.5752C17.0998 28.7258 16.5174 28.9051 15.4449 28.9539C14.2852 29.0069 13.9373 29.018 11 29.018C8.0625 29.018 7.71472 29.0069 6.5549 28.9539C5.48253 28.9051 4.90011 28.7258 4.51238 28.5752C4.03469 28.3988 3.60249 28.1177 3.24766 27.7523C2.88226 27.3975 2.60111 26.9654 2.42471 26.4876C2.27415 26.1 2.09489 25.5176 2.04605 24.4451C1.99318 23.2852 1.98193 22.9373 1.98193 20.0001C1.98193 17.0628 1.99318 16.7151 2.04605 15.5551C2.09506 14.4825 2.27415 13.9001 2.42471 13.5125C2.60111 13.0347 2.88243 12.6025 3.24766 12.2477C3.60249 11.8823 4.03469 11.6011 4.51255 11.4249C4.90011 11.2741 5.48253 11.0951 6.55507 11.046C7.71489 10.9932 8.06283 10.9819 11 10.9819H10.9998C13.937 10.9819 14.2849 10.9932 15.4449 11.0462C16.5174 11.0951 17.0997 11.2743 17.4874 11.4249C17.9651 11.6013 18.3973 11.8824 18.7521 12.2477C19.1175 12.6025 19.3987 13.0347 19.5749 13.5125C19.7256 13.9001 19.9049 14.4825 19.9537 15.5551C20.0066 16.7149 20.0179 17.0628 20.0179 20C20.0179 22.9373 20.0068 23.2851 19.9537 24.4451Z" fill="white"/>
<path d="M11.0001 14.3513C7.8805 14.3513 5.35156 16.8804 5.35156 20C5.35156 23.1196 7.8805 25.6486 11.0001 25.6486C14.1199 25.6486 16.6488 23.1196 16.6488 20C16.6488 16.8804 14.1199 14.3513 11.0001 14.3513V14.3513ZM11.0001 23.6666C8.9752 23.6665 7.33349 22.0249 7.33366 19.9999C7.33366 17.975 8.9752 16.3332 11.0003 16.3332C13.0253 16.3334 14.6669 17.975 14.6669 19.9999C14.6669 22.0249 13.0252 23.6666 11.0001 23.6666V23.6666Z" fill="white"/>
<path d="M18.1918 14.1282C18.1918 14.8572 17.6008 15.4482 16.8719 15.4482C16.1427 15.4482 15.5518 14.8572 15.5518 14.1282C15.5518 13.3991 16.1427 12.8081 16.8719 12.8081C17.6008 12.8081 18.1918 13.3991 18.1918 14.1282V14.1282Z" fill="white"/>
</svg>
