<svg width="256" height="186" viewBox="0 0 256 186" fill="none" xmlns="http://www.w3.org/2000/svg">
<path d="M0.278458 65.1461C1.50984 53.2656 7.50061 41.3655 17.9087 32.8752C34.1121 19.6366 58.6518 16.3343 80.1716 19.4217C89.1822 20.7211 98.1244 22.9976 107.35 22.2941C120.807 21.2683 132.652 14.1263 144.888 8.89921C161.56 1.78652 180.666 -2.02384 198.404 1.10261C218.516 4.64919 235.013 17.9757 237.007 35.6304C237.906 43.6322 228.876 57.711 231.749 65.2927C234.661 72.9818 255.858 96.5572 255.36 114.476C254.852 133.039 244.43 153.814 207.715 174.407C171 195 49.3061 179.431 26.9998 160C4.69348 140.569 10.2859 130.684 15.5437 118.022C19.5408 108.389 8.62448 100.426 4.4026 91.4474C0.630277 83.4554 -0.620646 73.8513 0.278458 65.1461Z" fill="#C2ECE0"/>
<path opacity="0.2" fill-rule="evenodd" clip-rule="evenodd" d="M31.3689 165.763C38.3689 169.763 178.869 211.763 229.013 158.321C237.475 146.821 236.962 143.521 229.013 138.231C221.064 132.941 187.582 136.438 176.532 128.851C165.482 121.263 149.331 111.132 139.733 121.263C130.136 131.395 133.743 144.27 122.112 144.27C110.482 144.27 88.1191 128.816 76.7521 134.471C65.3851 140.126 68.7745 155.62 56.8695 152.201C44.9645 148.783 30.2294 141.889 24.0512 149.821C17.873 157.752 24.3689 161.763 31.3689 165.763Z" fill=process.env.REACT_APP_COLOR_PRIMARY/>
<path d="M199.889 109.527H136.797C132.965 109.527 129.86 106.422 129.86 102.59C129.86 98.7583 132.965 95.6532 136.797 95.6532H199.889C203.721 95.6532 206.826 98.7583 206.826 102.59C206.826 106.422 203.721 109.527 199.889 109.527Z" fill="#DEEAFA"/>
<path d="M212.375 70.8127H60.9536V87.7254L72.4489 153.592C73.1096 157.226 76.2146 159.802 79.8482 159.802H193.414C197.047 159.802 200.219 157.16 200.813 153.592L212.308 87.7254V70.8127H212.375Z" fill="#689EEC"/>
<path d="M215.81 87.7253H57.5184C55.008 87.7253 52.96 85.6773 52.96 83.1668V75.3051C52.96 72.7946 55.008 70.7466 57.5184 70.7466H215.81C218.321 70.7466 220.369 72.7946 220.369 75.3051V83.1668C220.303 85.6773 218.321 87.7253 215.81 87.7253Z" fill="#3F85E9"/>
<path d="M96.9591 82.4402L96.5627 82.242C94.3825 80.9868 93.6558 78.2121 94.9111 75.9659L124.905 23.9727C126.16 21.7926 128.935 21.0659 131.181 22.3211L131.577 22.5193C133.757 23.7745 134.484 26.5493 133.229 28.7955L103.235 80.7886C101.914 82.9027 99.1392 83.6955 96.9591 82.4402Z" fill="#5CCB9D"/>
<path d="M176.369 82.4402L176.766 82.242C178.946 80.9868 179.672 78.2121 178.417 75.9659L148.424 23.9727C147.168 21.7926 144.394 21.0659 142.148 22.3211L141.751 22.5193C139.571 23.7745 138.844 26.5493 140.1 28.7955L170.093 80.7886C171.414 82.9027 174.189 83.6955 176.369 82.4402Z" fill="#5CCB9D"/>
<path d="M91.6079 147.316C87.0494 147.316 83.2837 143.616 83.2837 138.992V104.77C83.2837 100.212 86.9833 96.4459 91.6079 96.4459C96.1664 96.4459 99.9321 100.146 99.9321 104.77V138.992C99.9321 143.55 96.2324 147.316 91.6079 147.316Z" fill="#9AC3FF"/>
<path d="M121.667 147.316C117.109 147.316 113.343 143.616 113.343 138.992V104.77C113.343 100.212 117.043 96.4459 121.667 96.4459C126.226 96.4459 129.992 100.146 129.992 104.77V138.992C129.926 143.55 126.226 147.316 121.667 147.316Z" fill="#9AC3FF"/>
<path d="M151.661 147.316C147.103 147.316 143.337 143.616 143.337 138.992V104.77C143.337 100.212 147.037 96.4459 151.661 96.4459C156.22 96.4459 159.985 100.146 159.985 104.77V138.992C159.985 143.55 156.286 147.316 151.661 147.316Z" fill="#9AC3FF"/>
<path d="M181.721 147.316C177.162 147.316 173.396 143.616 173.396 138.992V104.77C173.396 100.212 177.096 96.4459 181.721 96.4459C186.279 96.4459 190.045 100.146 190.045 104.77V138.992C189.979 143.55 186.279 147.316 181.721 147.316Z" fill="#9AC3FF"/>
<path d="M62.621 69.9476L69.1456 87.2474L85.4689 83.5518L89.4617 82.231C90.1638 81.9987 90.927 82.034 91.6047 82.33L92.4884 82.7159C93.568 83.1875 94.3849 84.2755 94.0723 85.4113C94.0318 85.5587 93.9826 85.6893 93.9229 85.7904C93.8466 85.9197 93.7218 86.0143 93.5834 86.0725C92.8765 86.3694 90.8994 86.4816 90.5479 86.4994C90.5109 86.5013 90.4756 86.5021 90.4386 86.5024L85.1394 86.5424L70.043 91.8242C67.4878 92.7181 64.6852 91.4162 63.7202 88.887L57.2914 72.0368L62.621 69.9476Z" fill="#FFA87B"/>
<path d="M67.7338 82.2843L61.2221 84.5585L55.9842 70.9046L63.1265 67.941L67.7338 82.2843Z" fill=process.env.REACT_APP_COLOR_PRIMARY/>
<path d="M53.3564 66.3204L54.0832 58.2604L55.8669 50.2666C55.8669 50.2666 63.068 48.2185 63.2662 53.0413C63.5305 57.864 62.5395 61.4315 62.5395 61.4315L60.4915 62.4886L59.5666 66.3204H53.3564Z" fill="#FFA87B"/>
<path d="M82.6233 152.932L84.6713 156.301H90.7493C91.8064 156.499 92.7313 157.028 93.3919 157.82V157.82C93.6909 158.174 93.4576 158.717 92.9954 158.743L81.7847 159.381C80.847 159.434 79.9985 158.828 79.7452 157.923L78.3291 152.865L82.6233 152.932Z" fill="#D97B4B"/>
<path d="M44.1073 154.913L42.5217 158.547L48.3354 159.009C49.3264 159.274 50.2513 159.802 50.912 160.661V160.661C51.1999 161.001 50.9594 161.523 50.5136 161.525L40.0229 161.574C38.6933 161.58 37.728 160.311 38.0886 159.031L39.4167 154.319L44.1073 154.913Z" fill="#D97B4B"/>
<path d="M64.191 96.9085L72.9776 123.599L84.0105 154.253L79.0556 155.64L66.3711 126.373L52.1011 95.2568L64.191 96.9085Z" fill=process.env.REACT_APP_COLOR_PRIMARY/>
<path d="M61.9448 67.972L59.8307 65.5276L53.5545 64.933V64.933C52.0253 66.5472 51.1598 68.678 51.1304 70.9013L50.7798 97.3709H64.4552L64.257 74.5124C64.3892 72.1341 63.5303 69.7557 61.9448 67.972Z" fill="#5CCB9D"/>
<path d="M58.4509 71.082L61.3442 88.6055C61.3799 88.8214 61.439 89.0327 61.5206 89.2357L67.4679 104.031L70.9047 106.015C71.0556 106.102 71.1987 106.202 71.3322 106.314L73.3841 108.034C74.1917 108.711 74.2858 109.919 73.5929 110.713V110.713C73.0674 111.315 72.2191 111.52 71.4771 111.223L69.0008 110.234C68.5614 110.058 68.1698 109.781 67.8578 109.426L66.0998 107.42L57.4282 91.4864C57.2946 91.2409 57.1959 90.9779 57.1351 90.705L51.9885 67.616L58.4509 71.082Z" fill="#FFA87B"/>
<path d="M60.2476 80.5917L54.3426 81.3979L51.2333 68.1854C51.2333 68.1854 51.2782 65.5856 54.6248 65.3564C57.9131 65.0959 58.1255 69.0331 58.1255 69.0331L60.2476 80.5917Z" fill=process.env.REACT_APP_COLOR_PRIMARY/>
<path d="M60.4254 49.1434C61.7467 49.4076 63.2001 51.1253 63.3323 52.1823C63.002 53.0412 62.4074 53.7018 60.4254 53.7018C58.4435 53.7679 57.8489 54.4286 57.4525 55.0892C56.924 55.0232 56.1312 54.891 55.933 55.882C55.7348 56.8069 56.99 57.0712 56.99 57.0712L55.5366 59.912L53.951 60.1762C53.951 60.1762 51.1763 53.5697 53.8189 50.5968C55.8669 48.2185 59.0381 48.813 60.4254 49.1434Z" fill="#3F85E9"/>
<path d="M61.8789 97.4369L55.6027 131.791L43.5128 157.094L38.4258 156.631L48.0052 129.743L50.3835 110.848C50.4496 109.857 50.3175 108.932 49.9872 108.007L49.7229 107.148C48.798 104.506 48.9962 101.533 50.3175 99.0224L51.3085 97.1726L61.8789 97.4369Z" fill=process.env.REACT_APP_COLOR_PRIMARY/>
<path d="M188.988 71.2091L188.988 71.5394L189.462 78.121L186.541 94.1314L185.357 97.5981L185.08 100.378C185.016 101.015 185.287 101.639 185.796 102.027V102.027C186.715 102.727 188.044 102.42 188.561 101.387L188.619 101.272C188.78 100.951 188.849 100.592 188.819 100.234L188.56 97.1779L193.986 79.4268L192.621 68.5665L188.988 71.2091Z" fill="#FFA87B"/>
<path d="M189.649 70.5951L195.481 71.8226L197.862 65.0009C197.862 65.0009 197.925 62.1449 194.604 61.6763C191.282 61.2077 190.64 65.3099 190.64 65.3099L189.649 70.5951Z" fill=process.env.REACT_APP_COLOR_PRIMARY/>
<path d="M206.891 94.6621L207.816 96.2477C209.204 98.6921 208.609 101.797 206.363 103.515L204.117 125.184L212.441 154.828L203.456 158.547L201.54 156.81L202.795 155.508L206.825 150.949C206.825 150.949 198.105 128.421 197.973 127.43C197.84 126.373 198.501 94.3318 198.501 94.3318L206.891 94.6621Z" fill="#FFA87B"/>
<path d="M193.745 90.6982L186.346 122.674L187.072 151.016L179.937 155.112C179.937 155.112 178.682 157.292 178.286 157.886L186.412 154.913L190.64 156.631L192.952 123.466L201.474 92.5481L193.745 90.6982Z" fill="#FFA87B"/>
<path d="M189.194 159.274C190.002 159.274 190.666 158.636 190.699 157.829L190.744 156.721C190.821 154.842 188.976 153.478 187.201 154.103L182.284 155.834C181.803 156.004 181.271 155.945 180.838 155.675V155.675C180.288 155.331 179.59 155.334 179.045 155.686C178.808 155.838 178.537 156.013 178.245 156.202C176.863 157.094 177.403 158.877 179.048 158.877V158.877C179.286 158.877 179.521 158.829 179.74 158.736L185.042 156.47C186.135 156.003 187.385 156.637 187.654 157.795L187.726 158.108C187.885 158.791 188.493 159.274 189.194 159.274V159.274Z" fill="#F35D13"/>
<path d="M207.288 107.875L204.646 122.344C204.646 122.344 204.778 124.061 205.372 127.1C203.126 130.205 198.766 129.743 196.652 129.28C194.538 128.818 190.375 128.289 186.015 125.449C185.883 123.863 186.213 121.749 186.544 119.04C186.808 116.662 190.706 100.344 190.706 100.344L191.631 91.1609L205.967 94.1999L206.561 93.8696C209.468 97.371 210.459 101.929 208.543 106.092L207.288 107.875Z" fill="#5CCB9D"/>
<path d="M207.024 68.9629C206.627 74.7766 205.768 85.5452 205.768 85.5452L207.156 93.0106L207.222 93.473C206.165 95.521 202.531 96.1156 200.285 95.5871L198.964 95.2568C198.435 95.1246 197.907 94.9264 197.444 94.5961L191.697 91.4911C191.366 91.2929 191.234 90.9625 191.234 90.5662L192.622 79.9958L191.168 78.6084C189.12 76.6925 188.658 73.5874 190.111 71.143L191.697 68.5004L192.886 61.8939L197.576 60.8369L202.267 62.0261L204.381 63.4134C206.099 64.6687 207.156 66.7828 207.024 68.9629Z" fill=process.env.REACT_APP_COLOR_PRIMARY/>
<path d="M201.012 63.0831L200.616 54.1644L198.105 46.5008C198.105 46.5008 190.838 45.2456 191.102 49.9362C191.229 52.9862 191.818 55.4659 192.224 56.8526C192.453 57.6347 193.047 58.2386 193.8 58.5507L195.33 59.1853L195.991 64.1402L201.012 63.0831Z" fill="#FFA87B"/>
<path d="M204.777 54.0323C204.711 54.0323 204.645 54.0323 204.579 54.0984C203.985 53.1735 202.928 52.5789 201.805 52.645C201.738 52.645 201.672 52.711 201.606 52.711C201.805 50.5969 201.738 47.9543 200.153 46.567C197.841 44.4529 194.802 45.3778 193.48 45.7742C192.225 46.1706 190.97 48.0204 190.904 49.0114C191.3 49.8702 191.961 50.3987 193.943 50.2666C195.925 50.1345 196.585 50.7291 197.048 51.3237C197.576 51.2576 198.303 50.9933 198.633 51.9182V51.9182C198.928 52.7429 198.191 53.9287 198.662 54.6666L199.228 55.5518C199.228 55.6179 199.228 55.6839 199.228 55.8161C199.36 57.2034 200.417 58.1944 201.738 58.3926C202.135 60.1103 203.72 61.2995 205.57 61.1013C207.552 60.9031 208.94 59.1854 208.741 57.2034C208.543 55.2876 206.759 53.8341 204.777 54.0323Z" fill="#ED9468"/>
<path d="M212.399 159.64C213.188 159.438 213.661 158.633 213.455 157.846L213.073 156.391C212.564 154.45 210.315 153.565 208.62 154.638L205.008 156.925C204.515 157.238 203.862 157.094 203.545 156.603V156.603C203.167 156.017 202.333 155.946 201.835 156.435C201.506 156.759 201.138 157.101 200.814 157.358V157.358C199.315 158.544 199.523 160.01 201.434 160.047L201.885 160.055C202.265 160.063 202.641 159.97 202.973 159.786L207.362 157.362C208.475 156.747 209.876 157.182 210.445 158.319L210.722 158.875C211.032 159.493 211.73 159.812 212.399 159.64V159.64Z" fill="#F35D13"/>
<path d="M196.887 66.3436L196.12 84.817L179.148 85.4805L174.942 85.4792C174.203 85.479 173.489 85.7519 172.939 86.2456L172.221 86.8894C171.344 87.6759 170.909 88.9652 171.562 89.9457C171.647 90.0729 171.735 90.1814 171.823 90.2587C171.936 90.3575 172.085 90.4082 172.234 90.42C172.998 90.4802 174.911 89.9662 175.25 89.8729C175.286 89.8631 175.32 89.8528 175.355 89.8415L180.399 88.2166L196.564 89.2496C199.356 89.428 201.751 87.281 201.878 84.4862L202.684 66.7007L196.887 66.3436Z" fill="#FFA87B"/>
<path d="M195.903 79.6618L202.8 79.7779L203.339 68.7813C203.456 66.758 201.865 65.0098 199.905 64.8755C197.737 64.7314 195.816 66.4395 195.881 68.6177L195.903 79.6618Z" fill="#5CCB9D"/>
</svg>
