<svg width="276" height="185" viewBox="0 0 276 185" fill="none" xmlns="http://www.w3.org/2000/svg">
<path opacity="0.47" d="M0.278702 65.1461C1.51009 53.2656 7.50085 41.3655 17.909 32.8752C34.1124 19.6366 58.652 16.3343 80.1719 19.4217C89.1824 20.7211 98.1246 22.9976 107.35 22.2941C120.807 21.2683 132.652 14.1263 144.888 8.89921C161.56 1.78652 180.666 -2.02384 198.404 1.10261C218.517 4.64919 235.013 17.9757 237.007 35.6304C237.906 43.6322 228.876 57.711 231.749 65.2927C234.661 72.9818 255.859 96.5572 255.36 114.476C254.852 133.039 244.431 153.814 207.715 174.407C171 195 49.3063 179.431 27 160C4.69373 140.569 10.2861 130.684 15.5439 118.022C19.541 108.389 8.62473 100.426 4.40285 91.4474C0.630524 83.4554 -0.620407 73.8513 0.278702 65.1461Z" fill="#E1E2FE"/>
<path fill-rule="evenodd" clip-rule="evenodd" d="M161.003 86.8129C161.003 86.8129 169.066 85.4157 171.961 76.7806C174.855 68.1455 178.121 60.3239 186.068 59.9315C194.014 59.5391 202.04 60.8043 204.32 56.5282C206.599 52.252 218.601 46.665 224.389 56.3692C230.176 66.0734 227.103 71.0515 234.246 71.1986C241.388 71.3458 241.494 64.4783 248.506 68.9303C255.517 73.3824 247.84 77.6855 258.226 79.6663C268.612 81.647 272.956 82.2678 275.687 83.7987C278.418 85.3295 263.231 83.5821 231.803 85.6373C200.375 87.6925 161 86.8129 161 86.8129" fill="#F5E3EC"/>
<path fill-rule="evenodd" clip-rule="evenodd" d="M2.00337 162.813C2.00337 162.813 10.0665 161.416 12.961 152.781C15.8554 144.145 19.1208 136.324 27.0676 135.931C35.0143 135.539 43.0403 136.804 45.3195 132.528C47.5987 128.252 59.6015 122.665 65.3887 132.369C71.176 142.073 68.1029 147.051 75.2455 147.199C82.3882 147.346 82.4944 140.478 89.5055 144.93C96.5167 149.382 88.8396 153.686 99.2257 155.666C109.612 157.647 113.956 158.268 116.687 159.799C119.418 161.329 104.231 159.582 72.8028 161.637C41.3748 163.693 2 162.813 2 162.813" fill="#F5E3EC"/>
<mask id="mask0" mask-type="alpha" maskUnits="userSpaceOnUse" x="0" y="0" width="256" height="185">
<path d="M0.278687 65.1461C1.51007 53.2656 7.50084 41.3655 17.9089 32.8752C34.1124 19.6366 58.652 16.3343 80.1719 19.4217C89.1824 20.7211 98.1246 22.9976 107.35 22.2941C120.807 21.2683 132.652 14.1263 144.888 8.89921C161.56 1.78652 180.666 -2.02384 198.404 1.10261C218.517 4.64919 235.013 17.9757 237.007 35.6304C237.906 43.6322 228.876 57.711 231.749 65.2927C234.661 72.9818 255.859 96.5572 255.36 114.476C254.852 133.039 244.431 153.814 207.715 174.407C171 195 49.3063 179.431 27 160C4.69371 140.569 10.2861 130.684 15.5439 118.022C19.541 108.389 8.62471 100.426 4.40283 91.4474C0.630508 83.4554 -0.620422 73.8513 0.278687 65.1461Z" fill="#E1E2FE"/>
</mask>
<g mask="url(#mask0)">
<path fill-rule="evenodd" clip-rule="evenodd" d="M109.5 170.5L108 187.5C108 187.5 171.132 210.808 181.5 184.5C183.453 179.544 179.665 163.664 178 155.5C183.898 153.706 114.448 169.672 114.448 169.672L109.5 170.5Z" fill="#FA7071"/>
</g>
<path fill-rule="evenodd" clip-rule="evenodd" d="M92.0495 130.522C91.2613 132.407 90.0876 134.362 88.7281 136.276C90.5004 136.05 92.6495 135.777 94.7012 135.425C95.1995 136.943 95.7859 138.431 96.4574 139.881C96.9563 140.969 100.126 149.26 100.28 149.413C100.313 149.446 100.348 149.477 100.386 149.503C100.481 149.569 100.581 149.626 100.687 149.673H100.697C100.757 149.7 100.822 149.726 100.891 149.754H100.9L101.112 149.828L101.146 149.84L101.37 149.91L101.409 149.921L101.632 149.982L101.727 150.007L101.95 150.06L102.075 150.089L102.267 150.133L102.433 150.168L102.504 150.181L102.578 150.196L102.653 150.211L102.802 150.241L102.88 150.256L102.957 150.27H102.974L103.276 150.324L103.36 150.337L103.687 150.392H103.697L103.784 150.406C107.08 144.918 110.02 137.427 111.902 131.797C113.784 126.166 111.087 144.893 111.087 151.242C111.087 157.295 133.538 153.65 137.903 153.757H138.003C138.103 153.757 138.201 153.757 138.298 153.757H138.414C138.503 153.757 138.589 153.75 138.675 153.746L138.827 153.737L139.047 153.72L139.251 153.7L139.403 153.681L139.643 153.648C139.599 153.61 138.55 152.592 136.649 140.268C135.074 130.041 135.851 120.665 136.198 117.51L136.172 117.479L136.146 117.448L136.121 117.417L136.072 117.357L136.054 117.337L136.047 117.328L136.023 117.298L136 117.271L135.977 117.244L135.953 117.215L135.932 117.189L135.91 117.161L135.889 117.136L135.866 117.11L135.846 117.085L135.825 117.06L135.805 117.036L135.785 117.013L135.765 116.989L135.746 116.967V116.96L135.733 116.944L135.714 116.922L135.697 116.901L135.679 116.878L135.662 116.858L135.645 116.838L135.628 116.818L135.619 116.807L135.613 116.799L135.597 116.781L135.582 116.762L135.567 116.745L135.553 116.727L135.539 116.711L135.526 116.695L135.513 116.681L135.501 116.666L135.488 116.651L135.477 116.636L135.466 116.624L135.455 116.61L135.443 116.597L135.433 116.585L135.425 116.576L135.416 116.565L135.406 116.554L135.398 116.544L135.39 116.534L135.382 116.525L135.376 116.516V116.509V116.503L135.37 116.495C134.425 116.461 133.519 116.11 132.798 115.497C125.75 109.623 133.524 97.8734 133.41 92.8806C132.419 93.2682 131.406 93.596 130.376 93.8622C128.508 94.3572 126.55 94.4025 124.662 93.9944C124.778 94.0942 124.838 94.1565 124.83 94.1665C124.823 94.1765 124.184 95.6483 121.817 95.6483C119.673 95.6483 113.585 97.508 109.383 101.846C108.967 102.309 108.546 102.794 108.121 103.3C107.996 103.465 107.871 103.613 107.746 103.743C102.91 109.573 97.2419 118.229 92.0895 130.551L92.0495 130.522ZM112.855 85.7188C112.855 85.7188 111.882 86.3611 110.485 87.4911C112.415 87.9713 114.286 88.5101 115.973 89.0352C114.867 87.995 113.825 86.8874 112.855 85.7188Z" fill=process.env.REACT_APP_COLOR_PRIMARY/>
<path fill-rule="evenodd" clip-rule="evenodd" d="M122.055 102.06C122.055 102.06 116.442 100.084 111.489 105.359C106.537 110.633 94.3832 131.751 94.5416 133.587C94.6126 134.409 94.0501 131.373 93.5113 127.151C98.2584 116.602 103.324 108.997 107.707 103.714C107.831 103.589 107.948 103.435 108.081 103.271C108.51 102.764 108.93 102.279 109.343 101.816C113.551 97.4784 119.633 95.6187 121.777 95.6187C124.147 95.6187 124.79 94.137 124.79 94.137C124.79 94.137 124.738 94.0646 124.622 93.9648C124.994 94.048 125.368 94.1108 125.745 94.1532C124.3 97.1466 122.11 101.718 122.058 102.06" fill="#B82B2D"/>
<path fill-rule="evenodd" clip-rule="evenodd" d="M103.691 150.407H103.701L103.789 150.42C107.085 144.932 110.025 137.441 111.907 131.811C113.789 126.181 111.092 144.907 111.092 151.256C111.092 151.444 111.115 151.631 111.161 151.814C113.781 151.7 116.234 151.372 116.234 151.372C116.234 151.372 117.302 130.065 116.656 123.822C116.01 117.58 109.767 119.194 107.721 129.097C105.676 139 99.6216 146.222 99.6216 146.222L99.3086 149.964C101.363 149.501 101.955 150.112 103.691 150.403" fill="#B82B2D"/>
<path fill-rule="evenodd" clip-rule="evenodd" d="M173.06 90.8732C179.232 93.1308 188.008 98.6799 188.31 115.526C188.593 131.274 178.478 159.628 165.562 167.163C152.647 174.697 101.952 169.869 92.5359 173.189C91.2749 172.591 87.0879 165.719 88.3364 163.185C88.3364 163.185 93.414 152.546 99.9472 148.936C100.026 149.116 100.139 149.278 100.28 149.414C102.217 151.352 127.083 151.997 136.284 153.612C137.396 153.814 138.534 153.832 139.652 153.666C139.608 153.628 138.559 152.611 136.658 140.286C135.083 130.059 135.86 120.683 136.207 117.529C135.649 116.854 135.324 116.466 135.324 116.466C143.79 116.826 158.503 94.852 159.874 89.3166C160.215 87.9334 160.497 86.7922 160.728 85.8555C161.166 87.336 160.895 88.4673 162.349 88.7891C163.804 89.1108 168.971 89.5811 173.057 90.8782" fill=process.env.REACT_APP_COLOR_PRIMARY/>
<path fill-rule="evenodd" clip-rule="evenodd" d="M173.06 90.8725C179.232 93.1301 188.008 98.6792 188.31 115.525C188.593 131.273 178.478 159.627 165.562 167.162C152.647 174.697 101.952 169.868 92.5359 173.189C91.4533 172.675 88.2141 167.539 88.1094 164.49C88.1194 164.49 130.973 166.709 148.407 162.405C165.842 158.1 169.072 150.78 175.746 129.9C182.42 109.019 173.163 99.5473 168.427 96.7484C163.691 93.9496 156.828 96.4902 156.828 96.4902L157.826 93.9096C158.893 91.9689 159.62 90.3512 159.877 89.3122L160.366 87.3278C160.42 87.2679 160.628 87.0347 160.933 86.7129C161.131 87.7606 161.197 88.5289 162.353 88.7846C163.805 89.1076 168.975 89.5766 173.061 90.8738" fill="#B82B2D"/>
<path fill-rule="evenodd" clip-rule="evenodd" d="M146.482 63.3179C145.579 63.1683 149.872 69.9372 154.231 71.2294C157.192 72.1025 159.704 77.3759 160.355 82.5384C159.632 83.5861 159.117 84.4442 159.117 84.4442C159.117 84.4442 159.99 84.3881 160.517 85.3173C160.496 86.7629 160.296 88.1299 159.882 89.3086C157.783 95.283 140.508 121.922 132.759 115.465C125.01 109.008 135.18 95.4451 133.081 91.5686C130.982 87.6921 145.537 63.4202 145.537 63.4202C145.537 63.4202 146.439 63.3142 146.482 63.3154" fill="#FFA87B"/>
<path fill-rule="evenodd" clip-rule="evenodd" d="M137.019 116.338C135.415 116.76 133.95 116.569 132.725 115.548C131.769 114.765 131.012 113.766 130.517 112.634C130.474 112.384 130.454 112.215 130.454 112.215C130.454 112.215 132.444 113.864 134.892 113.675C137.34 113.487 139.194 112.265 139.008 112.249C138.851 112.236 138.846 115.099 137.012 116.34" fill="#FEFEFE"/>
<path fill-rule="evenodd" clip-rule="evenodd" d="M133.47 94.3933C133.695 96.6101 133.46 98.8494 132.78 100.971C131.652 104.414 130.805 110.451 135.774 105.316C140.743 100.181 149.846 91.8052 150.411 87.6293C150.976 83.4535 141.979 81.4167 141.698 81.5576C141.418 81.6986 133.405 94.4195 133.466 94.3933" fill="#D97B4B"/>
<path fill-rule="evenodd" clip-rule="evenodd" d="M136.336 116.408C136.336 116.408 139.171 114.69 138.847 111.058C138.523 107.426 136.103 104.762 139.493 100.322C142.883 95.8815 143.932 97.498 148.775 88.4565C153.619 79.415 153.377 79.0109 153.377 79.0109L160.748 78.8301C160.748 78.8301 161.227 79.5123 161.41 81.0901C160.584 82.1665 159.816 83.2865 159.11 84.4453C159.11 84.4453 160.293 84.3692 160.732 85.851C160.81 86.1179 160.866 86.3723 160.914 86.6143C160.38 88.7883 159.408 91.4786 157.737 94.7527C151.764 106.458 146.667 111.605 142.803 113.562C140.893 114.529 139.371 115.499 138.24 115.965C137.083 116.443 136.338 116.408 136.338 116.408" fill="#D0393B"/>
<path fill-rule="evenodd" clip-rule="evenodd" d="M136.336 116.407C136.336 116.407 139.171 114.69 138.847 111.058C138.523 107.426 136.103 104.761 139.493 100.321C142.883 95.8808 143.932 97.4973 148.775 88.4558C151.135 84.0517 152.286 81.6981 152.848 80.4409L155.708 80.3398C156.111 80.8874 152.948 84.4558 149.236 92.4496C145.524 100.443 139.548 102.054 140.113 106.012C140.678 109.971 140.878 112.813 137.307 116.274C136.991 116.361 136.664 116.406 136.336 116.407Z" fill="#B82B2D"/>
<path fill-rule="evenodd" clip-rule="evenodd" d="M88.3363 163.183C86.5201 161.852 84.8289 160.358 83.2837 158.72C77.3579 152.511 67.1265 141.009 69.1022 137.624C70.3719 135.446 71.7589 134.204 72.9999 133.518L74.5303 136.701C74.5478 137.064 74.665 137.367 74.9394 137.55C75.9135 138.2 83.2961 139.07 86.9307 138.955C87.2788 138.974 87.6279 138.949 87.9697 138.88C88.4998 138.813 88.8428 138.703 88.9276 138.542C89.0074 138.453 89.0796 138.357 89.1433 138.255C90.8109 136.49 88.9014 131.894 88.4474 130.127C87.9759 127.322 88.8303 123.824 89.9142 123.443C91.1128 123.018 94.3594 123.088 94.3594 128.45C94.3594 133.812 94.5004 137.13 97.3229 139.741C100.244 142.443 99.9285 146.406 100.209 149.412C94.4979 152.568 88.3351 163.183 88.3351 163.183" fill="#FFA87B"/>
<path fill-rule="evenodd" clip-rule="evenodd" d="M88.3364 163.183C86.5199 161.853 84.8287 160.359 83.2837 158.721C78.4929 153.702 70.8908 145.225 69.1895 140.372C70.135 140.746 71.6841 142.045 73.6598 142.899C76.8877 144.298 84.5247 143.235 88.1356 142.685C91.7464 142.134 91.472 147.635 93.6797 150.168C95.0904 151.79 96.3701 151.884 97.1084 151.745C92.4711 156.055 88.3302 163.186 88.3302 163.186" fill="#D97B4B"/>
<path fill-rule="evenodd" clip-rule="evenodd" d="M65.979 118.924C65.979 118.924 65.4252 117.327 66.5714 115.982C67.6079 114.766 81.3154 114.812 84.0781 114.839C84.9188 114.847 85.7507 115.837 86.5814 118.082C87.5593 120.709 88.9949 124.612 88.9949 124.612C88.6693 125.384 88.4324 126.45 88.3488 127.584C88.2565 128.437 88.249 129.346 88.4498 130.127L88.4723 130.212V130.235L88.491 130.301V130.308C88.8103 131.454 89.5798 133.612 89.7856 135.547C89.8717 136.637 89.732 137.625 89.1383 138.253C89.0743 138.355 89.0021 138.45 88.9225 138.54C88.8402 138.701 88.4947 138.811 87.9646 138.878C87.6228 138.947 87.2738 138.972 86.9257 138.953C83.2861 139.068 75.9085 138.205 74.9344 137.549C74.66 137.365 74.5427 137.062 74.5253 136.699C71.6566 130.723 68.7741 125.053 65.974 118.922" fill="#04213B"/>
<path fill-rule="evenodd" clip-rule="evenodd" d="M127.129 94.2386C126.734 95.0643 125.161 98.4569 124.318 101.827C123.35 105.702 125.449 104.33 127.87 108.448C130.291 112.565 131.099 113.604 131.099 113.604C131.099 113.604 129.411 111.825 130.565 104.217C131.719 96.6084 133.98 96.1794 133.559 93.509C133.522 93.2682 133.476 93.04 133.425 92.8242C132.414 93.2236 131.379 93.5601 130.327 93.832C129.282 94.1074 128.206 94.2441 127.125 94.2386" fill="#D0393B"/>
<path fill-rule="evenodd" clip-rule="evenodd" d="M131.371 114.004L128.627 113.256C128.627 113.256 126.581 109.327 125.344 107.927C124.107 106.528 121.738 104.86 122.061 102.065C122.311 99.8763 124.048 95.8114 124.792 94.1426C125.544 94.2917 126.309 94.3681 127.075 94.3708C126.6 95.3761 125.13 98.6115 124.324 101.833C123.356 105.709 125.455 104.337 127.876 108.454C128.714 109.878 129.359 110.933 129.844 111.705C130.533 112.803 130.898 113.327 131.035 113.514L130.973 113.42C131.002 113.47 131.034 113.517 131.068 113.563C131.193 113.752 131.305 113.911 131.373 114.003" fill="#B82B2D"/>
<path fill-rule="evenodd" clip-rule="evenodd" d="M98.2198 70.1022C95.2376 77.8228 108.073 100.925 118.099 91.8746C113.441 88.4695 110.881 80.7003 108.151 74.6535C105.577 68.956 102.731 64.9896 101.732 61.163C97.2656 44.0754 99.6779 49.4187 113.173 48.0255C131.35 46.1459 135.375 40.2089 138.318 39.8908C141.262 39.5728 144.929 55.1873 140.175 64.724C129.354 86.4153 156.325 96.3822 168.441 74.631C182.065 53.2753 170.799 6.47643 132.451 12.5369C77.8207 21.1693 103.7 55.9207 98.2198 70.1022Z" fill="#B82B2D"/>
<path fill-rule="evenodd" clip-rule="evenodd" d="M157.995 17.9155C151.499 13.2095 143.003 10.8696 132.451 12.5372C117.983 14.8222 109.171 18.9382 103.917 24.0184C105.009 28.3639 108.789 31.4671 119.009 28.1743C138.132 22.014 146.655 15.9336 157.991 17.9155" fill=process.env.REACT_APP_COLOR_PRIMARY/>
<path fill-rule="evenodd" clip-rule="evenodd" d="M148.986 67.8176C148.986 67.8176 154.84 68.9913 157.691 70.9595C160.542 72.9277 156.341 79.1765 152.467 81.0374C148.593 82.8983 148.986 67.8164 148.986 67.8164V67.8176ZM131.731 43.2451C135.194 41.5413 136.886 40.0509 138.318 39.8962C141.258 39.5794 144.929 55.1927 140.175 64.7294C129.481 86.1662 155.696 96.1481 168.007 75.3835C172.871 64.1469 173.691 50.4568 168.631 41.2757C158.86 23.5619 138.998 32.894 138.998 32.894C138.998 32.894 135.256 36.7481 131.731 43.2389V43.2451Z" fill="#D0393B"/>
<path fill-rule="evenodd" clip-rule="evenodd" d="M135.224 41.3161C136.548 40.5328 137.479 39.9815 138.318 39.8905C141.258 39.5737 144.929 55.187 140.175 64.7236C134.999 75.0997 138.473 82.7891 144.828 85.6117C136.83 81.1427 141.62 72.2147 144.587 62.935C146.253 57.7252 146.277 52.0838 145.747 47.8431C144.269 36.0189 138.998 32.8945 138.998 32.8945C138.998 32.8945 137.403 36.2622 135.221 41.3174" fill="#04213B"/>
<path fill-rule="evenodd" clip-rule="evenodd" d="M101.732 61.1619C101.732 61.1619 102.924 64.7641 101.808 68.7154C99.9123 75.417 103.279 85.5161 109.34 89.3428C113.439 91.9309 115.114 92.8351 117.9 90.4653C120.687 88.0955 116.431 72.4285 114.328 69.5898C112.225 66.751 101.731 61.1582 101.731 61.1582" fill="#04213B"/>
<path fill-rule="evenodd" clip-rule="evenodd" d="M99.8462 49.9038C100.165 53.3962 100.735 57.37 101.741 61.2203C102.739 65.0469 105.587 69.0133 108.16 74.7108C110.891 80.7576 109.081 87.3544 118.109 91.9319C121.029 94.0659 124.345 95.2034 128.069 94.737C136.289 93.7042 140.617 89.9362 143.161 84.7725C137.913 81.4149 135.479 74.2044 140.18 64.7813C144.937 55.2446 141.263 39.6313 138.324 39.9481C135.386 40.2649 131.36 46.2032 113.179 48.0816C104.76 48.9547 100.656 47.1985 99.8424 49.9038" fill="#FFA87B"/>
<path fill-rule="evenodd" clip-rule="evenodd" d="M100.018 51.6456C100.364 54.8547 100.937 58.0353 101.732 61.1635C101.871 61.6903 102.038 62.2095 102.231 62.7188C102.245 62.7188 109.872 62.2324 120.237 59.7254C129.794 57.4167 139.618 54.1127 141.975 59.123C143.638 50.0902 140.728 39.6281 138.319 39.8875C135.381 40.2056 131.351 46.1426 113.175 48.0222C110.812 48.254 108.438 48.3394 106.065 48.2779C103.741 49.4416 101.677 50.5879 100.015 51.6456" fill="#D97B4B"/>
<path fill-rule="evenodd" clip-rule="evenodd" d="M96.3089 43.4435C94.325 47.3969 92.7092 51.5245 91.4819 55.7741C89.4863 62.7475 100.193 61.0812 113.135 58.9833C126.076 56.8854 138.933 53.8034 141.239 48.0809C143.546 42.3584 139.155 33.0949 138.998 32.8954C138.841 32.6958 127.869 40.4775 114.867 41.6624C101.865 42.8473 96.3064 43.4448 96.3064 43.4448" fill="#00386C"/>
<path fill-rule="evenodd" clip-rule="evenodd" d="M97.1097 44.916C96.7006 44.9322 93.5188 53.5883 93.5238 55.796C93.5288 58.0036 98.0863 58.3454 106.207 57.1979C114.83 55.9806 99.3473 52.5618 97.1097 44.916Z" fill="#93B5CC"/>
<path fill-rule="evenodd" clip-rule="evenodd" d="M116.234 151.375C116.234 151.375 145.192 151.998 152.188 150.377C159.184 148.755 162.952 134.124 164.459 126.374C165.965 118.625 160.799 117.118 159.719 117.768C158.639 118.418 158.104 139.618 154.337 144.354C150.57 149.09 116.23 151.376 116.23 151.376" fill="#FA7071"/>
<path fill-rule="evenodd" clip-rule="evenodd" d="M67.7227 118.898L69.3853 118.74C69.5685 118.736 69.7491 118.784 69.9062 118.879C70.0634 118.973 70.1906 119.11 70.2734 119.273L73.0174 125.097C73.1683 125.421 73.0174 125.713 72.6831 125.745L71.0218 125.901C70.8385 125.905 70.6578 125.858 70.5006 125.763C70.3434 125.669 70.2162 125.532 70.1337 125.368L67.3959 119.545C67.2438 119.221 67.3959 118.929 67.729 118.898" fill="#33454B"/>
<path fill-rule="evenodd" clip-rule="evenodd" d="M67.7115 118.997L69.333 118.844C69.5109 118.84 69.6863 118.886 69.8389 118.978C69.9914 119.07 70.1149 119.203 70.1948 119.362L72.8577 125.025C73.0062 125.341 72.8578 125.624 72.5335 125.649L70.9183 125.801C70.7401 125.806 70.5643 125.76 70.4115 125.668C70.2587 125.576 70.1351 125.443 70.0551 125.284L67.3922 119.62C67.2438 119.304 67.3922 119.021 67.7165 118.996" fill="#93B5CC"/>
<path fill-rule="evenodd" clip-rule="evenodd" d="M67.7115 118.997L69.3329 118.844C69.511 118.84 69.6865 118.887 69.8392 118.978C69.9919 119.07 70.1156 119.203 70.196 119.362L70.6426 120.312L69.3953 123.895L67.3884 119.626C67.24 119.31 67.3884 119.027 67.7127 119.002" fill="#93B5CC"/>
<path fill-rule="evenodd" clip-rule="evenodd" d="M69.1721 119.513C69.4411 119.564 69.6848 119.705 69.8642 119.912C70.0436 120.119 70.1482 120.38 70.1612 120.654C70.1612 121.192 69.7309 121.552 69.1896 121.458C68.9208 121.406 68.6773 121.266 68.4982 121.059C68.319 120.852 68.2146 120.591 68.2017 120.317C68.1966 120.195 68.2198 120.074 68.2694 119.962C68.3189 119.851 68.3936 119.752 68.4875 119.674C68.5815 119.597 68.6921 119.541 68.8109 119.513C68.9296 119.485 69.0532 119.485 69.1721 119.513Z" fill="#272E30"/>
<path fill-rule="evenodd" clip-rule="evenodd" d="M78.5927 117.425C80.7455 117.387 82.5079 117.439 82.7673 117.58C83.1353 117.781 83.6965 118.857 84.3277 120.414C83.4968 120.482 82.6613 120.469 81.8331 120.374C80.3526 120.197 79.0629 118.24 78.5902 117.425" fill="#93B5CC"/>
<path fill-rule="evenodd" clip-rule="evenodd" d="M141.93 125.602L142.305 127.108C142.305 127.108 144.834 127.431 150.215 127.216C155.595 127 155.92 124.846 155.92 124.846L141.93 125.602Z" fill="#B82B2D"/>
<path fill-rule="evenodd" clip-rule="evenodd" d="M177.615 153.308L178.238 155.927L173.957 159.045C175.36 156.975 176.303 155.647 177.616 153.308" fill="#B82B2D"/>
<path fill-rule="evenodd" clip-rule="evenodd" d="M125.087 87.0076C122.407 87.7045 119.762 87.863 118.024 87.7907C117.852 87.7836 117.721 87.6354 117.732 87.4635C117.743 87.2917 117.89 87.1611 118.062 87.1681C119.745 87.2369 122.322 87.0823 124.93 86.404C127.607 85.7079 130.28 84.4699 132.07 82.3939C132.182 82.2635 132.378 82.2418 132.512 82.3497C132.646 82.4577 132.668 82.6543 132.556 82.785C130.65 85.0062 127.831 86.2941 125.087 87.0076Z" fill="#D97B4B"/>
</svg>
