<svg width="24" height="24" viewBox="0 0 24 24" fill="none" xmlns="http://www.w3.org/2000/svg">
<path d="M3.57557 7.20006C3.23996 7.10443 2.90338 7.34443 2.90338 7.70444V21.36C2.90338 21.6 3.04776 21.7922 3.26338 21.8643L8.18338 23.4V8.63996L3.57557 7.20006Z" fill="#ED6B5A"/>
<path d="M13.9446 12.4324L11.1358 8.08789L9.36023 8.64008V23.4001L14.6402 21.7445V13.0322C14.3524 12.9122 14.1124 12.6957 13.9446 12.4322L13.9446 12.4324Z" fill="#ED6B5A"/>
<path d="M21.0956 9.00005C21.0956 8.76005 20.9512 8.56786 20.7356 8.49567L19.32 8.06348L16.5122 12.4322C16.3444 12.6966 16.08 12.9122 15.7922 13.0078V21.7201L20.4245 23.1601C20.7601 23.2557 21.0967 23.0157 21.0967 22.6557L21.0956 9.00005Z" fill="#ED6B5A"/>
<path d="M19.4877 4.75224C19.4399 2.56785 17.6643 0.719997 15.4555 0.599997C13.0077 0.479997 10.9442 2.42438 10.9442 4.87224C10.9442 5.64005 11.1598 6.38443 11.5198 7.00785L14.7121 11.9523C14.9521 12.3123 15.4799 12.3123 15.7199 11.9523L18.9121 7.00785C19.2956 6.33566 19.5121 5.56785 19.4877 4.75224ZM15.2155 6.93569C14.0633 6.93569 13.1277 6.00007 13.1277 4.84788C13.1277 3.69569 14.0633 2.76007 15.2155 2.76007C16.3677 2.76007 17.3033 3.69569 17.3033 4.84788C17.3042 6.00007 16.3677 6.93569 15.2155 6.93569Z" fill="#ED6B5A"/>
</svg>
