<svg width="12" height="16" viewBox="0 0 12 16" fill="none" xmlns="http://www.w3.org/2000/svg">
<path d="M6.00008 0C3.04299 0 0.666748 2.44963 0.666748 5.50021C0.666748 7.80932 3.72446 12.6414 5.20941 14.8518C5.59154 15.4207 6.40862 15.4207 6.79075 14.8518C8.2757 12.6414 11.3334 7.80932 11.3334 5.50021C11.3334 2.44963 8.95717 0 6.00008 0ZM6.00008 7.99952C4.64289 7.99952 3.57567 6.89986 3.57567 5.49925C3.57567 4.0996 4.64196 2.99898 6.00008 2.99898C7.35727 2.99898 8.42449 4.09864 8.42449 5.49925C8.42449 6.89984 7.35729 7.99952 6.00008 7.99952Z" fill="#FF6160"/>
</svg>
