<svg width="30" height="30" viewBox="0 0 30 30" fill="none" xmlns="http://www.w3.org/2000/svg">
<path d="M25.9371 11.5629L22.5 6.24963H7.49997L4.06287 11.5617C4.06287 12.7488 5.06247 13.7496 6.25077 13.7496C7.43787 13.7496 8.43867 12.8121 8.43867 11.5617C8.43867 12.7488 9.43827 13.7496 10.6266 13.7496C11.8137 13.7496 12.8145 12.8121 12.8145 11.5617C12.8145 12.7488 13.8141 13.7496 15.0024 13.7496C16.1895 13.7496 17.1903 12.8121 17.1903 11.5617C17.1903 12.7488 18.1899 13.7496 19.3782 13.7496C20.5653 13.7496 21.5661 12.8121 21.5661 11.5617C21.5661 12.7488 22.5657 13.7496 23.754 13.7496C24.9376 13.7496 25.9372 12.8121 25.9372 11.5629L25.9371 11.5629Z" fill="#87CAFE"/>
<path d="M23.7504 16.2505C23.0625 16.2505 22.4379 16.1251 21.8754 15.8755V20.6251H8.1246V15.8755C7.5621 16.1251 6.9375 16.2505 6.2496 16.2505C6.0621 16.2505 5.8125 16.2505 5.625 16.1884V23.1247H24.3738L24.375 16.1872C24.1875 16.2505 23.9379 16.2505 23.7504 16.2505L23.7504 16.2505Z" fill="#87CAFE"/>
</svg>
