<svg width="242" height="138" viewBox="0 0 242 138" fill="none" xmlns="http://www.w3.org/2000/svg">
<path d="M109.677 137.02C109.521 135.234 109.848 133.438 110.624 131.822C111.399 130.206 112.594 128.829 114.084 127.835C115.574 126.842 117.303 126.268 119.09 126.174C120.877 126.081 122.657 126.471 124.242 127.304C125.008 125.253 125.791 123.164 127.148 121.448C128.505 119.732 130.551 118.416 132.735 118.494V137.02H109.677Z" fill="#EBEBEB"/>
<path d="M48.9713 65.3464L37.1905 89.1554L40.708 89.2894L30.726 108.208H35.9691L27.7902 125.017H73.5082L63.4419 108.208L68.2654 107.998L58.6184 89.0887L62.1834 88.8787L48.9713 65.3464Z" fill="#EBEBEB"/>
<path d="M50.9632 92.9657C51.0212 92.9657 50.9209 103.049 50.7391 115.483C50.5573 127.917 50.363 138 50.3049 138C50.2469 137.999 50.3472 127.918 50.529 115.48C50.7108 103.041 50.9051 92.9649 50.9632 92.9657Z" fill="#E0E0E0"/>
<path d="M56.5666 98.5156C56.3432 98.9036 56.0869 99.2716 55.8007 99.6157C55.3021 100.276 54.5914 101.171 53.7921 102.148L51.7362 104.64C51.4666 104.997 51.1714 105.334 50.853 105.648C51.0765 105.26 51.3327 104.892 51.6189 104.548C52.1176 103.887 52.8282 102.992 53.628 102.015L55.6838 99.5233C55.9533 99.1664 56.2484 98.8296 56.5666 98.5156Z" fill="#E0E0E0"/>
<path d="M50.8524 105.648C49.9524 105.077 49.0907 104.448 48.2726 103.765C47.4111 103.137 46.5918 102.453 45.8201 101.717C46.7201 102.287 47.5819 102.916 48.3999 103.599C49.2615 104.227 50.0808 104.911 50.8524 105.648Z" fill="#E0E0E0"/>
<path d="M50.5392 117.326C50.2333 117.123 49.9458 116.893 49.6797 116.64C49.1638 116.2 48.4503 115.593 47.6497 114.939C46.8491 114.286 46.1115 113.708 45.5774 113.29C45.2751 113.081 44.9919 112.845 44.7308 112.586C45.0617 112.747 45.3746 112.943 45.6644 113.17C46.2227 113.559 46.9769 114.12 47.7811 114.776C48.5853 115.432 49.2855 116.06 49.7777 116.529C50.0587 116.767 50.314 117.034 50.5392 117.326Z" fill="#E0E0E0"/>
<path d="M57.0545 110.107C56.9997 110.224 56.9287 110.333 56.8437 110.431C56.6982 110.63 56.4753 110.909 56.1919 111.247C55.6275 111.924 54.802 112.822 53.8732 113.791C52.9445 114.761 52.1052 115.639 51.5135 116.288C51.2082 116.653 50.8831 117 50.5396 117.328C50.5944 117.211 50.6653 117.103 50.7504 117.005C50.8959 116.806 51.1188 116.527 51.4022 116.189C51.9665 115.511 52.7921 114.614 53.7213 113.644C54.6504 112.675 55.4889 111.797 56.0806 111.148C56.3857 110.783 56.7108 110.436 57.0545 110.107Z" fill="#E0E0E0"/>
<path d="M144.869 92.4389H192.637L201.564 79.7421L210.918 92.7967L221.912 92.6215L210.061 76.6328L156.801 76.8545L144.869 92.4389Z" fill="#E0E0E0"/>
<path d="M168.757 92.6222V137.127H216.455V92.6222H210.989L201.562 79.7424L192.606 92.4271L168.757 92.6222Z" fill="#F5F5F5"/>
<path d="M186.653 117.833H175.496V137.129H186.653V117.833Z" fill="#E0E0E0"/>
<path d="M210.917 117.289H193.341V128.197H210.917V117.289Z" fill="#E0E0E0"/>
<path d="M198.617 117.29H198.214V128.299H198.617V117.29Z" fill="#EBEBEB"/>
<path d="M205.926 117.29H205.523V128.299H205.926V117.29Z" fill="#EBEBEB"/>
<path d="M205.725 122.924H198.416V123.328H205.725V122.924Z" fill="#EBEBEB"/>
<path d="M210.917 95.458H193.341V106.365H210.917V95.458Z" fill="#E0E0E0"/>
<path d="M198.617 95.458H198.214V106.468H198.617V95.458Z" fill="#EBEBEB"/>
<path d="M205.926 95.458H205.523V106.468H205.926V95.458Z" fill="#EBEBEB"/>
<path d="M205.725 101.093H198.416V101.496H205.725V101.093Z" fill="#EBEBEB"/>
<path d="M185.489 95.5564H174.405V106.071H185.489V95.5564Z" fill="#E0E0E0"/>
<path d="M168.757 92.6221H149.397V137.129H168.757V92.6221Z" fill="#E0E0E0"/>
<path d="M180.149 95.5564H179.746V106.071H180.149V95.5564Z" fill="#EBEBEB"/>
<path d="M185.489 100.871H174.405V101.274H185.489V100.871Z" fill="#EBEBEB"/>
<path d="M201.535 90.594C202.833 90.594 203.886 89.5397 203.886 88.2392C203.886 86.9386 202.833 85.8843 201.535 85.8843C200.237 85.8843 199.185 86.9386 199.185 88.2392C199.185 89.5397 200.237 90.594 201.535 90.594Z" fill="#E0E0E0"/>
<path d="M184.771 85.3507L187.737 81.6853V72.8691H181.524V85.419L184.771 85.3507Z" fill="#F5F5F5"/>
<path d="M184.771 85.3507V72.8691H187.738V81.6857L184.771 85.3507Z" fill="#EBEBEB"/>
<path d="M188.155 71.5715H180.833V72.8691H188.155V71.5715Z" fill="#EBEBEB"/>
<path d="M168.757 112.091H132.735V137.129H168.757V112.091Z" fill="#F5F5F5"/>
<path d="M155.288 112.091H132.735V137.129H155.288V112.091Z" fill="#E0E0E0"/>
<path d="M151.931 120.163H137.181V137.085H151.931V120.163Z" fill="#F5F5F5"/>
<path d="M166.774 120.094H157.272V122.519H166.774V120.094Z" fill="#EBEBEB"/>
<path d="M144.869 92.4391V93.7278H192.607V92.427L144.869 92.4391Z" fill="#EBEBEB"/>
<path d="M192.606 93.728L201.534 81.1721L201.562 79.7424L192.635 92.4393L192.606 93.728Z" fill="#EBEBEB"/>
<path d="M221.681 92.6221H210.989V93.4536H221.681V92.6221Z" fill="#EBEBEB"/>
<path d="M182.848 114.875H178.903V116.378H182.848V114.875Z" fill="#E0E0E0"/>
<path d="M242 137.129C242 137.187 187.823 137.234 121.006 137.234C54.1663 137.234 0 137.187 0 137.129C0 137.071 54.1663 137.024 121.006 137.024C187.822 137.024 242 137.071 242 137.129Z" fill="#263238"/>
<path d="M148.383 19.9852C139.455 7.68218 126.473 1.94662 112.928 1.94702C112.928 1.94702 79.7545 1.94702 69.9308 31.6991C66.3102 42.6638 67.1123 54.5711 71.5054 65.2486C73.1548 69.3075 75.2324 73.1782 77.7027 76.7949C86.2678 89.19 112.928 123.038 112.928 123.038H118.723C126.163 112.684 144.897 78.2879 150.508 67.2602C157.553 53.4128 158.636 34.1141 148.383 19.9852ZM118.461 75.0215C112.857 75.0211 107.378 73.3558 102.719 70.2361C98.0592 67.1165 94.4276 62.6825 92.2832 57.4951C90.1388 52.3076 89.5779 46.5996 90.6715 41.0928C91.7651 35.586 94.464 30.5277 98.427 26.5577C102.39 22.5876 107.439 19.884 112.936 18.7888C118.432 17.6935 124.13 18.2558 129.307 20.4046C134.485 22.5534 138.91 26.1921 142.024 30.8606C145.137 35.5291 146.799 41.0177 146.799 46.6325C146.799 50.3607 146.066 54.0525 144.642 57.497C143.218 60.9414 141.13 64.0711 138.499 66.7073C135.868 69.3435 132.744 71.4345 129.305 72.8611C125.867 74.2877 122.182 75.0218 118.461 75.0215Z" fill={process.env.REACT_APP_COLOR_PRIMARY}/>
<path opacity="0.4" d="M148.383 19.9852C139.455 7.68218 126.473 1.94662 112.928 1.94702C112.928 1.94702 79.7545 1.94702 69.9308 31.6991C66.3102 42.6638 67.1123 54.5711 71.5054 65.2486C73.1548 69.3075 75.2324 73.1782 77.7027 76.7949C86.2678 89.19 112.928 123.038 112.928 123.038H118.723C126.163 112.684 144.897 78.2879 150.508 67.2602C157.553 53.4128 158.636 34.1141 148.383 19.9852ZM118.461 75.0215C112.857 75.0211 107.378 73.3558 102.719 70.2361C98.0592 67.1165 94.4276 62.6825 92.2832 57.4951C90.1388 52.3076 89.5779 46.5996 90.6715 41.0928C91.7651 35.586 94.464 30.5277 98.427 26.5577C102.39 22.5876 107.439 19.884 112.936 18.7888C118.432 17.6935 124.13 18.2558 129.307 20.4046C134.485 22.5534 138.91 26.1921 142.024 30.8606C145.137 35.5291 146.799 41.0177 146.799 46.6325C146.799 50.3607 146.066 54.0525 144.642 57.497C143.218 60.9414 141.13 64.0711 138.499 66.7073C135.868 69.3435 132.744 71.4345 129.305 72.8611C125.867 74.2877 122.182 75.0218 118.461 75.0215Z" fill="#E4FFEA"/>
<path d="M154.216 20.2177C145.288 7.9146 132.306 2.17904 118.761 2.17944C118.761 2.17944 85.5876 2.17945 75.7636 31.9311C72.1433 42.8958 72.9451 54.8031 77.3381 65.481C78.9878 69.5399 81.0655 73.4105 83.5358 77.0273C92.101 89.4224 118.761 123.269 118.761 123.269C118.761 123.269 149.561 80.8158 156.341 67.4906C163.386 53.6448 164.469 34.3466 154.216 20.2177ZM118.498 75.2539C112.894 75.2535 107.416 73.5883 102.756 70.4687C98.0967 67.3491 94.4651 62.9153 92.3206 57.728C90.1762 52.5406 89.6152 46.8327 90.7086 41.326C91.8021 35.8192 94.5008 30.761 98.4635 26.7908C102.426 22.8206 107.475 20.1169 112.972 19.0214C118.468 17.926 124.165 18.488 129.343 20.6364C134.521 22.7849 138.946 26.4233 142.06 31.0915C145.174 35.7598 146.836 41.2482 146.836 46.8629C146.865 50.5991 146.151 54.3036 144.737 57.7609C143.322 61.2182 141.236 64.3592 138.599 67.0012C135.962 69.6432 132.827 71.7334 129.376 73.1502C125.925 74.567 122.228 75.2821 118.498 75.2539Z" fill={process.env.REACT_APP_COLOR_PRIMARY}/>
<path d="M118.461 18.2424C112.605 18.243 106.893 20.0608 102.111 23.4458C97.3278 26.8308 93.7089 31.6169 91.7514 37.1461C93.9373 32.3033 97.646 28.3109 102.311 25.7792C106.975 23.2476 112.339 22.3159 117.582 23.1268C122.825 23.9376 127.658 26.4463 131.344 30.2693C135.029 34.0923 137.364 39.0193 137.99 44.2971C138.617 49.5748 137.501 54.9129 134.813 59.4953C132.126 64.0777 128.014 67.6523 123.107 69.6725C118.201 71.6928 112.768 72.0476 107.641 70.6826C102.514 69.3177 97.9741 66.3082 94.7154 62.1141C97.3936 66.2367 101.095 69.5913 105.457 71.8492C109.819 74.1071 114.691 75.1906 119.597 74.9937C124.503 74.7968 129.273 73.3262 133.441 70.726C137.609 68.1258 141.03 64.4852 143.371 60.1612C145.711 55.8372 146.89 50.9781 146.791 46.0603C146.693 41.1424 145.321 36.3346 142.809 32.108C140.298 27.8815 136.733 24.3813 132.465 21.9506C128.196 19.5199 123.371 18.2421 118.461 18.2424Z" fill={process.env.REACT_APP_COLOR_PRIMARY}/>
<path opacity="0.4" d="M118.461 18.2424C112.605 18.243 106.893 20.0608 102.111 23.4458C97.3278 26.8308 93.7089 31.6169 91.7514 37.1461C93.9373 32.3033 97.646 28.3109 102.311 25.7792C106.975 23.2476 112.339 22.3159 117.582 23.1268C122.825 23.9376 127.658 26.4463 131.344 30.2693C135.029 34.0923 137.364 39.0193 137.99 44.2971C138.617 49.5748 137.501 54.9129 134.813 59.4953C132.126 64.0777 128.014 67.6523 123.107 69.6725C118.201 71.6928 112.768 72.0476 107.641 70.6826C102.514 69.3177 97.9741 66.3082 94.7154 62.1141C97.3936 66.2367 101.095 69.5913 105.457 71.8492C109.819 74.1071 114.691 75.1906 119.597 74.9937C124.503 74.7968 129.273 73.3262 133.441 70.726C137.609 68.1258 141.03 64.4852 143.371 60.1612C145.711 55.8372 146.89 50.9781 146.791 46.0603C146.693 41.1424 145.321 36.3346 142.809 32.108C140.298 27.8815 136.733 24.3813 132.465 21.9506C128.196 19.5199 123.371 18.2421 118.461 18.2424Z" fill="black"/>
<path d="M174.963 59.6492C173.821 58.8703 172.438 58.5283 171.065 58.6856C168.742 58.9509 165.379 59.2914 165.379 59.2914L165.391 59.402L149.133 60.4052L144.157 50.2854L136.611 55.2658C136.611 55.2658 137.603 56.8586 141.832 64.682C142.658 66.2091 143.931 67.4455 145.481 68.224C147.03 69.0025 148.781 69.2857 150.497 69.0352L169.64 66.2284V66.1917C171.615 66.0798 173.76 65.8948 174.071 65.6109C174.664 65.0673 175.205 63.0888 175.205 63.0888C175.205 63.0888 178.614 65.1218 179.274 65.1667C179.933 65.2115 180.05 64.6623 180.46 64.0795C180.741 63.6837 177.224 61.1915 174.963 59.6492Z" fill="#F9D4B9"/>
<path d="M145.158 49.6256C145.158 49.6256 141.998 43.5314 139.102 37.7781C135.545 30.7106 127.703 29.2971 127.703 29.2971L116.343 27.8029C116.343 27.8029 106.85 23.499 98.002 34.1805L90.7288 42.3041L92.2726 43.695L99.4709 50.1789L100.894 51.4607L104.151 48.1011L102.637 56.6131L99.9647 68.4784L99.9727 68.4853L105.748 67.7862L109.659 43.8561L131.682 45.6161L129.954 60.7038C130.308 60.6497 132.973 60.1234 133.838 56.496C134.124 55.3411 134.13 54.1347 133.857 52.9768L135.13 56.2448L145.158 49.6256Z" fill="#455A64"/>
<path d="M109.659 43.8413L105.749 67.7718L99.973 68.4709C103.833 71.8041 108.518 74.0323 113.536 74.9208C118.554 75.8092 123.718 75.325 128.484 73.5191L129.954 60.6882L131.682 45.6005L109.659 43.8413Z" fill="#263238"/>
<path d="M110.964 26.6129L110.485 46.0509L114.16 46.6325L114.653 26.9352C114.653 26.9352 113.363 26.3274 110.964 26.6129Z" fill="#263238"/>
<path d="M126.508 46.1556L129.534 29.4606C129.707 29.2745 132.194 30.1682 132.94 31.0183L130.223 46.5062L126.508 46.1556Z" fill="#263238"/>
<path d="M114.294 43.7733C114.331 43.8805 114.349 43.9931 114.349 44.1065C114.379 44.4128 114.383 44.7211 114.359 45.0281C114.331 45.4973 114.173 45.9495 113.902 46.3333C113.737 46.5647 113.516 46.7508 113.26 46.8745C112.979 47.0033 112.665 47.0414 112.361 46.9835C112.076 46.9234 111.807 46.8053 111.57 46.6365C111.333 46.4678 111.132 46.252 110.982 46.0026C110.749 45.5989 110.61 45.1475 110.575 44.6824C110.549 44.3757 110.55 44.0673 110.578 43.7608C110.578 43.6473 110.597 43.5347 110.636 43.428C110.676 43.428 110.629 43.9126 110.723 44.665C110.775 45.1019 110.919 45.5227 111.146 45.8996C111.286 46.1218 111.469 46.3138 111.684 46.4644C111.899 46.615 112.142 46.7212 112.398 46.7768C112.653 46.8218 112.915 46.793 113.155 46.6938C113.394 46.5945 113.599 46.429 113.748 46.2166C114.006 45.8631 114.166 45.4472 114.212 45.0115C114.296 44.2575 114.253 43.7729 114.294 43.7733Z" fill="#455A64"/>
<path d="M112.117 45.4906C111.963 45.4294 111.83 45.3236 111.735 45.1867C111.641 45.0498 111.589 44.888 111.587 44.7216C111.584 44.5552 111.631 44.3918 111.721 44.2521C111.811 44.1124 111.941 44.0026 112.093 43.9367C112.246 43.8708 112.414 43.8517 112.578 43.8818C112.741 43.9119 112.892 43.9899 113.011 44.1059C113.13 44.2219 113.212 44.3707 113.247 44.5334C113.281 44.6962 113.267 44.8655 113.205 45.0201C113.123 45.2269 112.962 45.3926 112.758 45.4808C112.554 45.569 112.324 45.5725 112.117 45.4906Z" fill="#455A64"/>
<path d="M129.351 45.5967C129.351 45.763 129.302 45.9256 129.21 46.0638C129.117 46.2021 128.986 46.3099 128.833 46.3735C128.68 46.4372 128.511 46.4538 128.348 46.4214C128.185 46.3889 128.036 46.3088 127.918 46.1912C127.801 46.0737 127.721 45.9238 127.689 45.7607C127.656 45.5976 127.673 45.4286 127.736 45.2749C127.8 45.1213 127.908 44.99 128.046 44.8976C128.184 44.8052 128.346 44.7559 128.512 44.7559C128.734 44.7559 128.948 44.8444 129.105 45.0021C129.263 45.1598 129.351 45.3737 129.351 45.5967Z" fill="#455A64"/>
<path d="M130.479 45.0142C130.47 45.3502 130.405 45.6824 130.287 45.9968C130.175 46.3535 129.984 46.6799 129.727 46.9511C129.564 47.1211 129.364 47.2517 129.143 47.3331C128.922 47.4146 128.686 47.4447 128.452 47.4212C127.984 47.3727 127.553 47.1495 127.242 46.796C127 46.5084 126.838 46.162 126.772 45.7916C126.726 45.5473 126.719 45.2972 126.751 45.0506C126.777 44.8777 126.81 44.7864 126.822 44.7889C126.827 45.114 126.858 45.4383 126.917 45.7581C126.997 46.0946 127.159 46.4063 127.387 46.666C127.671 46.9729 128.057 47.1662 128.472 47.21C128.677 47.2308 128.883 47.2058 129.077 47.1369C129.27 47.0679 129.446 46.9568 129.592 46.8114C129.836 46.5645 130.026 46.2688 130.148 45.9435C130.362 45.3817 130.443 45.0041 130.479 45.0142Z" fill="#455A64"/>
<path d="M112.064 52.9959C112.035 52.9927 112.023 52.8344 112.031 52.5788C112.034 52.4515 112.042 52.3009 112.053 52.1345C112.06 52.0449 112.067 51.9584 112.073 51.8724L112.085 51.7339L112.092 51.6628L112.096 51.6273V51.6091V51.6002V51.5925C111.992 51.6854 112.237 51.4645 112.212 51.4875C112.686 51.504 113.154 51.5903 113.603 51.7436C113.132 51.7975 112.656 51.7817 112.189 51.6967C112.164 51.7193 112.409 51.4988 112.305 51.5925V51.6002V51.6095L112.303 51.6277L112.3 51.664L112.292 51.7359L112.277 51.8765C112.266 51.9641 112.255 52.0513 112.244 52.1422C112.222 52.3114 112.199 52.4632 112.177 52.5905C112.134 52.8441 112.092 52.9992 112.064 52.9959Z" fill="#455A64"/>
<path d="M111.476 58.563C111.435 57.6258 111.534 56.6877 111.771 55.78C111.813 56.7173 111.713 57.6555 111.476 58.563Z" fill="#455A64"/>
<path d="M112.294 63.3808C111.833 63.268 111.391 63.088 110.983 62.8465C110.996 62.8691 110.874 62.6466 110.925 62.7407V62.7322V62.7229L110.927 62.7047L110.931 62.6688L110.939 62.5973L110.956 62.458L110.99 62.1951C111.013 62.0275 111.037 61.8768 111.06 61.7508C111.106 61.4988 111.149 61.3441 111.178 61.347C111.206 61.3498 111.218 61.5085 111.208 61.7666C111.204 61.8946 111.195 62.0468 111.182 62.2157C111.175 62.3061 111.168 62.3929 111.16 62.4802L111.147 62.6199L111.14 62.6914L111.136 62.7273V62.7455V62.7544V62.7625C111.187 62.857 111.065 62.6349 111.078 62.6575C111.516 62.8376 111.926 63.0814 112.294 63.3808Z" fill="#455A64"/>
<path d="M116.017 65.234C115.34 65.0539 114.707 64.7386 114.155 64.3071C114.831 64.4873 115.465 64.8025 116.017 65.234Z" fill="#455A64"/>
<path d="M120.451 66.2582C120.062 66.5287 119.634 66.7405 119.183 66.8866C119.011 66.8801 119.135 66.8846 119.097 66.8829H119.095L119.091 66.8809L119.083 66.8769L119.066 66.8688L119.034 66.8527L118.97 66.8203L118.845 66.7565L118.61 66.633C118.462 66.5522 118.328 66.4783 118.219 66.4129C117.999 66.282 117.869 66.1879 117.882 66.1621C117.895 66.1362 118.048 66.1831 118.285 66.2796C118.403 66.328 118.543 66.389 118.696 66.4593L118.938 66.572L119.064 66.633L119.128 66.6645L119.161 66.6806L119.177 66.6883L119.186 66.6923L119.19 66.6947H119.192L119.106 66.6915C119.531 66.4815 119.984 66.3355 120.451 66.2582Z" fill="#455A64"/>
<path d="M123.463 65.0347C123.484 65.0884 123.165 65.2689 122.749 65.4386C122.333 65.6082 121.978 65.7011 121.957 65.6469C121.935 65.5928 122.255 65.4127 122.671 65.2431C123.086 65.0735 123.441 64.9806 123.463 65.0347Z" fill="#455A64"/>
<path d="M126.421 62.4861C126.477 62.9578 126.464 63.4351 126.381 63.9028C126.251 64.0761 126.345 63.9509 126.315 63.9896H126.313H126.309L126.301 63.9929L126.284 63.9997L126.25 64.0135L126.183 64.0401L126.053 64.0914L125.805 64.1851C125.647 64.2441 125.503 64.2941 125.381 64.3333C125.139 64.4117 124.981 64.4468 124.97 64.4197C124.96 64.3927 125.096 64.3091 125.326 64.1952C125.44 64.1387 125.578 64.074 125.733 64.0058L125.975 63.9004L126.104 63.8463L126.17 63.8188L126.204 63.8051L126.22 63.7982L126.229 63.7946H126.233H126.235C126.206 63.835 126.301 63.7081 126.171 63.881C126.186 63.4062 126.27 62.9362 126.421 62.4861Z" fill="#455A64"/>
<path d="M126.96 57.2529C127.01 58.1339 126.919 59.0173 126.691 59.8695C126.64 58.9885 126.731 58.1052 126.96 57.2529Z" fill="#455A64"/>
<path d="M125.971 53.0787C126.442 53.0247 126.919 53.0405 127.385 53.1255C127.572 53.3561 127.437 53.1898 127.479 53.2415V53.2455V53.2499V53.2592L127.477 53.2774L127.473 53.3133L127.465 53.3848L127.449 53.5242L127.416 53.7875C127.394 53.9551 127.37 54.1057 127.348 54.2317C127.303 54.4841 127.26 54.6388 127.232 54.6356C127.203 54.6323 127.191 54.474 127.2 54.216C127.204 54.0879 127.211 53.9357 127.224 53.7669L127.245 53.5023L127.257 53.3626L127.265 53.2911L127.268 53.2548V53.2366V53.2277V53.2233V53.2196C127.309 53.2709 127.175 53.1037 127.361 53.3343C126.888 53.3179 126.42 53.2318 125.971 53.0787Z" fill="#455A64"/>
<path d="M121.026 52.5445C121.859 52.4937 122.695 52.5838 123.498 52.8109C122.665 52.8622 121.829 52.7722 121.026 52.5445Z" fill="#455A64"/>
<path d="M116.08 52.0091C116.914 51.9578 117.75 52.0479 118.553 52.2755C117.72 52.3263 116.884 52.2363 116.08 52.0091Z" fill="#455A64"/>
<path d="M90.1633 45.1666C90.1383 45.6513 90.1258 46.1399 90.1258 46.6326C90.1249 48.5509 90.3172 50.4644 90.6998 52.344L90.7119 52.3993C90.7603 52.6335 90.8187 52.8641 90.8731 53.0967C91.094 54.0086 91.354 54.9088 91.6435 55.7957C91.6814 55.906 91.7168 56.0174 91.7555 56.1273C92.7976 55.8947 95.8132 53.2793 99.2843 50.0101L92.0917 43.531C91.084 44.537 90.4858 45.0535 90.1633 45.1666Z" fill="#F9D4B9"/>
<path d="M135.559 3.22314C135.809 6.01217 138.986 8.36585 141.779 8.27861C143.321 8.23055 144.879 7.544 146.361 7.9737C148.843 8.69337 149.847 12.1637 152.39 12.629C154.292 12.9771 156.048 11.4323 157.979 11.3285C159.397 11.2526 160.736 11.9626 161.911 12.7626C163.086 13.5627 164.208 14.4883 165.556 14.9434C166.904 15.3986 168.136 14.5901 169.493 14.1761C169.83 15.0432 170.049 16.107 170.482 17.0253C170.915 17.9437 171.439 19.5809 170.669 19.9371C170.669 19.9371 168.53 21.0481 167.291 20.9872C167.791 21.4925 168.415 21.8565 169.1 22.0424C169.786 22.2283 170.508 22.2294 171.193 22.0457C171.537 24.1195 171.795 26.5127 170.394 28.0772C169.74 28.7545 168.902 29.2248 167.984 29.4298C163.491 30.5917 158.798 27.4468 154.239 28.3054C152.366 28.6576 150.654 29.6701 148.765 29.9176C147.833 30.0347 146.886 29.9632 145.982 29.7074C145.078 29.4517 144.234 29.0168 143.5 28.4286C141.702 26.9703 140.464 24.531 138.183 24.1477C137.171 23.9785 136.145 24.2689 135.157 24.5484C134.169 24.8278 133.132 25.0956 132.129 24.8815C131.125 24.6675 130.18 23.8109 130.226 22.7839" fill="#263238"/>
<path d="M126.628 30.3281C127.132 27.5145 127.713 24.5615 127.713 24.5615C127.713 24.5615 131.439 24.5982 133.021 19.9979C134.529 15.6116 135.619 5.06008 135.619 5.06008C133.232 3.57314 130.448 2.85306 127.64 2.99642C124.833 3.13978 122.137 4.13973 119.913 5.86214L116.199 28.7834C115.768 31.444 117.708 33.9346 120.555 34.3752C123.431 34.8194 126.148 33.0085 126.628 30.3281Z" fill="#F9D4B9"/>
<path d="M127.713 24.5615C125.484 24.2033 123.397 23.2322 121.686 21.7563C121.686 21.7563 122.649 25.2776 127.454 25.6685L127.713 24.5615Z" fill="#F7C5A1"/>
<path d="M123.107 2.48142C124.369 5.26803 128.459 8.66365 131.617 9.86795C131.33 9.29245 129.555 7.6738 129.268 7.0987C130.542 8.48635 132.384 10.3699 134.331 10.8396C134.556 10.9147 134.797 10.9223 135.026 10.8614C135.154 10.7941 135.264 10.6978 135.348 10.5803C135.432 10.4628 135.488 10.3273 135.51 10.1846C135.888 8.77835 136.112 7.33506 136.177 5.88027C136.244 4.65287 135.84 3.44624 135.049 2.50726C133.972 1.2957 132.214 0.714954 130.524 0.353907C129.119 -0.00553233 127.657 -0.0821314 126.223 0.128553C124.824 0.397925 123.519 1.20604 123.099 2.39378" fill="#263238"/>
<path d="M115.576 12.9846C115.552 11.9015 115.592 10.8179 115.697 9.73966C116.016 7.27614 116.782 -1.67654 125.031 0.627053L124.153 2.92055C124.153 2.92055 124.787 8.68317 120.553 11.7779C120.553 11.7779 120.571 17.5296 117.638 19.6051C117.638 19.6051 115.593 15.7046 115.575 12.9846" fill="#263238"/>
<path d="M120.73 11.3879C120.243 11.1906 119.711 11.1315 119.192 11.217C118.672 11.3071 118.208 11.6003 117.902 12.0324C117.622 12.4821 117.522 13.0219 117.623 13.5425C117.727 14.0587 117.945 14.5454 118.26 14.9669C118.465 15.2843 118.743 15.5486 119.07 15.7382C119.234 15.8311 119.419 15.8817 119.607 15.8855C119.796 15.8894 119.982 15.8464 120.15 15.7604" fill="#F9D4B9"/>
<path d="M119.912 14.4061C119.967 14.4348 119.693 14.7021 119.253 14.4962C119.02 14.368 118.846 14.1525 118.77 13.8964C118.678 13.6114 118.643 13.311 118.666 13.0124C118.684 12.6929 118.815 12.3903 119.036 12.1591C119.129 12.0605 119.244 11.9844 119.371 11.9367C119.498 11.889 119.634 11.8708 119.769 11.8836C120.245 11.9567 120.333 12.3125 120.279 12.3125C120.235 12.3444 120.08 12.1421 119.755 12.1619C119.553 12.2015 119.371 12.3125 119.243 12.4747C119.115 12.6369 119.049 12.8397 119.057 13.0463C119.022 13.577 119.138 14.0887 119.394 14.2579C119.656 14.4546 119.887 14.3589 119.912 14.4061Z" fill="#F7C5A1"/>
<path d="M168.487 11.7784C168.431 11.8997 168.356 12.0109 168.265 12.1076C167.999 12.3874 167.658 12.5838 167.283 12.673C166.689 12.8219 166.063 12.7778 165.496 12.547C164.766 12.2251 164.087 11.798 163.48 11.2793C162.788 10.7542 162.013 10.1339 161.021 9.91664C160.508 9.81974 159.98 9.84268 159.477 9.98368C158.94 10.142 158.42 10.3543 157.926 10.6173C157.409 10.877 156.888 11.1682 156.327 11.4198C155.756 11.698 155.137 11.8634 154.504 11.9068C153.836 11.9291 153.178 11.7368 152.626 11.358C152.08 10.9617 151.603 10.477 151.215 9.92391C150.409 8.84764 149.757 7.68171 148.77 6.9168C148.294 6.53968 147.725 6.29992 147.123 6.22338C146.541 6.15524 145.952 6.18142 145.379 6.30092C144.247 6.51012 143.191 6.86914 142.152 7.0004C141.187 7.11938 140.207 7.03436 139.277 6.75082C137.928 6.34786 136.721 5.56762 135.8 4.50174C135.461 4.11697 135.179 3.68607 134.962 3.22192C134.985 3.2459 135.006 3.27309 135.022 3.30269L135.179 3.55107C136.141 5.04127 137.613 6.12828 139.318 6.60785C140.23 6.87494 141.188 6.94948 142.13 6.82674C143.145 6.69226 144.193 6.32919 145.344 6.1099C145.938 5.98401 146.547 5.95496 147.15 6.02387C147.787 6.10293 148.39 6.35424 148.895 6.75082C149.93 7.55287 150.586 8.73537 151.383 9.79549C151.757 10.3296 152.216 10.7982 152.742 11.1823C153.257 11.5374 153.872 11.7183 154.497 11.6989C155.104 11.6575 155.697 11.4998 156.245 11.2344C156.796 10.9897 157.317 10.7017 157.839 10.4421C158.346 10.1755 158.879 9.96126 159.43 9.80276C159.96 9.65763 160.517 9.63759 161.057 9.7442C162.105 9.98328 162.884 10.6278 163.572 11.1601C164.164 11.6776 164.827 12.1071 165.541 12.4355C166.085 12.667 166.688 12.7215 167.265 12.5914C167.631 12.5128 167.967 12.3339 168.237 12.0748C168.415 11.8951 168.478 11.7711 168.487 11.7784Z" fill="#263238"/>
<path d="M75.6408 92.0015L68.3293 106.778L70.5125 106.861L64.3172 118.603H67.571L62.4948 129.035H90.8692L84.6211 118.603L87.6146 118.473L81.6273 106.737L83.8399 106.606L75.6408 92.0015Z" fill="#455A64"/>
<path d="M76.8773 109.143C76.9353 109.143 76.891 115.403 76.7781 123.119C76.6652 130.835 76.527 137.092 76.4689 137.092C76.4109 137.092 76.4556 130.835 76.5681 123.115C76.6806 115.396 76.82 109.142 76.8773 109.143Z" fill="#263238"/>
<path d="M80.3545 112.942C80.2442 113.18 80.0964 113.399 79.9167 113.591C79.517 114.075 79.0919 114.537 78.6433 114.976C78.1245 115.494 77.6589 115.961 77.3324 116.311C77.1698 116.514 76.9855 116.699 76.783 116.862C76.8931 116.624 77.0409 116.405 77.2207 116.213C77.6204 115.729 78.0456 115.267 78.4945 114.828C79.0129 114.31 79.4785 113.843 79.805 113.495C79.9676 113.291 80.1518 113.106 80.3545 112.942Z" fill="#263238"/>
<path d="M76.8083 117.014C75.6837 116.314 74.6364 115.496 73.6842 114.575C74.8086 115.275 75.8557 116.093 76.8083 117.014Z" fill="#263238"/>
<path d="M76.6143 124.262C75.9812 123.813 75.3739 123.329 74.7955 122.811C74.1727 122.348 73.5766 121.85 73.0101 121.32C74.3586 122.104 75.575 123.097 76.6143 124.262Z" fill="#263238"/>
<path d="M80.6572 119.782C80.71 119.822 79.878 120.902 78.7114 122.095L77.2397 123.635C77.0526 123.865 76.843 124.075 76.6141 124.262C76.5613 124.222 77.3929 123.142 78.5599 121.949L80.0316 120.409C80.2188 120.179 80.4284 119.969 80.6572 119.782Z" fill="#263238"/>
</svg>
