<svg width="30" height="30" viewBox="0 0 30 30" fill="none" xmlns="http://www.w3.org/2000/svg">
<circle cx="15" cy="15" r="15" fill="#F9F9F9"/>
<g clip-path="url(#clip0)">
<path d="M14.9999 13C13.8973 13 12.9999 13.8974 12.9999 15C12.9999 16.1026 13.8973 17 14.9999 17C16.1026 17 16.9999 16.1026 16.9999 15C16.9999 13.8974 16.1026 13 14.9999 13Z" fill="#9FA3A6"/>
<path d="M22.875 14.4336H21.79C21.4551 11.1169 18.8127 8.47458 15.4962 8.13975V7.05469C15.4962 6.66351 15.1803 6.34766 14.7891 6.34766C14.3979 6.34766 14.0821 6.66349 14.0821 7.05469V8.13976C10.7654 8.47466 8.12308 11.1171 7.78825 14.4336H6.70319C6.31201 14.4336 5.99615 14.7494 5.99615 15.1406C5.99615 15.5318 6.31199 15.8477 6.70319 15.8477H7.78803C8.1199 19.1646 10.7657 21.8067 14.0821 22.1415V23.2265C14.0821 23.6177 14.3979 23.9336 14.7891 23.9336C15.1803 23.9336 15.4962 23.6178 15.4962 23.2265V22.1417C18.8131 21.8098 21.4552 19.1641 21.79 15.8477H22.875C23.2662 15.8477 23.5821 15.5318 23.5821 15.1406C23.5821 14.7494 23.2662 14.4336 22.875 14.4336ZM14.7891 20.7617C11.6893 20.7617 9.16802 18.2404 9.16802 15.1406C9.16802 12.0408 11.6893 9.51954 14.7891 9.51954C17.8888 9.51954 20.4101 12.0408 20.4101 15.1406C20.4101 18.2404 17.8888 20.7617 14.7891 20.7617Z" fill="#9FA3A6" stroke="#9FA3A6" stroke-width="0.5"/>
</g>
<defs>
<clipPath id="clip0">
<rect width="18" height="18" fill="white" transform="translate(6 6)"/>
</clipPath>
</defs>
</svg>
