<svg width="256" height="197" viewBox="0 0 256 197" fill="none" xmlns="http://www.w3.org/2000/svg">
<g opacity="0.5">
<path opacity="0.47" d="M0.278702 77.1461C1.51009 65.2656 7.50085 53.3655 17.909 44.8752C34.1124 31.6366 58.652 28.3343 80.1719 31.4217C89.1824 32.7211 98.1246 34.9976 107.35 34.2941C120.807 33.2683 132.652 26.1263 144.888 20.8992C161.56 13.7865 180.666 9.97616 198.404 13.1026C218.517 16.6492 235.013 29.9757 237.007 47.6304C237.906 55.6322 228.876 69.711 231.749 77.2927C234.661 84.9818 255.859 108.557 255.36 126.476C254.852 145.039 244.431 165.814 207.715 186.407C171 207 49.3063 191.431 27 172C4.69373 152.569 10.2861 142.684 15.5439 130.022C19.541 120.389 8.62473 112.426 4.40285 103.447C0.630524 95.4554 -0.620407 85.8513 0.278702 77.1461Z" fill="#E1E2FE"/>
</g>
<path opacity="0.2" fill-rule="evenodd" clip-rule="evenodd" d="M35 177.5C42 181.5 182.5 223.5 232.644 170.057C241.106 158.557 240.593 155.257 232.644 149.967C224.695 144.678 191.213 148.175 180.163 140.587C169.113 133 152.962 122.868 143.365 133C133.767 143.131 137.374 156.006 125.743 156.006C114.113 156.006 91.7502 140.552 80.3832 146.207C69.0162 151.862 72.4056 167.356 60.5006 163.938C48.5956 160.52 33.8605 153.626 27.6823 161.557C21.5041 169.489 28 173.5 35 177.5Z" fill="#F492A0"/>
<path d="M195.798 180C207.579 180 217.13 170.124 217.13 157.941C217.13 145.758 207.579 135.882 195.798 135.882C184.017 135.882 174.467 145.758 174.467 157.941C174.467 170.124 184.017 180 195.798 180Z" fill="#00386C"/>
<path d="M195.798 170.91C202.452 170.91 207.846 165.331 207.846 158.45C207.846 151.569 202.452 145.99 195.798 145.99C189.145 145.99 183.751 151.569 183.751 158.45C183.751 165.331 189.145 170.91 195.798 170.91Z" fill="white"/>
<path d="M166.152 126.55H194.926C206.9 126.55 216.597 136.585 216.597 148.972H166.152V126.55Z" fill="#689EEC"/>
<path d="M186.611 111.472L169.037 86.7467C167.509 84.5893 166.394 82.1168 165.764 79.523L165.691 79.1594L171.097 77.802C171.509 77.705 171.752 77.2687 171.655 76.8566L168.673 64.0818C168.285 62.4819 166.734 61.4881 165.158 61.8759L159.849 63.2092C155.462 64.3242 152.771 68.8814 153.862 73.4144C153.886 73.4871 153.911 73.5599 153.911 73.6326L159.122 95.6672L163.292 88.9768V148.972H99.0785V158.062C99.0785 162.547 102.593 166.159 106.908 166.159H158.637C164.164 166.159 168.988 163.056 171.582 158.426L187.775 131.834C191.338 125.41 190.877 117.411 186.611 111.472Z" fill="#689EEC"/>
<path d="M177.109 114.017C176.939 113.387 176.745 112.83 176.527 112.369L163.267 84.9287C158.031 87.5224 155.632 93.8492 157.765 99.4488L160.771 107.351C162.492 111.884 163.389 116.708 163.389 121.58V129.556C163.389 140.27 154.977 148.972 144.626 148.972H124.725V148.924L68.0748 143.785V157.578H99.0784H124.725H154.177C159.607 157.578 166.661 152.342 170.685 144.706C174.612 137.216 176.624 128.028 177.521 122.986C178.03 120.005 177.933 116.926 177.109 114.017Z" fill="#508EE7"/>
<path d="M124.725 148.997L39.4952 141.264C38.7922 141.191 38.2832 140.585 38.3317 139.858C38.4044 138.67 38.5498 136.949 38.7437 135.907C41.1193 123.132 51.9791 113.484 64.9962 113.484H119.586C121.84 113.484 123.246 116.054 122.083 118.042L118.81 123.641C114.617 130.816 115.78 140.028 121.598 145.845L124.725 148.997Z" fill="#00386C"/>
<path opacity="0.17" d="M124.725 113.484H64.9962C52.2942 113.484 41.6769 122.647 38.9377 134.913C38.5013 136.901 38.2589 138.985 38.2589 141.143L83.1766 144.779C83.1766 144.779 76.3408 141.773 76.3408 125.629C76.3408 113.29 92.9456 113.193 92.9456 113.193" fill="white"/>
<path d="M92.7517 113.484H62.9358C53.1179 113.193 40.4163 122.647 38.6953 134.913C38.4044 136.901 38.2589 138.985 38.2589 141.143L65.4083 143.324C65.4083 143.324 61.0208 141.991 62.2813 125.629C63.2267 113.339 72.7532 113.193 72.7532 113.193" fill="#689EEC"/>
<path d="M61.0208 180C72.802 180 82.3525 170.124 82.3525 157.941C82.3525 145.758 72.802 135.882 61.0208 135.882C49.2397 135.882 39.6891 145.758 39.6891 157.941C39.6891 170.124 49.2397 180 61.0208 180Z" fill="#00386C"/>
<path d="M61.0208 170.91C67.6745 170.91 73.0684 165.331 73.0684 158.45C73.0684 151.569 67.6745 145.99 61.0208 145.99C54.3672 145.99 48.9733 151.569 48.9733 158.45C48.9733 165.331 54.3672 170.91 61.0208 170.91Z" fill="white"/>
<path d="M93.891 164.801H62.1117C58.3301 164.801 55.2516 161.625 55.2516 157.698C55.2516 153.771 58.3301 150.596 62.1117 150.596H93.9152C97.6968 150.596 100.775 153.771 100.775 157.698C100.775 161.625 97.6968 164.801 93.891 164.801Z" fill="#689EEC"/>
<path d="M126.567 120.417C126.713 121.532 125.84 122.526 124.749 122.502L81.4798 122.041C77.4559 121.993 73.844 119.278 72.3411 115.157L68.8262 105.461C67.2264 101.025 69.9898 96.2252 74.3046 95.9585L115.732 94.795C120.119 94.6738 123.901 98.2372 124.483 103.013L126.567 120.417Z" fill="#689EEC"/>
<path d="M138.835 12.1933C138.835 12.1933 130.348 2.48582 119.365 8.31029C106.494 18.3662 112.567 32.4042 124.097 37.1611L137.138 17.5697L139.211 18.2759L138.835 12.1933Z" fill="#FFA87B"/>
<path d="M120.496 29.3916L116.652 39.6964L122.393 41.0405L126.138 30.437L120.496 29.3916Z" fill="#D97B4B"/>
<path d="M139.194 17.4197C139.774 22.0648 137.62 28.5449 137.62 28.5449L139.967 29.889C139.967 29.889 140.066 31.3825 138.768 31.9301L137.021 34.3694L131.38 30.9344C131.38 30.9344 130.082 34.469 134.924 36.958C134.924 36.958 132.778 40.9406 127.585 40.6917C127.585 40.6917 119.198 38.7502 120.446 29.441C120.446 29.441 118.948 28.5947 119.348 25.3589C119.797 21.675 122.543 20.4305 124.34 21.4759C126.138 22.5213 126.038 24.7117 126.038 24.7117C126.038 24.7117 131.18 25.5082 132.827 15.8008L139.194 17.4197Z" fill="#FFA87B"/>
<path d="M125.489 67.1749V48.6062C125.489 46.0176 123.392 43.9268 120.796 43.9268C118.2 43.9268 116.103 46.0176 116.103 48.6062V70.0124C116.103 73.3478 118.799 76.0858 122.194 76.0858H154.345V68.5687H126.936C126.138 68.519 125.489 67.9216 125.489 67.1749Z" fill="#FA7071"/>
<path d="M120.429 149.615H122.443L125.538 149.665L139.018 150.063C138.569 148.57 137.371 147.375 135.873 146.977L130.88 145.533L129.383 143.691L135.324 134.681L124.221 133.319L120.429 149.615Z" fill="#F15B5D"/>
<path d="M133.926 86.5908C124.84 86.5908 109.063 86.5908 109.063 86.5908L104.77 104.462C121.045 104.462 130.531 105.807 130.531 105.807L124.74 137.916H129.632L144.31 95.1035C144.31 95.1035 147.505 86.5908 133.926 86.5908Z" fill="#F15B5D"/>
<path d="M123.392 65.2345C124.91 60.01 127.242 52.7012 128.983 47.1139L131.18 41.5383L121.986 36.5809L112.209 35.7139C112.209 35.7139 112.708 38.1034 114.755 39.2484C114.755 39.2484 110.761 42.534 107.765 48.1593C104.92 53.5855 94.9348 82.1105 94.9348 82.1105L89.1436 86.5909H114.755L123.392 65.2345Z" fill="#F15B5D"/>
<path d="M152.198 72.3525H156.791C158.688 72.3525 160.186 73.846 160.186 75.7377V81.5124C160.186 83.3045 158.738 84.6984 156.991 84.6984H155.942C154.694 84.6984 153.696 83.7028 153.696 82.4582L156.392 82.0102C156.791 81.612 156.991 81.1141 156.991 80.5665C156.991 79.4216 156.092 78.5255 154.944 78.5255H152.248V72.3525H152.198Z" fill="#FFA87B"/>
<path d="M155.493 82.5085C156.817 82.5085 157.889 81.4387 157.889 80.119C157.889 78.7993 156.817 77.7295 155.493 77.7295C154.17 77.7295 153.097 78.7993 153.097 80.119C153.097 81.4387 154.17 82.5085 155.493 82.5085Z" fill="#00386C"/>
<path d="M123.392 69.8145V51.2459C123.392 48.6572 121.295 46.5664 118.699 46.5664C116.103 46.5664 114.006 48.6572 114.006 51.2459V72.6521C114.006 75.9874 116.702 78.7254 120.097 78.7254H152.248V71.2084H124.84C123.991 71.2084 123.392 70.5612 123.392 69.8145Z" fill="#B82B2D"/>
<path d="M124.69 25.0108C124.69 25.0108 123.492 21.3767 121.395 24.2641" stroke="#142530" stroke-width="0.595" stroke-linecap="round" stroke-linejoin="round"/>
<path d="M127.416 57.5134L131.706 56.4225C135.657 55.4287 139.584 57.5861 140.457 61.2706C141.33 64.9552 138.833 68.761 134.857 69.7548L131.949 70.4821C130.009 70.9669 128.07 69.9003 127.634 68.0822L125.719 60.0101C125.476 58.9436 126.228 57.8043 127.416 57.5134Z" fill="#D0393B"/>
<path d="M153.62 72.0087C153.45 72.0087 153.305 71.9117 153.208 71.7663L148.335 63.0397C147.438 61.4156 145.572 60.5914 143.826 61.052L136.433 62.9185C136.191 62.9912 135.924 62.8215 135.876 62.5549C135.803 62.2882 135.973 62.0216 136.215 61.9731L143.608 60.1066C145.766 59.549 148.044 60.5671 149.159 62.5549L154.032 71.2815C154.153 71.5239 154.08 71.8148 153.862 71.936C153.765 71.9844 153.692 72.0087 153.62 72.0087Z" fill="#D0393B"/>
<path d="M157.908 150.804H128.962L129.358 108.847L159.096 108.299L157.908 150.804Z" fill="#FA7071"/>
<path fill-rule="evenodd" clip-rule="evenodd" d="M142.249 118.674C140.619 118.923 139.124 120.283 138.592 122.001L138.444 122.481L136.08 123.043C134.78 123.353 133.71 123.612 133.702 123.621C133.694 123.63 133.979 124.863 134.335 126.363C134.692 127.862 135.186 129.96 135.434 131.024C136.013 133.508 136.16 134.01 136.574 134.905C137.762 137.477 139.926 139.346 142.686 140.183C143.417 140.404 143.598 140.423 145.06 140.428C146.458 140.434 146.724 140.411 147.337 140.234C149.843 139.508 151.827 137.94 153.038 135.729C153.914 134.129 154.351 131.964 154.164 130.154C154.07 129.253 154.006 128.955 152.845 124.076C152.453 122.432 152.046 120.7 151.94 120.229C151.8 119.608 151.71 119.371 151.613 119.37C151.54 119.37 150.827 119.527 150.029 119.719C149.231 119.912 148.168 120.165 147.667 120.282L146.756 120.494L146.248 119.994C145.197 118.959 143.674 118.456 142.249 118.674ZM144.066 119.817C144.596 119.995 145.225 120.368 145.446 120.634C145.541 120.749 145.509 120.78 145.221 120.852C143.401 121.307 139.688 122.163 139.659 122.134C139.575 122.05 140.072 121.147 140.399 120.788C141.347 119.748 142.755 119.375 144.066 119.817ZM151.728 124.208C152.205 126 152.757 128.004 153.02 129.84C153.205 131.13 153.036 132.803 152.604 133.97C152.523 134.188 152.435 134.386 152.408 134.41C152.382 134.434 152.348 134.513 152.333 134.586C152.318 134.659 152.223 134.89 152.123 135.1C151.933 135.498 151.655 135.943 151.404 136.232C151.204 136.461 151.098 136.634 150.721 137.016C149.864 137.884 148.777 138.606 147.523 139.008C145.891 139.531 144.269 139.546 142.774 139.054C141.732 138.71 140.485 138.056 140.18 137.67C140.133 137.617 140.18 137.67 140.104 137.575C139.916 137.582 139.093 136.718 138.884 136.465C138.701 136.245 138.464 135.96 138.355 135.832C138.156 135.596 137.963 135.243 137.813 134.942C137.528 134.365 137.18 133.594 137.051 132.959C137.042 132.911 136.984 132.693 136.923 132.475C136.862 132.258 136.803 131.981 136.791 131.86C136.78 131.739 136.668 131.246 136.542 130.764C135.99 128.64 135.716 127.398 135.716 127.396C135.643 127.076 135.551 126.765 135.492 126.451C135.465 126.306 135.386 125.968 135.317 125.701L135.191 125.214L137.619 124.623C138.955 124.298 140.562 123.909 141.191 123.759C141.819 123.609 142.413 123.468 142.51 123.444C142.607 123.421 142.844 123.369 143.038 123.327C143.465 123.237 146.609 122.482 147.039 122.367C151.049 121.292 150.775 120.638 151.728 124.208ZM145.415 124.202C145.169 124.689 145.121 125.382 145.292 126.011C145.371 126.305 145.541 126.581 145.543 126.771C145.545 126.986 144.137 127.206 143.818 127.317C143.631 127.382 143.351 127.459 143.198 127.489C142.671 127.591 142.678 127.579 142.53 126.825C142.28 125.551 141.494 124.741 140.432 124.664C139.731 124.614 139.829 124.654 139.374 124.73C139.173 124.79 138.956 124.885 138.893 124.942C138.42 125.362 138.498 125.109 138.186 125.615C138.082 125.785 137.927 126.137 137.842 126.399C137.698 126.842 137.697 126.912 137.827 127.399C137.9 127.67 138.07 128.7 138.128 128.825L138.194 129.062C138.371 129.692 138.506 130.436 138.644 131.112C138.673 131.257 138.732 131.455 138.774 131.552C139.245 133.587 139.301 133.713 139.763 134.824C140.9 136.594 140.873 136.508 142.164 137.145C142.547 137.334 142.934 137.488 143.024 137.488C143.301 137.488 143.498 137.582 143.57 137.61C143.683 137.653 144.966 137.665 146.174 137.633C146.448 137.626 146.542 137.582 146.658 137.542C146.96 137.445 147.287 137.297 147.578 137.192C147.753 137.129 148.155 136.935 148.471 136.761C149.492 136.199 149.629 135.953 150.105 135.478C150.199 135.384 150.373 135.135 150.493 134.925C151.301 133.508 151.299 133.513 151.302 131.927C151.302 131.121 150.998 129.579 150.998 129.579C150.998 129.579 150.936 129.335 150.863 129.128C150.547 128.232 150.115 126.754 150.118 125.76C150.119 125.119 149.795 124.346 149.456 123.826C149.358 123.676 149.14 123.459 148.972 123.345C148.333 122.91 148.395 122.898 147.347 122.879C146.469 122.864 145.785 123.473 145.415 124.202ZM148.358 124.34C149.048 125.001 148.853 126.027 147.975 126.363C147.206 126.657 146.435 126.184 146.357 125.37C146.277 124.533 146.8 123.995 147.635 124.057C147.996 124.084 148.156 124.146 148.358 124.34ZM140.704 125.904C141.087 126.097 141.299 126.548 141.588 127.776C141.821 128.768 141.891 128.957 142.013 128.922C142.093 128.899 142.93 128.697 143.873 128.475C144.816 128.252 145.653 128.051 145.733 128.027C145.854 127.991 145.918 128.149 146.107 128.938C146.233 129.463 146.336 129.952 146.336 130.024C146.336 130.123 145.846 130.273 144.379 130.623C143.302 130.881 142.41 131.101 142.395 131.113C142.338 131.162 142.751 132.612 142.912 132.927C143.171 133.435 143.573 133.849 144.015 134.063C144.354 134.227 144.521 134.25 145.146 134.217C146.405 134.151 147.299 133.58 147.572 132.667C147.633 132.464 147.726 132.263 147.779 132.221C147.921 132.108 150.139 131.599 150.234 131.658C150.362 131.737 150.226 132.854 150.021 133.4C149.473 134.865 148.303 135.842 146.495 136.344C144.618 136.865 142.862 136.56 141.693 135.51C141.121 134.995 140.773 134.44 140.488 133.587C140.133 132.527 139.035 127.849 138.977 127.153C138.928 126.569 138.939 126.519 139.171 126.243C139.307 126.082 139.5 125.917 139.6 125.876C139.876 125.765 140.459 125.78 140.704 125.904ZM149.318 127.308C149.595 128.468 150.028 130.418 150.029 130.508C150.029 130.603 147.754 131.196 147.678 131.121C147.658 131.101 147.468 130.339 147.256 129.427C147.043 128.516 146.849 127.686 146.824 127.584C146.78 127.405 146.802 127.4 147.373 127.441C147.859 127.475 148.054 127.447 148.425 127.287C148.675 127.179 148.926 127.036 148.982 126.969C149.148 126.769 149.202 126.823 149.318 127.308ZM146.581 131.79C146.616 132.344 146.43 132.678 145.963 132.904C145.213 133.267 144.267 132.929 144.144 132.772C144.07 132.678 143.664 131.906 143.918 131.902C143.966 131.901 144.045 131.876 144.093 131.846C144.415 131.645 145.936 131.334 146.336 131.361C146.533 131.374 146.558 131.419 146.581 131.79Z" fill="white"/>
<path d="M158.822 117.713L156.262 114.392L153.612 114.057L155.836 126.336L156.08 126.366L158.639 124.386L158.822 117.713Z" fill="#C3CFCE"/>
<path d="M159.096 108.299L162.143 147.757L157.908 150.804L159.096 108.299Z" fill="#2E3054"/>
<path d="M150.016 114.027C150.016 114.423 149.712 114.728 149.315 114.728C148.919 114.728 148.615 114.423 148.615 114.027C148.615 113.631 148.919 113.326 149.315 113.326C149.712 113.326 150.016 113.631 150.016 114.027Z" fill="#F9E0E9"/>
<path d="M136.396 113.935C136.396 114.331 136.091 114.636 135.695 114.636C135.299 114.636 134.995 114.331 134.995 113.935C134.995 113.539 135.299 113.234 135.695 113.234C136.091 113.234 136.396 113.57 136.396 113.935Z" fill="#F9E0E9"/>
<path d="M152.332 115.611C152.119 115.763 152.088 116.037 152.24 116.251C152.393 116.464 152.667 116.494 152.88 116.342C153.094 116.19 153.124 115.916 152.972 115.702C152.819 115.489 152.545 115.458 152.332 115.611ZM152.789 116.342C152.637 116.434 152.454 116.434 152.362 116.281C152.271 116.129 152.271 115.946 152.423 115.855C152.576 115.763 152.758 115.763 152.85 115.916C152.941 116.037 152.911 116.251 152.789 116.342Z" fill="#C3CFCE"/>
<path d="M153.307 113.996L150.565 116.129L150.26 118.688L155.775 125.818L161.381 121.492L155.836 114.331L153.307 113.996ZM152.819 116.22C152.667 116.312 152.484 116.312 152.393 116.159C152.301 116.038 152.301 115.824 152.454 115.733C152.606 115.641 152.789 115.641 152.88 115.794C152.972 115.916 152.941 116.099 152.819 116.22Z" fill="white"/>
<path d="M152.24 115.458C151.966 115.672 151.905 116.098 152.119 116.372C152.332 116.647 152.758 116.708 153.033 116.494C153.307 116.281 153.368 115.885 153.155 115.58C152.911 115.306 152.515 115.245 152.24 115.458ZM152.819 116.22C152.667 116.311 152.484 116.311 152.393 116.159C152.301 116.037 152.301 115.824 152.454 115.733C152.606 115.641 152.789 115.641 152.88 115.794C152.972 115.915 152.941 116.098 152.819 116.22Z" fill="#3D3942"/>
<path d="M149.133 111.132L149.011 111.071L148.95 111.193C148.615 111.711 149.224 112.991 149.498 113.509C149.864 114.21 150.504 115.124 151.113 115.733L151.326 115.55C150.808 115.063 150.229 114.271 149.742 113.387C149.285 112.564 149.072 111.833 149.133 111.498C149.864 111.985 153.094 114.271 152.515 115.764C152.454 115.916 152.393 115.977 152.332 116.007C152.332 116.068 152.332 116.099 152.362 116.16C152.362 116.19 152.362 116.221 152.362 116.251C152.362 116.282 152.362 116.282 152.362 116.312C152.515 116.251 152.667 116.16 152.758 115.886C153.52 113.935 149.315 111.224 149.133 111.132Z" fill="#D2E0E9"/>
<path d="M149.59 114.179H149.254C149.254 114.179 149.254 113.935 149.254 113.509C149.254 113.235 149.224 112.869 149.224 112.442C149.041 108.938 148.005 100.803 142.795 100.59C141.576 100.529 140.479 100.955 139.565 101.839C136.091 105.16 135.97 113.966 135.97 114.057H135.634C135.634 113.692 135.756 105.038 139.352 101.595C140.357 100.651 141.515 100.193 142.825 100.254C148.34 100.468 149.376 108.816 149.59 112.412C149.62 112.838 149.62 113.204 149.62 113.478C149.59 113.935 149.59 114.179 149.59 114.179Z" fill="#0B1238"/>
<path d="M155.531 117.104C155.866 116.8 156.262 116.861 156.659 117.287C157.024 117.714 157.055 118.11 156.689 118.415L155.562 119.39C155.227 119.694 154.83 119.633 154.434 119.207C154.069 118.78 154.038 118.384 154.404 118.08L155.531 117.104ZM154.769 118.537C154.617 118.658 154.617 118.811 154.739 118.933C154.861 119.055 154.983 119.085 155.135 118.963L156.293 117.927C156.445 117.805 156.445 117.653 156.323 117.531C156.202 117.379 156.08 117.379 155.927 117.501L154.769 118.537ZM158.121 118.994L158.487 119.39L153.581 120.669L153.216 120.273L158.121 118.994ZM156.171 120.334C156.506 120.03 156.902 120.091 157.298 120.517C157.664 120.944 157.695 121.34 157.329 121.644L156.202 122.62C155.866 122.924 155.47 122.863 155.074 122.437C154.709 122.01 154.678 121.614 155.044 121.309L156.171 120.334ZM155.409 121.766C155.257 121.888 155.257 122.041 155.379 122.162C155.501 122.284 155.653 122.315 155.775 122.193L156.933 121.157C157.085 121.035 157.085 120.883 156.963 120.761C156.841 120.609 156.72 120.609 156.567 120.73L155.409 121.766Z" fill="#2E3054"/>
<path d="M149.742 113.325C149.559 112.99 149.285 112.472 149.193 111.924C149.102 111.924 149.102 112.32 149.041 112.381C149.193 112.747 149.437 113.325 149.529 113.569C149.559 113.63 149.59 113.691 149.62 113.752C149.711 113.722 149.772 113.63 149.833 113.569C149.803 113.539 149.742 113.386 149.742 113.325Z" fill="#D2E0E9"/>
<path d="M135.909 114.028C135.909 114.119 135.817 114.21 135.726 114.21C135.634 114.21 135.543 114.119 135.543 114.028C135.543 113.936 135.634 113.845 135.726 113.845C135.817 113.875 135.909 113.936 135.909 114.028Z" fill="#0B1238"/>
<path d="M149.59 114.149C149.59 114.24 149.498 114.331 149.407 114.331C149.315 114.331 149.224 114.24 149.224 114.149C149.224 114.057 149.315 113.966 149.407 113.966C149.498 113.966 149.59 114.057 149.59 114.149Z" fill="#0B1238"/>
<path d="M139.567 86.5897C130.481 86.5897 114.705 86.5897 114.705 86.5897L98.6792 82.1094C98.0302 83.9015 94.2359 83.9513 93.7367 85.1958C90.6414 93.5094 88.4946 104.461 104.77 104.461C116.053 104.461 127.286 103.217 133.127 102.42C135.174 102.171 136.821 103.964 136.422 105.955L130.731 132.737L138.419 133.683L148.853 98.6867C148.903 98.6867 153.147 86.5897 139.567 86.5897Z" fill="#B82B2D"/>
<path d="M125.738 149.167L128.384 149.565L131.579 149.615L145.408 150.063C144.959 148.519 143.711 147.325 142.163 146.877L137.071 145.383L135.523 143.491L138.916 133.319L130.384 132.371L125.738 149.167Z" fill="#B82B2D"/>
<path d="M142.7 22.6496C139.913 22.6569 134.173 18.4138 131.651 16.2913L131.645 13.9688L137.452 13.9536L142.69 18.5851C143.854 19.9369 145.487 22.6423 142.7 22.6496Z" fill="#00386C"/>
<path d="M129.5 21.5C129.1 20.7 131 19 130 18.5L126.5 17L115.5 34C115.5 34.5 115.5 35.5 119.5 36C125.776 36.7845 130.5 23.5 129.5 21.5Z" fill="#00386C"/>
<path d="M118.871 35.4192C117.013 35.8837 115.18 35.1138 111.323 30.774C106.677 25.5482 106.858 12.2288 117.71 6.96721C136.871 -2.32313 147.903 24.3869 140.355 19.7418C132.807 15.0966 128.161 17.9997 128.161 22.6449C128.161 27.2901 121.194 34.8386 118.871 35.4192Z" fill="#D0393B"/>
<path d="M143.398 18.9775C143.353 18.9502 143.306 18.9217 143.258 18.8919C133.968 13.0856 127.581 15.9456 127 23.806C127 27.865 121.518 33.848 118.29 35.419C119.409 36.0362 118.553 35.9554 119.452 35.7307C121.774 35.1501 128.742 27.6016 128.742 22.9564C128.742 18.3113 133.387 15.4081 140.936 20.0533C142.69 21.1328 143.472 20.4876 143.398 18.9775Z" fill="#AA2527"/>
<path d="M118.29 16.8382C114.226 19.1608 113.645 26.7095 110.161 24.387C108.419 23.2257 108.337 19.1611 111.323 13.9352C118.928 0.625355 137.452 7.54838 136.29 11.6127C135.36 14.8679 122.355 14.5156 118.29 16.8382Z" fill="#F15B5D"/>
<path d="M173.133 68.7846C174.2 73.3176 173.303 77.4385 171.097 77.996C168.915 78.5535 166.249 75.3295 165.182 70.7965C164.116 66.2636 165.013 62.1427 167.219 61.5851C169.424 61.0276 172.067 64.2516 173.133 68.7846Z" fill="#9AC3FF"/>
<path d="M170.637 65.73C171.243 68.348 170.733 70.7236 169.473 71.0387C168.212 71.3538 166.685 69.4873 166.079 66.8936C165.473 64.2756 165.982 61.9 167.243 61.5849C168.503 61.2698 170.031 63.112 170.637 65.73Z" fill="white"/>
<path fill-rule="evenodd" clip-rule="evenodd" d="M50.7268 1.50482e-06C57 0.00145062 63.1319 1.86299 68.3472 5.34925C73.5624 8.83551 77.6269 13.7899 80.0265 19.586C82.4262 25.3821 83.0533 31.7596 81.8286 37.9121C80.6038 44.0646 77.5823 49.7158 73.1459 54.1511C68.7096 58.5864 63.0577 61.6067 56.9049 62.83C50.7521 64.0533 44.3748 63.4247 38.5792 61.0237C32.7837 58.6227 27.8303 54.5572 24.3452 49.3411C20.8601 44.125 19 37.9927 19 31.7195C18.9997 27.5533 19.8202 23.4279 21.4146 19.5789C23.009 15.7299 25.346 12.2327 28.2923 9.2871C31.2386 6.34152 34.7363 4.00525 38.5857 2.41174C42.435 0.818231 46.5606 -0.00128179 50.7268 1.50482e-06Z" fill="#689EEC"/>
<path fill-rule="evenodd" clip-rule="evenodd" d="M58.8991 15.6613L48.1525 37.0054L39.78 28.501C39.0841 27.8249 38.1512 27.4482 37.181 27.4513C36.2107 27.4545 35.2803 27.8374 34.5888 28.518C33.8974 29.1986 33.4999 30.1228 33.4813 31.0929C33.4628 32.0629 33.8248 33.0017 34.4898 33.7082L46.3183 45.7248C46.6812 46.0941 47.1178 46.383 47.5995 46.5728C48.0813 46.7625 48.5976 46.8489 49.1149 46.8263C50.6389 46.8117 51.9676 45.7224 52.7174 44.2301L65.9772 17.8717C66.8955 16.0497 65.4887 13.832 63.5348 13.2311C61.5808 12.6303 59.8028 13.8466 58.8942 15.6735" fill="#FEFEFE"/>
</svg>
