<svg width="35" height="35" viewBox="0 0 35 35" fill="none" xmlns="http://www.w3.org/2000/svg">
<circle cx="17.5" cy="17.5" r="17.5" fill="#FEF7FD"/>
<path d="M14.7248 24.4883C14.3214 24.5777 13.8991 24.5123 13.5417 24.3049C13.1844 24.0976 12.918 23.7635 12.7954 23.3689L10.1048 14.6895L10.0073 14.3745C9.97437 14.2702 9.94869 14.1637 9.9304 14.0558C9.8283 13.4414 9.9656 12.8113 10.314 12.2951C10.6625 11.7789 11.1955 11.4159 11.8035 11.2808C11.9759 11.2422 12.1519 11.2227 12.3285 11.2227C12.9164 11.2237 13.4841 11.4376 13.9266 11.8246C14.3691 12.2116 14.6566 12.7458 14.736 13.3283L14.8879 14.4533L14.976 15.1039L15.9998 22.6583C16.0557 23.0677 15.9557 23.4831 15.7195 23.8221C15.4832 24.1612 15.1282 24.3989 14.7248 24.4883Z" fill="#F5996B"/>
<path d="M11.4213 14.3969L10.105 14.6894L10.0075 14.3744C9.97464 14.27 9.94896 14.1635 9.93066 14.0556C9.9314 14.0549 9.93229 14.0544 9.93327 14.054C9.93424 14.0537 9.93527 14.0536 9.93629 14.0537L11.2788 13.7556C11.3632 13.7385 11.4509 13.7551 11.5231 13.802C11.5953 13.8489 11.6462 13.9222 11.6649 14.0063C11.6836 14.0903 11.6685 14.1783 11.623 14.2514C11.5774 14.3244 11.505 14.3767 11.4213 14.3969Z" fill="white"/>
<path d="M14.9759 15.1038L12.4971 15.6512C12.4738 15.6572 12.4499 15.6604 12.4259 15.6606C12.3452 15.6601 12.2675 15.6299 12.2077 15.5758C12.1479 15.5217 12.11 15.4474 12.1015 15.3672C12.0929 15.287 12.1141 15.2064 12.1612 15.1409C12.2082 15.0754 12.2777 15.0294 12.3565 15.0119L14.8615 14.4569C14.8701 14.4547 14.8789 14.4535 14.8877 14.4531L14.9759 15.1038Z" fill="white"/>
<path d="M12.7393 9.31562C12.7504 9.12832 12.7189 8.94093 12.6473 8.76753C12.5756 8.59414 12.4656 8.43923 12.3254 8.31445C12.1853 8.18967 12.0187 8.09827 11.8382 8.04709C11.6577 7.99591 11.4679 7.9863 11.2832 8.01898C11.0984 8.05165 10.9235 8.12576 10.7714 8.23574C10.6194 8.34573 10.4943 8.48872 10.4055 8.65399C10.3166 8.81926 10.2664 9.0025 10.2586 9.18997C10.2507 9.37743 10.2854 9.56424 10.3601 9.73637C10.3472 9.73862 10.3346 9.73805 10.3226 9.74087C10.1611 9.77561 10.0109 9.8501 9.88551 9.95759C9.76012 10.0651 9.66355 10.2022 9.60454 10.3564C9.54554 10.5107 9.52598 10.6772 9.54762 10.841C9.56927 11.0047 9.63144 11.1604 9.7285 11.2941C9.82557 11.4277 9.95445 11.535 10.1035 11.6062C10.2525 11.6774 10.4169 11.7103 10.5818 11.7019C10.7468 11.6935 10.907 11.644 11.048 11.558C11.189 11.472 11.3063 11.3522 11.3893 11.2094C11.4964 11.3944 11.6482 11.5496 11.8308 11.6607C12.0134 11.7718 12.2209 11.8354 12.4345 11.8455C12.648 11.8556 12.8606 11.8119 13.0529 11.7186C13.2452 11.6252 13.411 11.485 13.5351 11.311C13.6592 11.1369 13.7376 10.9345 13.7632 10.7223C13.7887 10.51 13.7606 10.2948 13.6814 10.0962C13.6022 9.89768 13.4745 9.72217 13.3099 9.58579C13.1453 9.44941 12.9491 9.35651 12.7393 9.31562Z" fill="#F4783B"/>
<path d="M14.3914 12.3229C14.497 12.9233 14.7604 13.4848 15.1545 13.9498C14.8745 14.1406 14.673 14.4263 14.5871 14.7541C14.5013 15.0819 14.537 15.4297 14.6875 15.7332C14.8381 16.0368 15.0934 16.2756 15.4063 16.4056C15.7192 16.5356 16.0686 16.5481 16.39 16.4406C16.4705 16.7356 16.6172 17.0083 16.8188 17.2383C17.0204 17.4682 17.2717 17.6492 17.5536 17.7676C17.8355 17.8861 18.1407 17.9388 18.446 17.9218C18.7513 17.9048 19.0488 17.8185 19.3158 17.6695C19.5829 17.5206 19.8125 17.3128 19.9874 17.0619C20.1622 16.811 20.2777 16.5236 20.325 16.2215C20.3723 15.9194 20.3503 15.6105 20.2605 15.3182C20.1708 15.0258 20.0157 14.7578 19.807 14.5343C20.3097 14.1746 20.7069 13.6868 20.957 13.1215C21.2072 12.5563 21.3012 11.9343 21.2293 11.3203C21.1573 10.7064 20.9221 10.123 20.5481 9.63083C20.1741 9.13869 19.6749 8.75584 19.1026 8.52216C18.5304 8.28848 17.9059 8.21252 17.2943 8.30219C16.6827 8.39187 16.1063 8.64389 15.6252 9.03201C15.1441 9.42013 14.7759 9.93015 14.5589 10.5089C14.3419 11.0877 14.284 11.7141 14.3914 12.3229Z" fill="#F4783B"/>
<path d="M18.3791 15.1362L19.7226 12.7302C19.7437 12.6926 19.7571 12.6512 19.7622 12.6084C19.7673 12.5656 19.7639 12.5221 19.7522 12.4806C19.7405 12.4391 19.7207 12.4003 19.694 12.3665C19.6673 12.3326 19.6342 12.3043 19.5966 12.2832C19.559 12.2622 19.5175 12.2487 19.4747 12.2436C19.4319 12.2385 19.3885 12.242 19.347 12.2537C19.3055 12.2654 19.2667 12.2851 19.2328 12.3118C19.1989 12.3385 19.1707 12.3716 19.1496 12.4092L18.201 14.1082C17.9967 12.8324 17.9053 11.5411 17.928 10.2492C17.9322 10.1622 17.9017 10.0771 17.8432 10.0125C17.7846 9.94802 17.7029 9.9094 17.6158 9.90517C17.5288 9.90095 17.4437 9.93146 17.3791 9.99001C17.3146 10.0486 17.276 10.1303 17.2718 10.2174C17.2517 10.8508 17.2654 11.4849 17.3126 12.1169L16.1186 11.2068C16.0843 11.1807 16.0452 11.1616 16.0035 11.1506C15.9618 11.1396 15.9184 11.1369 15.8756 11.1427C15.8329 11.1484 15.7917 11.1626 15.7544 11.1843C15.7172 11.206 15.6845 11.2348 15.6584 11.2691C15.6323 11.3035 15.6132 11.3426 15.6022 11.3843C15.5912 11.426 15.5885 11.4694 15.5943 11.5122C15.606 11.5985 15.6515 11.6766 15.7208 11.7294L17.3895 13.0006C17.6461 15.6116 18.3351 18.1618 19.4284 20.5467C19.4655 20.6254 19.5323 20.6861 19.6141 20.7155C19.696 20.745 19.7862 20.7407 19.8649 20.7037C19.9435 20.6666 20.0043 20.5999 20.0338 20.5181C20.0633 20.4363 20.0592 20.3461 20.0222 20.2674C19.2656 18.6311 18.7138 16.9077 18.3791 15.1362Z" fill="white"/>
<path d="M25.3459 12.5215C25.2682 12.9633 25.0744 13.3764 24.7843 13.7186C24.9904 13.8591 25.1386 14.0693 25.2018 14.3105C25.2649 14.5517 25.2387 14.8076 25.1279 15.031C25.0171 15.2543 24.8292 15.4301 24.5989 15.5257C24.3687 15.6214 24.1116 15.6305 23.8751 15.5515C23.8159 15.7686 23.7081 15.9694 23.5597 16.1386C23.4114 16.3079 23.2265 16.4411 23.019 16.5283C22.8116 16.6155 22.587 16.6544 22.3622 16.6419C22.1375 16.6294 21.9186 16.566 21.7221 16.4563C21.5255 16.3467 21.3565 16.1938 21.2278 16.0091C21.0992 15.8245 21.0142 15.613 20.9794 15.3906C20.9446 15.1683 20.9608 14.941 21.0269 14.7258C21.093 14.5107 21.2071 14.3134 21.3608 14.149C20.9908 13.8843 20.6986 13.5254 20.5145 13.1094C20.3304 12.6935 20.2612 12.2358 20.3141 11.784C20.3671 11.3323 20.5401 10.9029 20.8153 10.5408C21.0906 10.1787 21.4578 9.89692 21.8789 9.72495C22.3 9.55298 22.7595 9.49706 23.2096 9.56302C23.6596 9.62898 24.0837 9.8144 24.4378 10.1C24.7918 10.3855 25.0628 10.7608 25.2225 11.1867C25.3822 11.6126 25.4248 12.0735 25.3459 12.5215Z" fill="#F5996B"/>
<path d="M24.4814 11.6946C24.4286 11.6255 24.3505 11.5801 24.2643 11.5685C24.1781 11.5568 24.0907 11.5799 24.0215 11.6326L23.2936 12.1876C23.3339 11.4728 23.3148 11.0217 23.3124 10.9688C23.3103 10.9257 23.2997 10.8835 23.2813 10.8445C23.2629 10.8055 23.2369 10.7705 23.205 10.7415C23.173 10.7125 23.1357 10.6901 23.0951 10.6755C23.0545 10.661 23.0114 10.6545 22.9683 10.6566C22.9252 10.6587 22.883 10.6693 22.8439 10.6877C22.8049 10.7061 22.7699 10.7321 22.7409 10.764C22.712 10.796 22.6895 10.8333 22.675 10.8739C22.6604 10.9145 22.654 10.9576 22.6561 11.0007C22.6729 11.8608 22.6187 12.7209 22.4941 13.5721L21.92 12.5436C21.899 12.506 21.8707 12.4729 21.8369 12.4462C21.8031 12.4195 21.7644 12.3997 21.7229 12.3879C21.6814 12.3762 21.6381 12.3727 21.5953 12.3777C21.5525 12.3828 21.5111 12.3962 21.4735 12.4172C21.4358 12.4382 21.4027 12.4664 21.376 12.5002C21.3493 12.534 21.3295 12.5728 21.3177 12.6142C21.306 12.6557 21.3025 12.6991 21.3076 12.7419C21.3126 12.7847 21.326 12.8261 21.347 12.8637L22.3209 14.6075C22.0753 15.8927 21.6733 17.1431 21.1239 18.3306C21.0869 18.4094 21.0827 18.4995 21.1122 18.5814C21.1417 18.6632 21.2025 18.7299 21.2812 18.767C21.3599 18.804 21.4501 18.8082 21.5319 18.7788C21.6138 18.7494 21.6806 18.6887 21.7177 18.61C22.5212 16.8577 23.0295 14.9847 23.222 13.0666L24.4195 12.1536C24.4885 12.1009 24.5338 12.023 24.5454 11.9369C24.557 11.8509 24.534 11.7638 24.4814 11.6946Z" fill="white"/>
<path d="M23.803 26.7923H11.1257C10.8015 26.7925 10.4878 26.6774 10.2407 26.4675C9.99361 26.2577 9.82919 25.9668 9.77686 25.6469L8.65186 18.7373H26.2769L25.1519 25.6469C25.0995 25.9668 24.9351 26.2577 24.688 26.4675C24.4409 26.6774 24.1272 26.7925 23.803 26.7923Z" fill="#F4783B"/>
<path d="M8 17.1104H26.9287V18.7375H8V17.1104Z" fill="#F05658"/>
<path d="M17.4644 20.123C17.3773 20.123 17.2939 20.1576 17.2323 20.2192C17.1708 20.2807 17.1362 20.3641 17.1362 20.4512V25.0406C17.1362 25.1276 17.1708 25.2111 17.2323 25.2726C17.2939 25.3342 17.3773 25.3687 17.4644 25.3687C17.5514 25.3687 17.6348 25.3342 17.6964 25.2726C17.7579 25.2111 17.7925 25.1276 17.7925 25.0406V20.4512C17.7925 20.3641 17.7579 20.2807 17.6964 20.2192C17.6348 20.1576 17.5514 20.123 17.4644 20.123Z" fill="white"/>
<path d="M14.6634 20.1241C14.5767 20.1313 14.4964 20.1726 14.4402 20.2389C14.3839 20.3053 14.3563 20.3912 14.3634 20.4779L14.7384 25.0673C14.7451 25.1494 14.7824 25.2259 14.8429 25.2817C14.9034 25.3375 14.9827 25.3686 15.065 25.3687C15.074 25.3687 15.0838 25.3687 15.0922 25.3675C15.1789 25.3604 15.2592 25.3191 15.3155 25.2527C15.3717 25.1864 15.3993 25.1004 15.3922 25.0137L15.0172 20.4243C15.01 20.3376 14.9686 20.2574 14.9023 20.2011C14.836 20.1448 14.7501 20.1171 14.6634 20.1241Z" fill="white"/>
<path d="M12.092 20.3983C12.0856 20.3554 12.0706 20.3141 12.0481 20.277C12.0256 20.2399 11.9959 20.2076 11.9608 20.1821C11.9257 20.1565 11.8859 20.1381 11.8436 20.1281C11.8014 20.118 11.7576 20.1164 11.7147 20.1234C11.6718 20.1304 11.6308 20.1459 11.594 20.1688C11.5571 20.1918 11.5252 20.2219 11.5 20.2573C11.4749 20.2927 11.457 20.3327 11.4475 20.3751C11.4379 20.4175 11.4369 20.4613 11.4444 20.5041L12.1944 25.0935C12.2009 25.1364 12.2158 25.1777 12.2384 25.2148C12.2609 25.2519 12.2906 25.2842 12.3257 25.3097C12.3608 25.3353 12.4006 25.3537 12.4428 25.3637C12.4851 25.3738 12.5289 25.3754 12.5717 25.3684C12.6146 25.3614 12.6556 25.3459 12.6925 25.323C12.7293 25.3 12.7612 25.2699 12.7864 25.2345C12.8115 25.1991 12.8294 25.1591 12.8389 25.1167C12.8485 25.0743 12.8495 25.0305 12.842 24.9877L12.092 20.3983Z" fill="white"/>
<path d="M20.2651 20.1242C20.2221 20.1206 20.1789 20.1255 20.1379 20.1387C20.0968 20.1518 20.0588 20.173 20.026 20.2008C19.9931 20.2287 19.966 20.2627 19.9464 20.3011C19.9267 20.3394 19.9148 20.3812 19.9113 20.4242L19.5363 25.0136C19.5291 25.1003 19.5568 25.1863 19.613 25.2526C19.6693 25.319 19.7496 25.3603 19.8363 25.3674C19.8453 25.3674 19.855 25.3686 19.8634 25.3686C19.9458 25.3685 20.025 25.3374 20.0855 25.2816C20.146 25.2258 20.1833 25.1493 20.1901 25.0672L20.5651 20.4778C20.5721 20.3911 20.5445 20.3052 20.4882 20.2389C20.432 20.1726 20.3517 20.1313 20.2651 20.1242Z" fill="white"/>
<path d="M23.2132 20.127C23.1707 20.1199 23.1271 20.1213 23.0851 20.1311C23.0432 20.1409 23.0035 20.159 22.9685 20.1841C22.9335 20.2093 22.9038 20.2412 22.8812 20.2778C22.8585 20.3145 22.8433 20.3553 22.8365 20.3979L22.0865 24.9874C22.079 25.0301 22.08 25.074 22.0896 25.1163C22.0991 25.1587 22.117 25.1987 22.1421 25.2341C22.1673 25.2695 22.1992 25.2996 22.236 25.3226C22.2729 25.3455 22.3139 25.361 22.3568 25.368C22.3996 25.375 22.4435 25.3734 22.4857 25.3633C22.5279 25.3533 22.5678 25.3349 22.6029 25.3094C22.638 25.2838 22.6676 25.2515 22.6902 25.2144C22.7127 25.1773 22.7276 25.136 22.7341 25.0931L23.4841 20.5037C23.4981 20.4178 23.4775 20.3299 23.4267 20.2592C23.3759 20.1886 23.2991 20.141 23.2132 20.127Z" fill="white"/>
</svg>
