<svg width="20" height="20" viewBox="0 0 20 20" fill="none" xmlns="http://www.w3.org/2000/svg">
<circle cx="10" cy="10" r="10" fill="#FEF7FD"/>
<path d="M15.6662 7.83376L13.8331 5H5.83312L4 7.83312C4 8.46624 4.53312 9 5.16688 9C5.8 9 6.33376 8.5 6.33376 7.83312C6.33376 8.46624 6.86688 9 7.50064 9C8.13376 9 8.66752 8.5 8.66752 7.83312C8.66752 8.46624 9.20064 9 9.8344 9C10.4675 9 11.0013 8.5 11.0013 7.83312C11.0013 8.46624 11.5344 9 12.1682 9C12.8013 9 13.335 8.5 13.335 7.83312C13.335 8.46624 13.8682 9 14.5019 9C15.1332 9 15.6663 8.5 15.6663 7.83374L15.6662 7.83376Z" fill=process.env.REACT_APP_COLOR_PRIMARY/>
<path d="M14.5 10.3338C14.1331 10.3338 13.8 10.2669 13.5 10.1338V12.6669H6.16625V10.1338C5.86625 10.2669 5.53313 10.3338 5.16625 10.3338C5.06625 10.3338 4.93313 10.3338 4.83313 10.3007V14H14.8325L14.8331 10.3C14.7331 10.3338 14.6 10.3338 14.5 10.3338L14.5 10.3338Z" fill=process.env.REACT_APP_COLOR_PRIMARY/>
</svg>
