<svg width="256" height="199" viewBox="0 0 256 199" fill="none" xmlns="http://www.w3.org/2000/svg">
<g opacity="0.5">
<path opacity="0.47" d="M0.909317 79.1461C2.1407 67.2656 8.13146 55.3655 18.5396 46.8752C34.743 33.6366 59.2826 30.3343 80.8025 33.4217C89.8131 34.7211 98.7552 36.9976 107.981 36.2941C121.438 35.2683 133.283 28.1263 145.518 22.8992C162.191 15.7865 181.297 11.9762 199.035 15.1026C219.147 18.6492 235.644 31.9757 237.637 49.6304C238.537 57.6322 229.506 71.711 232.38 79.2927C235.292 86.9818 256.489 110.557 255.991 128.476C255.483 147.039 245.061 167.814 208.346 188.407C171.631 209 49.9369 193.431 27.6306 174C5.32434 154.569 10.9167 144.684 16.1745 132.022C20.1716 122.389 9.25534 114.426 5.03346 105.447C1.26114 97.4554 0.0102135 87.8513 0.909317 79.1461Z" fill="#C2ECE0"/>
</g>
<path opacity="0.2" fill-rule="evenodd" clip-rule="evenodd" d="M35.9997 179.5C42.9997 183.5 183.5 225.5 233.644 172.058C242.106 160.558 241.593 157.257 233.644 151.968C189 165.938 113.351 180.826 61.5004 165.938C49.5954 162.52 34.8603 155.626 28.6821 163.558C22.5038 171.489 28.9997 175.5 35.9997 179.5Z" fill="#FFCA00"/>
<path d="M231.735 24.1702C221.256 20.5232 194.207 8.80257 180.967 9.85968C179.54 9.9786 176.659 7.62654 175.312 7.13763C171.387 5.69733 168.81 5.32734 164.714 6.15981C161.477 6.8205 160.235 9.05363 155.438 9.46326C137.917 11.0225 120.659 19.0168 105.873 26.7998C105.371 27.064 104.869 27.3283 104.367 27.5926C106.256 27.7512 110.987 30.4071 110.564 34.8734C118.994 31.4114 130.9 34.5034 131.508 39.4718C131.587 40.1325 132.565 38.6922 133.094 38.2958C143.731 30.3675 159.336 37.199 160.882 39.8682C168.057 32.4024 181.43 35.1377 186.305 37.2387C186.768 37.4369 187.23 37.6615 187.746 37.6879C188.539 37.7144 189.279 37.2651 189.913 36.7894C194.511 33.3406 199.876 32.2439 204.461 33.552C206.694 34.1863 214.451 39.234 214.768 38.494C219.155 28.2269 231.906 25.3595 231.986 24.3684C231.972 24.2892 231.906 24.2363 231.735 24.1702Z" fill="#5D95E4"/>
<path opacity="0.7" d="M146.73 22.228C143.599 25.3464 129.685 39.2341 131.614 39.657C132.565 38.7188 133.279 36.9349 134.204 35.9835C138.802 31.2266 143.48 26.5093 148.184 21.858C150.1 19.9684 152.531 18.4753 154.698 16.8764C156.02 15.8986 157.42 15.0529 158.821 14.194C160.922 12.9122 163.34 11.7626 165.217 10.2034C164.054 9.02739 157.235 14.0883 155.782 15.0397C152.558 17.1539 149.466 19.4927 146.73 22.228Z" fill="white"/>
<path opacity="0.7" d="M140.48 17.233C138.604 18.0786 125.218 25.6634 120.342 28.4911C117.871 29.9314 111.951 33.4992 111.119 33.8295C110.445 34.1598 110.194 35.1112 110.947 34.7941C115.361 32.746 121.32 28.9007 126.896 25.6501C133.701 21.6992 139.951 18.3826 140.81 17.9069C141.233 17.669 140.916 17.0215 140.48 17.233Z" fill="white"/>
<path opacity="0.7" d="M163.234 24.0381C162.521 29.099 161.82 34.1599 161.107 39.2208C161.08 39.4058 161.054 39.5776 161.028 39.7625C161.001 39.974 160.697 39.974 160.671 39.7625C160.525 38.7979 160.618 37.7937 160.724 36.8159C161.318 31.3982 162.124 26.007 163.142 20.6554C163.723 17.603 164.371 14.5374 165.732 11.7361C166.181 11.5246 166.458 11.6832 165.282 14.1013C164.793 15.1056 164.622 16.2288 164.371 17.3123C163.868 19.5322 163.551 21.7786 163.234 24.0381Z" fill="white"/>
<path opacity="0.7" d="M188.116 36.0098C188.208 36.6705 188.486 37.5691 188.089 37.6616C187.574 37.7541 187.601 36.6309 187.508 36.1155C186.623 31.6229 184.667 28.2005 181.879 24.5667C179.091 20.9329 175.814 17.7087 172.629 14.4185C172.021 13.7842 170.515 11.4586 171.81 12.1193C174.175 14.7488 178.166 18.779 180.558 21.7257C183.438 25.267 187.244 29.3633 188.116 36.0098Z" fill="white"/>
<path opacity="0.7" d="M214.663 38.56C214.9 38.3882 214.332 37.7011 214.16 37.2122C213.09 34.1069 211.557 31.1735 209.694 28.4646C205.69 22.6109 199.744 18.5279 193.758 14.7223C192.503 13.9162 191.089 13.0838 189.609 13.3348C189.107 13.4141 188.539 14.0087 188.935 14.3391C189.028 14.4184 189.16 14.4448 189.292 14.4712C191.908 14.9998 193.838 15.5151 196.11 16.9422C198.106 18.1843 199.995 19.5718 201.766 21.1046C205.307 24.1702 208.386 27.7775 210.831 31.7681C211.531 32.9177 212.192 34.358 212.786 35.5605C213.05 36.1022 214.517 38.9432 214.663 38.56Z" fill="white"/>
<path d="M167.555 29.165C167.026 29.4557 166.379 29.1385 165.771 29.1385C165.322 29.1385 164.899 29.2971 164.463 29.3499C164.027 29.416 163.511 29.3367 163.26 28.98C163.142 28.8082 163.089 28.5968 163.036 28.3853C162.89 27.7114 162.732 27.0243 162.587 26.3504C162.415 25.5576 162.309 24.5269 163.009 24.0909C163.26 23.9323 163.564 23.8926 163.868 23.8662C165.163 23.7473 167.951 23.2584 168.731 24.659C169.167 25.4519 168.308 28.7553 167.555 29.165Z" fill="#38A0D1"/>
<path d="M165.428 15.2508C165.454 15.1187 165.481 14.9865 165.586 14.894C165.705 14.7883 165.877 14.7883 166.036 14.8015C166.67 14.8412 167.304 14.8808 167.938 14.9205C168.031 14.9205 168.137 14.9337 168.216 14.9865C168.374 15.0922 168.361 15.3301 168.335 15.5151C167.819 18.8582 167.053 22.1616 166.036 25.3858C165.837 25.9936 164.754 25.5047 164.542 25.1347C164.172 24.4476 164.569 22.6637 164.608 21.9106C164.741 19.6774 165.005 17.4575 165.428 15.2508Z" fill="#38A0D1"/>
<path d="M161.569 20.2591C163.01 21.9505 164.45 23.6419 165.877 25.3332C165.745 25.6371 165.269 25.4125 165.045 25.1615C162.983 22.849 160.922 20.5366 158.874 18.2242C157.79 17.0085 156.654 15.6079 156.442 14.0619C156.865 13.9429 156.733 13.9826 157.156 13.8636C158.147 16.2421 159.944 18.3563 161.569 20.2591Z" fill="#38A0D1"/>
<path d="M164.463 25.3463C164.688 25.2141 164.476 24.8706 164.252 24.7252C158.808 21.0914 152.703 18.5147 147.47 14.5902C147.404 14.5374 147.338 14.4977 147.259 14.4845C146.981 14.4317 146.849 14.8809 147.034 15.0923C147.312 15.4227 148.012 15.5284 148.382 15.753C149.029 16.1495 149.664 16.6384 150.337 17.0348C151.897 17.973 153.469 18.8979 155.042 19.8229C158.173 21.6728 161.318 23.5228 164.463 25.3463Z" fill="#38A0D1"/>
<path d="M153.681 21.0782C157.249 23.0867 160.922 25.4784 165.018 25.333C165.203 25.452 165.137 25.7823 164.939 25.9012C164.741 26.0202 164.503 25.9937 164.265 25.9673C162.666 25.7691 161.199 25.1745 159.667 24.6459C157.341 23.8531 155.2 22.7431 153.047 21.5671C149.941 19.8625 146.466 18.8186 143.546 16.7969C143.202 16.5591 142.832 16.1362 143.057 15.7927C143.176 15.6077 144.973 16.9291 147.484 18.2372C149.994 19.5322 153.218 20.8271 153.681 21.0782Z" fill="#38A0D1"/>
<path d="M175.021 19.0566C176.739 17.8409 178.814 16.7574 179.897 14.9471C179.99 14.8017 180.042 14.5639 179.884 14.4978C176.105 18.2637 170.925 20.7479 167.674 25.0292C169.167 24.6064 169.564 23.536 170.661 22.4922C171.995 21.2501 173.554 20.1005 175.021 19.0566Z" fill="#38A0D1"/>
<path d="M171.797 18.0522C173.251 16.5194 175.061 15.0526 175.788 13.0706C175.84 12.912 175.854 12.6609 175.682 12.6345C172.709 17.0611 168.11 20.5099 165.758 25.3462C167.133 24.6459 167.318 23.5095 168.203 22.2674C169.247 20.8007 170.555 19.3603 171.797 18.0522Z" fill="#38A0D1"/>
<path d="M170.343 24.3156C169.392 24.7253 168.401 25.1481 167.714 25.9409C169.458 25.201 171.202 24.4742 172.96 23.7342C177.109 21.99 181.258 20.2458 185.407 18.4883C186.53 18.0126 188.076 17.3916 188.565 16.1759C187.772 16.0834 187.508 16.612 187.032 17.048C186.451 17.5766 185.685 17.8144 184.958 18.1184C183.346 18.8055 181.747 19.4794 180.135 20.1665C176.871 21.5407 173.607 22.9282 170.343 24.3156Z" fill="#38A0D1"/>
<path d="M166.221 40.1325C165.996 43.6078 165.771 47.083 165.785 50.5582C165.798 53.5842 165.983 56.6102 165.89 59.6361C165.798 62.4771 165.441 65.3048 165.097 68.1194C164.741 70.9736 164.397 73.8145 164.04 76.6687C162.93 85.6277 161.82 94.6131 159.495 103.334C159.389 103.717 159.257 104.153 158.887 104.338C158.398 104.576 157.803 104.18 157.618 103.678C157.433 103.162 157.552 102.607 157.671 102.079C159.693 92.9745 160.631 83.672 161.569 74.3959C161.807 72.0174 162.045 69.639 162.283 67.2605C162.56 64.5384 162.838 61.8032 162.851 59.0547C162.864 56.5309 162.666 54.0202 162.613 51.4964C162.56 49.2236 162.626 46.9509 162.692 44.6913C162.877 38.3883 163.062 32.0457 164.146 25.8352C164.939 26.1656 167.198 26.3241 167.608 27.0112C168.004 27.6587 167.093 30.3543 166.987 31.1472C166.604 34.1203 166.406 37.133 166.221 40.1325Z" fill="#68BCEC"/>
<path d="M156.615 32.6271C157.011 32.6667 157.381 32.8385 157.738 33.0235C158.134 33.2481 158.531 33.5256 158.729 33.9352C158.927 34.3449 158.874 34.913 158.478 35.1641C158.398 35.217 158.319 35.2434 158.227 35.2566C158.068 35.2566 157.936 35.1773 157.804 35.098C157.209 34.7413 155.835 34.6091 155.452 34.0674C154.91 33.2745 155.914 32.561 156.615 32.6271Z" fill="#68BCEC"/>
<path d="M158.491 38.7714C157.619 40.5421 155.241 41.401 153.443 40.5817C151.514 39.7096 150.655 36.9479 151.911 35.2301C154.434 31.7681 160.605 34.4505 158.491 38.7714Z" fill="#769DD5"/>
<path d="M155.373 38.6527C155.346 38.9038 155.307 39.1549 155.188 39.3795C154.937 39.8948 154.303 40.1988 153.734 40.0931C153.166 39.9873 152.704 39.472 152.651 38.8906C152.598 38.3092 152.942 37.7278 153.47 37.4899C154.54 37.0407 155.505 37.3974 155.373 38.6527Z" fill="#68BCEC"/>
<path d="M171.322 32.6273C170.925 32.6934 170.568 32.8784 170.225 33.103C169.842 33.3541 169.472 33.658 169.287 34.0808C169.115 34.5037 169.207 35.0719 169.617 35.2833C169.696 35.3229 169.789 35.3494 169.868 35.3494C170.027 35.3494 170.159 35.2436 170.291 35.1644C170.859 34.7679 172.22 34.5565 172.577 33.9751C173.079 33.1691 172.022 32.5216 171.322 32.6273Z" fill="#68BCEC"/>
<path d="M169.868 38.8775C170.859 40.5953 173.277 41.2825 175.021 40.3443C176.898 39.34 177.558 36.5255 176.197 34.9002C173.436 31.6232 167.463 34.7152 169.868 38.8775Z" fill="#769DD5"/>
<path d="M172.96 38.5602C173 38.8113 173.066 39.0491 173.185 39.2738C173.476 39.7759 174.123 40.0402 174.678 39.8948C175.233 39.7495 175.669 39.2077 175.682 38.6263C175.695 38.0449 175.312 37.4767 174.77 37.2917C173.687 36.8821 172.749 37.3181 172.96 38.5602Z" fill="#68BCEC"/>
<path d="M170.397 33.6447C171.428 32.5876 171.097 31.0944 170.569 29.8787C170.133 28.8745 169.71 27.976 169.71 26.8528C169.71 25.9014 169.921 24.9632 169.948 24.0118C170 22.2544 169.142 20.8405 168.349 19.3473C167.543 17.841 166.816 15.7268 168.19 14.3129C168.402 14.1015 168.058 13.7843 167.86 13.9957C165.402 16.5328 168.494 19.8098 169.274 22.294C169.855 24.144 169.009 26.0071 169.34 27.8702C169.644 29.5484 171.613 31.7683 170.066 33.3408C169.855 33.539 170.199 33.8561 170.397 33.6447Z" fill="#68BCEC"/>
<path d="M157.513 32.9709C158.543 31.6892 159.574 30.3942 160.42 28.9803C161.292 27.5136 161.86 25.9411 162.257 24.2894C162.653 22.5981 162.97 20.9067 163.551 19.2682C164.159 17.5372 165.005 15.8987 166.009 14.3659C166.168 14.1148 165.771 13.9034 165.613 14.1544C163.723 17.0086 162.745 20.0742 162.005 23.3777C161.622 25.0955 161.16 26.7604 160.288 28.3196C159.416 29.8789 158.292 31.2795 157.182 32.667C156.997 32.8916 157.328 33.1955 157.513 32.9709Z" fill="#68BCEC"/>
<path d="M155.451 9.47644C157.143 7.16403 160.763 3.43773 163.234 1.971C164.291 1.33674 165.401 0.794972 166.604 0.557124C167.991 0.26642 169.458 -0.0771387 170.872 0.0153579C176.725 0.411772 181.35 6.50334 183.438 9.82C186.173 14.1409 160.274 12.8063 155.451 9.47644Z" fill="#5D95E4"/>
<path d="M231.959 24.3684C231.959 24.3023 231.893 24.2363 231.735 24.1834C221.256 20.5364 194.207 8.81576 180.967 9.87286C179.54 9.99178 176.659 7.63973 175.312 7.15082C171.387 5.71051 168.81 5.34052 164.714 6.17299C161.477 6.83368 160.235 9.06682 155.438 9.47645C137.917 11.0225 120.659 19.0168 105.873 26.7997C158.054 6.18621 222.326 22.5053 231.959 24.3684Z" fill="#5D95E4"/>
<path d="M154.474 162.241C155.901 162.188 157.328 162.149 158.755 162.096C158.768 154.696 158.768 147.296 158.781 139.883C158.795 133.409 158.795 126.921 158.94 120.446C159.085 114.037 159.971 107.523 159.878 101.141C156.39 101.273 156.231 104.034 155.888 106.862C155.346 111.302 156.152 115.597 155.821 120.05C155.148 129.048 155.082 138.126 155.24 147.151C155.253 148.327 154.249 162.241 154.474 162.241Z" fill="#5D95E4"/>
<path d="M42.3939 117.367C42.0239 121.768 41.535 126.168 41.165 130.568L41.7332 166.126C41.7332 166.721 45.6577 166.681 45.7634 166.034L46.8205 117.83C46.7281 117.83 46.6356 117.83 46.5431 117.83L42.3939 117.367Z" fill="#5CCB9D"/>
<path d="M208.307 117.13C208.307 118.424 208.307 119.719 208.307 121.014L207.435 168.571H205.135C204.937 168.571 203.88 168.571 203.695 168.571L202.057 118.266L208.307 117.13Z" fill="#5CCB9D"/>
<path d="M196.229 109.426C194.934 108.778 193.586 108.104 192.146 107.999C191.3 107.933 190.441 108.065 189.609 108.197C188.036 108.435 186.477 108.844 184.892 108.844L51.0886 108.58C48.8554 109.056 36.4212 119.085 36.4212 119.085C36.1173 119.363 36.342 119.931 36.6855 120.169C37.0291 120.407 37.4651 120.433 37.888 120.446C40.3854 120.512 42.8828 120.367 45.3802 120.446L183.517 122.336C190.613 122.336 197.683 121.596 204.752 120.975C206.192 120.843 207.725 120.671 208.809 119.733C213.433 115.755 198.647 110.642 196.229 109.426Z" fill="#5CCB9D"/>
<path d="M41.2576 117.169C34.0957 116.152 35.9985 123.948 37.0027 124.014C41.1386 124.252 93.4124 124.754 105.041 125.798C128.31 127.885 194.115 125.084 203.655 124.741C205.849 124.661 210.421 124.371 210.857 122.217C211.583 118.57 212.35 116.271 208.32 116.522C205.756 116.68 177.809 119.534 145.448 119.812C107.115 120.155 62.0693 120.116 41.2576 117.169Z" fill="#30BE38"/>
<path d="M120.963 159.968C118.757 160.087 116.55 160.061 114.356 160.021C112.705 159.995 111.04 159.968 109.388 159.942C106.851 159.902 104.301 159.863 101.816 159.361C102.081 161.858 103.085 164.184 103.732 166.589C104.525 169.496 104.816 172.574 104.671 175.614C104.644 176.116 104.618 176.657 104.803 177.12C105.08 177.794 105.754 178.124 106.375 178.362C108.754 179.247 111.277 179.472 113.775 179.683C118.453 180.093 123.342 180.45 127.676 178.415C128.905 177.834 130.173 176.882 130.371 175.415C130.517 174.345 130.028 173.301 129.843 172.231C129.565 170.592 130.041 168.914 130.517 167.329C131.032 165.598 131.534 163.853 132.05 162.122C132.301 161.25 133.212 159.03 132.459 158.277C131.825 157.656 129.962 158.568 129.314 158.726C126.553 159.4 123.765 159.81 120.963 159.968Z" fill="#FFD101"/>
<path d="M112.757 169.628C112.533 169.575 112.255 169.416 112.335 169.178C112.401 168.967 112.678 168.98 112.876 169.046C114.052 169.403 115.347 169.575 116.444 168.993C116.708 168.861 117.343 168.729 117.184 169.271C117.118 169.522 116.259 169.707 116.061 169.76C114.977 170.064 113.841 169.879 112.757 169.628Z" fill="white"/>
<path d="M112.493 171.438C112.269 171.385 111.991 171.227 112.07 170.989C112.137 170.777 112.414 170.791 112.612 170.857C113.788 171.214 115.083 171.385 116.18 170.804C116.444 170.672 117.079 170.54 116.92 171.081C116.854 171.332 115.995 171.517 115.797 171.57C114.713 171.861 113.577 171.676 112.493 171.438Z" fill="white"/>
<path d="M112.493 173.235C112.269 173.182 111.991 173.024 112.07 172.786C112.137 172.575 112.414 172.588 112.612 172.654C113.788 173.011 115.083 173.182 116.18 172.601C116.444 172.469 117.079 172.337 116.92 172.879C116.854 173.13 115.995 173.315 115.797 173.367C114.713 173.671 113.577 173.486 112.493 173.235Z" fill="white"/>
<path d="M112.097 175.455C111.872 175.402 111.595 175.244 111.674 175.006C111.74 174.794 112.018 174.808 112.216 174.874C113.392 175.23 114.687 175.402 115.783 174.821C116.048 174.689 116.682 174.556 116.523 175.098C116.457 175.349 115.598 175.534 115.4 175.587C114.304 175.891 113.18 175.706 112.097 175.455Z" fill="white"/>
<path d="M112.097 177.635C111.872 177.582 111.595 177.424 111.674 177.186C111.74 176.975 112.018 176.988 112.216 177.054C113.392 177.411 114.687 177.582 115.783 177.001C116.048 176.869 116.682 176.737 116.523 177.279C116.457 177.53 115.598 177.715 115.4 177.767C114.304 178.071 113.18 177.886 112.097 177.635Z" fill="white"/>
<path d="M112.916 167.421C112.691 167.368 112.414 167.21 112.493 166.972C112.559 166.76 112.836 166.773 113.035 166.84C114.211 167.196 115.506 167.368 116.602 166.787C116.867 166.655 117.501 166.522 117.342 167.064C117.276 167.315 116.417 167.5 116.219 167.553C115.136 167.857 113.999 167.672 112.916 167.421Z" fill="white"/>
<path d="M112.757 165.228C112.533 165.175 112.255 165.016 112.335 164.778C112.401 164.567 112.678 164.58 112.876 164.646C114.052 165.003 115.347 165.175 116.444 164.593C116.708 164.461 117.343 164.329 117.184 164.871C117.118 165.122 116.259 165.307 116.061 165.36C114.977 165.664 113.841 165.479 112.757 165.228Z" fill="white"/>
<path d="M112.916 162.862C112.691 162.809 112.414 162.651 112.493 162.413C112.559 162.202 112.836 162.215 113.035 162.281C114.211 162.638 115.506 162.809 116.602 162.228C116.867 162.096 117.501 161.964 117.342 162.505C117.276 162.757 116.417 162.942 116.219 162.994C115.136 163.298 113.999 163.113 112.916 162.862Z" fill="white"/>
<path d="M119.589 162.849C119.364 162.796 119.087 162.638 119.166 162.4C119.232 162.188 119.51 162.202 119.708 162.268C120.884 162.624 122.179 162.796 123.276 162.215C123.54 162.083 124.174 161.951 124.016 162.492C123.95 162.743 123.091 162.928 122.892 162.981C121.809 163.285 120.673 163.1 119.589 162.849Z" fill="white"/>
<path d="M119.959 169.377C119.734 169.324 119.457 169.165 119.536 168.928C119.602 168.716 119.879 168.729 120.078 168.795C121.254 169.152 122.549 169.324 123.645 168.743C123.91 168.61 124.544 168.478 124.385 169.02C124.319 169.271 123.46 169.456 123.262 169.509C122.179 169.813 121.055 169.628 119.959 169.377Z" fill="white"/>
<path d="M119.708 171.187C119.483 171.134 119.206 170.976 119.285 170.738C119.351 170.526 119.628 170.54 119.827 170.606C121.003 170.962 122.298 171.134 123.394 170.553C123.659 170.421 124.293 170.289 124.134 170.83C124.068 171.081 123.209 171.266 123.011 171.319C121.928 171.623 120.791 171.438 119.708 171.187Z" fill="white"/>
<path d="M119.708 172.984C119.483 172.931 119.206 172.773 119.285 172.535C119.351 172.323 119.628 172.336 119.827 172.403C121.003 172.759 122.298 172.931 123.394 172.35C123.659 172.218 124.293 172.085 124.134 172.627C124.068 172.878 123.209 173.063 123.011 173.116C121.928 173.42 120.791 173.235 119.708 172.984Z" fill="white"/>
<path d="M119.708 175.455C119.483 175.402 119.206 175.244 119.285 175.006C119.351 174.794 119.628 174.808 119.827 174.874C121.003 175.23 122.298 175.402 123.394 174.821C123.659 174.689 124.293 174.556 124.134 175.098C124.068 175.349 123.209 175.534 123.011 175.587C121.928 175.891 120.791 175.706 119.708 175.455Z" fill="white"/>
<path d="M119.708 177.635C119.483 177.582 119.206 177.424 119.285 177.186C119.351 176.975 119.628 176.988 119.827 177.054C121.003 177.411 122.298 177.582 123.394 177.001C123.659 176.869 124.293 176.737 124.134 177.279C124.068 177.53 123.209 177.715 123.011 177.767C121.928 178.071 120.791 177.886 119.708 177.635Z" fill="white"/>
<path d="M120.131 167.17C119.906 167.117 119.629 166.959 119.708 166.721C119.774 166.509 120.052 166.523 120.25 166.589C121.426 166.945 122.721 167.117 123.818 166.536C124.082 166.404 124.716 166.271 124.558 166.813C124.492 167.064 123.633 167.249 123.434 167.302C122.351 167.606 121.215 167.421 120.131 167.17Z" fill="white"/>
<path d="M119.708 165.228C119.483 165.175 119.206 165.016 119.285 164.778C119.351 164.567 119.628 164.58 119.827 164.646C121.003 165.003 122.298 165.175 123.394 164.593C123.659 164.461 124.293 164.329 124.134 164.871C124.068 165.122 123.209 165.307 123.011 165.36C121.928 165.664 120.791 165.479 119.708 165.228Z" fill="white"/>
<path d="M126.988 176.724C126.737 176.777 126.42 176.737 126.341 176.46C126.288 176.275 126.394 176.09 126.539 175.984C126.685 175.878 126.856 175.852 127.015 175.812C127.596 175.653 128.138 175.31 128.548 174.821C128.733 174.596 129.089 174.292 129.235 174.742C129.314 174.98 128.852 175.508 128.706 175.667C128.257 176.208 127.649 176.592 126.988 176.724Z" fill="white"/>
<path d="M127.887 173.618C128.283 173.38 128.653 173.037 128.865 172.574C128.944 172.389 128.957 172.085 128.786 172.033C128.64 171.98 128.508 172.152 128.416 172.297C127.913 173.09 127.081 173.592 126.222 173.645C125.495 173.684 125.76 174.345 126.354 174.292C126.803 174.266 127.491 173.843 127.887 173.618Z" fill="white"/>
<path d="M127.187 171.068C126.83 171.174 126.42 171.2 126.116 170.976C126.077 170.936 126.024 170.896 126.011 170.843C125.958 170.711 126.063 170.566 126.182 170.526C126.301 170.487 126.433 170.513 126.552 170.526C127.187 170.579 127.768 170.143 128.191 169.601C128.376 169.364 128.6 169.073 128.904 169.126C129.089 170.024 127.821 170.87 127.187 171.068Z" fill="white"/>
<path d="M126.883 167.567C126.737 167.58 126.579 167.593 126.433 167.514C126.301 167.434 126.209 167.236 126.288 167.091C126.367 166.946 126.566 166.946 126.711 166.959C127.002 166.998 127.292 167.012 127.583 167.012C127.9 167.012 128.231 166.998 128.482 166.787C128.719 166.589 128.852 166.245 129.129 166.126C129.195 166.1 129.274 166.087 129.327 166.139C129.367 166.166 129.38 166.206 129.407 166.245C129.882 167.553 127.345 167.527 126.883 167.567Z" fill="white"/>
<path d="M127.081 164.659C126.857 164.686 126.619 164.726 126.421 164.607C126.381 164.58 126.341 164.554 126.328 164.527C126.262 164.408 126.341 164.25 126.46 164.197C126.579 164.144 126.711 164.171 126.83 164.184C127.702 164.276 128.508 163.682 129.328 163.325C129.394 163.298 129.46 163.272 129.526 163.272C129.698 163.298 129.777 163.536 129.724 163.708C129.447 164.541 127.702 164.567 127.081 164.659Z" fill="white"/>
<path d="M127.147 161.739C126.975 161.687 126.777 161.541 126.83 161.356C126.87 161.224 127.015 161.198 127.134 161.184C127.98 161.118 128.905 161.356 129.631 160.854C129.922 160.656 130.186 160.312 130.556 160.352C131.045 161.911 127.781 161.938 127.147 161.739Z" fill="white"/>
<path d="M107.115 162.664C106.944 162.571 106.759 162.453 106.666 162.268C106.574 162.069 106.64 161.779 106.838 161.726C106.983 161.686 107.115 161.779 107.248 161.858C107.578 162.043 107.961 162.083 108.344 162.109C108.939 162.162 109.547 162.215 110.141 162.268C110.326 162.281 109.956 162.823 109.917 162.862C109.732 162.994 109.335 163.008 109.124 163.034C108.437 163.1 107.736 162.981 107.115 162.664Z" fill="white"/>
<path d="M107.921 165.703C107.723 165.69 107.525 165.677 107.326 165.637C107.049 165.571 106.785 165.452 106.534 165.294C106.335 165.148 106.124 164.95 106.124 164.673C106.124 164.633 106.124 164.593 106.15 164.567C106.177 164.527 106.23 164.514 106.283 164.514C107.049 164.461 107.736 165.201 108.489 165.056C108.82 164.99 109.11 164.752 109.441 164.646C109.56 164.606 109.705 164.593 109.811 164.673C110.247 164.976 109.454 165.439 109.256 165.531C108.833 165.716 108.357 165.73 107.921 165.703Z" fill="white"/>
<path d="M106.626 167.897C106.494 167.818 106.362 167.712 106.283 167.566C106.203 167.421 106.203 167.21 106.309 167.091C106.468 166.906 106.745 167.012 106.956 167.104C107.459 167.329 108 167.448 108.542 167.434C108.912 167.421 109.427 167.197 109.269 167.804C109.005 168.782 107.141 168.227 106.626 167.897Z" fill="white"/>
<path d="M106.6 169.509C106.507 169.429 106.428 169.324 106.415 169.192C106.415 168.993 106.613 168.875 106.785 168.888C106.956 168.914 107.102 169.033 107.247 169.126C107.842 169.535 108.568 169.667 109.242 169.482C109.573 169.39 110.009 169.363 109.85 169.839C109.731 170.196 109.15 170.275 108.872 170.302C108.066 170.381 107.221 170.09 106.6 169.509Z" fill="white"/>
<path d="M107.142 171.715C106.93 171.53 106.706 171.253 106.785 170.962C107.208 170.923 107.578 171.227 107.961 171.412C108.423 171.636 108.952 171.702 109.454 171.597C110.22 171.438 109.943 172.297 109.282 172.337C108.529 172.416 107.749 172.231 107.142 171.715Z" fill="white"/>
<path d="M107.749 175.151C107.326 175.032 106.903 174.781 106.652 174.372C106.547 174.2 106.467 173.988 106.507 173.79C106.547 173.592 106.732 173.42 106.903 173.473C106.969 173.499 107.022 173.539 107.075 173.592C107.551 174.041 108.053 174.583 108.674 174.557C108.806 174.557 108.938 174.517 109.07 174.53C109.203 174.543 109.348 174.609 109.401 174.742C109.705 175.429 107.947 175.204 107.749 175.151Z" fill="white"/>
<path d="M106.639 176.829C106.547 176.737 106.454 176.631 106.468 176.499C106.481 176.327 106.666 176.221 106.824 176.248C106.983 176.274 107.115 176.38 107.247 176.486C107.736 176.842 108.331 177.027 108.925 177.001C109.784 176.961 109.441 177.82 108.74 177.728C107.974 177.635 107.208 177.384 106.639 176.829Z" fill="white"/>
<path d="M103.719 162.981C103.587 162.757 103.574 162.479 103.574 162.215C103.574 162.083 103.587 161.937 103.653 161.819C103.719 161.7 103.851 161.62 103.97 161.686C104.129 161.766 104.116 162.004 104.168 162.189C104.248 162.519 104.935 163.1 104.697 163.417C104.419 163.748 103.851 163.232 103.719 162.981Z" fill="white"/>
<path d="M71.9929 152.133C68.9934 152.278 65.9806 152.238 62.9679 152.199C60.7083 152.159 58.4487 152.133 56.176 152.093C52.714 152.04 49.2387 151.987 45.8428 151.379C46.1995 154.432 47.5738 157.246 48.4591 160.18C49.5426 163.721 49.9391 167.474 49.7408 171.174C49.7012 171.795 49.6616 172.442 49.9258 172.997C50.309 173.816 51.2208 174.226 52.0797 174.517C55.3171 175.6 58.7659 175.865 62.175 176.129C68.5573 176.618 75.2303 177.067 81.1368 174.583C82.8018 173.882 84.546 172.72 84.8103 170.923C84.9953 169.614 84.3346 168.346 84.0967 167.051C83.7268 165.056 84.3742 163.021 85.0085 161.078C85.7088 158.964 86.3959 156.85 87.0963 154.736C87.4398 153.679 88.6819 150.957 87.6512 150.058C86.7924 149.305 84.2421 150.415 83.3568 150.613C79.6173 151.432 75.8117 151.934 71.9929 152.133Z" fill=process.env.REACT_APP_COLOR_PRIMARY/>
<path d="M60.7873 163.893C60.4834 163.827 60.1002 163.629 60.2059 163.338C60.2984 163.074 60.6684 163.1 60.9459 163.179C62.5448 163.615 64.3154 163.827 65.8218 163.127C66.1786 162.968 67.0507 162.809 66.8393 163.47C66.7468 163.774 65.5707 163.999 65.3197 164.065C63.8133 164.422 62.2673 164.197 60.7873 163.893Z" fill="#FBFBFB"/>
<path d="M60.4304 166.087C60.1265 166.021 59.7433 165.822 59.849 165.532C59.9415 165.267 60.3115 165.294 60.589 165.373C62.1878 165.809 63.9585 166.021 65.4649 165.32C65.8216 165.162 66.6937 165.003 66.4823 165.664C66.3898 165.968 65.2138 166.192 64.9627 166.258C63.4564 166.628 61.9103 166.391 60.4304 166.087Z" fill="#FBFBFB"/>
<path d="M60.4304 168.293C60.1265 168.227 59.7433 168.029 59.849 167.738C59.9415 167.474 60.3115 167.5 60.589 167.58C62.1878 168.016 63.9585 168.227 65.4649 167.527C65.8216 167.368 66.6937 167.21 66.4823 167.87C66.3898 168.174 65.2138 168.399 64.9627 168.465C63.4564 168.822 61.9103 168.597 60.4304 168.293Z" fill="#FBFBFB"/>
<path d="M59.8889 170.989C59.585 170.923 59.2018 170.724 59.3075 170.434C59.4 170.169 59.77 170.196 60.0475 170.275C61.6463 170.711 63.417 170.923 64.9234 170.222C65.2801 170.064 66.1522 169.905 65.9408 170.566C65.8483 170.87 64.6723 171.094 64.4212 171.16C62.9149 171.517 61.3688 171.293 59.8889 170.989Z" fill="#FBFBFB"/>
<path d="M59.8889 173.645C59.585 173.579 59.2018 173.38 59.3075 173.09C59.4 172.825 59.77 172.852 60.0475 172.931C61.6463 173.367 63.417 173.579 64.9234 172.878C65.2801 172.72 66.1522 172.561 65.9408 173.222C65.8483 173.526 64.6723 173.75 64.4212 173.816C62.9149 174.173 61.3688 173.949 59.8889 173.645Z" fill="#FBFBFB"/>
<path d="M61.0119 161.211C60.708 161.145 60.3248 160.946 60.4305 160.656C60.523 160.391 60.893 160.418 61.1705 160.497C62.7694 160.933 64.54 161.145 66.0464 160.444C66.4032 160.286 67.2753 160.127 67.0639 160.788C66.9714 161.092 65.7953 161.316 65.5443 161.382C64.0379 161.739 62.4919 161.515 61.0119 161.211Z" fill="#FBFBFB"/>
<path d="M60.7873 158.541C60.4834 158.475 60.1002 158.277 60.2059 157.986C60.2984 157.722 60.6684 157.749 60.9459 157.828C62.5448 158.264 64.3154 158.475 65.8218 157.775C66.1786 157.616 67.0507 157.458 66.8393 158.119C66.7468 158.422 65.5707 158.647 65.3197 158.713C63.8133 159.07 62.2673 158.845 60.7873 158.541Z" fill="#FBFBFB"/>
<path d="M61.0119 155.661C60.708 155.595 60.3248 155.397 60.4305 155.106C60.523 154.842 60.893 154.868 61.1705 154.947C62.7694 155.383 64.54 155.595 66.0464 154.894C66.4032 154.736 67.2753 154.577 67.0639 155.238C66.9714 155.542 65.7953 155.767 65.5443 155.833C64.0379 156.189 62.4919 155.965 61.0119 155.661Z" fill="#FBFBFB"/>
<path d="M70.1164 155.634C69.8125 155.568 69.4293 155.37 69.535 155.079C69.6275 154.815 69.9975 154.842 70.275 154.921C71.8739 155.357 73.6445 155.568 75.1509 154.868C75.5077 154.709 76.3798 154.551 76.1684 155.212C76.0759 155.516 74.8998 155.74 74.6488 155.806C73.1424 156.163 71.5964 155.938 70.1164 155.634Z" fill="#FBFBFB"/>
<path d="M70.6316 163.589C70.3277 163.523 69.9445 163.325 70.0502 163.034C70.1427 162.77 70.5126 162.796 70.7901 162.876C72.389 163.312 74.1597 163.523 75.666 162.823C76.0228 162.664 76.8949 162.506 76.6835 163.166C76.591 163.47 75.415 163.695 75.1639 163.761C73.6575 164.118 72.1115 163.893 70.6316 163.589Z" fill="#FBFBFB"/>
<path d="M70.2751 165.783C69.9712 165.717 69.588 165.518 69.6937 165.228C69.7862 164.963 70.1562 164.99 70.4337 165.069C72.0326 165.505 73.8032 165.717 75.3096 165.016C75.6664 164.858 76.5385 164.699 76.3271 165.36C76.2346 165.664 75.0585 165.888 74.8075 165.954C73.3011 166.324 71.7551 166.087 70.2751 165.783Z" fill="#FBFBFB"/>
<path d="M70.2751 167.989C69.9712 167.923 69.588 167.725 69.6937 167.434C69.7862 167.17 70.1562 167.196 70.4337 167.276C72.0326 167.712 73.8032 167.923 75.3096 167.223C75.6664 167.064 76.5385 166.906 76.3271 167.566C76.2346 167.87 75.0585 168.095 74.8075 168.161C73.3011 168.518 71.7551 168.293 70.2751 167.989Z" fill="#FBFBFB"/>
<path d="M70.2751 170.989C69.9712 170.923 69.588 170.724 69.6937 170.434C69.7862 170.169 70.1562 170.196 70.4337 170.275C72.0326 170.711 73.8032 170.923 75.3096 170.222C75.6664 170.064 76.5385 169.905 76.3271 170.566C76.2346 170.87 75.0585 171.094 74.8075 171.16C73.3011 171.517 71.7551 171.293 70.2751 170.989Z" fill="#FBFBFB"/>
<path d="M70.2751 173.645C69.9712 173.579 69.588 173.38 69.6937 173.09C69.7862 172.825 70.1562 172.852 70.4337 172.931C72.0326 173.367 73.8032 173.579 75.3096 172.878C75.6664 172.72 76.5385 172.561 76.3271 173.222C76.2346 173.526 75.0585 173.75 74.8075 173.816C73.3011 174.173 71.7551 173.949 70.2751 173.645Z" fill="#FBFBFB"/>
<path d="M70.8562 160.907C70.5523 160.84 70.1691 160.642 70.2748 160.352C70.3673 160.087 70.7373 160.114 71.0147 160.193C72.6136 160.629 74.3843 160.84 75.8906 160.14C76.2474 159.982 77.1195 159.823 76.9081 160.484C76.8156 160.788 75.6396 161.012 75.3885 161.078C73.8821 161.435 72.3361 161.21 70.8562 160.907Z" fill="#FBFBFB"/>
<path d="M70.2751 158.541C69.9712 158.475 69.588 158.277 69.6937 157.986C69.7862 157.722 70.1562 157.749 70.4337 157.828C72.0326 158.264 73.8032 158.475 75.3096 157.775C75.6664 157.616 76.5385 157.458 76.3271 158.119C76.2346 158.422 75.0585 158.647 74.8075 158.713C73.3011 159.07 71.7551 158.845 70.2751 158.541Z" fill="#FBFBFB"/>
<path d="M80.1988 172.535C79.8685 172.588 79.4192 172.548 79.3267 172.218C79.2606 171.993 79.406 171.768 79.6042 171.636C79.8024 171.517 80.027 171.478 80.2517 171.425C81.0445 171.24 81.7845 170.817 82.3394 170.222C82.5905 169.958 83.0794 169.575 83.2776 170.117C83.3833 170.407 82.7491 171.055 82.5641 171.253C81.943 171.914 81.1106 172.376 80.1988 172.535Z" fill="#FBFBFB"/>
<path d="M81.4274 168.756C81.9824 168.465 82.4713 168.042 82.7488 167.487C82.8677 167.263 82.8809 166.893 82.6431 166.827C82.4316 166.76 82.2599 166.985 82.1409 167.157C81.467 168.121 80.3306 168.743 79.1546 168.795C78.1504 168.848 78.5204 169.641 79.3396 169.588C79.9607 169.549 80.8988 169.033 81.4274 168.756Z" fill="#FBFBFB"/>
<path d="M80.4893 165.65C80.0004 165.783 79.4454 165.809 79.0357 165.532C78.9697 165.492 78.9168 165.439 78.8772 165.373C78.8111 165.214 78.9565 165.043 79.115 164.99C79.2736 164.937 79.4586 164.977 79.6172 164.99C80.476 165.056 81.2821 164.514 81.8503 163.867C82.1146 163.563 82.4053 163.219 82.8281 163.298C83.0792 164.382 81.3482 165.413 80.4893 165.65Z" fill="#FBFBFB"/>
<path d="M80.0664 161.382C79.855 161.396 79.6436 161.409 79.4586 161.316C79.2736 161.224 79.1547 160.973 79.2604 160.801C79.3793 160.616 79.6304 160.629 79.8418 160.642C80.2382 160.682 80.6346 160.708 81.0178 160.708C81.4407 160.708 81.9032 160.682 82.2467 160.431C82.5638 160.193 82.7488 159.757 83.132 159.625C83.2245 159.599 83.3302 159.585 83.4095 159.638C83.4624 159.665 83.4888 159.717 83.5152 159.77C84.1627 161.356 80.6875 161.343 80.0664 161.382Z" fill="#FBFBFB"/>
<path d="M80.3307 157.854C80.0268 157.894 79.7096 157.934 79.4322 157.788C79.3793 157.762 79.3264 157.735 79.3 157.683C79.2075 157.537 79.3264 157.339 79.485 157.273C79.6436 157.207 79.8154 157.247 79.9871 157.26C81.1764 157.379 82.2731 156.652 83.3831 156.216C83.4756 156.176 83.5681 156.15 83.6606 156.163C83.8852 156.189 84.0041 156.48 83.9249 156.692C83.5549 157.709 81.1764 157.735 80.3307 157.854Z" fill="#FBFBFB"/>
<path d="M80.4234 154.3C80.1988 154.234 79.908 154.062 80.0005 153.837C80.0534 153.679 80.2516 153.639 80.4234 153.626C81.573 153.547 82.8415 153.837 83.8325 153.229C84.229 152.978 84.5989 152.569 85.0879 152.608C85.7353 154.498 81.2955 154.524 80.4234 154.3Z" fill="#FBFBFB"/>
<path d="M53.0841 155.41C52.8462 155.304 52.5951 155.159 52.4762 154.921C52.3573 154.683 52.4498 154.326 52.7009 154.26C52.8858 154.207 53.0841 154.326 53.2558 154.419C53.7183 154.643 54.2337 154.683 54.749 154.723C55.5682 154.789 56.3875 154.855 57.2068 154.908C57.4446 154.921 56.9557 155.581 56.8896 155.621C56.6518 155.793 56.0968 155.793 55.8061 155.819C54.8943 155.938 53.943 155.793 53.0841 155.41Z" fill="#FBFBFB"/>
<path d="M54.1805 159.11C53.903 159.097 53.6387 159.083 53.3612 159.03C52.978 158.951 52.608 158.806 52.2777 158.608C52.0002 158.436 51.7227 158.185 51.7095 157.854C51.7095 157.802 51.7095 157.762 51.7359 157.722C51.7755 157.669 51.8548 157.656 51.9209 157.656C52.9648 157.603 53.9162 158.489 54.9336 158.304C55.3961 158.224 55.7925 157.934 56.2418 157.815C56.4136 157.775 56.5986 157.749 56.7439 157.841C57.3386 158.211 56.255 158.779 55.9907 158.885C55.449 159.123 54.7883 159.136 54.1805 159.11Z" fill="#FBFBFB"/>
<path d="M52.4231 161.779C52.2381 161.673 52.0664 161.554 51.9607 161.369C51.8549 161.184 51.8549 160.933 52.0003 160.788C52.2249 160.563 52.5949 160.695 52.8724 160.814C53.5595 161.092 54.2995 161.224 55.0395 161.211C55.5416 161.198 56.2419 160.92 56.0305 161.66C55.6737 162.876 53.1235 162.189 52.4231 161.779Z" fill="#FBFBFB"/>
<path d="M52.3834 163.748C52.2644 163.642 52.1455 163.523 52.1455 163.364C52.1455 163.127 52.4098 162.968 52.6476 163.008C52.8855 163.034 53.0705 163.179 53.2819 163.298C54.0879 163.8 55.0922 163.959 56.0172 163.721C56.4664 163.615 57.061 163.576 56.8364 164.157C56.6646 164.593 55.8718 164.686 55.515 164.712C54.3919 164.818 53.229 164.461 52.3834 163.748Z" fill="#FBFBFB"/>
<path d="M53.1232 166.443C52.8325 166.219 52.5286 165.875 52.6475 165.532C53.2157 165.492 53.7311 165.862 54.2596 166.087C54.8939 166.364 55.6207 166.443 56.2946 166.311C57.3384 166.113 56.9552 167.157 56.0567 167.223C55.026 167.289 53.9557 167.064 53.1232 166.443Z" fill="#FBFBFB"/>
<path d="M53.9562 170.632C53.3748 170.487 52.8066 170.169 52.463 169.681C52.3177 169.469 52.2119 169.218 52.2648 168.98C52.3177 168.729 52.5687 168.518 52.8066 168.597C52.8991 168.623 52.9651 168.689 53.0444 168.742C53.6919 169.284 54.379 169.945 55.2247 169.905C55.4097 169.892 55.5815 169.852 55.7665 169.866C55.9515 169.879 56.1364 169.958 56.2157 170.117C56.6254 170.962 54.2337 170.698 53.9562 170.632Z" fill="#FBFBFB"/>
<path d="M52.436 172.654C52.3171 172.548 52.185 172.403 52.1982 172.244C52.2114 172.033 52.4625 171.901 52.6739 171.927C52.8853 171.953 53.0703 172.099 53.2421 172.218C53.916 172.654 54.722 172.878 55.5281 172.852C56.7041 172.799 56.2416 173.843 55.2638 173.737C54.2727 173.645 53.2156 173.341 52.436 172.654Z" fill="#FBFBFB"/>
<path d="M48.4457 155.806C48.2607 155.529 48.2343 155.185 48.2475 154.868C48.2475 154.696 48.2607 154.524 48.3532 154.379C48.4457 154.234 48.6307 154.141 48.7761 154.207C48.9875 154.3 48.9743 154.604 49.0404 154.815C49.1461 155.212 50.0975 155.925 49.7671 156.308C49.4103 156.731 48.6439 156.097 48.4457 155.806Z" fill="#FBFBFB"/>
<path d="M169.511 154.405C166.511 154.551 163.499 154.511 160.486 154.471C158.226 154.432 155.967 154.405 153.694 154.366C150.232 154.313 147.602 153.969 144.193 153.361C143.797 156.929 145.079 159.519 145.977 162.453C147.061 165.994 147.457 169.747 147.259 173.446C147.219 174.068 147.18 174.715 147.444 175.27C147.827 176.089 148.739 176.499 149.598 176.79C152.835 177.873 156.284 178.137 159.693 178.402C166.075 178.891 172.748 179.34 178.655 176.856C180.32 176.155 182.064 174.993 182.328 173.195C182.513 171.887 181.853 170.619 181.615 169.324C181.245 167.328 181.892 165.294 182.526 163.351C183.227 161.237 183.914 159.123 184.614 157.009C184.958 155.951 186.2 153.229 185.169 152.331C184.31 151.578 181.76 152.688 180.875 152.886C177.148 153.705 173.343 154.22 169.511 154.405Z" fill=process.env.REACT_APP_COLOR_PRIMARY/>
<path d="M157.909 166.707C157.605 166.641 157.222 166.443 157.328 166.152C157.42 165.888 157.79 165.914 158.067 165.994C159.666 166.43 161.437 166.641 162.943 165.941C163.3 165.782 164.172 165.624 163.961 166.284C163.868 166.588 162.692 166.813 162.441 166.879C160.935 167.236 159.389 167.011 157.909 166.707Z" fill="white"/>
<path d="M157.552 168.914C157.249 168.848 156.865 168.65 156.971 168.359C157.064 168.095 157.434 168.121 157.711 168.201C159.31 168.637 161.081 168.848 162.587 168.148C162.944 167.989 163.816 167.831 163.604 168.491C163.512 168.795 162.336 169.02 162.085 169.086C160.578 169.443 159.032 169.218 157.552 168.914Z" fill="white"/>
<path d="M157.552 171.108C157.249 171.042 156.865 170.844 156.971 170.553C157.064 170.289 157.434 170.315 157.711 170.394C159.31 170.83 161.081 171.042 162.587 170.341C162.944 170.183 163.816 170.024 163.604 170.685C163.512 170.989 162.336 171.214 162.085 171.28C160.578 171.636 159.032 171.412 157.552 171.108Z" fill="white"/>
<path d="M157.01 173.803C156.707 173.737 156.323 173.539 156.429 173.248C156.522 172.984 156.892 173.011 157.169 173.09C158.768 173.526 160.539 173.737 162.045 173.037C162.402 172.878 163.274 172.72 163.062 173.381C162.97 173.684 161.794 173.909 161.543 173.975C160.036 174.332 158.49 174.107 157.01 173.803Z" fill="white"/>
<path d="M157.01 176.473C156.707 176.406 156.323 176.208 156.429 175.918C156.522 175.653 156.892 175.68 157.169 175.759C158.768 176.195 160.539 176.407 162.045 175.706C162.402 175.548 163.274 175.389 163.062 176.05C162.97 176.354 161.794 176.578 161.543 176.644C160.036 177.001 158.49 176.776 157.01 176.473Z" fill="white"/>
<path d="M158.134 164.025C157.83 163.959 157.446 163.761 157.552 163.47C157.645 163.206 158.015 163.232 158.292 163.312C159.891 163.748 161.662 163.959 163.168 163.259C163.525 163.1 164.397 162.942 164.185 163.602C164.093 163.906 162.917 164.131 162.666 164.197C161.159 164.554 159.613 164.329 158.134 164.025Z" fill="white"/>
<path d="M157.909 161.356C157.605 161.29 157.222 161.092 157.328 160.801C157.42 160.537 157.79 160.563 158.067 160.642C159.666 161.078 161.437 161.29 162.943 160.589C163.3 160.431 164.172 160.272 163.961 160.933C163.868 161.237 162.692 161.462 162.441 161.528C160.935 161.884 159.389 161.66 157.909 161.356Z" fill="white"/>
<path d="M158.134 158.475C157.83 158.409 157.446 158.211 157.552 157.92C157.645 157.656 158.015 157.682 158.292 157.762C159.891 158.198 161.662 158.409 163.168 157.709C163.525 157.55 164.397 157.392 164.185 158.052C164.093 158.356 162.917 158.581 162.666 158.647C161.159 159.004 159.613 158.779 158.134 158.475Z" fill="white"/>
<path d="M167.238 158.449C166.934 158.383 166.551 158.185 166.657 157.894C166.749 157.63 167.119 157.656 167.397 157.735C168.995 158.171 170.766 158.383 172.272 157.682C172.629 157.524 173.501 157.365 173.29 158.026C173.197 158.33 172.021 158.555 171.77 158.621C170.264 158.977 168.718 158.753 167.238 158.449Z" fill="white"/>
<path d="M167.74 166.403C167.436 166.337 167.053 166.139 167.159 165.848C167.251 165.584 167.621 165.611 167.899 165.69C169.497 166.126 171.268 166.337 172.774 165.637C173.131 165.479 174.003 165.32 173.792 165.981C173.699 166.285 172.523 166.509 172.272 166.575C170.766 166.932 169.233 166.707 167.74 166.403Z" fill="white"/>
<path d="M167.397 168.61C167.093 168.544 166.71 168.346 166.815 168.055C166.908 167.791 167.278 167.817 167.555 167.897C169.154 168.333 170.925 168.544 172.431 167.844C172.788 167.685 173.66 167.527 173.449 168.187C173.356 168.491 172.18 168.716 171.929 168.782C170.423 169.139 168.877 168.914 167.397 168.61Z" fill="white"/>
<path d="M167.397 170.804C167.093 170.738 166.71 170.54 166.815 170.249C166.908 169.985 167.278 170.011 167.555 170.09C169.154 170.526 170.925 170.738 172.431 170.037C172.788 169.879 173.66 169.72 173.449 170.381C173.356 170.685 172.18 170.91 171.929 170.976C170.423 171.332 168.877 171.108 167.397 170.804Z" fill="white"/>
<path d="M167.397 173.803C167.093 173.737 166.71 173.539 166.815 173.248C166.908 172.984 167.278 173.011 167.555 173.09C169.154 173.526 170.925 173.737 172.431 173.037C172.788 172.878 173.66 172.72 173.449 173.381C173.356 173.684 172.18 173.909 171.929 173.975C170.423 174.332 168.877 174.107 167.397 173.803Z" fill="white"/>
<path d="M167.397 176.473C167.093 176.406 166.71 176.208 166.815 175.918C166.908 175.653 167.278 175.68 167.555 175.759C169.154 176.195 170.925 176.407 172.431 175.706C172.788 175.548 173.66 175.389 173.449 176.05C173.356 176.354 172.18 176.578 171.929 176.644C170.423 177.001 168.877 176.776 167.397 176.473Z" fill="white"/>
<path d="M167.978 163.721C167.674 163.655 167.291 163.457 167.396 163.166C167.489 162.902 167.859 162.928 168.136 163.007C169.735 163.443 171.506 163.655 173.012 162.955C173.369 162.796 174.241 162.637 174.03 163.298C173.937 163.602 172.761 163.827 172.51 163.893C171.004 164.25 169.458 164.025 167.978 163.721Z" fill="white"/>
<path d="M167.397 161.356C167.093 161.29 166.71 161.092 166.815 160.801C166.908 160.537 167.278 160.563 167.555 160.642C169.154 161.078 170.925 161.29 172.431 160.589C172.788 160.431 173.66 160.272 173.449 160.933C173.356 161.237 172.18 161.462 171.929 161.528C170.423 161.884 168.877 161.66 167.397 161.356Z" fill="white"/>
<path d="M177.32 175.349C176.99 175.402 176.541 175.362 176.448 175.032C176.382 174.807 176.528 174.583 176.726 174.451C176.924 174.332 177.149 174.292 177.373 174.239C178.166 174.054 178.906 173.631 179.461 173.037C179.712 172.772 180.201 172.389 180.399 172.931C180.505 173.222 179.871 173.869 179.686 174.067C179.065 174.728 178.219 175.191 177.32 175.349Z" fill="white"/>
<path d="M178.549 171.57C179.104 171.279 179.593 170.857 179.87 170.302C179.989 170.077 180.002 169.707 179.765 169.641C179.553 169.575 179.381 169.799 179.263 169.971C178.589 170.936 177.452 171.557 176.276 171.61C175.272 171.663 175.642 172.455 176.461 172.403C177.082 172.363 178.02 171.848 178.549 171.57Z" fill="white"/>
<path d="M177.611 168.465C177.122 168.597 176.567 168.624 176.157 168.346C176.091 168.306 176.038 168.254 175.999 168.187C175.933 168.029 176.078 167.857 176.237 167.804C176.395 167.751 176.58 167.791 176.739 167.804C177.598 167.87 178.404 167.329 178.972 166.681C179.236 166.377 179.527 166.034 179.95 166.113C180.201 167.196 178.47 168.227 177.611 168.465Z" fill="white"/>
<path d="M177.188 164.197C176.977 164.21 176.765 164.223 176.58 164.131C176.395 164.038 176.276 163.787 176.382 163.615C176.501 163.43 176.752 163.444 176.963 163.457C177.36 163.496 177.756 163.523 178.139 163.523C178.562 163.523 179.025 163.496 179.368 163.245C179.685 163.008 179.87 162.572 180.254 162.439C180.346 162.413 180.452 162.4 180.531 162.453C180.584 162.479 180.61 162.532 180.637 162.585C181.284 164.184 177.809 164.157 177.188 164.197Z" fill="white"/>
<path d="M177.452 160.669C177.148 160.708 176.831 160.748 176.554 160.603C176.501 160.576 176.448 160.55 176.422 160.497C176.329 160.352 176.448 160.153 176.607 160.087C176.765 160.021 176.937 160.061 177.109 160.074C178.298 160.193 179.395 159.466 180.505 159.03C180.597 158.991 180.69 158.964 180.782 158.977C181.007 159.004 181.126 159.294 181.046 159.506C180.676 160.523 178.298 160.563 177.452 160.669Z" fill="white"/>
<path d="M177.545 157.114C177.32 157.048 177.03 156.876 177.122 156.652C177.175 156.493 177.373 156.454 177.545 156.44C178.695 156.361 179.963 156.652 180.954 156.044C181.351 155.793 181.721 155.383 182.209 155.423C182.857 157.312 178.417 157.339 177.545 157.114Z" fill="white"/>
<path d="M150.206 158.224C149.968 158.118 149.717 157.973 149.598 157.735C149.479 157.497 149.571 157.141 149.822 157.075C150.007 157.022 150.206 157.141 150.377 157.233C150.84 157.458 151.355 157.497 151.871 157.537C152.69 157.603 153.509 157.669 154.328 157.722C154.566 157.735 154.077 158.396 154.011 158.436C153.773 158.607 153.218 158.607 152.928 158.634C152.016 158.753 151.065 158.607 150.206 158.224Z" fill="white"/>
<path d="M151.302 161.937C151.025 161.924 150.76 161.911 150.483 161.858C150.1 161.779 149.73 161.633 149.399 161.435C149.122 161.263 148.844 161.012 148.831 160.682C148.831 160.642 148.831 160.59 148.857 160.55C148.897 160.497 148.976 160.484 149.042 160.484C150.086 160.431 151.038 161.316 152.055 161.131C152.518 161.052 152.914 160.761 153.363 160.642C153.535 160.603 153.72 160.576 153.866 160.669C154.46 161.039 153.377 161.607 153.112 161.713C152.571 161.951 151.91 161.964 151.302 161.937Z" fill="white"/>
<path d="M149.545 164.593C149.36 164.488 149.188 164.369 149.082 164.184C148.977 163.999 148.977 163.748 149.122 163.602C149.347 163.378 149.717 163.51 149.994 163.629C150.681 163.906 151.421 164.038 152.161 164.025C152.663 164.012 153.364 163.734 153.152 164.474C152.795 165.69 150.245 165.003 149.545 164.593Z" fill="white"/>
<path d="M149.505 166.562C149.386 166.456 149.267 166.338 149.267 166.179C149.267 165.941 149.531 165.783 149.769 165.822C150.007 165.849 150.192 165.994 150.403 166.113C151.21 166.615 152.214 166.774 153.139 166.536C153.588 166.43 154.183 166.39 153.958 166.972C153.786 167.408 152.993 167.5 152.637 167.527C151.513 167.633 150.351 167.289 149.505 166.562Z" fill="white"/>
<path d="M150.245 169.258C149.954 169.033 149.65 168.69 149.769 168.346C150.337 168.306 150.853 168.676 151.381 168.901C152.015 169.178 152.742 169.258 153.416 169.126C154.46 168.927 154.077 169.971 153.178 170.037C152.134 170.103 151.077 169.879 150.245 169.258Z" fill="white"/>
<path d="M151.077 173.447C150.496 173.301 149.928 172.984 149.584 172.495C149.439 172.284 149.333 172.033 149.386 171.795C149.439 171.544 149.69 171.332 149.928 171.412C150.02 171.438 150.086 171.504 150.166 171.557C150.813 172.099 151.5 172.759 152.346 172.72C152.531 172.707 152.703 172.667 152.888 172.68C153.073 172.693 153.258 172.773 153.337 172.931C153.746 173.777 151.342 173.513 151.077 173.447Z" fill="white"/>
<path d="M149.558 175.482C149.439 175.376 149.307 175.231 149.32 175.072C149.333 174.861 149.584 174.728 149.795 174.755C150.007 174.781 150.192 174.927 150.364 175.046C151.038 175.482 151.844 175.706 152.65 175.68C153.826 175.627 153.363 176.671 152.385 176.565C151.394 176.459 150.337 176.155 149.558 175.482Z" fill="white"/>
<path d="M145.567 158.621C145.382 158.343 145.356 158 145.369 157.682C145.369 157.511 145.382 157.339 145.475 157.193C145.567 157.048 145.752 156.956 145.898 157.022C146.109 157.114 146.096 157.418 146.162 157.63C146.268 158.026 147.219 158.74 146.889 159.123C146.532 159.546 145.766 158.925 145.567 158.621Z" fill="white"/>
<path d="M148.223 163.932C148.302 164.289 148.329 164.712 148.078 164.976C147.998 165.056 147.893 165.108 147.787 165.095C147.628 165.082 147.523 164.923 147.443 164.765C147.258 164.382 146.69 162.492 147.153 162.201C147.84 161.779 148.157 163.615 148.223 163.932Z" fill="white"/>
<path d="M183.214 159.625C183.161 159.783 183.095 159.955 182.963 160.061C182.685 160.246 182.289 160.008 182.196 159.691C182.104 159.374 182.196 159.043 182.302 158.726C182.447 158.303 182.645 156.652 183.372 157.088C183.954 157.418 183.359 159.123 183.214 159.625Z" fill="white"/>
</svg>
