<svg width="40" height="40" viewBox="0 0 40 40" fill="none" xmlns="http://www.w3.org/2000/svg">
<path d="M20 39.5C30.7696 39.5 39.5 30.7696 39.5 20C39.5 9.23045 30.7696 0.5 20 0.5C9.23045 0.5 0.5 9.23045 0.5 20C0.5 30.7696 9.23045 39.5 20 39.5Z" stroke=process.env.REACT_APP_COLOR_PRIMARY/>
<path d="M27.8199 17.0617C25.7757 12.7463 25.8005 12.8053 25.8037 12.8053C25.5719 12.3161 25.0724 12 24.5312 12C24.3746 12 15.6226 12 15.4686 12C14.9273 12 14.4278 12.3161 14.196 12.8053C14.1992 12.8053 14.2304 12.7327 12.1798 17.0617C11.6891 18.0977 12.2694 19.2962 13.3349 19.59V23.9218C13.3349 24.6982 13.9666 25.3299 14.743 25.3299H17.7229C17.9054 25.7953 18.1394 26.2559 18.4442 26.6858H16.6622C16.2992 26.6858 16.0051 26.98 16.0051 27.3429C16.0051 27.7058 16.2992 28 16.6622 28H23.3375C23.7005 28 23.9947 27.7058 23.9947 27.3429C23.9947 26.98 23.7005 26.6858 23.3375 26.6858H21.5555C21.8603 26.2559 22.0943 25.7953 22.2768 25.3298H25.2567C26.0331 25.3298 26.6648 24.6981 26.6648 23.9217V19.59C27.7309 19.296 28.3103 18.0971 27.8199 17.0617ZM20.657 13.3142H21.8297L22.7941 16.9791C22.9751 17.668 22.4558 18.3416 21.7434 18.3416C21.1443 18.3416 20.657 17.8543 20.657 17.2552V13.3142ZM19.3427 17.2552C19.3427 18.2921 18.0248 18.7344 17.3959 17.9185C17.1887 17.6497 17.1193 17.3073 17.2056 16.9791L18.17 13.3142H19.3427V17.2552ZM13.3676 17.6243L15.3837 13.3679C15.3992 13.3353 15.4325 13.3142 15.4686 13.3142H16.8111C16.6405 13.9626 17.1577 11.9969 15.7012 17.5317C15.5757 18.0086 15.1437 18.3416 14.6506 18.3416H13.8215C13.4519 18.3416 13.2101 17.9567 13.3676 17.6243ZM19.9999 26.4879C18.8644 25.3974 18.5647 23.731 18.3918 22.4843C19.1231 22.2577 19.6634 21.9847 19.9999 21.7863C20.3363 21.9847 20.8766 22.2577 21.6079 22.4843C21.435 23.731 21.1353 25.3974 19.9999 26.4879ZM25.2567 24.0156H22.673C22.8337 23.3041 22.9074 22.6679 22.9871 22.0929C23.0336 21.7576 22.8178 21.4418 22.4884 21.3634C21.1663 21.0486 20.4437 20.5132 20.4064 20.485C20.1657 20.2909 19.834 20.2909 19.5934 20.485C19.556 20.5132 18.8334 21.0486 17.5113 21.3634C17.182 21.4418 16.9661 21.7576 17.0126 22.0929C17.0945 22.6832 17.1649 23.2995 17.3267 24.0157H14.743C14.6912 24.0157 14.6491 23.9735 14.6491 23.9218C14.6491 19.4528 14.6474 19.6558 14.6506 19.6558C15.3578 19.6558 16.0079 19.3456 16.4531 18.8399C17.3869 19.9059 19.0307 19.9279 19.9999 18.9028C20.9698 19.9286 22.6134 19.9051 23.5466 18.8399C23.9918 19.3456 24.6419 19.6558 25.3491 19.6558C25.3523 19.6558 25.3506 19.4536 25.3506 23.9217C25.3506 23.9734 25.3085 24.0156 25.2567 24.0156ZM26.1782 18.3416H25.3491C24.856 18.3416 24.424 18.0085 24.2985 17.5317C23.8491 15.824 23.6084 14.9093 23.1886 13.3142H24.5311C24.5672 13.3142 24.6005 13.3353 24.616 13.3679L26.6322 17.6242C26.79 17.9576 26.5469 18.3416 26.1782 18.3416Z" fill=process.env.REACT_APP_COLOR_PRIMARY/>
</svg>
