<svg width="230" height="165" viewBox="0 0 230 165" fill="none" xmlns="http://www.w3.org/2000/svg">
<path d="M0.838562 58.3738C1.94193 47.7284 7.30992 37.0654 16.6361 29.4577C31.155 17.5953 53.1437 14.6363 72.4265 17.4027C80.5003 18.5671 88.5129 20.6069 96.7795 19.9765C108.838 19.0573 119.451 12.6578 130.415 7.9741C145.354 1.60081 162.474 -1.81345 178.368 0.987991C196.39 4.16588 211.171 16.107 212.958 31.9265C213.763 39.0964 205.672 51.7117 208.246 58.5052C210.856 65.395 229.85 86.5196 229.403 102.575C228.948 119.209 219.61 137.824 186.711 156.276C153.813 174.729 44.7695 160.779 24.7821 143.367C4.79462 125.956 9.80563 117.099 14.5169 105.753C18.0984 97.1213 8.31697 89.9864 4.53398 81.941C1.15381 74.7798 0.0329132 66.1741 0.838562 58.3738Z" fill="#C2ECE0"/>
<path d="M158.794 14.1561C153.998 8.50298 82.9183 10.8875 80.3462 14.1561C77.1847 18.1749 41.1226 77.0104 41.1226 82.1009C41.1226 86.8163 73.7286 146.054 80.3462 150.046C87.0442 154.065 155.123 152.511 158.82 150.046C164.152 146.482 198.553 87.3789 198.044 82.1009C197.508 76.7157 162.062 18.0142 158.794 14.1561Z" fill="#5D95E4"/>
<path opacity="0.5" fill-rule="evenodd" clip-rule="evenodd" d="M180.089 49.4229C152.766 54.9596 147.351 61.8367 138.962 72.49C138.841 72.6448 138.718 72.8005 138.595 72.9569C126.984 87.6939 102.869 84.5679 83.2193 78.7624C78.9118 77.4897 73.4668 75.0582 67.3126 72.3098C61.8545 69.8724 55.8386 67.1859 49.5634 64.8376C44.6365 73.5906 41.1226 80.4141 41.1226 82.0006C41.1226 86.7008 73.6233 145.747 80.2196 149.726C86.896 153.732 154.755 152.183 158.44 149.726C163.755 146.174 198.045 87.2616 197.537 82.0006C197.281 79.4219 188.993 64.5784 180.089 49.4229Z" fill="#9AC3FF"/>
<path d="M131.296 129.851C132.87 123.32 128.852 116.75 122.321 115.176C115.79 113.602 109.219 117.621 107.645 124.152C106.071 130.683 110.09 137.253 116.621 138.827C123.152 140.401 129.722 136.382 131.296 129.851Z" fill="#2B5A85"/>
<path d="M101.351 34.3026C102.155 30.766 129.778 32.5075 131.09 34.3026C132.912 36.7407 130.501 99.5682 128.786 102.167C127.045 104.766 109.442 104.176 109.442 102.167C109.442 100.158 100.494 38.0535 101.351 34.3026Z" fill="#2B5A85"/>
<path d="M59.5983 93.6224C59.5983 93.6224 61.9434 92.689 62.3077 92.7345C62.6719 92.7801 61.6019 93.5769 61.3059 93.759C61.0099 93.9412 64.812 95.4211 64.9259 95.8536C65.0397 96.2862 63.9014 96.7188 63.15 96.4683C62.3987 96.2179 59.0747 94.6697 59.0747 94.6697L59.5983 93.6224Z" fill="#FFA87B"/>
<path d="M44.0255 81.9199C44.0255 81.9199 44.6402 81.4646 45.2322 81.9199C45.8241 82.3752 50.7418 88.5224 52.7909 89.638C54.9537 90.7991 59.917 92.9392 59.8715 93.4856C59.8259 94.0321 59.325 94.7834 59.1429 94.8289C59.0291 94.8744 54.7944 93.645 50.8556 91.3C48.1008 89.6607 45.5509 87.1791 44.367 85.3805C43.8889 84.6064 43.4335 81.9427 44.0255 81.9199Z" fill="#EFCF3D"/>
<path d="M38.1743 93.4627C38.1743 93.4627 35.3967 94.123 33.6209 92.8025C32.0272 91.6186 32.0727 89.3191 32.6419 88.3629C33.2111 87.4067 33.9396 86.6781 34.2128 85.7674C34.486 84.8567 33.4387 83.4679 34.486 81.7832C35.5106 80.0984 37.6962 79.4154 38.3792 78.277C39.0622 77.1387 37.9694 72.8584 41.7715 72.6535C45.5737 72.4486 47.1901 75.1807 47.1218 75.7271C46.8714 78.0038 45.2094 77.89 43.388 77.8444C41.5666 77.7989 41.43 79.0283 41.43 79.3699C41.43 79.7114 41.726 81.3961 40.9975 81.9881C40.2689 82.58 38.1743 93.4627 38.1743 93.4627Z" fill="#D0393B"/>
<path d="M40.4966 147.262C40.4966 147.262 39.9274 148.901 40.2917 149.152C40.656 149.402 45.0045 153.113 45.7558 152.294C46.5071 151.474 43.001 147.421 42.7278 147.262C42.4546 147.103 40.4966 147.262 40.4966 147.262Z" fill={process.env.REACT_APP_COLOR_PRIMARY}/>
<path d="M45.3916 144.256C45.3916 144.256 44.8225 146.305 45.3916 146.351C45.9608 146.396 51.9486 147.626 51.9486 146.761C51.9486 145.895 46.0519 143.983 45.5965 144.256H45.3916Z" fill={process.env.REACT_APP_COLOR_PRIMARY}/>
<path d="M45.4144 144.53C45.8925 144.94 47.0991 145.031 47.3268 144.53C47.5772 144.029 47.8049 128.206 48.3969 124.222C48.9888 120.237 49.4442 107.624 49.1937 107.351C48.9433 107.101 44.8679 106.531 44.8679 106.531C44.8679 106.531 43.4336 125.451 43.5475 126.772C43.6613 128.092 44.6858 143.915 45.4144 144.53Z" fill="#5CCB9D"/>
<path d="M38.106 106.555C38.106 106.555 36.0114 108.012 37.6051 113.772C40.0868 122.629 40.3827 129.231 40.3827 130.825C40.3827 134.149 39.9046 147.172 40.3144 147.468C40.7242 147.764 42.6594 147.832 42.8871 147.468C43.1376 147.104 43.0693 132.441 43.7295 129.186C44.3898 125.93 45.2321 124.518 45.8241 120.785C46.416 117.051 46.8941 107.352 46.8941 106.988C46.8941 106.623 38.106 106.555 38.106 106.555Z" fill="#5CCB9D"/>
<path d="M41.248 81.9195C41.248 81.9195 36.2392 84.1052 36.9905 87.3153C39.0851 96.3767 33.6665 102.387 37.628 108.717C38.8119 110.606 48.8294 110.037 49.262 109.354C50.4459 107.419 47.2357 100.52 47.1447 96.9459C46.9853 90.867 49.9223 91.1402 47.3496 85.6989C45.938 82.7164 45.6876 82.1244 45.0045 81.7829C44.2988 81.4642 41.248 81.9195 41.248 81.9195Z" fill="#EFCF3D"/>
<path d="M57.2534 100.772C57.2534 100.772 59.4163 99.2464 59.7805 99.2008C60.1448 99.1553 59.1886 100.271 58.9609 100.521C58.7105 100.772 62.763 101.341 62.9679 101.728C63.1728 102.138 62.1711 102.821 61.397 102.73C60.6229 102.661 57.0029 102.092 57.0029 102.092L57.2534 100.772Z" fill="#FFA87B"/>
<path d="M57.39 100.567C57.6404 101.09 57.39 102.047 57.0257 102.229C56.6614 102.411 48.0326 98.6544 45.0729 96.2638C42.1359 93.8733 37.4459 88.5913 37.5825 86.6788C37.7419 84.607 38.8575 83.6963 40.2463 84.1744C41.7034 84.6981 44.7769 92.3706 48.7384 94.6929C52.6772 97.0151 56.0695 99.861 57.39 100.567Z" fill="#EFCF3D"/>
<path d="M40.6333 81.7614C40.6333 81.7614 40.0641 82.4444 40.1324 82.6721C40.4511 83.6739 43.297 85.0399 44.0711 84.7667C44.6175 84.5845 44.7314 82.3761 44.7086 82.3761C44.6858 82.3761 44.3899 81.7614 44.2077 81.6703C44.0256 81.602 41.0886 81.215 40.6333 81.7614Z" fill="#5CCB9D"/>
<path d="M46.2341 75.9783C45.3234 78.3233 41.5668 77.1166 40.8838 79.234L41.157 79.5527L41.0887 82.3531C41.0887 82.3531 41.6806 83.0133 42.3637 83.2865C43.6614 83.8102 43.8435 83.0816 43.8435 83.0816L44.0712 80.9643C44.0712 80.9643 45.3234 81.0781 45.8243 79.8942C46.2796 78.8242 46.7805 76.6613 46.2341 75.9783Z" fill="#FFA87B"/>
<path d="M179.764 82.2033C183.825 81.5499 189.379 78.9363 189.565 78.703C189.752 78.4696 182.074 76.2061 181.958 75.8094C181.864 75.4127 182.985 74.0825 183.171 74.0358C183.358 73.9892 193.462 77.6295 193.462 78.6563C193.462 79.9631 182.378 86.0071 182.191 86.1938C182.004 86.3804 178.807 82.3667 179.764 82.2033Z" fill="#EFCF3D"/>
<path d="M173.067 149.97C173.067 149.97 168.236 153.167 168.773 153.844C169.777 155.127 174.63 152.07 174.77 151.58C174.887 151.09 175.05 150.11 174.63 149.993C174.21 149.853 173.37 149.48 173.067 149.97Z" fill={process.env.REACT_APP_COLOR_PRIMARY}/>
<path d="M186.321 150.227C185.948 150.554 185.901 152.444 186.321 152.537C186.742 152.631 191.572 155.174 192.109 154.077C192.645 152.981 188.165 150.134 187.838 150.227C187.488 150.32 186.321 150.227 186.321 150.227Z" fill={process.env.REACT_APP_COLOR_PRIMARY}/>
<path d="M169.986 105.423C169.986 105.423 170.686 130.695 170.686 133.286C170.686 135.852 172.203 150.577 172.88 150.764C173.58 150.951 174.35 150.787 174.677 150.554C174.98 150.297 176.1 112.82 176.1 112.82H177.174C177.174 112.82 185.855 150.391 186.345 150.764C186.741 151.067 188.375 151.067 188.678 150.647C188.982 150.204 184.151 105.306 183.451 104.746C182.751 104.163 170.313 104.979 169.986 105.423Z" fill="#5CCB9D"/>
<path d="M176.194 82.5306C174.374 83.3707 172.087 90.2081 171.807 91.1882C171.55 92.0983 168.446 105.68 169.613 105.866C170.78 106.053 183.825 105.936 184.105 105.353C184.385 104.793 183.124 90.9315 183.124 90.9315C183.124 90.9315 182.144 83.2074 179.974 82.2739C179.344 81.9939 177.057 82.1339 176.194 82.5306Z" fill="#EFCF3D"/>
<path d="M174.537 74.8062C174.537 74.8062 173.582 79.3906 174.912 80.4874C175.775 81.1875 176.335 81.0008 176.335 81.0008L176.801 82.857C177.291 83.3237 177.897 84.5372 178.831 82.8103C179.578 81.4802 179.718 76.0896 179.718 76.0896C179.718 76.0896 178.574 74.5028 178.527 74.5028C178.504 74.4561 174.537 74.8062 174.537 74.8062Z" fill="#FFA87B"/>
<path d="M173.883 74.5967C173.603 75.0168 173.3 76.0202 174 76.4636C174.677 76.907 177.571 76.4869 177.687 76.767C177.804 77.047 177.501 77.8404 177.804 78.1204C178.014 78.3305 178.947 77.397 179.251 77.5604C179.764 77.7937 179.414 80.1973 179.414 80.1973C179.414 80.1973 180.114 80.5707 180.324 78.6338C180.557 76.4636 180.534 73.3599 177.501 73.3366C175.447 73.3133 174.35 73.8967 173.883 74.5967Z" fill="#D0393B"/>
<path d="M176.287 82.53C176.264 82.8101 177.361 84.0002 177.711 83.9768C178.061 83.9302 177.337 81.7366 176.731 81.76C176.497 81.76 176.311 82.2733 176.287 82.53Z" fill="#5CCB9D"/>
<path d="M179.321 81.6906C179.461 81.7372 179.764 82.1806 179.764 82.3206C179.764 82.6707 178.037 84.2342 177.804 83.9075C177.57 83.5341 178.854 81.5039 179.321 81.6906Z" fill="#5CCB9D"/>
<path d="M179.181 87.9435C179.017 88.1068 179.204 89.9737 179.181 90.0904C179.157 90.2071 180.021 91.1638 180.324 91.2105C180.628 91.2572 181.071 90.3004 181.141 90.1604C181.211 90.0204 181.118 88.0135 180.978 87.9668C180.814 87.8735 179.344 87.7801 179.181 87.9435Z" fill="#5CCB9D"/>
<path d="M182.961 74.5267C182.961 74.5267 181.164 73.3366 179.951 73.1732C178.737 73.0099 176.801 72.5665 176.707 73.0332C176.661 73.3132 180.581 74.5967 180.768 74.7834C181.001 74.9934 179.601 75.2734 179.741 75.5301C179.858 75.7868 181.748 75.5068 182.028 75.4368C182.308 75.3434 183.288 74.8067 182.961 74.5267Z" fill="#FFA87B"/>
<path d="M176.194 82.5296C172.483 82.8097 165.296 80.8728 165.063 80.6628C164.829 80.4528 171.993 76.8591 172.017 76.439C172.04 76.0423 170.687 74.9455 170.5 74.9222C170.313 74.8989 161.026 80.3127 161.212 81.3162C161.446 82.5996 173.44 86.5667 173.65 86.7067C173.884 86.8701 177.151 82.4596 176.194 82.5296Z" fill="#EFCF3D"/>
<path d="M170.826 75.3663C170.826 75.3663 172.39 73.8729 173.533 73.4995C174.677 73.1028 176.52 72.3327 176.707 72.7761C176.8 73.0561 173.183 75.0163 173.02 75.2263C172.81 75.483 174.257 75.5064 174.163 75.7864C174.093 76.0664 172.18 76.1131 171.9 76.0897C171.62 76.0664 170.57 75.7164 170.826 75.3663Z" fill="#FFA87B"/>
</svg>
