<svg width="10" height="12" viewBox="0 0 10 12" fill="none" xmlns="http://www.w3.org/2000/svg">
<path d="M5.0027 0C2.47468 0 0.417969 2.05024 0.417969 4.57031C0.417969 5.60876 0.648383 6.64416 1.10284 7.6478C1.46234 8.44174 1.96198 9.21687 2.58788 9.95163C3.64817 11.1963 4.7011 11.894 4.74542 11.9231C4.82352 11.9744 4.91312 12 5.00272 12C5.09239 12 5.18209 11.9743 5.26023 11.9229C5.30448 11.8939 6.35609 11.1961 7.41502 9.9514C8.0401 9.21663 8.53909 8.44153 8.8981 7.64759C9.35194 6.64402 9.58203 5.60866 9.58203 4.57031C9.58203 2.05024 7.52776 0 5.0027 0V0ZM5.0027 0.9375C7.01082 0.9375 8.64453 2.56718 8.64453 4.57031C8.64453 4.80213 8.63117 5.03302 8.60544 5.26294L7.61328 4.65616V3.58594C7.61328 3.32705 7.40342 3.11719 7.14453 3.11719C6.88564 3.11719 6.67578 3.32705 6.67578 3.58594V4.08284L5.20941 3.18605C5.05974 3.09452 4.87145 3.09424 4.72147 3.18532L1.38873 5.21013C1.36674 4.99767 1.35549 4.78437 1.35549 4.57031C1.35547 2.56718 2.99162 0.9375 5.0027 0.9375ZM6.71813 9.32367C6.044 10.1202 5.36136 10.6817 5.00253 10.9536C4.64312 10.6817 3.95949 10.1201 3.28438 9.32346C2.43076 8.31623 1.8582 7.2694 1.57121 6.19622L4.96405 4.13489L8.41602 6.24598C8.12513 7.30186 7.5575 8.33196 6.71813 9.32367ZM4.63672 6.28125V6.75C4.63672 6.87945 4.53179 6.98438 4.40234 6.98438H3.93359C3.80415 6.98438 3.69922 6.87945 3.69922 6.75V6.28125C3.69922 6.1518 3.80415 6.04688 3.93359 6.04688H4.40234C4.53179 6.04688 4.63672 6.1518 4.63672 6.28125ZM6.25391 6.28125V6.75C6.25391 6.87945 6.14898 6.98438 6.01953 6.98438H5.55078C5.42134 6.98438 5.31641 6.87945 5.31641 6.75V6.28125C5.31641 6.1518 5.42134 6.04688 5.55078 6.04688H6.01953C6.14898 6.04688 6.25391 6.1518 6.25391 6.28125ZM6.25391 7.92188V8.39062C6.25391 8.52007 6.14898 8.625 6.01953 8.625H5.55078C5.42134 8.625 5.31641 8.52007 5.31641 8.39062V7.92188C5.31641 7.79243 5.42134 7.6875 5.55078 7.6875H6.01953C6.14898 7.6875 6.25391 7.79243 6.25391 7.92188ZM4.63672 7.92188V8.39062C4.63672 8.52007 4.53179 8.625 4.40234 8.625H3.93359C3.80415 8.625 3.69922 8.52007 3.69922 8.39062V7.92188C3.69922 7.79243 3.80415 7.6875 3.93359 7.6875H4.40234C4.53179 7.6875 4.63672 7.79243 4.63672 7.92188Z" fill={process.env.REACT_APP_COLOR_PRIMARY}/>
</svg>
