<svg width="89" height="89" viewBox="0 0 89 89" fill="none" xmlns="http://www.w3.org/2000/svg">
<circle cx="44.3643" cy="44.3643" r="44.3643" fill="url(#paint0_linear)"/>
<path fill-rule="evenodd" clip-rule="evenodd" d="M79.6116 71.3091C71.504 81.899 58.7317 88.7286 44.3643 88.7286C19.8626 88.7286 0 68.866 0 44.3643C0 39.1186 0.910435 34.0856 2.58191 29.4145C12.2692 28.9297 22.4402 30.4182 27.449 36.858C36.0249 47.8837 58.107 70.4398 79.6116 71.3091Z" fill="url(#paint1_linear)"/>
<path fill-rule="evenodd" clip-rule="evenodd" d="M88.6535 46.9692C67.6168 46.4049 50.7367 29.1746 50.7367 8.00168C50.7367 5.45768 50.9804 2.9706 51.4457 0.5625C72.5816 3.95296 88.7287 22.2732 88.7287 44.3647C88.7287 45.239 88.7034 46.1074 88.6535 46.9692Z" fill="url(#paint2_linear)"/>
<circle cx="44.5" cy="28.5" r="14.5" fill="white"/>
<path d="M22.0016 73C22.0016 73 21.747 58.9312 27.6867 54.9071C37.5822 48.203 51.3274 48.527 61.4972 54.9089C67.7754 58.8488 66.966 73 66.966 73H22.0016Z" fill="white" stroke="white"/>
<defs>
<linearGradient id="paint0_linear" x1="174.406" y1="-10.5629" x2="-118.331" y2="18.6593" gradientUnits="userSpaceOnUse">
<stop stop-color="#E21F98"/>
<stop offset="0.1189" stop-color="#E42D8D"/>
<stop offset="0.3419" stop-color="#E9516F"/>
</linearGradient>
<linearGradient id="paint1_linear" x1="161.52" y1="44.1042" x2="-130.249" y2="153.674" gradientUnits="userSpaceOnUse">
<stop stop-color="#E21F98"/>
<stop offset="0.1189" stop-color="#E42D8D"/>
<stop offset="0.3419" stop-color="#E9516F"/>
<stop offset="0.6451" stop-color="#3B0D80" stop-opacity="0.3"/>
<stop offset="0.9958" stop-color="#26055D" stop-opacity="0"/>
</linearGradient>
<linearGradient id="paint2_linear" x1="97.0966" y1="51.5593" x2="43.0934" y2="46.2508" gradientUnits="userSpaceOnUse">
<stop stop-color="#E21F98"/>
<stop offset="0.1189" stop-color="#E42D8D"/>
<stop offset="0.3419" stop-color="#E9516F"/>
<stop offset="0.53125" stop-color="#E9516F"/>
<stop offset="0.875" stop-color="#3B0D80" stop-opacity="0.3"/>
<stop offset="0.9958" stop-color="#26055D" stop-opacity="0"/>
</linearGradient>
</defs>
</svg>
