<svg width="30" height="30" viewBox="0 0 30 30" fill="none" xmlns="http://www.w3.org/2000/svg">
<circle cx="15" cy="15" r="15" fill="#F9F9F9"/>
<path d="M15 7.5332C13.02 7.5332 11.1206 8.32008 9.71996 9.72008C8.31996 11.1207 7.53308 13.0201 7.53308 15.0001C7.53308 16.9801 8.31996 18.8794 9.71996 20.2801C11.1206 21.6801 13.02 22.467 15 22.467C16.98 22.467 18.8793 21.6801 20.28 20.2801C21.68 18.8795 22.4668 16.9801 22.4668 15.0001C22.4643 13.0207 21.6775 11.1226 20.2774 9.72264C18.8773 8.32264 16.9793 7.53576 15 7.5332ZM15.5331 15.0001C15.5331 15.1413 15.4768 15.277 15.3768 15.377C15.2768 15.477 15.1412 15.5332 15 15.5332H10.7331C10.4387 15.5332 10.2 15.2945 10.2 15.0001C10.2 14.7057 10.4387 14.467 10.7331 14.467H14.4662L14.4668 10.7332C14.4668 10.4388 14.7056 10.2001 14.9999 10.2001C15.2943 10.2001 15.5331 10.4388 15.5331 10.7332L15.5331 15.0001Z" fill="#9FA3A6"/>
</svg>
