<svg width="16" height="16" viewBox="0 0 16 16" fill="none" xmlns="http://www.w3.org/2000/svg">
<path d="M14.3744 7.84686C14.6113 7.58623 14.5881 7.18623 14.3231 6.95436L8.47883 1.8406C8.21384 1.60873 7.7882 1.61372 7.52883 1.85185L1.66451 7.22753C1.40451 7.46566 1.39264 7.86441 1.63638 8.11815L1.78326 8.27065C2.027 8.5244 2.42139 8.55502 2.66326 8.33815L3.10139 7.94566V13.6913C3.10139 14.0438 3.38702 14.3288 3.73951 14.3288H6.02511C6.37699 14.3288 6.66262 14.0438 6.66262 13.6913V9.67126H9.5783V13.6913C9.5733 14.0431 9.82518 14.3288 10.1777 14.3288H12.6002C12.9527 14.3288 13.2384 14.0431 13.2384 13.6906V8.02631C13.2384 8.02631 13.359 8.13194 13.5084 8.26382C13.6577 8.39444 13.9702 8.28944 14.2077 8.02881L14.3744 7.84686Z" fill="#4E5356"/>
</svg>
