<svg width="46" height="46" viewBox="0 0 46 46" fill="none" xmlns="http://www.w3.org/2000/svg">
<path d="M23 0C10.3145 0 0 10.3145 0 23C0 35.6855 10.3145 46 23 46C35.6855 46 46 35.6855 46 23C46 10.3145 35.6855 0 23 0ZM23 3C34.0625 3 43 11.9375 43 23C43 34.0625 34.0625 43 23 43C11.9375 43 3 34.0625 3 23C3 11.9375 11.9375 3 23 3ZM14.5 13.5C12.5664 13.5 11 15.0664 11 17C11 18.9336 12.5664 20.5 14.5 20.5C16.4336 20.5 18 18.9336 18 17C18 15.0664 16.4336 13.5 14.5 13.5ZM31.5 13.5C29.5664 13.5 28 15.0664 28 17C28 18.9336 29.5664 20.5 31.5 20.5C33.4336 20.5 35 18.9336 35 17C35 15.0664 33.4336 13.5 31.5 13.5ZM23 25.5C17.924 25.5 13.4315 28.1445 10.75 32.156C10.5273 32.4861 10.4453 32.8943 10.5215 33.2849C10.5996 33.6775 10.8301 34.0232 11.1621 34.2458C11.4941 34.4666 11.9004 34.5486 12.2929 34.4705C12.6836 34.3904 13.0293 34.1599 13.25 33.8279C15.416 30.5876 18.967 28.4999 23 28.4999C27.033 28.4999 30.584 30.5878 32.75 33.8279C32.9707 34.1599 33.3164 34.3904 33.707 34.4705C34.0996 34.5486 34.5059 34.4666 34.8379 34.2458C35.1699 34.0232 35.4004 33.6775 35.4785 33.2849C35.5547 32.8943 35.4726 32.486 35.25 32.156C32.5683 28.1443 28.076 25.5 23 25.5H23Z" fill="#FECA3A"/>
</svg>
