<svg width="18" height="18" viewBox="0 0 18 18" fill="none" xmlns="http://www.w3.org/2000/svg">
<path d="M17.0961 16.0779L12.1819 11.1637C13.2858 9.79905 13.824 8.06286 13.6856 6.31307C13.5472 4.56329 12.7427 2.9333 11.438 1.75915C10.1333 0.585003 8.42781 -0.0438017 6.67317 0.00237443C4.91853 0.0485506 3.24848 0.766188 2.00734 2.00734C0.766188 3.24848 0.0485506 4.91853 0.00237444 6.67317C-0.0438017 8.42781 0.585003 10.1333 1.75915 11.438C2.9333 12.7427 4.56329 13.5472 6.31307 13.6856C8.06286 13.824 9.79905 13.2858 11.1637 12.1819L16.078 17.0959C16.2138 17.2271 16.3957 17.2997 16.5844 17.298C16.7732 17.2964 16.9538 17.2207 17.0873 17.0872C17.2208 16.9537 17.2965 16.7731 17.2982 16.5843C17.2998 16.3955 17.2272 16.2136 17.0961 16.0779ZM6.86704 12.2669C5.79902 12.2669 4.75498 11.9502 3.86696 11.3568C2.97893 10.7635 2.2868 9.9201 1.87809 8.93338C1.46937 7.94666 1.36244 6.8609 1.5708 5.8134C1.77916 4.76591 2.29346 3.80372 3.04866 3.04852C3.80386 2.29331 4.76605 1.77901 5.81355 1.57065C6.86105 1.36229 7.94681 1.46923 8.93353 1.87794C9.92025 2.28666 10.7636 2.97879 11.357 3.86681C11.9503 4.75484 12.267 5.79887 12.267 6.86689C12.2654 8.29857 11.696 9.67115 10.6836 10.6835C9.6713 11.6959 8.29872 12.2653 6.86704 12.2669Z" fill="#707585"/>
</svg>
