<svg width="230" height="165" viewBox="0 0 230 165" fill="none" xmlns="http://www.w3.org/2000/svg">
<path d="M0.838699 58.3738C1.94206 47.7284 7.31006 37.0654 16.6362 29.4577C31.1552 17.5953 53.1438 14.6363 72.4266 17.4027C80.5005 18.5671 88.5131 20.6069 96.7796 19.9765C108.838 19.0573 119.451 12.6578 130.415 7.9741C145.354 1.60081 162.474 -1.81345 178.368 0.987991C196.39 4.16588 211.171 16.107 212.958 31.9265C213.763 39.0964 205.672 51.7117 208.247 58.5052C210.856 65.395 229.85 86.5196 229.403 102.575C228.948 119.209 219.61 137.824 186.711 156.276C153.813 174.729 44.7696 160.779 24.7822 143.367C4.79475 125.956 9.80577 117.099 14.517 105.753C18.0986 97.1213 8.31711 89.9864 4.53412 81.941C1.15395 74.7798 0.0330505 66.1741 0.838699 58.3738Z" fill="#F8F8FF"/>
<path d="M162.006 139.273C162.006 139.236 161.895 136.49 160.67 133.817C159.074 130.329 156.365 128.584 152.653 128.584C148.942 128.584 146.27 130.366 144.711 133.854C143.523 136.527 143.449 139.236 143.449 139.273L141.965 139.236C141.965 139.125 142.336 127.1 152.691 127.1C163.008 127.1 163.528 139.125 163.528 139.236L162.006 139.273Z" fill=process.env.REACT_APP_COLOR_PRIMARY/>
<path d="M160.188 139.236H156.773L153.062 129.661L147.94 139.236H143.783L153.322 121.384L160.188 139.236Z" fill="#D44446"/>
<path d="M192.98 3.5835H90.1321C84.6092 3.5835 80.1321 8.06064 80.1321 13.5835V104.015H192.98C198.503 104.015 202.98 99.5377 202.98 94.0148V13.5835C202.98 8.06065 198.503 3.5835 192.98 3.5835Z" fill="#D1E4FF"/>
<path d="M192.98 3.5835H90.1321C84.6092 3.5835 80.1321 8.06065 80.1321 13.5835V14.8662H202.98V13.5835C202.98 8.06065 198.503 3.5835 192.98 3.5835Z" fill="#689EEC"/>
<path d="M186.39 9.22448C186.39 9.96677 185.797 10.5606 185.054 10.5606C184.312 10.5606 183.718 9.96677 183.718 9.22448C183.718 8.4822 184.312 7.88837 185.054 7.88837C185.797 7.85125 186.39 8.44508 186.39 9.22448Z" fill="#81B0F6"/>
<path d="M191.475 9.22448C191.475 9.96677 190.881 10.5606 190.139 10.5606C189.397 10.5606 188.803 9.96677 188.803 9.22448C188.803 8.4822 189.397 7.88837 190.139 7.88837C190.844 7.85125 191.475 8.44508 191.475 9.22448Z" fill="#81B0F6"/>
<path d="M196.523 9.22448C196.523 9.96677 195.929 10.5606 195.187 10.5606C194.444 10.5606 193.85 9.96677 193.85 9.22448C193.85 8.4822 194.444 7.88837 195.187 7.88837C195.929 7.85125 196.523 8.44508 196.523 9.22448Z" fill="#81B0F6"/>
<path d="M97.3903 20.2847H85.291V24.9982H97.3903V20.2847Z" fill="#81B0F6"/>
<path d="M172.176 57.0273C172.176 66.8626 167.276 75.5845 159.779 80.8176C155.066 84.0836 149.35 86.0136 143.189 86.0136C127.193 86.0136 114.203 73.0236 114.203 57.0273C114.203 50.9034 116.096 45.2249 119.362 40.5114C124.595 32.9772 133.317 28.0039 143.189 28.0039C159.186 28.041 172.176 41.031 172.176 57.0273Z" fill="#81B0F6"/>
<path d="M164.901 64.3027C164.901 70.4266 163.008 76.105 159.742 80.8186C155.029 84.0846 149.313 86.0146 143.152 86.0146C127.156 86.0146 114.166 73.0246 114.166 57.0283C114.166 50.9044 116.059 45.2259 119.325 40.5124C124.038 37.2464 129.754 35.3164 135.915 35.3164C151.948 35.3164 164.901 48.3064 164.901 64.3027Z" fill="#689EEC"/>
<path d="M143.857 69.61C142.633 69.61 141.668 68.6079 141.668 67.4203V41.1805C141.668 39.9557 142.67 38.9907 143.857 38.9907C145.082 38.9907 146.047 39.9928 146.047 41.1805V67.4203C146.084 68.6079 145.082 69.61 143.857 69.61Z" fill="#2B5A85"/>
<path d="M146.196 73.3958C146.196 74.6948 145.156 75.734 143.857 75.734C142.558 75.734 141.519 74.6948 141.519 73.3958C141.519 72.0968 142.558 71.0576 143.857 71.0576C145.156 71.0576 146.196 72.0968 146.196 73.3958Z" fill="#2B5A85"/>
<path d="M151.8 137.418H148.719V129.03C148.719 128.547 149.128 128.139 149.61 128.139H150.872C151.354 128.139 151.763 128.547 151.763 129.03V137.418H151.8Z" fill="#B23032"/>
<path d="M149.61 135.525C149.462 135.525 149.35 135.414 149.35 135.265V130.329C149.35 130.181 149.462 130.069 149.61 130.069C149.759 130.069 149.87 130.181 149.87 130.329V135.265C149.87 135.414 149.759 135.525 149.61 135.525Z" fill="#FA7071"/>
<path d="M150.872 135.525C150.723 135.525 150.612 135.414 150.612 135.265V130.329C150.612 130.181 150.723 130.069 150.872 130.069C151.02 130.069 151.132 130.181 151.132 130.329V135.265C151.132 135.414 151.02 135.525 150.872 135.525Z" fill="#FA7071"/>
<path d="M150.761 137.417H149.721V142.502H150.761V137.417Z" fill="#FA7071"/>
<path d="M159.668 132.63L151.837 130.514C151.206 130.328 150.835 129.698 150.983 129.067L151.317 127.768C151.503 127.137 152.134 126.766 152.765 126.914L160.596 129.029L159.668 132.63Z" fill="#7A0C0E"/>
<path d="M156.346 131.747L153.98 131.111L150.229 145.053L152.595 145.69L156.346 131.747Z" fill="#B23032"/>
<path d="M160.559 131.888L159.891 131.702L160.336 130.032L161.004 130.218C161.375 130.329 161.598 130.7 161.487 131.071L161.375 131.405C161.338 131.777 160.93 131.999 160.559 131.888Z" fill="#FA7071"/>
<path d="M164.159 139.236H141.259V155.529H164.159V139.236Z" fill=process.env.REACT_APP_COLOR_PRIMARY/>
<path d="M86.9611 77.5152H33.0711C30.1391 77.5152 27.8009 75.1399 27.8009 72.245V63.7458C27.8009 60.8138 30.1762 58.4756 33.0711 58.4756H86.9611C89.8931 58.4756 92.2313 60.8509 92.2313 63.7458V72.245C92.2685 75.1399 89.8931 77.5152 86.9611 77.5152Z" fill="#508EE7"/>
<path d="M86.9611 155.529H33.0711C30.1391 155.529 27.8009 153.153 27.8009 150.258V84.7888C27.8009 81.8568 30.1762 79.5186 33.0711 79.5186H86.9611C89.8931 79.5186 92.2313 81.8939 92.2313 84.7888V150.258C92.2685 153.19 89.8931 155.529 86.9611 155.529Z" fill="#508EE7"/>
<path d="M83.6208 113.257H62.1687C60.0161 113.257 58.2717 111.512 58.2717 109.36V87.9077C58.2717 85.7551 60.0161 84.0107 62.1687 84.0107H83.6208C85.7734 84.0107 87.5178 85.7551 87.5178 87.9077V109.36C87.5178 111.475 85.7734 113.257 83.6208 113.257Z" fill="#81B0F6"/>
<path d="M62.3543 91.582C63.3792 91.582 64.21 90.7512 64.21 89.7263C64.21 88.7014 63.3792 87.8706 62.3543 87.8706C61.3294 87.8706 60.4986 88.7014 60.4986 89.7263C60.4986 90.7512 61.3294 91.582 62.3543 91.582Z" fill="#5385D1"/>
<path d="M69.369 91.582C70.3939 91.582 71.2247 90.7512 71.2247 89.7263C71.2247 88.7014 70.3939 87.8706 69.369 87.8706C68.3441 87.8706 67.5133 88.7014 67.5133 89.7263C67.5133 90.7512 68.3441 91.582 69.369 91.582Z" fill="#6A99DF"/>
<path d="M76.4206 91.582C77.4455 91.582 78.2763 90.7512 78.2763 89.7263C78.2763 88.7014 77.4455 87.8706 76.4206 87.8706C75.3957 87.8706 74.5649 88.7014 74.5649 89.7263C74.5649 90.7512 75.3957 91.582 76.4206 91.582Z" fill="#5385D1"/>
<path d="M83.4353 91.582C84.4602 91.582 85.291 90.7512 85.291 89.7263C85.291 88.7014 84.4602 87.8706 83.4353 87.8706C82.4104 87.8706 81.5796 88.7014 81.5796 89.7263C81.5796 90.7512 82.4104 91.582 83.4353 91.582Z" fill="#6A99DF"/>
<path d="M69.8514 102.493H65.9544C64.8781 102.493 64.0244 101.639 64.0244 100.563V96.6658C64.0244 95.5895 64.8781 94.7358 65.9544 94.7358H69.8514C70.9277 94.7358 71.7813 95.5895 71.7813 96.6658V100.563C71.7813 101.639 70.9277 102.493 69.8514 102.493Z" fill="#709EE2"/>
<path d="M79.7238 102.493H76.0495C74.9361 102.493 74.0082 101.565 74.0082 100.451V96.7771C74.0082 95.6637 74.9361 94.7358 76.0495 94.7358H79.7238C80.8373 94.7358 81.7651 95.6637 81.7651 96.7771V100.451C81.7651 101.565 80.8373 102.493 79.7238 102.493Z" fill="#709EE2"/>
<path d="M84.3631 106.353H61.4264C60.9068 106.353 60.4986 105.945 60.4986 105.425C60.4986 104.905 60.9068 104.497 61.4264 104.497H84.3631C84.8827 104.497 85.2909 104.905 85.2909 105.425C85.2909 105.945 84.8827 106.353 84.3631 106.353Z" fill="#2B5A85"/>
<path d="M66.1771 110.918H64.9152C64.4699 110.918 64.0987 110.547 64.0987 110.101V108.802C64.0987 108.357 64.4699 107.986 64.9152 107.986H66.1771C66.6225 107.986 66.9936 108.357 66.9936 108.802V110.064C66.9565 110.547 66.6225 110.918 66.1771 110.918Z" fill="#709EE2"/>
<path d="M71.0762 110.918H69.8143C69.3689 110.918 68.9978 110.547 68.9978 110.101V108.802C68.9978 108.357 69.3689 107.986 69.8143 107.986H71.0762C71.5215 107.986 71.8927 108.357 71.8927 108.802V110.064C71.8927 110.547 71.5215 110.918 71.0762 110.918Z" fill="#709EE2"/>
<path d="M75.9753 110.918H74.7134C74.2681 110.918 73.8969 110.547 73.8969 110.101V108.802C73.8969 108.357 74.2681 107.986 74.7134 107.986H75.9753C76.4207 107.986 76.7918 108.357 76.7918 108.802V110.064C76.7918 110.547 76.4207 110.918 75.9753 110.918Z" fill="#709EE2"/>
<path d="M80.9114 110.918H79.6496C79.2042 110.918 78.833 110.547 78.833 110.101V108.802C78.833 108.357 79.2042 107.986 79.6496 107.986H80.9114C81.3568 107.986 81.728 108.357 81.728 108.802V110.064C81.728 110.547 81.3568 110.918 80.9114 110.918Z" fill="#709EE2"/>
<path d="M36.9682 79.5186H33.8134V155.566H36.9682V79.5186Z" fill="#2B5A85"/>
<path d="M44.0198 79.5186H40.8651V155.566H44.0198V79.5186Z" fill="#2B5A85"/>
<path d="M51.0345 79.5186H47.8798V155.566H51.0345V79.5186Z" fill="#2B5A85"/>
<path d="M74.3422 139.236H70.4452C69.3689 139.236 68.5153 138.382 68.5153 137.306V133.409C68.5153 132.333 69.3689 131.479 70.4452 131.479H74.3422C75.4185 131.479 76.2722 132.333 76.2722 133.409V137.306C76.2722 138.382 75.3814 139.236 74.3422 139.236Z" fill="#689EEC"/>
<path d="M73.3773 135.339C73.3773 135.895 72.9319 136.341 72.3752 136.341C71.8184 136.341 71.3731 135.895 71.3731 135.339C71.3731 134.782 71.8184 134.336 72.3752 134.336C72.9319 134.336 73.3773 134.782 73.3773 135.339Z" fill="#2B5A85"/>
<path d="M52.4078 69.7578H35.0754C34.1104 69.7578 33.2939 68.9784 33.2939 67.9763C33.2939 67.0113 34.0733 66.1948 35.0754 66.1948H52.4078C53.3727 66.1948 54.1892 66.9742 54.1892 67.9763C54.1892 68.9413 53.3727 69.7578 52.4078 69.7578Z" fill="#2B5A85"/>
<path d="M73.6 69.4242H72.3382C71.8928 69.4242 71.5216 69.0531 71.5216 68.6077V67.3458C71.5216 66.9004 71.8928 66.5293 72.3382 66.5293H73.6C74.0454 66.5293 74.4166 66.9004 74.4166 67.3458V68.6077C74.4166 69.0531 74.0454 69.4242 73.6 69.4242Z" fill="#81B0F6"/>
<path d="M78.5361 69.4242H77.2742C76.8289 69.4242 76.4577 69.0531 76.4577 68.6077V67.3458C76.4577 66.9004 76.8289 66.5293 77.2742 66.5293H78.5361C78.9815 66.5293 79.3526 66.9004 79.3526 67.3458V68.6077C79.3526 69.0531 78.9815 69.4242 78.5361 69.4242Z" fill="#81B0F6"/>
<path d="M83.4353 69.4242H82.1734C81.728 69.4242 81.3569 69.0531 81.3569 68.6077V67.3458C81.3569 66.9004 81.728 66.5293 82.1734 66.5293H83.4353C83.8807 66.5293 84.2518 66.9004 84.2518 67.3458V68.6077C84.2518 69.0531 83.8807 69.4242 83.4353 69.4242Z" fill="#81B0F6"/>
<path d="M114.203 160.391C127.342 160.391 137.993 158.214 137.993 155.529C137.993 152.844 127.342 150.667 114.203 150.667C101.064 150.667 90.4127 152.844 90.4127 155.529C90.4127 158.214 101.064 160.391 114.203 160.391Z" fill="#F0F6FC"/>
<path d="M80.429 95.4422L82.7301 89.2812L83.4352 89.5411L81.1713 95.7763H80.5032L80.429 95.4422Z" fill="#FA7071"/>
<path d="M120.29 149.702C117.543 150.593 116.393 149.294 116.393 149.294C116.393 149.294 116.356 146.956 118.731 146.102C120.958 145.286 122.814 146.993 122.999 147.178C123.036 147.178 123.222 148.774 120.29 149.702Z" fill="#250606"/>
<path d="M107.931 151.447C105.073 152.375 103.848 151.002 103.848 151.002C103.848 151.002 103.811 148.552 106.298 147.625C108.636 146.734 110.603 148.552 110.789 148.738C110.826 148.775 111.048 150.445 107.931 151.447Z" fill="#250606"/>
<path d="M80.8744 104.497C80.8744 104.497 80.1321 102.864 78.6476 102.382C77.163 101.862 76.7176 100.675 76.6805 98.7447C76.6434 96.8147 76.829 96.1467 77.4228 95.7755C78.2393 95.2559 79.1672 94.6621 79.6496 94.625C80.1321 94.625 79.0929 95.59 79.2414 96.4807C79.427 97.3343 81.0971 98.2622 81.5425 97.8539C81.9879 97.4457 81.6167 96.7776 81.8023 96.1096C81.8394 95.9611 81.8765 95.8498 81.9507 95.7384C82.1363 95.3673 82.6559 95.3673 82.8415 95.7384C82.9528 95.9982 83.1013 96.3323 83.1013 96.7776C83.1384 97.854 82.8044 98.6333 83.3611 99.4499C83.9178 100.303 83.0642 101.751 83.5095 102.345C83.9549 102.939 83.9178 103.384 83.9178 103.384L80.8744 104.497Z" fill="#FFA87B"/>
<path d="M116.578 104.014C116.578 104.014 125.857 111.437 125.56 115.074C125.263 118.711 121.737 121.384 121.737 121.384C121.737 121.384 117.061 116.225 116.987 115.817C116.875 115.408 116.578 104.014 116.578 104.014Z" fill="#B82B2D"/>
<path d="M102.512 101.863C102.512 101.863 102.846 102.976 102.883 104.015C102.92 105.092 102.698 106.836 102.698 106.836L109.712 105.426C109.712 105.426 109.638 103.162 109.304 101.863C108.97 100.564 106.966 98.4482 106.966 98.4482L103.032 99.5988L102.512 101.863Z" fill="#D97B4B"/>
<path d="M126.414 132.556C126.414 132.556 124.818 139.607 120.884 141.463C120.29 141.76 119.696 141.871 119.214 141.871C119.102 141.871 118.991 141.871 118.917 141.871C118.657 141.871 118.397 141.834 118.174 141.76C117.506 141.611 117.098 141.352 117.098 141.352C117.098 141.352 114.314 142.836 110.603 143.282C110.38 143.319 110.121 143.319 109.898 143.356C109.49 143.393 109.081 143.393 108.673 143.393C107.671 143.393 106.669 143.282 105.63 143.059C105.296 142.985 104.962 142.91 104.628 142.799C98.4295 140.869 89.9674 136.267 90.2643 132.815C90.3386 131.776 90.9695 131.034 91.9345 130.589C95.3861 128.881 102.995 130.589 102.957 130.589C102.957 130.589 112.013 130.329 112.384 130.403C112.756 130.477 120.327 129.29 120.475 129.104C120.587 128.881 126.414 132.556 126.414 132.556Z" fill="#D94B4D"/>
<path d="M126.933 132.816C126.933 132.816 124.818 131.443 119.251 131.777C118.397 131.814 117.469 131.999 116.541 132.259C111.419 133.67 105.741 137.604 105.741 137.604C105.741 137.604 103.588 133.892 102.772 130.032C102.178 127.175 102.326 124.688 102.438 122.721C102.475 122.053 102.512 121.459 102.512 120.939C102.512 118.861 101.955 118.675 101.176 117.451C100.916 117.005 100.174 117.191 99.2088 117.599C97.4273 118.378 94.8293 119.974 92.6025 120.197C89.188 120.494 80.2434 105.908 80.2434 105.908C80.2434 105.908 80.3176 104.386 81.8393 103.013C83.361 101.603 84.6971 101.788 84.6971 101.788C84.6971 101.788 89.7818 108.098 92.2684 110.881C92.5654 111.215 92.8252 111.475 93.0107 111.698C93.753 112.477 94.718 112.217 95.7572 111.512C97.4273 110.362 99.2831 107.986 100.768 106.836C103.217 104.98 107.671 103.718 107.671 103.718C107.671 103.718 113.312 102.122 116.096 103.755C118.805 105.314 119.733 109.953 120.364 113.813C120.401 113.962 120.401 114.073 120.438 114.185C121.069 118.156 122.405 119.121 124.447 122.906C126.488 126.655 126.933 132.816 126.933 132.816Z" fill=process.env.REACT_APP_COLOR_PRIMARY/>
<path d="M102.475 122.72C102.512 122.052 102.549 121.459 102.549 120.939C102.549 118.861 101.992 118.675 101.213 117.45C100.953 117.005 100.211 117.19 99.246 117.599C99.3202 117.487 101.51 114.221 102.141 115.669C102.809 117.153 102.957 118.118 103.922 118.749C104.887 119.417 102.475 122.72 102.475 122.72Z" fill="#FA7071"/>
<path d="M126.933 132.816C126.933 132.816 124.818 131.442 119.251 131.776C118.397 131.813 117.469 131.999 116.541 132.259C120.03 130.032 123.556 126.617 122.479 122.758C121.403 118.861 115.502 119.38 117.358 118.081C119.213 116.782 120.364 113.813 120.364 113.813C120.401 113.961 120.401 114.073 120.438 114.184C121.069 118.155 122.405 119.12 124.447 122.906C126.488 126.655 126.933 132.816 126.933 132.816Z" fill="#FA7071"/>
<path d="M95.7572 111.474C95.7201 111.511 94.5324 113.367 93.3077 113.219C92.0829 113.07 92.2685 110.955 92.2685 110.843C92.5654 111.177 92.8252 111.437 93.0107 111.66C93.7901 112.476 94.7551 112.216 95.7572 111.474Z" fill="#FA7071"/>
<path d="M110.714 148.737C110.454 148.478 108.525 146.77 106.223 147.624C103.737 148.552 103.774 151.001 103.774 151.001C103.551 150.779 96.6108 143.764 93.1221 139.607C92.3056 138.605 91.7117 137.714 91.2664 136.935C93.5674 138.791 97.65 141.76 100.953 142.762C103.217 143.43 105.073 143.764 106.372 143.913L107.708 145.397L110.714 148.737Z" fill="#D94B4D"/>
<path d="M110.417 154.713C110.417 156.198 109.824 157.534 107.3 157.756C107.077 157.756 106.854 157.794 106.632 157.794C105.89 157.794 105.333 157.719 104.962 157.608C103.811 157.237 104.182 156.346 104.739 155.492C104.962 155.121 105.147 154.713 105.296 154.193C105.555 153.154 105.593 151.744 105.333 150.037C105.221 149.22 105.37 148.589 105.63 148.144C106.186 147.216 107.337 146.845 108.376 147.142C108.45 147.179 108.525 147.179 108.599 147.216C109.044 147.364 109.452 147.624 109.675 148.032C110.269 148.997 110.417 154.045 110.417 154.713Z" fill="#7A0C0E"/>
<path d="M104.999 157.608H103.069C102.364 157.608 101.918 156.828 102.289 156.235C102.846 155.381 103.774 154.416 105.296 154.193C105.147 154.713 104.999 155.121 104.739 155.492C104.219 156.346 103.848 157.2 104.999 157.608Z" fill="#7A0C0E"/>
<path d="M122.999 147.141C122.739 146.881 120.921 145.285 118.731 146.102C116.393 146.993 116.393 149.294 116.393 149.294C116.281 149.182 113.694 146.523 111.133 143.814C112.766 143.517 116.075 142.913 118.301 142.022L120.141 144.023L122.999 147.141Z" fill="#D94B4D"/>
<path d="M122.739 152.82C122.739 154.193 122.183 155.492 119.844 155.715C119.622 155.715 119.399 155.752 119.176 155.752C118.471 155.752 117.952 155.678 117.58 155.566C116.467 155.195 116.838 154.379 117.358 153.562C117.58 153.228 117.766 152.82 117.877 152.337C118.137 151.335 118.174 150.036 117.914 148.403C117.803 147.624 117.952 147.03 118.211 146.622C118.768 145.731 119.882 145.36 120.884 145.657C120.958 145.657 120.995 145.694 121.069 145.731C121.477 145.88 121.886 146.139 122.071 146.51C122.554 147.401 122.739 152.152 122.739 152.82Z" fill="#7A0C0E"/>
<path d="M117.58 155.53H115.502C114.945 155.53 114.611 154.936 114.908 154.491C115.391 153.637 116.319 152.523 117.914 152.301C117.803 152.783 117.618 153.192 117.395 153.526C116.838 154.342 116.467 155.196 117.58 155.53Z" fill="#7A0C0E"/>
<path d="M121.329 138.383C120.735 139.868 119.659 141.129 118.917 141.872C117.84 141.835 117.098 141.352 117.098 141.352C117.098 141.352 120.104 139.422 120.958 136.676C121.552 134.746 121.255 133.41 121.181 133.113C121.329 133.484 122.183 136.156 121.329 138.383Z" fill="#B23032"/>
<path d="M103.588 130.96H102.067V127.174C102.067 126.766 102.401 126.432 102.809 126.432C103.217 126.432 103.551 126.766 103.551 127.174V130.96H103.588Z" fill="#B23032"/>
<path d="M102.512 130.033C102.438 130.033 102.401 129.958 102.401 129.921V127.509C102.401 127.435 102.475 127.397 102.512 127.397C102.586 127.397 102.623 127.472 102.623 127.509V129.921C102.623 129.958 102.586 130.033 102.512 130.033Z" fill="#FA7071"/>
<path d="M105.889 132.296C105.889 132.296 104.924 132.704 103.032 132.147C101.584 131.739 100.99 131.294 100.99 131.294C100.99 131.294 101.658 130.923 103.588 131.294C105.518 131.665 105.889 132.296 105.889 132.296Z" fill="#250606"/>
<path d="M103.143 130.033C103.069 130.033 103.032 129.958 103.032 129.921V127.509C103.032 127.435 103.106 127.397 103.143 127.397C103.217 127.397 103.254 127.472 103.254 127.509V129.921C103.254 129.958 103.217 130.033 103.143 130.033Z" fill="#FA7071"/>
<path d="M103.106 130.96H102.586V133.447H103.106V130.96Z" fill="#FA7071"/>
<path d="M107.448 128.585L103.922 127.62C103.44 127.471 103.143 126.989 103.291 126.506C103.44 126.024 103.922 125.727 104.405 125.875L107.931 126.84L107.448 128.585Z" fill="#7A0C0E"/>
<path d="M105.861 128.171L104.678 127.853L102.836 134.698L104.019 135.016L105.861 128.171Z" fill="#B23032"/>
<path d="M104.219 139.384C103.997 139.458 103.737 139.458 103.477 139.421C99.6542 138.679 100.99 131.293 100.99 131.293C100.99 131.293 101.584 131.738 103.032 132.147C104.924 132.703 105.889 132.295 105.889 132.295C105.889 132.295 106.557 138.753 104.219 139.384Z" fill="#D44446"/>
<path d="M107.819 128.213L107.597 128.139L107.819 127.322L108.042 127.396C108.265 127.471 108.413 127.693 108.339 127.916C108.265 128.139 108.042 128.25 107.819 128.213Z" fill="#FA7071"/>
<path d="M104.219 139.384C103.997 139.458 103.737 139.458 103.477 139.421C99.6542 138.679 100.99 131.293 100.99 131.293C100.99 131.293 101.473 137.565 104.219 139.384Z" fill="#FA7071"/>
<path d="M98.6522 101.157C99.7351 101.762 101.584 102.827 105.184 101.194C104.924 100.6 104.999 100.006 105.444 99.7463C105.518 99.7092 105.555 99.672 105.63 99.6349C105.184 99.0782 104.739 98.4102 104.294 97.5936C104.071 97.1854 103.811 96.7029 103.588 96.2204C103.254 95.5524 102.957 94.773 102.623 93.9564C102.512 93.6966 102.438 93.4368 102.326 93.2142C101.696 92.5461 101.027 91.7667 100.471 91.0244C99.8027 91.9523 98.9491 93.3626 98.6522 95.0328C98.1326 97.8906 97.3903 100.452 98.6522 101.157Z" fill="#FFA87B"/>
<path d="M100.953 87.7589C100.99 88.3156 101.102 89.0579 101.324 89.9486C101.473 90.5425 101.658 91.1734 101.881 91.9157C101.992 92.324 102.141 92.7322 102.326 93.1776C102.401 93.4374 102.512 93.6601 102.623 93.9199C102.957 94.7364 103.254 95.5158 103.588 96.1839C103.811 96.6663 104.071 97.1488 104.293 97.5571C104.739 98.3736 105.184 99.0417 105.63 99.5984C105.889 99.9324 106.149 100.229 106.409 100.489C107.337 101.417 108.19 101.825 108.859 101.899C109.564 101.974 110.306 101.899 111.048 101.565C111.234 101.454 111.457 101.343 111.642 101.231C112.013 100.972 112.347 100.638 112.681 100.229C113.498 99.153 114.092 97.4829 114.203 95.0704C114.24 94.4395 114.203 93.8457 114.055 93.2147C113.609 90.9507 112.236 88.9466 110.12 87.9074C109.415 87.5733 108.71 87.3506 108.005 87.3878C106.001 87.4991 103.477 86.9053 102.141 86.3486C101.621 86.1259 101.027 86.4599 100.953 87.0166C100.953 87.2393 100.953 87.4991 100.953 87.7589Z" fill="#D0393B"/>
<path d="M105.147 101.194C105.481 101.899 106.335 102.642 107.708 102.753C110.195 102.976 111.605 101.231 111.605 101.231C110.714 101.825 109.712 102.011 108.821 101.899C108.153 101.825 107.3 101.417 106.372 100.489C106.112 100.229 105.852 99.9322 105.592 99.5981C105.555 99.6353 105.481 99.6724 105.407 99.7095C104.999 100.006 104.887 100.6 105.147 101.194Z" fill="#D0393B"/>
<path d="M103.032 98.4471C103.032 98.4471 103.737 97.7419 104.294 97.5563C104.071 97.1481 103.811 96.6656 103.588 96.1831C103.477 96.4058 103.366 96.6285 103.254 97.111C102.957 97.9646 103.032 98.4471 103.032 98.4471Z" fill="#D0393B"/>
<path d="M99.7284 89.6894C99.8769 90.0977 100.174 90.543 100.471 90.9884C101.027 91.7307 101.695 92.5101 102.326 93.1782C101.881 91.9534 101.547 90.8771 101.324 89.9863C101.102 89.0956 100.99 88.3533 100.953 87.7966C100.953 87.7966 100.471 87.7595 100.248 87.277C100.025 86.7945 100.062 86.3491 100.062 86.3491C100.062 86.3491 98.8377 87.5368 99.7284 89.6894Z" fill="#D0393B"/>
<path d="M101.881 91.9156C101.992 92.3238 102.141 92.7321 102.326 93.1775C102.401 93.4373 102.512 93.6599 102.623 93.9197C102.957 94.7363 103.254 95.5157 103.588 96.1837C103.811 96.6662 104.071 97.1487 104.293 97.557C104.739 98.3735 105.184 99.0415 105.63 99.5982C105.889 99.9323 106.149 100.229 106.409 100.489C107.337 101.417 108.19 101.825 108.859 101.899C109.564 101.974 110.306 101.899 111.048 101.565C111.234 101.454 111.457 101.343 111.642 101.231C112.013 100.971 112.347 100.637 112.681 100.229C113.498 99.1529 114.092 97.4827 114.203 95.0703C114.24 94.4394 114.203 93.8455 114.055 93.2146C112.644 91.9527 109.564 89.5403 107.188 89.466C105.11 89.4289 103.069 90.8764 101.881 91.9156Z" fill=process.env.REACT_APP_COLOR_PRIMARY/>
<path d="M104.85 95.9979C104.85 96.3319 105.184 96.6288 105.518 96.5917C105.852 96.5917 106.149 96.2577 106.112 95.9236C106.112 95.5896 105.778 95.2927 105.444 95.3298C105.11 95.3298 104.85 95.6267 104.85 95.9979Z" fill="#FA7071"/>
<path d="M103.885 93.8831C103.885 94.2171 104.219 94.5141 104.553 94.4769C104.887 94.4769 105.184 94.1429 105.147 93.8089C105.147 93.4749 104.813 93.1779 104.479 93.2151C104.145 93.2151 103.885 93.512 103.885 93.8831Z" fill="#FA7071"/>
<path d="M81.9507 95.7378L79.7609 102.233C79.5754 102.715 79.0558 102.975 78.5733 102.752L77.7568 102.418C77.3114 102.233 77.0887 101.713 77.2743 101.268L79.7609 94.7729C79.7609 94.7729 80.2434 94.4017 81.0971 94.7729C81.9507 95.1811 81.9507 95.7378 81.9507 95.7378Z" fill="#B23032"/>
<path d="M80.0208 95.7381C80.1321 95.7753 80.1692 95.9237 80.1321 95.9979L78.165 101.342C78.1279 101.454 77.9795 101.528 77.8681 101.454L77.831 101.417C77.7197 101.38 77.6826 101.231 77.7197 101.157L79.7238 95.8124C79.761 95.7753 79.9094 95.701 80.0208 95.7381Z" fill="#FA7071"/>
<path d="M81.2455 96.072C81.3568 96.1091 81.394 96.2576 81.3568 96.3689L79.3156 101.973C79.2784 102.085 79.13 102.159 78.9815 102.085L78.9444 102.047C78.8331 102.01 78.796 101.862 78.8331 101.751L80.9115 96.1834C80.9857 96.072 81.1342 96.0349 81.2455 96.072Z" fill="#FA7071"/>
<path d="M82.7301 89.2809L82.6559 88.5015L83.992 89.0211L83.4353 89.5407L82.7301 89.2809Z" fill="#FA7071"/>
<path d="M106.372 143.912C105.036 143.764 103.217 143.467 100.953 142.762C97.65 141.759 93.6046 138.79 91.2664 136.935C89.856 134.337 90.2272 132.815 90.2272 132.815C89.9303 136.229 98.3923 140.869 104.59 142.799C104.924 142.91 105.258 142.984 105.593 143.058L106.372 143.912Z" fill="#B23032"/>
<path d="M118.545 142.168C116.319 143.096 113.052 143.801 111.419 144.098C111.16 143.801 110.9 143.541 110.603 143.244C114.314 142.799 117.098 141.314 117.098 141.314C117.098 141.314 117.506 141.574 118.174 141.723L118.545 142.168Z" fill="#B23032"/>
<path d="M110.417 154.712C110.417 156.197 109.824 157.533 107.3 157.756C106.929 157.719 106.632 157.682 106.372 157.607C105.221 157.236 105.593 156.345 106.149 155.492C106.372 155.121 106.558 154.712 106.706 154.193C106.966 153.154 107.003 151.743 106.743 150.036C106.632 149.22 106.78 148.589 107.04 148.143C107.337 147.624 107.857 147.29 108.413 147.141C108.487 147.178 108.562 147.178 108.636 147.215C109.081 147.364 109.49 147.624 109.712 148.032C110.269 148.997 110.417 154.044 110.417 154.712Z" fill=process.env.REACT_APP_COLOR_PRIMARY/>
<path d="M122.739 152.821C122.739 154.194 122.183 155.493 119.844 155.716C119.51 155.679 119.214 155.641 118.991 155.567C117.877 155.196 118.249 154.38 118.768 153.563C118.991 153.229 119.176 152.821 119.288 152.338C119.548 151.336 119.585 150.037 119.325 148.404C119.214 147.625 119.362 147.031 119.622 146.623C119.919 146.14 120.364 145.806 120.884 145.658C120.958 145.658 120.995 145.695 121.069 145.732C121.477 145.88 121.886 146.14 122.071 146.511C122.554 147.402 122.739 152.153 122.739 152.821Z" fill=process.env.REACT_APP_COLOR_PRIMARY/>
</svg>
