<svg width="230" height="165" viewBox="0 0 230 165" fill="none" xmlns="http://www.w3.org/2000/svg">
<path d="M0.838577 58.3738C1.94194 47.7284 7.30994 37.0654 16.6361 29.4577C31.1551 17.5953 53.1437 14.6363 72.4265 17.4027C80.5004 18.5671 88.5129 20.6069 96.7795 19.9765C108.838 19.0573 119.451 12.6578 130.415 7.9741C145.354 1.60081 162.474 -1.81345 178.368 0.987991C196.39 4.16588 211.171 16.107 212.958 31.9265C213.763 39.0964 205.672 51.7117 208.246 58.5052C210.856 65.395 229.85 86.5196 229.403 102.575C228.948 119.209 219.61 137.824 186.711 156.276C153.813 174.729 44.7695 160.779 24.7821 143.367C4.79463 125.956 9.80565 117.099 14.5169 105.753C18.0985 97.1213 8.31699 89.9864 4.534 81.941C1.15382 74.7798 0.0329285 66.1741 0.838577 58.3738Z" fill="#C2ECE0"/>
<path d="M162.006 139.273C162.006 139.236 161.895 136.489 160.67 133.817C159.074 130.328 156.365 128.584 152.653 128.584C148.942 128.584 146.27 130.365 144.711 133.854C143.523 136.526 143.449 139.236 143.449 139.273L141.964 139.236C141.964 139.124 142.335 127.099 152.69 127.099C163.008 127.099 163.528 139.124 163.528 139.236L162.006 139.273Z" fill="#FFD100"/>
<path d="M160.188 139.236H156.773L153.062 129.661L147.94 139.236H143.783L153.322 121.384L160.188 139.236Z" fill="#E1D186"/>
<path d="M192.98 3.5835H90.1318C84.609 3.5835 80.1318 8.06064 80.1318 13.5835V104.015H192.98C198.503 104.015 202.98 99.5377 202.98 94.0148V13.5835C202.98 8.06065 198.503 3.5835 192.98 3.5835Z" fill="#78D9B1"/>
<path d="M192.98 3.5835H90.1318C84.609 3.5835 80.1318 8.06065 80.1318 13.5835V14.8662H202.98V13.5835C202.98 8.06065 198.503 3.5835 192.98 3.5835Z" fill="#28A571"/>
<path d="M186.39 9.22448C186.39 9.96677 185.796 10.5606 185.054 10.5606C184.312 10.5606 183.718 9.96677 183.718 9.22448C183.718 8.4822 184.312 7.88837 185.054 7.88837C185.796 7.85125 186.39 8.44508 186.39 9.22448Z" fill="#78D9B1"/>
<path d="M191.475 9.22448C191.475 9.96677 190.881 10.5606 190.139 10.5606C189.397 10.5606 188.803 9.96677 188.803 9.22448C188.803 8.4822 189.397 7.88837 190.139 7.88837C190.844 7.85125 191.475 8.44508 191.475 9.22448Z" fill="#78D9B1"/>
<path d="M196.523 9.22448C196.523 9.96677 195.929 10.5606 195.186 10.5606C194.444 10.5606 193.85 9.96677 193.85 9.22448C193.85 8.4822 194.444 7.88837 195.186 7.88837C195.929 7.85125 196.523 8.44508 196.523 9.22448Z" fill="#78D9B1"/>
<path d="M97.39 20.2844H85.2908V24.9979H97.39V20.2844Z" fill="#78D9B1"/>
<path d="M172.175 57.0275C172.175 66.8628 167.276 75.5847 159.779 80.8178C155.066 84.0839 149.35 86.0138 143.189 86.0138C127.193 86.0138 114.203 73.0238 114.203 57.0275C114.203 50.9037 116.096 45.2252 119.362 40.5117C124.595 32.9775 133.317 28.0042 143.189 28.0042C159.185 28.0413 172.175 41.0313 172.175 57.0275Z" fill="#EFCF3D"/>
<path d="M164.901 64.3024C164.901 70.4263 163.008 76.1048 159.742 80.8183C155.029 84.0844 149.313 86.0143 143.152 86.0143C127.156 86.0143 114.166 73.0243 114.166 57.028C114.166 50.9042 116.059 45.2257 119.325 40.5122C124.038 37.2461 129.754 35.3162 135.915 35.3162C151.948 35.3162 164.901 48.3062 164.901 64.3024Z" fill="#DAB510"/>
<path d="M143.857 69.6098C142.632 69.6098 141.667 68.6077 141.667 67.42V41.1802C141.667 39.9555 142.67 38.9905 143.857 38.9905C145.082 38.9905 146.047 39.9926 146.047 41.1802V67.42C146.084 68.6077 145.082 69.6098 143.857 69.6098Z" fill="#FFF5CA"/>
<path d="M146.195 73.3956C146.195 74.6946 145.156 75.7338 143.857 75.7338C142.558 75.7338 141.519 74.6946 141.519 73.3956C141.519 72.0966 142.558 71.0574 143.857 71.0574C145.156 71.0574 146.195 72.0966 146.195 73.3956Z" fill="#FFF5CA"/>
<path d="M151.8 137.418H148.719V129.03C148.719 128.547 149.128 128.139 149.61 128.139H150.872C151.354 128.139 151.763 128.547 151.763 129.03V137.418H151.8Z" fill="#FFD100"/>
<path d="M149.61 135.525C149.461 135.525 149.35 135.414 149.35 135.265V130.329C149.35 130.181 149.461 130.069 149.61 130.069C149.758 130.069 149.87 130.181 149.87 130.329V135.265C149.87 135.414 149.758 135.525 149.61 135.525Z" fill="#FAECAF"/>
<path d="M150.872 135.525C150.723 135.525 150.612 135.414 150.612 135.265V130.329C150.612 130.181 150.723 130.069 150.872 130.069C151.02 130.069 151.132 130.181 151.132 130.329V135.265C151.132 135.414 151.02 135.525 150.872 135.525Z" fill="#FAECAF"/>
<path d="M150.761 137.417H149.721V142.502H150.761V137.417Z" fill="#FAECAF"/>
<path d="M159.668 132.63L151.837 130.514C151.206 130.328 150.835 129.698 150.983 129.067L151.317 127.768C151.503 127.137 152.134 126.766 152.765 126.914L160.596 129.029L159.668 132.63Z" fill="#B89809"/>
<path d="M156.346 131.747L153.98 131.111L150.229 145.053L152.595 145.689L156.346 131.747Z" fill="#B89809"/>
<path d="M160.559 131.888L159.891 131.702L160.336 130.032L161.004 130.218C161.375 130.329 161.598 130.7 161.487 131.071L161.375 131.405C161.338 131.776 160.93 131.999 160.559 131.888Z" fill="#FAECAF"/>
<path d="M164.159 139.236H141.259V155.529H164.159V139.236Z" fill="#FFD100"/>
<path d="M86.961 77.5155H33.071C30.139 77.5155 27.8008 75.1402 27.8008 72.2452V63.7461C27.8008 60.814 30.1761 58.4758 33.071 58.4758H86.961C89.893 58.4758 92.2312 60.8512 92.2312 63.7461V72.2452C92.2683 75.1402 89.893 77.5155 86.961 77.5155Z" fill="#508EE7"/>
<path d="M86.961 155.529H33.071C30.139 155.529 27.8008 153.154 27.8008 150.259V84.789C27.8008 81.857 30.1761 79.5188 33.071 79.5188H86.961C89.893 79.5188 92.2312 81.8941 92.2312 84.789V150.259C92.2683 153.191 89.893 155.529 86.961 155.529Z" fill="#508EE7"/>
<path d="M83.6206 113.257H62.1685C60.0159 113.257 58.2715 111.512 58.2715 109.36V87.9075C58.2715 85.7549 60.0159 84.0105 62.1685 84.0105H83.6206C85.7732 84.0105 87.5176 85.7549 87.5176 87.9075V109.36C87.5176 111.475 85.7732 113.257 83.6206 113.257Z" fill="#81B0F6"/>
<path d="M62.3543 91.582C63.3791 91.582 64.21 90.7512 64.21 89.7263C64.21 88.7014 63.3791 87.8706 62.3543 87.8706C61.3294 87.8706 60.4985 88.7014 60.4985 89.7263C60.4985 90.7512 61.3294 91.582 62.3543 91.582Z" fill="#5385D1"/>
<path d="M69.3689 91.582C70.3938 91.582 71.2246 90.7512 71.2246 89.7263C71.2246 88.7014 70.3938 87.8706 69.3689 87.8706C68.344 87.8706 67.5132 88.7014 67.5132 89.7263C67.5132 90.7512 68.344 91.582 69.3689 91.582Z" fill="#6A99DF"/>
<path d="M76.4204 91.582C77.4453 91.582 78.2761 90.7512 78.2761 89.7263C78.2761 88.7014 77.4453 87.8706 76.4204 87.8706C75.3955 87.8706 74.5647 88.7014 74.5647 89.7263C74.5647 90.7512 75.3955 91.582 76.4204 91.582Z" fill="#5385D1"/>
<path d="M83.4351 91.582C84.4599 91.582 85.2908 90.7512 85.2908 89.7263C85.2908 88.7014 84.4599 87.8706 83.4351 87.8706C82.4102 87.8706 81.5793 88.7014 81.5793 89.7263C81.5793 90.7512 82.4102 91.582 83.4351 91.582Z" fill="#6A99DF"/>
<path d="M69.8514 102.493H65.9544C64.878 102.493 64.0244 101.639 64.0244 100.563V96.6658C64.0244 95.5895 64.878 94.7358 65.9544 94.7358H69.8514C70.9277 94.7358 71.7813 95.5895 71.7813 96.6658V100.563C71.7813 101.639 70.9277 102.493 69.8514 102.493Z" fill="#709EE2"/>
<path d="M79.7237 102.493H76.0493C74.9359 102.493 74.0081 101.565 74.0081 100.451V96.7771C74.0081 95.6637 74.9359 94.7358 76.0493 94.7358H79.7237C80.8371 94.7358 81.7649 95.6637 81.7649 96.7771V100.451C81.7649 101.565 80.8371 102.493 79.7237 102.493Z" fill="#709EE2"/>
<path d="M84.363 106.353H61.4264C60.9068 106.353 60.4985 105.945 60.4985 105.425C60.4985 104.905 60.9068 104.497 61.4264 104.497H84.363C84.8826 104.497 85.2909 104.905 85.2909 105.425C85.2909 105.945 84.8826 106.353 84.363 106.353Z" fill="#2B5A85"/>
<path d="M66.177 110.918H64.9151C64.4698 110.918 64.0986 110.546 64.0986 110.101V108.802C64.0986 108.357 64.4698 107.986 64.9151 107.986H66.177C66.6224 107.986 66.9935 108.357 66.9935 108.802V110.064C66.9564 110.546 66.6224 110.918 66.177 110.918Z" fill="#709EE2"/>
<path d="M71.076 110.918H69.8141C69.3687 110.918 68.9976 110.546 68.9976 110.101V108.802C68.9976 108.357 69.3687 107.986 69.8141 107.986H71.076C71.5213 107.986 71.8925 108.357 71.8925 108.802V110.064C71.8925 110.546 71.5213 110.918 71.076 110.918Z" fill="#709EE2"/>
<path d="M75.9751 110.918H74.7132C74.2679 110.918 73.8967 110.546 73.8967 110.101V108.802C73.8967 108.357 74.2679 107.986 74.7132 107.986H75.9751C76.4205 107.986 76.7916 108.357 76.7916 108.802V110.064C76.7916 110.546 76.4205 110.918 75.9751 110.918Z" fill="#709EE2"/>
<path d="M80.9114 110.918H79.6495C79.2041 110.918 78.833 110.546 78.833 110.101V108.802C78.833 108.357 79.2041 107.986 79.6495 107.986H80.9114C81.3568 107.986 81.7279 108.357 81.7279 108.802V110.064C81.7279 110.546 81.3568 110.918 80.9114 110.918Z" fill="#709EE2"/>
<path d="M36.9679 79.5188H33.8132V155.566H36.9679V79.5188Z" fill="#2B5A85"/>
<path d="M44.0197 79.5188H40.865V155.566H44.0197V79.5188Z" fill="#2B5A85"/>
<path d="M51.0344 79.5188H47.8796V155.566H51.0344V79.5188Z" fill="#2B5A85"/>
<path d="M74.3421 139.236H70.4451C69.3688 139.236 68.5151 138.382 68.5151 137.306V133.409C68.5151 132.332 69.3688 131.479 70.4451 131.479H74.3421C75.4184 131.479 76.272 132.332 76.272 133.409V137.306C76.272 138.382 75.3813 139.236 74.3421 139.236Z" fill="#689EEC"/>
<path d="M73.3772 135.339C73.3772 135.895 72.9318 136.341 72.3751 136.341C71.8184 136.341 71.373 135.895 71.373 135.339C71.373 134.782 71.8184 134.337 72.3751 134.337C72.9318 134.337 73.3772 134.782 73.3772 135.339Z" fill="#2B5A85"/>
<path d="M52.4076 69.758H35.0752C34.1102 69.758 33.2937 68.9786 33.2937 67.9766C33.2937 67.0116 34.0731 66.1951 35.0752 66.1951H52.4076C53.3725 66.1951 54.1891 66.9745 54.1891 67.9766C54.1891 68.9415 53.3725 69.758 52.4076 69.758Z" fill="#2B5A85"/>
<path d="M73.5999 69.424H72.338C71.8926 69.424 71.5215 69.0528 71.5215 68.6075V67.3456C71.5215 66.9002 71.8926 66.5291 72.338 66.5291H73.5999C74.0453 66.5291 74.4164 66.9002 74.4164 67.3456V68.6075C74.4164 69.0528 74.0453 69.424 73.5999 69.424Z" fill="#81B0F6"/>
<path d="M78.5359 69.424H77.274C76.8287 69.424 76.4575 69.0528 76.4575 68.6075V67.3456C76.4575 66.9002 76.8287 66.5291 77.274 66.5291H78.5359C78.9813 66.5291 79.3524 66.9002 79.3524 67.3456V68.6075C79.3524 69.0528 78.9813 69.424 78.5359 69.424Z" fill="#81B0F6"/>
<path d="M83.4351 69.424H82.1732C81.7278 69.424 81.3567 69.0528 81.3567 68.6075V67.3456C81.3567 66.9002 81.7278 66.5291 82.1732 66.5291H83.4351C83.8805 66.5291 84.2516 66.9002 84.2516 67.3456V68.6075C84.2516 69.0528 83.8805 69.424 83.4351 69.424Z" fill="#81B0F6"/>
<path d="M114.203 160.391C127.342 160.391 137.993 158.214 137.993 155.529C137.993 152.844 127.342 150.667 114.203 150.667C101.064 150.667 90.4126 152.844 90.4126 155.529C90.4126 158.214 101.064 160.391 114.203 160.391Z" fill="#EFDA89"/>
<path d="M80.429 95.442L82.73 89.281L83.4352 89.5408L81.1712 95.776H80.5032L80.429 95.442Z" fill="#FFD100"/>
<path d="M120.29 149.702C117.543 150.593 116.393 149.294 116.393 149.294C116.393 149.294 116.355 146.956 118.731 146.102C120.958 145.286 122.813 146.993 122.999 147.178C123.036 147.178 123.222 148.774 120.29 149.702Z" fill="#250606"/>
<path d="M107.931 151.447C105.073 152.375 103.848 151.002 103.848 151.002C103.848 151.002 103.811 148.552 106.298 147.625C108.636 146.734 110.603 148.552 110.789 148.738C110.826 148.775 111.048 150.445 107.931 151.447Z" fill="#250606"/>
<path d="M80.8742 104.497C80.8742 104.497 80.132 102.864 78.6474 102.382C77.1628 101.862 76.7174 100.675 76.6803 98.7447C76.6432 96.8147 76.8288 96.1467 77.4226 95.7755C78.2391 95.2559 79.167 94.6621 79.6495 94.625C80.1319 94.625 79.0928 95.59 79.2412 96.4807C79.4268 97.3343 81.0969 98.2622 81.5423 97.8539C81.9877 97.4457 81.6165 96.7776 81.8021 96.1096C81.8392 95.9611 81.8763 95.8498 81.9506 95.7384C82.1361 95.3673 82.6557 95.3673 82.8413 95.7384C82.9526 95.9982 83.1011 96.3323 83.1011 96.7776C83.1382 97.854 82.8042 98.6333 83.3609 99.4499C83.9176 100.303 83.064 101.751 83.5094 102.345C83.9547 102.939 83.9176 103.384 83.9176 103.384L80.8742 104.497Z" fill="#FFA87B"/>
<path d="M116.578 104.014C116.578 104.014 125.857 111.437 125.56 115.074C125.263 118.711 121.737 121.384 121.737 121.384C121.737 121.384 117.061 116.225 116.986 115.817C116.875 115.408 116.578 104.014 116.578 104.014Z" fill="#5CCB9D"/>
<path d="M102.512 101.863C102.512 101.863 102.846 102.976 102.883 104.015C102.92 105.091 102.698 106.836 102.698 106.836L109.712 105.425C109.712 105.425 109.638 103.162 109.304 101.863C108.97 100.564 106.966 98.448 106.966 98.448L103.032 99.5985L102.512 101.863Z" fill="#FFA87B"/>
<path d="M126.414 132.555C126.414 132.555 124.818 139.607 120.884 141.463C120.29 141.76 119.696 141.871 119.213 141.871C119.102 141.871 118.991 141.871 118.916 141.871C118.657 141.871 118.397 141.834 118.174 141.76C117.506 141.611 117.098 141.351 117.098 141.351C117.098 141.351 114.314 142.836 110.603 143.281C110.38 143.318 110.12 143.319 109.898 143.356C109.489 143.393 109.081 143.393 108.673 143.393C107.671 143.393 106.669 143.281 105.63 143.059C105.295 142.984 104.961 142.91 104.627 142.799C98.4293 140.869 89.9673 136.267 90.2642 132.815C90.3384 131.776 90.9694 131.034 91.9343 130.588C95.386 128.881 102.994 130.588 102.957 130.588C102.957 130.588 112.013 130.328 112.384 130.403C112.755 130.477 120.327 129.289 120.475 129.104C120.587 128.881 126.414 132.555 126.414 132.555Z" fill="#2B5A85"/>
<path d="M126.933 132.816C126.933 132.816 124.818 131.443 119.251 131.777C118.397 131.814 117.469 131.999 116.541 132.259C111.419 133.67 105.741 137.604 105.741 137.604C105.741 137.604 103.588 133.892 102.772 130.032C102.178 127.175 102.326 124.688 102.438 122.721C102.475 122.053 102.512 121.459 102.512 120.939C102.512 118.861 101.955 118.675 101.176 117.451C100.916 117.005 100.174 117.191 99.2088 117.599C97.4273 118.378 94.8293 119.974 92.6025 120.197C89.188 120.494 80.2434 105.908 80.2434 105.908C80.2434 105.908 80.3176 104.386 81.8393 103.013C83.361 101.603 84.6971 101.788 84.6971 101.788C84.6971 101.788 89.7818 108.098 92.2684 110.881C92.5654 111.215 92.8252 111.475 93.0107 111.698C93.753 112.477 94.718 112.217 95.7572 111.512C97.4273 110.362 99.2831 107.986 100.768 106.836C103.217 104.98 107.671 103.718 107.671 103.718C107.671 103.718 113.312 102.122 116.096 103.755C118.805 105.314 119.733 109.953 120.364 113.813C120.401 113.962 120.401 114.073 120.438 114.185C121.069 118.156 122.405 119.121 124.447 122.906C126.488 126.655 126.933 132.816 126.933 132.816Z" fill="#28A571"/>
<path d="M102.475 122.72C102.512 122.052 102.549 121.459 102.549 120.939C102.549 118.861 101.992 118.675 101.213 117.45C100.953 117.005 100.211 117.19 99.2458 117.599C99.3201 117.487 101.51 114.221 102.141 115.669C102.809 117.153 102.957 118.118 103.922 118.749C104.887 119.417 102.475 122.72 102.475 122.72Z" fill="#28A571"/>
<path d="M126.933 132.816C126.933 132.816 124.818 131.442 119.25 131.776C118.397 131.813 117.469 131.999 116.541 132.259C120.03 130.032 123.556 126.617 122.479 122.758C121.403 118.861 115.502 119.38 117.358 118.081C119.213 116.782 120.364 113.813 120.364 113.813C120.401 113.961 120.401 114.073 120.438 114.184C121.069 118.155 122.405 119.12 124.446 122.906C126.488 126.655 126.933 132.816 126.933 132.816Z" fill="#28A571"/>
<path d="M95.7571 111.474C95.72 111.512 94.5323 113.367 93.3075 113.219C92.0828 113.07 92.2683 110.955 92.2683 110.844C92.5653 111.178 92.8251 111.437 93.0106 111.66C93.79 112.477 94.755 112.217 95.7571 111.474Z" fill="#28A571"/>
<path d="M110.714 148.737C110.454 148.478 108.524 146.77 106.223 147.624C103.737 148.552 103.774 151.001 103.774 151.001C103.551 150.779 96.6106 143.764 93.1218 139.607C92.3053 138.605 91.7115 137.714 91.2661 136.935C93.5672 138.791 97.6498 141.76 100.953 142.762C103.217 143.43 105.073 143.764 106.372 143.913L107.708 145.397L110.714 148.737Z" fill="#2B5A85"/>
<path d="M110.417 154.713C110.417 156.198 109.823 157.534 107.3 157.756C107.077 157.756 106.854 157.794 106.632 157.794C105.889 157.794 105.333 157.719 104.962 157.608C103.811 157.237 104.182 156.346 104.739 155.492C104.962 155.121 105.147 154.713 105.296 154.193C105.555 153.154 105.592 151.744 105.333 150.037C105.221 149.22 105.37 148.589 105.63 148.144C106.186 147.216 107.337 146.845 108.376 147.142C108.45 147.179 108.524 147.179 108.599 147.216C109.044 147.364 109.452 147.624 109.675 148.032C110.269 148.997 110.417 154.045 110.417 154.713Z" fill="#5C89B1"/>
<path d="M104.999 157.608H103.069C102.363 157.608 101.918 156.828 102.289 156.235C102.846 155.381 103.774 154.416 105.295 154.193C105.147 154.713 104.999 155.121 104.739 155.492C104.219 156.346 103.848 157.2 104.999 157.608Z" fill="#5C89B1"/>
<path d="M122.999 147.141C122.739 146.882 120.921 145.286 118.731 146.102C116.393 146.993 116.393 149.294 116.393 149.294C116.281 149.183 113.694 146.524 111.133 143.814C112.766 143.517 116.075 142.913 118.301 142.022L120.141 144.024L122.999 147.141Z" fill="#2B5A85"/>
<path d="M122.739 152.82C122.739 154.193 122.182 155.492 119.844 155.715C119.621 155.715 119.399 155.752 119.176 155.752C118.471 155.752 117.951 155.678 117.58 155.566C116.467 155.195 116.838 154.379 117.358 153.562C117.58 153.228 117.766 152.82 117.877 152.337C118.137 151.335 118.174 150.036 117.914 148.403C117.803 147.624 117.951 147.03 118.211 146.622C118.768 145.731 119.881 145.36 120.883 145.657C120.958 145.657 120.995 145.694 121.069 145.731C121.477 145.88 121.885 146.139 122.071 146.51C122.554 147.401 122.739 152.152 122.739 152.82Z" fill="#5C89B1"/>
<path d="M117.58 155.53H115.502C114.945 155.53 114.611 154.936 114.908 154.491C115.391 153.637 116.319 152.524 117.914 152.301C117.803 152.784 117.618 153.192 117.395 153.526C116.838 154.342 116.467 155.196 117.58 155.53Z" fill="#5C89B1"/>
<path d="M121.329 138.383C120.735 139.868 119.659 141.13 118.916 141.872C117.84 141.835 117.098 141.352 117.098 141.352C117.098 141.352 120.104 139.422 120.958 136.676C121.552 134.746 121.255 133.41 121.18 133.113C121.329 133.484 122.183 136.156 121.329 138.383Z" fill="#508EE7"/>
<path d="M103.588 130.96H102.067V127.174C102.067 126.766 102.401 126.432 102.809 126.432C103.217 126.432 103.551 126.766 103.551 127.174V130.96H103.588Z" fill=process.env.REACT_APP_COLOR_PRIMARY/>
<path d="M102.512 130.033C102.438 130.033 102.401 129.958 102.401 129.921V127.509C102.401 127.435 102.475 127.397 102.512 127.397C102.586 127.397 102.623 127.472 102.623 127.509V129.921C102.623 129.958 102.586 130.033 102.512 130.033Z" fill="#E8E8E8"/>
<path d="M105.889 132.296C105.889 132.296 104.924 132.704 103.032 132.148C101.584 131.739 100.99 131.294 100.99 131.294C100.99 131.294 101.658 130.923 103.588 131.294C105.518 131.665 105.889 132.296 105.889 132.296Z" fill="#250606"/>
<path d="M103.143 130.033C103.069 130.033 103.031 129.958 103.031 129.921V127.509C103.031 127.435 103.106 127.397 103.143 127.397C103.217 127.397 103.254 127.472 103.254 127.509V129.921C103.254 129.958 103.217 130.033 103.143 130.033Z" fill="#E8E8E8"/>
<path d="M103.106 130.96H102.586V133.447H103.106V130.96Z" fill="#E4D071"/>
<path d="M107.448 128.585L103.922 127.62C103.44 127.471 103.143 126.989 103.291 126.506C103.44 126.024 103.922 125.727 104.405 125.875L107.931 126.84L107.448 128.585Z" fill="#FFD100"/>
<path d="M105.86 128.171L104.678 127.853L102.836 134.698L104.019 135.016L105.86 128.171Z" fill=process.env.REACT_APP_COLOR_PRIMARY/>
<path d="M104.219 139.384C103.997 139.458 103.737 139.458 103.477 139.421C99.6542 138.679 100.99 131.293 100.99 131.293C100.99 131.293 101.584 131.739 103.032 132.147C104.924 132.704 105.889 132.295 105.889 132.295C105.889 132.295 106.557 138.753 104.219 139.384Z" fill="#E9D88D"/>
<path d="M107.819 128.213L107.596 128.139L107.819 127.322L108.042 127.396C108.264 127.47 108.413 127.693 108.339 127.916C108.264 128.139 108.042 128.25 107.819 128.213Z" fill="#E4D071"/>
<path d="M104.219 139.384C103.997 139.458 103.737 139.458 103.477 139.421C99.6542 138.679 100.99 131.293 100.99 131.293C100.99 131.293 101.473 137.566 104.219 139.384Z" fill="#EAC626"/>
<path d="M98.652 101.157C99.7349 101.762 101.584 102.827 105.184 101.194C104.924 100.6 104.999 100.006 105.444 99.7465C105.518 99.7094 105.555 99.6723 105.629 99.6352C105.184 99.0785 104.739 98.4104 104.293 97.5939C104.071 97.1856 103.811 96.7031 103.588 96.2207C103.254 95.5526 102.957 94.7732 102.623 93.9567C102.512 93.6969 102.438 93.4371 102.326 93.2144C101.695 92.5463 101.027 91.7669 100.471 91.0247C99.8025 91.9525 98.9489 93.3629 98.652 95.033C98.1324 97.8908 97.3901 100.452 98.652 101.157Z" fill="#FFA87B"/>
<path d="M100.953 87.7589C100.99 88.3156 101.102 89.0579 101.324 89.9486C101.473 90.5425 101.658 91.1734 101.881 91.9157C101.992 92.324 102.141 92.7322 102.326 93.1776C102.401 93.4374 102.512 93.6601 102.623 93.9199C102.957 94.7364 103.254 95.5158 103.588 96.1839C103.811 96.6663 104.071 97.1488 104.293 97.5571C104.739 98.3736 105.184 99.0417 105.63 99.5984C105.889 99.9324 106.149 100.229 106.409 100.489C107.337 101.417 108.19 101.825 108.858 101.899C109.564 101.974 110.306 101.899 111.048 101.565C111.234 101.454 111.456 101.343 111.642 101.231C112.013 100.972 112.347 100.638 112.681 100.229C113.498 99.153 114.092 97.4829 114.203 95.0704C114.24 94.4395 114.203 93.8457 114.054 93.2147C113.609 90.9507 112.236 88.9466 110.12 87.9074C109.415 87.5733 108.71 87.3506 108.005 87.3878C106.001 87.4991 103.477 86.9053 102.141 86.3486C101.621 86.1259 101.027 86.4599 100.953 87.0166C100.953 87.2393 100.953 87.4991 100.953 87.7589Z" fill="#508EE7"/>
<path d="M105.147 101.194C105.481 101.899 106.335 102.642 107.708 102.753C110.195 102.976 111.605 101.231 111.605 101.231C110.714 101.825 109.712 102.011 108.821 101.899C108.153 101.825 107.3 101.417 106.372 100.489C106.112 100.229 105.852 99.9324 105.592 99.5984C105.555 99.6355 105.481 99.6726 105.407 99.7097C104.999 100.007 104.887 100.6 105.147 101.194Z" fill="#FFD100"/>
<path d="M103.032 98.4471C103.032 98.4471 103.737 97.7419 104.294 97.5563C104.071 97.1481 103.811 96.6656 103.588 96.1831C103.477 96.4058 103.366 96.6285 103.254 97.111C102.957 97.9646 103.032 98.4471 103.032 98.4471Z" fill="#FFD100"/>
<path d="M99.7284 89.6892C99.8769 90.0974 100.174 90.5428 100.471 90.9882C101.027 91.7305 101.695 92.5099 102.326 93.1779C101.881 91.9531 101.547 90.8768 101.324 89.9861C101.102 89.0953 100.99 88.353 100.953 87.7963C100.953 87.7963 100.471 87.7592 100.248 87.2767C100.025 86.7942 100.062 86.3489 100.062 86.3489C100.062 86.3489 98.8377 87.5365 99.7284 89.6892Z" fill="#FFD100"/>
<path d="M101.881 91.9156C101.992 92.3238 102.141 92.7321 102.326 93.1775C102.4 93.4373 102.512 93.6599 102.623 93.9197C102.957 94.7363 103.254 95.5157 103.588 96.1837C103.811 96.6662 104.071 97.1487 104.293 97.557C104.739 98.3735 105.184 99.0415 105.629 99.5982C105.889 99.9323 106.149 100.229 106.409 100.489C107.337 101.417 108.19 101.825 108.858 101.899C109.564 101.974 110.306 101.899 111.048 101.565C111.234 101.454 111.456 101.343 111.642 101.231C112.013 100.971 112.347 100.637 112.681 100.229C113.498 99.1529 114.091 97.4827 114.203 95.0703C114.24 94.4394 114.203 93.8455 114.054 93.2146C112.644 91.9527 109.564 89.5403 107.188 89.466C105.11 89.4289 103.069 90.8764 101.881 91.9156Z" fill="#2B5A85"/>
<path d="M104.85 95.9981C104.85 96.3321 105.184 96.629 105.518 96.5919C105.852 96.5919 106.149 96.2579 106.112 95.9239C106.112 95.5898 105.778 95.2929 105.444 95.3301C105.11 95.3301 104.85 95.627 104.85 95.9981Z" fill="#508EE7"/>
<path d="M103.885 93.8829C103.885 94.2169 104.219 94.5138 104.553 94.4767C104.887 94.4767 105.184 94.1427 105.147 93.8086C105.147 93.4746 104.813 93.1777 104.479 93.2148C104.145 93.2148 103.885 93.5117 103.885 93.8829Z" fill="#508EE7"/>
<path d="M81.9505 95.7378L79.7608 102.233C79.5752 102.715 79.0556 102.975 78.5731 102.752L77.7566 102.418C77.3112 102.233 77.0886 101.713 77.2741 101.268L79.7608 94.7729C79.7608 94.7729 80.2433 94.4017 81.0969 94.7729C81.9505 95.1811 81.9505 95.7378 81.9505 95.7378Z" fill="#E9D88D"/>
<path d="M80.0206 95.7384C80.1319 95.7755 80.169 95.924 80.1319 95.9982L78.1649 101.343C78.1277 101.454 77.9793 101.528 77.8679 101.454L77.8308 101.417C77.7195 101.38 77.6824 101.231 77.7195 101.157L79.7237 95.8126C79.7608 95.7755 79.9092 95.7013 80.0206 95.7384Z" fill="#FFD100"/>
<path d="M81.2454 96.072C81.3568 96.1091 81.3939 96.2576 81.3568 96.3689L79.3155 101.973C79.2784 102.085 79.1299 102.159 78.9815 102.085L78.9444 102.047C78.833 102.01 78.7959 101.862 78.833 101.751L80.9114 96.1834C80.9856 96.072 81.1341 96.0349 81.2454 96.072Z" fill="#FFD100"/>
<path d="M82.73 89.2809L82.6558 88.5015L83.9919 89.0211L83.4352 89.5407L82.73 89.2809Z" fill="#FFD100"/>
<path d="M106.372 143.912C105.036 143.764 103.217 143.467 100.953 142.762C97.6499 141.759 93.6044 138.79 91.2662 136.935C89.8559 134.337 90.227 132.815 90.227 132.815C89.9301 136.229 98.3921 140.869 104.59 142.799C104.924 142.91 105.258 142.984 105.592 143.058L106.372 143.912Z" fill="#508EE7"/>
<path d="M118.545 142.168C116.318 143.096 113.052 143.801 111.419 144.098C111.159 143.801 110.9 143.542 110.603 143.245C114.314 142.799 117.098 141.315 117.098 141.315C117.098 141.315 117.506 141.574 118.174 141.723L118.545 142.168Z" fill="#508EE7"/>
<path d="M110.417 154.712C110.417 156.197 109.824 157.533 107.3 157.756C106.929 157.718 106.632 157.681 106.372 157.607C105.221 157.236 105.593 156.345 106.149 155.492C106.372 155.12 106.557 154.712 106.706 154.193C106.966 153.153 107.003 151.743 106.743 150.036C106.632 149.219 106.78 148.588 107.04 148.143C107.337 147.623 107.856 147.289 108.413 147.141C108.487 147.178 108.562 147.178 108.636 147.215C109.081 147.364 109.49 147.623 109.712 148.032C110.269 148.997 110.417 154.044 110.417 154.712Z" fill="#88B1EC"/>
<path d="M122.739 152.821C122.739 154.194 122.182 155.493 119.844 155.716C119.51 155.679 119.213 155.641 118.991 155.567C117.877 155.196 118.248 154.38 118.768 153.563C118.991 153.229 119.176 152.821 119.288 152.338C119.547 151.336 119.584 150.037 119.325 148.404C119.213 147.625 119.362 147.031 119.622 146.623C119.918 146.14 120.364 145.806 120.883 145.658C120.958 145.658 120.995 145.695 121.069 145.732C121.477 145.88 121.886 146.14 122.071 146.511C122.554 147.402 122.739 152.153 122.739 152.821Z" fill="#88B1EC"/>
</svg>
