<svg width="16" height="16" viewBox="0 0 16 16" fill="none" xmlns="http://www.w3.org/2000/svg">
<path d="M8 0C3.59021 0 0 3.59114 0 8C0 12.4098 3.59114 16 8 16C12.4098 16 16 12.4089 16 8C16 3.59021 12.4096 0 8 0ZM11.0325 10.2332C11.2369 10.4566 11.2369 10.81 11.0325 11.0145C10.9398 11.1262 10.7908 11.1816 10.6419 11.1816C10.4929 11.1816 10.363 11.1262 10.2512 11.0145L8.01814 8.78139L5.78508 11.0145C5.69241 11.1262 5.54341 11.1816 5.39443 11.1816C5.07827 11.1816 4.83663 10.9399 4.83663 10.6238C4.83663 10.4748 4.89205 10.3449 5.00379 10.2332L7.23685 8.0001L5.00379 5.76704C4.7803 5.54356 4.79938 5.19015 5.02196 4.98574C5.24545 4.78133 5.5616 4.78133 5.78507 4.98574L8.01813 7.2188L10.2512 4.98574C10.4747 4.76226 10.8281 4.78133 11.0325 5.00391C11.2369 5.2274 11.2369 5.54355 11.0325 5.76703L8.79943 8.00009L11.0325 10.2332Z" fill="#707585"/>
</svg>
