<svg width="46" height="46" viewBox="0 0 46 46" fill="none" xmlns="http://www.w3.org/2000/svg">
<path d="M23 0C10.3145 0 0 10.3145 0 23C0 35.6855 10.3145 46 23 46C35.6855 46 46 35.6855 46 23C46 10.3145 35.6855 0 23 0ZM23 3C34.0625 3 43 11.9375 43 23C43 34.0625 34.0625 43 23 43C11.9375 43 3 34.0625 3 23C3 11.9375 11.9375 3 23 3ZM14.5 13.5C12.5664 13.5 11 15.0664 11 17C11 18.9336 12.5664 20.5 14.5 20.5C16.4336 20.5 18 18.9336 18 17C18 15.0664 16.4336 13.5 14.5 13.5ZM31.5 13.5C29.5664 13.5 28 15.0664 28 17C28 18.9336 29.5664 20.5 31.5 20.5C33.4336 20.5 35 18.9336 35 17C35 15.0664 33.4336 13.5 31.5 13.5ZM11.844 27.5C11.3616 27.5273 10.9221 27.8008 10.6565 28.2812C10.4026 28.7656 10.4377 29.3808 10.7502 29.8281C13.4319 33.8399 17.9242 36.5001 23.0002 36.5001C28.0762 36.5001 32.5687 33.84 35.2502 29.8281C35.6877 29.1738 35.4983 28.1875 34.844 27.75C34.1897 27.3125 33.1877 27.502 32.7502 28.1563C30.5842 31.3965 27.0332 33.5003 23.0002 33.5003C18.9672 33.5003 15.4162 31.3968 13.2502 28.1563C12.844 27.6797 12.3264 27.4727 11.844 27.5V27.5Z" fill="#FECA3A"/>
</svg>
