<svg width="356" height="538" viewBox="0 0 356 538" fill="none" xmlns="http://www.w3.org/2000/svg">
<path fill-rule="evenodd" clip-rule="evenodd" d="M472.782 475.58C503.637 468.632 528.645 436.661 541.091 407.571C553.536 378.482 554.419 345.56 549.421 314.371C545.139 288.131 536.409 262.057 519.998 241.165C497.806 212.841 461.203 192.549 455.372 157.112C450.373 127.122 470.366 95.9503 461.286 66.8775C453.272 41.0201 425.582 27.0585 399.642 19.0781C377.595 12.283 354.923 7.71186 331.966 5.43299L299.228 2.10086C196.049 -5.72964 116.96 8.41524 40.3547 43.1027C18.0154 53.438 -2.4198 67.4689 -20.0901 84.6044C-37.3172 101.265 -49.7294 123.974 -50.0793 147.915C-50.4625 170.69 -40.0829 192.582 -25.6881 210.242C-12.3596 226.536 5.03418 241.314 8.89945 261.89C13.5978 286.881 -3.51276 310.523 -20.8065 329.266C-38.1003 348.009 -57.7432 367.885 -59.7425 393.31C-61.5585 416.318 -47.5468 438.427 -28.7536 451.822C-9.96041 465.217 13.0479 471.248 35.7397 475.447L472.782 475.58Z" fill="#D9E2F2"/>
<path fill-rule="evenodd" clip-rule="evenodd" d="M549.338 314.371C548.638 310.123 547.839 305.891 546.889 301.676V301.593C546.606 300.326 546.306 299.06 546.006 297.794V297.677C545.384 295.145 544.718 292.629 544.007 290.13V289.98C543.657 288.781 543.29 287.581 542.924 286.398L542.824 286.048L541.674 282.483C541.668 282.427 541.668 282.372 541.674 282.316C541.241 281.05 540.808 279.767 540.341 278.518C539.908 277.318 539.458 276.135 539.009 274.952H503.172V222.954C488.793 208.859 473.182 195.564 463.603 179.37H447.958V230.735H431.631V207.527H379.316V174.205H365.005V155.212H350.993V174.239H336.682V223.021H354.325V256.342H286.55V207.527H159.246V129.638H141.969V112.461H136.837V101.048H132.839V85.354H129.973V101.048H125.974V112.461H120.843V129.638H102.183V233.567H82.6567V202.395H21.1955V138.868H-17.3239V184.235H-42.1149C-37.7999 193.596 -32.3014 202.364 -25.7542 210.326C-12.4256 226.62 4.96809 241.398 8.83337 261.974C9.84598 267.438 9.88548 273.039 8.95 278.518C8.8667 279.051 8.76672 279.584 8.66675 280.184C8.55013 280.767 8.4335 281.333 8.30022 281.85V281.983C8.18359 282.483 8.06696 282.983 7.93368 283.482L7.83372 283.816C7.71709 284.282 7.60046 284.732 7.46718 285.182C7.434 285.275 7.4062 285.369 7.3839 285.465C7.05068 286.565 6.70077 287.664 6.30092 288.797C6.30592 288.886 6.30592 288.975 6.30092 289.064L5.80112 290.397L5.65118 290.763C5.48457 291.207 5.30132 291.657 5.10139 292.113C5.08375 292.194 5.05573 292.272 5.01807 292.346C4.56823 293.412 4.10172 294.479 3.6019 295.528L3.41866 295.878C3.23539 296.294 3.03545 296.694 2.83552 297.111L2.6356 297.477C2.40236 297.944 2.16912 298.41 1.91921 298.86V299.01L1.0695 300.576L0.919559 300.843L0.219788 302.076L-0.0301132 302.509L-0.713203 303.625C-0.713203 303.759 -0.863125 303.892 -0.946426 304.025C-6.68489 313.101 -13.2973 321.594 -20.6893 329.383C-37.9997 348.109 -57.626 368.002 -59.6253 393.426C-61.4413 416.434 -47.4297 438.543 -28.6364 451.938C-9.84323 465.333 13.1651 471.365 35.8569 475.563H472.782C503.638 468.616 528.646 436.644 541.091 407.554C553.537 378.465 554.436 345.56 549.338 314.371Z" fill="#B7C8E7"/>
<path fill-rule="evenodd" clip-rule="evenodd" d="M284.351 395.759C169.592 395.759 54.8224 395.725 -59.9584 395.659C-60.7248 417.867 -47.0297 438.976 -28.8363 451.955C-10.0264 465.284 12.9653 471.381 35.6571 475.58H472.783C503.638 468.632 528.646 436.661 541.091 407.571C542.757 403.706 544.19 399.757 545.44 395.775L284.351 395.759Z" fill="#C9D6ED"/>
<path d="M86.039 65.7441V156.895H76.6258V124.156H37.5732V174.871H27.4769V112.611H-0.146484V138.834H21.1958V202.395H82.6569V233.567H102.183V129.638H118.361V65.7441H86.039Z" fill="#C9D6ED"/>
<path d="M409.189 194.132H391.678V76.6577H354.658V145.35H320.321V106.18H266.474V182.586H234.818V137.003H194.383V92.7019H137.887V112.461H141.969V129.639H159.246V207.527H286.55V256.31H354.325V222.988H336.698V174.239H350.993V155.213H364.955V174.239H379.316V207.56H431.631V230.769H447.958V179.371H463.603C459.46 172.537 456.634 164.987 455.272 157.112C454.068 148.507 454.265 139.764 455.855 131.221H409.205L409.189 194.132Z" fill="#C9D6ED"/>
<path d="M169.592 537.791H237.418C237.784 526.612 239.617 477.08 243.549 475.114C247.481 473.148 260.626 521.964 264.858 537.791H327.185C326.585 519.814 323.403 429.78 320.204 418.618C316.656 406.205 170.875 430.147 170.875 430.147C170.875 430.147 169.109 472.232 169.542 496.606C169.909 516.049 169.692 532.06 169.592 537.791Z" fill="#333B52"/>
<g style="mix-blend-mode:multiply">
<path d="M322.67 440.843C321.887 429.847 321.004 421.533 320.221 418.618C316.672 406.205 170.892 430.147 170.892 430.147C170.892 430.147 170.592 437.461 170.259 447.774C179.272 449.04 201.447 451.456 238.251 451.106C283.868 450.789 312.824 443.758 322.67 440.843Z" fill="#C0C2C9"/>
</g>
<path d="M151.382 241.815C151.382 241.815 157.696 211.109 173.374 198.997C189.052 186.884 216.075 182.886 226.688 181.103C237.301 179.32 278.536 184.652 287.849 187.767C297.163 190.883 313.107 293.229 316.639 324.251C320.171 355.274 326.386 430.596 326.386 430.596C326.386 430.596 295.38 441.226 238.217 441.676C188.585 442.059 165.544 437.694 165.544 437.694L151.382 241.815Z" fill="#F4783B"/>
<g style="mix-blend-mode:multiply">
<path d="M224.989 185.517C227.531 185.947 230.111 186.103 232.686 185.984C235.319 185.984 237.934 185.784 240.55 185.501C243.178 185.225 245.788 184.791 248.364 184.201C250.507 183.675 252.59 182.927 254.578 181.969C258.278 180.2 261.733 177.96 264.858 175.304C264.341 169.606 263.492 161.476 263.492 161.476L216.958 161.926L217.775 183.351C220.124 184.248 222.535 184.972 224.989 185.517Z" fill="#DADCE0"/>
</g>
<path d="M204.38 77.6232C204.38 77.6232 194.383 95.2002 193.3 115.543C192.217 135.886 195.5 151.796 210.328 161.676C225.156 171.556 254.278 169.373 262.509 165.008C270.739 160.643 282.285 129.854 285.567 116.692C288.849 103.531 279.536 78.7228 266.357 68.893C253.179 59.0632 213.077 58.8966 204.38 77.6232Z" fill="#F7A374"/>
<path d="M263.492 161.61C263.492 161.61 265.258 178.454 265.258 180.67C265.258 182.886 272.355 184.652 272.355 184.652C272.355 184.652 263.875 215.79 233.802 212.125C203.73 208.46 219.258 180.187 217.841 185.468L216.958 161.993L263.492 161.61Z" fill="#F7A374"/>
<path d="M193.184 118.625C195.961 114.583 198.201 110.198 199.848 105.58C201.54 99.2645 201.677 92.6333 200.248 86.2534C196.366 95.5776 194.02 105.469 193.3 115.543C193.25 116.559 193.217 117.592 193.184 118.625Z" fill="#333B52"/>
<path d="M199.881 124.957C199.881 124.957 194.566 110.446 187.152 114.961C179.738 119.476 184.003 132.521 190.168 138.286C196.332 144.05 204.413 144.683 206.479 138.919C208.545 133.154 199.881 124.957 199.881 124.957Z" fill="#F7A374"/>
<g style="mix-blend-mode:multiply">
<g style="mix-blend-mode:multiply">
<path d="M228.854 118.576C228.59 120.301 228.517 122.049 228.638 123.79C228.599 125.465 228.444 127.135 228.171 128.789C227.905 130.431 227.538 132.056 227.071 133.653C226.399 135.236 226.032 136.932 225.989 138.652C225.989 138.985 226.405 139.335 226.738 139.085C228.022 137.904 228.912 136.357 229.287 134.653C229.844 132.897 230.278 131.104 230.587 129.288C230.892 127.481 231.081 125.655 231.153 123.824C231.359 121.987 231.137 120.128 230.504 118.392C230.412 118.239 230.277 118.116 230.117 118.039C229.956 117.961 229.776 117.932 229.6 117.955C229.423 117.978 229.256 118.052 229.121 118.168C228.986 118.284 228.887 118.438 228.837 118.609L228.854 118.576Z" fill="#C2C4CB"/>
</g>
</g>
<path d="M247.364 108.062C249.284 107.829 251.226 107.829 253.146 108.062C253.562 108.146 253.979 108.246 254.379 108.362L254.878 108.529L255.212 108.662H255.312C255.845 108.912 256.028 108.995 256.678 109.262C257.086 109.447 257.518 109.576 257.961 109.645L257.294 109.462C257.727 109.73 258.219 109.89 258.727 109.928C258.954 109.924 259.17 109.831 259.329 109.669C259.488 109.507 259.577 109.289 259.577 109.062C259.567 108.561 259.411 108.075 259.127 107.663C258.801 107.073 258.338 106.57 257.777 106.196C256.828 105.579 255.762 105.165 254.645 104.98C253.425 104.72 252.173 104.642 250.93 104.747C249.617 104.91 248.316 105.149 247.031 105.463C245.665 105.78 245.915 108.062 247.364 107.962V108.062Z" fill="#333B52"/>
<path d="M216.525 104.098C214.506 103.912 212.47 104.116 210.527 104.697C209.518 104.999 208.55 105.424 207.645 105.964C207.183 106.244 206.753 106.574 206.362 106.947C206.117 107.147 205.903 107.382 205.729 107.646C205.602 107.894 205.507 108.158 205.446 108.429C205.408 108.58 205.405 108.737 205.437 108.889C205.468 109.041 205.534 109.184 205.628 109.308C205.723 109.431 205.844 109.531 205.982 109.601C206.121 109.671 206.273 109.709 206.429 109.712C206.617 109.729 206.807 109.729 206.995 109.712C207.29 109.688 207.579 109.609 207.845 109.479C208.161 109.379 208.428 109.312 208.745 109.179L209.128 109.013C209.594 108.813 210.061 108.663 210.511 108.446C210.96 108.229 210.727 108.446 210.511 108.446L210.827 108.313L211.477 108.063C213.094 107.451 214.768 107.005 216.475 106.73C216.662 106.751 216.85 106.732 217.029 106.675C217.208 106.618 217.372 106.524 217.512 106.399C217.652 106.274 217.764 106.121 217.841 105.95C217.917 105.779 217.957 105.593 217.957 105.405C217.957 105.218 217.917 105.032 217.841 104.861C217.764 104.69 217.652 104.537 217.512 104.412C217.372 104.287 217.208 104.193 217.029 104.136C216.85 104.079 216.662 104.06 216.475 104.081L216.525 104.098Z" fill="#333B52"/>
<path d="M277.403 127.956C279.494 126.05 281.785 124.374 284.234 122.958C285.25 122.308 286.566 122.091 287.416 121.292C292.031 116.527 295.38 103.181 293.281 95.3009C291.331 87.9702 284.434 79.24 275.92 83.3219C275.579 83.4944 275.316 83.7894 275.183 84.1477C275.05 84.5061 275.058 84.9014 275.204 85.2545C275.131 85.3089 275.068 85.3768 275.021 85.4545C267.49 97.7833 268.74 114.444 276.387 126.456C276.67 126.856 277.003 127.439 277.403 127.956Z" fill="#333B52"/>
<g style="mix-blend-mode:multiply">
<path d="M293.281 95.2506C291.332 87.9199 284.434 79.1897 275.92 83.2716C275.579 83.4441 275.316 83.7391 275.183 84.0974C275.05 84.4558 275.058 84.8511 275.204 85.2042C275.131 85.2586 275.069 85.3265 275.021 85.4042C272.431 89.7265 270.806 94.5572 270.256 99.5657L272.872 100.899C276.333 102.588 279.399 104.989 281.868 107.946C284.395 111.195 285.824 115.162 285.95 119.275C286.008 120.252 286.008 121.231 285.95 122.208C286.524 121.988 287.05 121.66 287.5 121.241C292.031 116.476 295.38 103.131 293.281 95.2506Z" fill="#B7BAC2"/>
</g>
<path d="M293.131 110.546C293.131 110.546 303.211 75.3251 274.321 55.0658C245.431 34.8064 216.375 52.6 207.862 61.3802C199.348 70.1603 195.5 83.6222 195.5 83.6222C195.5 83.6222 226.255 79.2404 248.23 84.7218C270.206 90.2031 293.131 110.546 293.131 110.546Z" fill="#F4783B"/>
<g style="mix-blend-mode:multiply">
<path d="M274.354 55.0988C272.682 53.9411 270.953 52.868 269.173 51.8833C270.163 55.5986 270.766 59.4064 270.972 63.2459C271.305 69.0271 270.856 75.2082 267.457 79.9065C264.482 83.696 260.208 86.2484 255.461 87.0706C274.954 94.4679 293.164 110.595 293.164 110.595C293.164 110.595 303.211 75.3582 274.354 55.0988Z" fill="#D2D4D9"/>
</g>
<path d="M277.686 96.0167C277.686 96.0167 251.329 77.0736 218.108 77.69C184.887 78.3065 171.925 89.2192 170.275 95.267C168.626 101.315 177.889 105.263 201.781 106.546C225.672 107.829 245.015 107.346 255.178 104.88C262.947 102.654 270.485 99.6856 277.686 96.0167Z" fill="#F4783B"/>
<g style="mix-blend-mode:multiply">
<path d="M262.025 95.9499C248.847 100.682 235.651 102.031 221.657 101.914C206.662 101.814 193.933 101.914 179.588 97.3993C174.474 95.7333 172.624 93.8173 172.124 92.0513C171.253 92.943 170.592 94.0191 170.192 95.2001C168.526 101.231 177.806 105.197 201.697 106.479C225.588 107.762 244.931 107.279 255.094 104.813C262.89 102.613 270.456 99.6675 277.686 96.0165C277.686 96.0165 275.437 94.3504 271.422 92.1346C268.433 93.7332 265.283 95.0121 262.025 95.9499Z" fill="#CCCED4"/>
</g>
<path d="M291.782 122.79C284.368 118.259 276.121 130.204 276.121 130.204C274.201 132.114 272.522 134.251 271.122 136.569C271.356 137.035 271.589 137.518 271.805 137.985C273.038 140.717 272.022 142.033 272.488 144.999C272.508 145.081 272.508 145.167 272.488 145.249C272.672 145.532 272.872 145.832 273.038 146.132C273.172 146.379 273.289 146.635 273.388 146.898C273.433 147.04 273.466 147.185 273.488 147.331C278.786 147.182 287.5 144.149 291.398 140.501C297.546 134.736 299.196 127.322 291.782 122.79Z" fill="#F7A374"/>
<path d="M250.33 118.642C251.318 119.125 252.142 119.888 252.699 120.836C253.256 121.785 253.521 122.876 253.462 123.974C253.202 125.159 253.301 126.394 253.745 127.522C253.892 127.737 254.097 127.904 254.336 128.005C254.576 128.105 254.839 128.134 255.095 128.089C255.561 127.83 255.917 127.409 256.094 126.906C256.441 125.66 256.549 124.36 256.411 123.074C256.366 122.088 256.186 121.113 255.878 120.175C255.328 118.751 254.358 117.529 253.095 116.672C251.833 115.815 250.339 115.363 248.813 115.377C247.688 115.313 246.564 115.54 245.552 116.036C244.539 116.532 243.671 117.28 243.032 118.209C242.308 119.227 241.746 120.351 241.366 121.541C240.959 123.025 240.736 124.552 240.7 126.09C240.714 126.305 240.803 126.509 240.951 126.667C241.099 126.824 241.297 126.926 241.512 126.953C241.726 126.981 241.944 126.933 242.127 126.818C242.31 126.703 242.447 126.528 242.516 126.323C242.797 124.983 243.187 123.668 243.682 122.391C244.008 121.382 244.599 120.478 245.393 119.775C246.187 119.072 247.156 118.594 248.197 118.392C248.917 118.287 249.653 118.373 250.33 118.642Z" fill="#333B52"/>
<path d="M215.376 115.96C216.288 116.503 217.031 117.29 217.522 118.231C218.013 119.173 218.233 120.232 218.158 121.291C217.918 122.475 218.004 123.701 218.408 124.84C218.523 125.048 218.701 125.215 218.916 125.317C219.131 125.419 219.373 125.45 219.607 125.406C220.029 125.129 220.336 124.709 220.474 124.223C220.782 122.971 220.884 121.677 220.774 120.391C220.729 119.409 220.567 118.436 220.29 117.493C219.894 116.133 219.075 114.934 217.951 114.071C216.828 113.209 215.459 112.726 214.043 112.694C213.011 112.645 211.987 112.884 211.083 113.385C210.18 113.885 209.434 114.626 208.928 115.527C208.268 116.556 207.768 117.679 207.445 118.859C207.082 120.348 206.886 121.874 206.862 123.407C206.831 123.628 206.889 123.852 207.023 124.03C207.158 124.208 207.357 124.326 207.578 124.357C207.799 124.388 208.023 124.33 208.202 124.195C208.38 124.061 208.497 123.861 208.528 123.64C208.78 122.307 209.125 120.993 209.561 119.708C209.804 118.743 210.305 117.862 211.009 117.158C211.713 116.454 212.594 115.953 213.56 115.71C214.176 115.622 214.805 115.708 215.376 115.96Z" fill="#333B52"/>
<path d="M208.095 238.715C208.095 238.715 220.141 209.659 226.422 201.279C232.703 192.898 239.933 192.848 240.816 199.496C241.699 206.144 231.07 236.05 228.188 241.364C225.305 246.679 219.108 251.777 214.009 251.127C208.911 250.478 208.095 238.715 208.095 238.715Z" fill="#117D5D"/>
<g style="mix-blend-mode:multiply">
<path d="M218.958 226.753C219.108 221.755 224.806 207.477 228.354 199.063C227.696 199.77 227.073 200.51 226.488 201.279C220.141 209.609 208.162 238.715 208.162 238.715C208.162 238.715 209.045 250.378 214.143 251.128C219.241 251.877 225.455 246.696 228.321 241.364C229.193 239.628 229.977 237.848 230.67 236.033C226.622 236 218.774 232.584 218.958 226.753Z" fill="#B5B9C1"/>
</g>
<path d="M216.958 242.414C216.958 242.414 232.253 235.167 232.686 234.284C232.874 233.1 232.8 231.888 232.469 230.735C232.469 230.735 238.234 233.618 240 242.931C241.766 252.244 240 288.781 239.334 299.194C238.667 309.607 238.9 359.689 240.233 368.769C241.566 377.849 241.116 393.577 240.883 397.792C240.65 402.007 225.389 413.969 217.841 413.736C210.294 413.503 209.211 358.139 209.878 347.093C210.544 336.047 208.328 317.104 207.212 310.756C206.096 304.409 216.958 242.414 216.958 242.414Z" fill="#F1CD89"/>
<path d="M216.959 242.414C216.959 242.414 216.809 243.314 216.525 244.897C217.956 244.616 219.365 244.232 220.741 243.747C224.434 242.507 227.883 240.635 230.937 238.216C232.328 237.136 233.528 235.829 234.486 234.351C234.767 233.902 235.007 233.428 235.202 232.935C234.414 232.061 233.491 231.319 232.47 230.735C232.8 231.888 232.874 233.1 232.686 234.284C232.253 235.167 216.959 242.414 216.959 242.414Z" fill="#FBF1DF"/>
<g style="mix-blend-mode:multiply">
<path d="M216.958 242.414C216.958 242.414 232.253 235.167 232.686 234.284C232.874 233.1 232.8 231.888 232.469 230.735C232.469 230.735 238.234 233.618 240 242.931C241.766 252.244 240 288.781 239.334 299.194C238.667 309.607 238.9 359.689 240.233 368.769C241.566 377.849 241.116 393.577 240.883 397.792C240.65 402.007 225.389 413.969 217.841 413.736C210.294 413.503 209.211 358.139 209.878 347.093C210.544 336.047 208.328 317.104 207.212 310.756C206.096 304.409 216.958 242.414 216.958 242.414Z" fill="#DADCE0"/>
</g>
<path d="M177.839 245.497C177.839 245.497 180.305 185.519 182.354 183.936C184.404 182.353 212.344 182.27 214.293 183.936C216.242 185.602 210.694 244.197 208.445 245.247C206.196 246.297 177.839 245.497 177.839 245.497Z" fill="#F5DD7E"/>
<g style="mix-blend-mode:multiply">
<path d="M184.27 238.682C180.805 236.566 184.887 201.012 185.687 190.366C185.713 187.694 186.634 185.107 188.302 183.019C186.28 183.001 184.27 183.322 182.354 183.968C180.305 185.635 177.839 245.53 177.839 245.53C177.839 245.53 206.162 246.296 208.445 245.263C208.811 245.08 209.278 243.33 209.778 240.531C202.38 240.498 186.903 240.281 184.27 238.682Z" fill="#F6E0B7"/>
</g>
<path d="M207.545 187.468C207.545 188.517 207.362 189.584 207.262 190.633C207.162 191.683 207.262 192.766 207.262 193.815C207.262 195.981 207.262 198.147 207.162 200.313C207.062 202.479 206.996 204.545 206.896 206.677C206.838 207.754 206.838 208.833 206.896 209.91C207.013 210.961 207.23 211.999 207.545 213.008C207.572 213.095 207.623 213.173 207.692 213.231C207.762 213.29 207.847 213.326 207.937 213.337C208.028 213.347 208.119 213.332 208.2 213.291C208.282 213.25 208.349 213.187 208.395 213.108C208.88 212.184 209.271 211.213 209.561 210.209C209.81 209.113 209.971 207.999 210.044 206.877C210.194 204.728 210.228 202.562 210.244 200.396C210.261 198.23 210.244 196.065 210.111 193.899C210.111 192.816 209.978 191.716 209.811 190.65C209.645 189.584 209.395 188.434 209.178 187.318C208.962 186.201 207.645 186.668 207.512 187.534L207.545 187.468Z" fill="#FCF4E5"/>
<path d="M206.046 217.29C206.046 218.073 205.963 218.856 205.963 219.639C205.963 219.822 205.963 220.022 205.963 220.206C205.953 220.3 205.953 220.395 205.963 220.489C205.963 220.605 205.963 220.605 205.963 220.489C205.963 220.372 205.963 220.672 205.963 220.755C205.995 220.938 206.045 221.116 206.112 221.289V221.455C206.17 221.672 206.279 221.872 206.429 222.038C206.472 222.083 206.524 222.118 206.581 222.142C206.639 222.166 206.7 222.178 206.762 222.178C206.824 222.178 206.886 222.166 206.943 222.142C207 222.118 207.052 222.083 207.095 222.038C207.256 221.877 207.371 221.676 207.429 221.455C207.429 221.455 207.429 221.222 207.429 221.322L207.529 221.055C207.552 220.957 207.552 220.854 207.529 220.755C207.529 220.755 207.529 220.572 207.529 220.489C207.529 220.406 207.529 220.589 207.529 220.489V220.256C207.529 220.056 207.529 219.839 207.529 219.639C207.529 218.856 207.529 218.073 207.529 217.29C207.477 217.109 207.368 216.95 207.217 216.836C207.067 216.723 206.884 216.662 206.696 216.662C206.507 216.662 206.324 216.723 206.174 216.836C206.024 216.95 205.914 217.109 205.863 217.29H206.046Z" fill="#FCF4E5"/>
<path d="M144.285 210.792C143.851 210.792 134.538 204.894 131.439 196.764C128.89 190.1 129.073 183.919 134.105 182.286C139.136 180.653 142.519 179.187 140.153 174.755C137.787 170.324 129.073 163.526 133.805 156.878C138.537 150.231 151.532 149.198 155.464 157.778C159.396 166.358 159.596 167.774 162.561 167.225C165.527 166.675 172.158 161.177 177.173 167.075C182.188 172.973 179.539 182.586 177.473 185.985C175.407 189.383 173.341 192.032 175.107 194.998C176.873 197.964 179.688 200.163 178.072 206.361C176.456 212.558 171.408 218.923 167.726 220.106C164.044 221.288 144.285 210.792 144.285 210.792Z" fill="#A5D563"/>
<path d="M147.35 168.974C150.316 174.622 150.799 181.186 151.565 187.417C152.398 194.081 153.398 200.862 154.064 207.61C154.264 209.526 154.431 211.458 154.581 213.391C154.664 214.357 154.731 215.307 154.797 216.273C154.819 217.184 154.908 218.092 155.064 218.989C155.064 219.355 155.614 219.222 155.647 218.906C155.716 217.146 155.627 215.384 155.38 213.641C155.247 211.975 155.097 210.309 154.931 208.526C154.614 205.061 154.298 201.612 153.898 198.163C153.498 194.714 153.098 191.499 152.632 188.067C152.165 184.635 151.798 181.652 151.149 178.47C150.52 175.071 149.397 171.782 147.817 168.707C147.65 168.407 147.2 168.707 147.367 168.974H147.35Z" fill="#117D5D"/>
<path d="M156.147 214.608C158.446 203.945 160.579 193.082 166.143 183.536C166.893 182.236 167.693 180.953 168.509 179.67C169.44 178.339 170.291 176.954 171.058 175.522C171.175 175.255 170.842 174.939 170.625 175.189C168.87 177.36 167.341 179.705 166.06 182.186C164.665 184.604 163.413 187.102 162.311 189.667C160.216 194.7 158.544 199.9 157.313 205.211C156.58 208.26 155.997 211.326 155.397 214.391C155.314 214.841 155.98 215.024 156.08 214.591L156.147 214.608Z" fill="#117D5D"/>
<path d="M150.533 207.876C149.859 206.269 149.362 204.593 149.05 202.878C148.7 201.451 148.197 200.066 147.55 198.746C146.39 195.987 144.465 193.617 142.002 191.915C141.752 191.782 141.419 192.065 141.586 192.315C142.369 193.482 143.252 194.515 144.135 195.647C145.079 196.84 145.91 198.117 146.617 199.463C147.334 200.784 147.958 202.153 148.483 203.561C148.951 205.135 149.508 206.682 150.149 208.193C150.266 208.426 150.633 208.193 150.516 207.976L150.533 207.876Z" fill="#117D5D"/>
<path d="M161.645 214.557C163.317 211.73 165.217 209.044 167.326 206.527C168.342 205.294 169.409 204.127 170.508 202.978L172.174 201.312C172.771 200.775 173.297 200.165 173.74 199.496C173.771 199.437 173.783 199.37 173.774 199.304C173.765 199.238 173.735 199.177 173.689 199.129C173.643 199.081 173.582 199.049 173.517 199.037C173.452 199.025 173.384 199.034 173.324 199.063C172.595 199.431 171.932 199.915 171.358 200.495C170.758 201.051 170.203 201.606 169.692 202.162C168.559 203.378 167.459 204.644 166.36 205.943C164.311 208.523 162.483 211.271 160.895 214.157C160.861 214.252 160.86 214.356 160.895 214.451C160.929 214.546 160.995 214.627 161.082 214.678C161.169 214.729 161.271 214.749 161.371 214.733C161.471 214.717 161.562 214.666 161.628 214.59L161.645 214.557Z" fill="#117D5D"/>
<g style="mix-blend-mode:multiply">
<path d="M144.285 210.792C143.851 210.792 134.538 204.894 131.439 196.764C128.89 190.1 129.073 183.919 134.105 182.286C139.136 180.653 142.519 179.187 140.153 174.755C137.787 170.324 129.073 163.526 133.805 156.878C138.537 150.231 151.532 149.198 155.464 157.778C159.396 166.358 159.596 167.774 162.561 167.225C165.527 166.675 172.158 161.177 177.173 167.075C182.188 172.973 179.539 182.586 177.473 185.985C175.407 189.383 173.341 192.032 175.107 194.998C176.873 197.964 179.688 200.163 178.072 206.361C176.456 212.558 171.408 218.923 167.726 220.106C164.044 221.288 144.285 210.792 144.285 210.792Z" fill="#D6D8DC"/>
</g>
<g style="mix-blend-mode:multiply">
<path d="M133.805 156.878C129.074 163.542 137.787 170.323 140.153 174.755C141.536 177.354 140.953 178.937 139.22 180.12C139.817 179.927 140.38 179.64 140.886 179.27C141.664 178.567 142.231 177.663 142.525 176.657C142.819 175.651 142.829 174.583 142.552 173.572C141.967 171.56 140.93 169.708 139.52 168.157C138.103 166.631 136.858 164.955 135.805 163.159C134.579 160.821 134.299 158.101 135.021 155.562C134.577 155.963 134.17 156.404 133.805 156.878Z" fill="#D6D8DC"/>
</g>
<g style="mix-blend-mode:multiply">
<path d="M140.32 202.646C135.905 197.864 132.339 191.7 132.789 185.202C132.804 184.406 133.004 183.625 133.372 182.92C133.468 182.754 133.58 182.598 133.705 182.453C129.09 184.286 128.974 190.3 131.44 196.765C134.538 204.895 143.852 210.793 144.285 210.793C144.285 210.793 148.833 213.209 153.981 215.591C149.7 211.009 144.585 207.261 140.32 202.646Z" fill="#D6D8DC"/>
</g>
<g style="mix-blend-mode:multiply">
<path d="M176.49 201.063C177.378 201.974 178.07 203.057 178.522 204.246C179.055 199.597 176.706 197.581 175.19 194.999C173.424 192.033 175.49 189.384 177.556 185.985C178.85 183.635 179.671 181.054 179.972 178.388C179.413 180.138 178.538 181.77 177.389 183.203C175.775 184.841 174.251 186.565 172.824 188.368C171.893 189.745 171.396 191.37 171.396 193.033C171.396 194.696 171.893 196.32 172.824 197.698C173.981 198.888 175.205 200.012 176.49 201.063Z" fill="#D6D8DC"/>
</g>
<g style="mix-blend-mode:multiply">
<path d="M162.612 167.192C159.646 167.775 159.513 166.309 155.514 157.745C154.894 156.388 153.977 155.187 152.832 154.23C153.039 154.647 153.223 155.075 153.382 155.513C154.615 158.945 154.431 162.727 155.547 166.176C156.231 168.242 157.73 170.391 159.896 170.491C162.062 170.591 163.861 168.425 165.477 166.775C165.992 166.267 166.549 165.805 167.143 165.393C165.671 166.084 164.157 166.685 162.612 167.192Z" fill="#D6D8DC"/>
</g>
<path d="M119.777 242.164C119.777 242.164 122.209 209.592 144.951 203.095C167.693 196.597 173.824 212.325 175.907 221.188C177.989 230.052 177.723 246.246 177.723 246.246L119.777 242.164Z" fill="#F7A374"/>
<g style="mix-blend-mode:multiply">
<path d="M156.547 235.167C154.331 230.735 154.331 220.539 148.583 214.341C142.835 208.143 138.087 210.643 137.054 209.76C136.587 209.36 136.937 207.96 137.454 206.527C121.643 217.074 119.777 242.114 119.777 242.114L177.723 246.246C177.723 246.246 177.723 243.614 177.723 239.882C174.007 239.765 158.513 239.082 156.547 235.167Z" fill="#F0C87D"/>
</g>
<path d="M84.4229 247.579C84.4229 247.579 70.4612 213.008 65.1465 186.434C59.8317 159.861 66.2461 148.548 75.1429 154.079C84.0397 159.611 99.9673 202.595 105.948 218.773C111.93 234.95 115.245 246.463 112.613 248.012C109.98 249.562 84.4229 247.579 84.4229 247.579Z" fill="#ECBB5F"/>
<path d="M85.389 201.762C84.2458 204.659 83.2505 207.612 82.4068 210.609C81.5006 214.26 80.8768 217.975 80.5408 221.722C80.1094 223.814 80.3726 225.99 81.2905 227.919C81.3891 228.129 81.5305 228.316 81.7055 228.468C81.8805 228.62 82.0853 228.734 82.3068 228.802C83.0899 228.969 83.7563 228.203 84.1561 227.52C85.0622 225.914 85.8474 224.244 86.5053 222.521C89.0278 216.854 90.9595 210.941 92.2699 204.878C92.6531 202.729 94.6023 190.733 89.1377 193.748C86.9551 194.948 86.222 199.58 85.389 201.762Z" fill="#F5DBAA"/>
<path d="M94.9525 220.339C93.8013 223.229 92.8003 226.176 91.9535 229.169C91.0543 232.821 90.4361 236.536 90.1042 240.282C89.6589 242.377 89.9165 244.562 90.8373 246.496C90.9378 246.703 91.0799 246.887 91.2548 247.036C91.4297 247.185 91.6336 247.296 91.8536 247.363C92.6533 247.529 93.303 246.779 93.7196 246.08C94.6167 244.472 95.3963 242.802 96.0521 241.081C98.587 235.424 100.519 229.516 101.817 223.454C102.217 221.289 104.166 209.293 98.6845 212.325C96.5019 213.508 95.7689 218.14 94.9525 220.339Z" fill="#F5DBAA"/>
<g style="mix-blend-mode:multiply">
<path d="M65.1964 186.435C70.5112 213.008 84.4728 247.579 84.4728 247.579C84.4728 247.579 109.947 249.578 112.613 248.012C114.162 247.113 113.662 242.764 111.78 236.067C106.582 236.366 91.287 236.3 82.5568 225.87C74.5597 216.324 67.3956 192.749 64.3301 181.636C64.58 183.169 64.8632 184.768 65.1964 186.435Z" fill="#E0E2E5"/>
</g>
<path d="M108.614 226.304C108.614 226.304 94.4194 187.534 91.0873 175.122C87.7552 162.71 87.5386 160.128 87.5386 160.128C89.331 158.303 91.537 156.937 93.9696 156.146C97.7349 155.029 99.2843 156.579 99.5009 158.578C99.7175 160.577 104.816 189.6 107.481 198.68C110.147 207.76 116.128 224.388 116.128 224.388L108.614 226.304Z" fill="#117D5D"/>
<g opacity="0.65">
<path opacity="0.65" d="M95.819 158.078C96.2074 163.171 96.9141 168.235 97.9349 173.24C98.418 175.755 98.9179 178.238 99.4844 180.77C99.7843 182.036 100.134 183.286 100.501 184.536C100.726 185.744 101.055 186.932 101.484 188.084C101.484 188.201 101.75 188.084 101.734 188.084C101.533 186.872 101.249 185.675 100.884 184.502C100.617 183.219 100.367 181.936 100.084 180.67C99.5343 178.204 99.0012 175.672 98.5847 173.256C97.7183 168.258 97.0186 163.143 96.3188 158.078C96.3188 157.795 95.8023 157.862 95.819 158.078Z" fill="#A5D563"/>
</g>
<g opacity="0.65">
<path opacity="0.65" d="M102.533 193.282C102.716 194.081 102.933 194.948 103.183 195.648C103.386 196.432 103.7 197.184 104.116 197.88C104.133 197.922 104.167 197.955 104.209 197.973C104.251 197.99 104.299 197.989 104.341 197.972C104.383 197.954 104.416 197.92 104.433 197.878C104.45 197.836 104.45 197.789 104.432 197.747C104.211 196.978 103.95 196.222 103.649 195.481C103.399 194.715 103.183 193.948 102.999 193.165C102.999 192.865 102.466 192.982 102.533 193.282Z" fill="#A5D563"/>
</g>
<g style="mix-blend-mode:multiply">
<path d="M103.233 204.295C97.1352 191.866 91.5706 166.559 89.9045 158.095C89.0665 158.675 88.2855 159.333 87.572 160.061C87.572 160.061 87.7886 162.727 91.1207 175.056C94.4528 187.385 108.614 226.237 108.614 226.237L116.162 224.255C116.162 224.255 115.729 223.055 115.062 221.156C110.173 216.263 106.17 210.558 103.233 204.295Z" fill="#D6D8DC"/>
</g>
<path d="M117.744 223.654C113.551 209.898 110.146 195.913 107.548 181.769C104.216 162.059 102.666 150.763 103.999 148.098C105.332 145.432 104.882 147.431 107.765 147.215C110.647 146.998 113.746 146.098 114.429 148.314C115.112 150.53 118.194 179.97 118.861 192.182C119.527 204.394 123.959 223.421 123.959 223.421L117.744 223.654Z" fill="#117D5D"/>
<g opacity="0.65">
<path opacity="0.65" d="M110.963 148.865C110.927 152.394 111.166 155.92 111.679 159.411C111.996 161.078 112.313 162.744 112.579 164.543C112.729 165.526 112.812 166.476 112.879 167.475C112.851 168.271 113.005 169.063 113.329 169.791C113.348 169.83 113.378 169.862 113.415 169.885C113.452 169.907 113.494 169.919 113.537 169.919C113.58 169.919 113.623 169.907 113.659 169.885C113.696 169.862 113.726 169.83 113.745 169.791C113.83 169.043 113.745 168.286 113.496 167.575C113.265 166.664 113.087 165.741 112.962 164.81C112.729 163.043 112.612 161.277 112.529 159.495C112.379 155.946 111.813 152.447 111.446 148.932C111.446 148.632 110.963 148.615 110.963 148.932V148.865Z" fill="#A5D563"/>
</g>
<g opacity="0.65">
<path opacity="0.65" d="M114.296 177.405C114.612 179.97 114.962 182.519 115.312 185.085C115.495 186.385 115.678 187.701 115.895 189C116.056 190.301 116.318 191.588 116.678 192.849C116.691 192.894 116.718 192.934 116.756 192.962C116.793 192.991 116.839 193.006 116.886 193.006C116.933 193.006 116.979 192.991 117.017 192.962C117.054 192.934 117.082 192.894 117.095 192.849C117.136 191.539 117.052 190.228 116.845 188.934C116.678 187.668 116.495 186.401 116.278 185.152C115.828 182.553 115.312 179.987 114.695 177.421C114.695 177.205 114.262 177.238 114.296 177.421V177.405Z" fill="#A5D563"/>
</g>
<g style="mix-blend-mode:multiply">
<path d="M117.994 214.791C115.045 209.909 113.129 198.13 110.464 179.037C108.481 164.842 107.131 152.53 106.615 147.182C104.949 146.915 105.082 145.849 103.966 148.098C102.633 150.764 104.182 162.06 107.515 181.769C110.124 195.914 113.539 209.899 117.744 223.654L123.942 223.421C123.942 223.421 123.459 221.355 122.792 218.156C121.802 217.961 120.863 217.561 120.037 216.981C119.211 216.402 118.515 215.656 117.994 214.791Z" fill="#D6D8DC"/>
</g>
<path d="M124.792 222.172C124.792 222.172 123.242 210.193 121.909 198.464C120.576 186.734 120.36 168.324 121.243 166.558C122.126 164.792 124.575 166.992 126.341 166.775C128.107 166.558 127.007 172.09 127.457 184.052C127.907 196.014 131.889 220.172 131.656 221.722C131.423 223.271 124.792 222.172 124.792 222.172Z" fill="#117D5D"/>
<g opacity="0.65">
<path opacity="0.65" d="M124.508 168.407C124.326 172.295 124.393 176.191 124.708 180.07C124.842 181.953 125.008 183.835 125.308 185.718C125.475 186.701 125.591 187.684 125.708 188.667C125.755 189.615 125.912 190.554 126.175 191.466C126.182 191.484 126.195 191.499 126.211 191.509C126.228 191.52 126.247 191.526 126.266 191.526C126.286 191.526 126.305 191.52 126.321 191.509C126.337 191.499 126.35 191.484 126.358 191.466C126.383 190.495 126.316 189.525 126.158 188.567C126.058 187.6 125.975 186.634 125.941 185.651C125.941 183.752 125.758 181.869 125.658 179.97C125.458 176.121 125.341 172.273 125.125 168.424C125.109 168.355 125.069 168.293 125.013 168.248C124.957 168.204 124.888 168.18 124.817 168.18C124.745 168.18 124.676 168.204 124.62 168.248C124.564 168.293 124.525 168.355 124.508 168.424V168.407Z" fill="#A5D563"/>
</g>
<g opacity="0.65">
<path opacity="0.65" d="M126.191 194.698C126.297 197.448 126.666 200.182 127.291 202.862C127.299 202.884 127.314 202.902 127.333 202.915C127.353 202.928 127.376 202.935 127.399 202.935C127.422 202.935 127.445 202.928 127.464 202.915C127.484 202.902 127.499 202.884 127.507 202.862C127.291 200.146 126.841 197.447 126.524 194.731C126.524 194.532 126.174 194.515 126.191 194.731V194.698Z" fill="#A5D563"/>
</g>
<g style="mix-blend-mode:multiply">
<path d="M126.274 210.209C124.058 204.895 123.175 196.031 122.942 184.802C122.794 178.546 123.027 172.286 123.642 166.059C122.659 165.725 121.776 165.559 121.309 166.492C120.426 168.258 120.66 186.651 121.976 198.397C123.292 210.143 124.791 222.172 124.791 222.172C124.791 222.172 131.456 223.271 131.656 221.722C131.593 220.046 131.421 218.377 131.139 216.724C128.937 215.053 127.251 212.795 126.274 210.209Z" fill="#D6D8DC"/>
</g>
<path d="M109.947 249.346C109.947 249.346 103.533 238.05 103.966 228.97C104.399 219.89 106.631 215.225 111.28 217.007C113.904 217.96 116.369 219.303 118.594 220.989C118.594 220.989 119.027 212.126 125.008 212.126C126.696 212.133 128.332 212.704 129.658 213.749C130.983 214.794 131.921 216.251 132.322 217.89C132.322 217.89 137.87 208.144 143.851 213.242C149.833 218.34 152.265 226.087 151.165 234.734C150.066 243.381 145.401 252.894 144.285 252.894C143.168 252.894 109.947 249.346 109.947 249.346Z" fill="#C23846"/>
<g style="mix-blend-mode:multiply">
<path d="M150.599 237.966L111.213 237.833C109.804 235.209 108.756 232.407 108.098 229.502C107.148 225.704 108.247 219.722 108.931 216.624C105.865 217.057 104.332 221.522 103.932 228.919C103.499 237.999 109.914 249.295 109.914 249.295C109.914 249.295 143.152 252.844 144.251 252.844C145.351 252.844 148.949 245.58 150.599 237.966Z" fill="#E0E2E5"/>
</g>
<path d="M139.986 217.257C141.442 218.189 142.572 219.552 143.218 221.155C143.636 221.983 143.992 222.841 144.285 223.721L144.734 225.054C144.934 225.603 144.984 226.17 145.517 226.52L145.118 225.987C145.147 226.249 145.239 226.5 145.384 226.72C145.46 226.842 145.58 226.931 145.719 226.968C145.859 227.005 146.007 226.988 146.134 226.92C146.41 226.757 146.622 226.504 146.734 226.203L146.417 226.52C146.984 226.253 147.1 225.537 147.184 224.97C147.274 224.302 147.229 223.622 147.05 222.971C146.702 221.804 146.209 220.684 145.584 219.639C145.067 218.683 144.356 217.846 143.494 217.183C142.633 216.52 141.642 216.045 140.586 215.79C140.4 215.73 140.198 215.74 140.02 215.821C139.842 215.901 139.7 216.045 139.623 216.225C139.546 216.405 139.538 216.607 139.602 216.791C139.667 216.976 139.797 217.13 139.969 217.223L139.986 217.257Z" fill="#DA8890"/>
<path d="M125.941 218.656L126.508 219.156C126.565 219.211 126.626 219.261 126.691 219.306H126.774L126.941 219.406H127.024C127.113 219.451 127.209 219.479 127.308 219.489H127.458C127.504 219.495 127.552 219.488 127.595 219.471C127.639 219.454 127.677 219.426 127.707 219.389C127.776 219.324 127.818 219.234 127.824 219.14V219.006C127.802 218.948 127.774 218.892 127.741 218.84L127.641 218.69C127.65 218.663 127.65 218.633 127.641 218.606C127.602 218.536 127.558 218.469 127.508 218.406C127.341 218.223 127.158 218.04 126.991 217.84C126.863 217.725 126.697 217.66 126.525 217.657C126.347 217.657 126.175 217.722 126.041 217.84C125.979 217.904 125.931 217.979 125.9 218.063C125.868 218.146 125.854 218.234 125.858 218.323C125.858 218.496 125.923 218.663 126.041 218.79L125.941 218.656Z" fill="#DA8890"/>
<path d="M112.03 221.038C112.146 221.162 112.274 221.274 112.413 221.372L112.729 221.622L113.046 221.855L113.213 221.988L113.829 222.555L114.096 222.838L114.246 223.004C114.246 223.004 114.429 223.221 114.246 223.004C114.417 223.209 114.573 223.426 114.712 223.654C114.873 223.9 115.017 224.156 115.145 224.421C115.194 224.546 115.249 224.668 115.312 224.787V224.954C115.312 225.054 115.312 225.054 115.312 224.954L115.412 225.204C115.429 225.269 115.457 225.331 115.495 225.387C115.495 225.504 115.662 225.587 115.728 225.703H115.645C115.691 225.788 115.747 225.866 115.812 225.937L115.995 226.07C115.828 225.887 115.778 225.853 115.845 226.07C115.934 226.207 116.064 226.313 116.216 226.373C116.369 226.433 116.536 226.443 116.695 226.403C116.848 226.353 116.982 226.258 117.08 226.13C117.179 226.002 117.236 225.848 117.245 225.687C117.245 225.537 117.245 225.587 117.245 225.837L117.344 225.637C117.361 225.538 117.361 225.436 117.344 225.337C117.344 225.454 117.344 225.47 117.344 225.337C117.344 225.204 117.344 224.687 117.344 224.554C117.256 224.194 117.122 223.846 116.945 223.521C116.658 222.909 116.276 222.346 115.812 221.855C115.37 221.378 114.852 220.978 114.279 220.672C113.696 220.321 113.026 220.142 112.346 220.155C112.247 220.158 112.151 220.189 112.069 220.245C111.987 220.301 111.923 220.379 111.884 220.471C111.845 220.562 111.834 220.663 111.851 220.76C111.868 220.858 111.912 220.949 111.98 221.022L112.03 221.038Z" fill="#DA8890"/>
<path d="M176.94 246.646H200.265H213.726C213.626 243.464 212.893 234.234 207.828 231.801C204.617 230.164 201.198 228.971 197.665 228.253V219.922H181.538V228.253C178 228.969 174.575 230.163 171.358 231.801C166.243 234.267 165.544 243.68 165.46 246.796C169.259 246.613 173.108 246.663 176.94 246.646Z" fill="#4B76C2"/>
<g style="mix-blend-mode:multiply">
<path d="M200.231 246.647H213.693C213.625 244.181 213.296 241.729 212.71 239.333H170.142C170.148 237.935 170.344 236.545 170.725 235.201C171.34 233.555 172.294 232.057 173.524 230.802C172.824 231.102 172.091 231.435 171.325 231.802C166.21 234.268 165.51 243.681 165.427 246.796C169.259 246.68 173.108 246.796 176.94 246.713L200.231 246.647Z" fill="#E0E2E5"/>
</g>
<g style="mix-blend-mode:multiply">
<path d="M197.716 225.354V219.956H181.588V225.504C184.284 226.352 187.093 226.785 189.918 226.786C192.575 226.707 195.204 226.224 197.716 225.354Z" fill="#AFB3BB"/>
</g>
<path fill-rule="evenodd" clip-rule="evenodd" d="M180.288 223.587C180.288 223.587 178.306 214.557 181.405 212.342C184.503 210.126 197.032 210.775 198.465 212.791C200.348 215.457 198.465 223.587 198.465 223.587C195.456 224.33 192.367 224.693 189.268 224.67C186.25 224.558 183.247 224.195 180.288 223.587Z" fill="#B9CAE7"/>
<path d="M181.504 214.008C184.241 214.591 187.037 214.848 189.835 214.775C191.217 214.775 192.6 214.691 193.983 214.558C194.9 214.458 196.532 214.475 197.099 213.642C197.232 213.458 197.099 213.275 196.882 213.258C196.312 213.288 195.75 213.406 195.216 213.608C194.621 213.714 194.02 213.787 193.417 213.825C192.121 213.941 190.819 213.991 189.518 213.975C186.865 213.91 184.22 213.654 181.604 213.208C181.104 213.208 180.855 213.892 181.388 214.008H181.504Z" fill="white"/>
<path d="M218.591 404.689C217.808 399.608 216.309 394.493 215.626 389.695C214.859 384.247 215.542 378.732 215.859 373.267C216.289 367.403 216.245 361.514 215.726 355.657C215.376 352.325 214.743 349.143 214.443 345.844C214.143 342.545 214.043 339.18 214.043 335.947C214.043 329.283 214.526 322.619 214.793 315.855C215.026 309.84 215.359 303.876 215.942 297.878C216.525 291.88 217.292 285.599 217.858 279.451C218.108 276.785 218.308 274.086 218.475 271.404C218.475 270.638 218.475 270.038 218.475 269.638C218.241 261.158 217.442 249.129 217.125 244.447L216.875 243.231C216.875 243.114 216.875 243.064 217.042 243.081C217.042 242.714 217.042 242.481 217.042 242.465C217.042 242.448 183.371 242.165 171.258 242.165C159.146 242.165 123.692 241.565 112.18 240.982C100.667 240.399 80.8577 240.382 80.2746 241.865C79.6914 243.348 72.594 265.506 75.2764 282.333C77.9587 299.161 80.6078 316.604 80.2746 322.802C79.9414 329 80.2745 353.824 78.2086 365.937C76.1427 378.049 73.6936 406.922 83.8233 409.354C87.6552 410.287 135.805 414.352 159.729 414.969C183.654 415.585 215.859 415.269 217.925 413.786C218.175 413.519 218.408 410.187 218.591 404.689Z" fill="#F1CD89"/>
<path d="M215.859 371.884C216.289 366.02 216.245 360.131 215.726 354.274C215.376 350.942 214.743 347.76 214.443 344.461C214.143 341.162 214.043 337.797 214.043 334.564C214.043 327.9 214.526 321.236 214.793 314.572C215.026 308.557 215.359 302.576 215.942 296.578C216.525 290.58 217.292 284.299 217.858 278.151C218.108 275.486 218.308 272.803 218.475 270.104C218.475 269.338 218.475 268.755 218.475 268.338C218.241 260.008 217.458 248.012 217.125 243.247H216.809C216.092 243.247 215.359 243.247 214.643 243.247C215.09 245.361 215.423 247.496 215.642 249.645C215.816 261.887 215.231 274.128 213.893 286.298L209.794 331.949C209.795 333.255 209.431 334.536 208.745 335.647C207.903 336.588 206.811 337.269 205.596 337.613C190.347 343.421 173.997 345.766 157.73 344.477C172.408 350.092 188.635 349.992 204.296 348.543C207.379 350.958 207.212 356.023 204.796 359.106C202.38 362.188 198.382 363.604 194.517 364.27C191.768 364.753 188.102 365.936 188.385 368.685C195.2 368.252 203.263 368.369 207.229 373.917C208.699 376.339 209.652 379.039 210.028 381.847L212.81 395.626C213.349 397.557 213.435 399.587 213.06 401.557C211.527 407.122 204.096 407.971 198.332 407.688L165.644 406.022L123.309 403.939C114.745 403.523 106.015 403.073 98.0181 399.991C94.0488 398.665 90.5672 396.182 88.0217 392.86C86.7951 391.191 86.074 389.204 85.944 387.136C85.8141 385.069 86.2808 383.007 87.2886 381.198C90.2542 376.616 96.5686 375.999 102.017 375.483C114.362 374.324 126.473 371.378 137.97 366.736C127.677 367.938 117.288 368.083 106.965 367.169C102.2 366.753 96.7519 365.653 94.436 361.455C91.9369 356.956 94.0195 350.325 90.1043 346.993L108.698 338.663C102.033 339.396 94.1028 339.579 90.2209 334.165C85.6892 327.8 90.2209 318.82 88.4549 311.239C87.5326 308.35 86.2568 305.586 84.6562 303.009C81.1593 296.331 79.1741 288.965 78.8416 281.434C78.743 277.542 78.871 273.648 79.2249 269.771C79.9246 259.775 80.6299 249.806 81.3407 239.865C80.6743 240.015 80.2578 240.182 80.1912 240.365C79.5914 241.848 72.5106 264.007 75.193 280.834C77.8753 297.661 80.5244 315.105 80.1912 321.319C79.8579 327.534 80.1912 352.325 78.1252 364.437C76.0593 376.549 73.6102 405.422 83.7399 407.871C87.5718 408.788 135.721 412.869 159.646 413.486C183.571 414.102 215.776 413.769 217.841 412.303C218.175 412.07 218.408 408.738 218.591 403.24C217.808 398.158 216.309 393.043 215.626 388.245C214.859 382.864 215.542 377.349 215.859 371.884Z" fill="#EDBF69"/>
<path d="M216.958 242.414C216.958 242.414 183.287 242.114 171.175 242.114C159.062 242.114 123.608 241.515 112.096 240.931C100.583 240.348 80.7739 240.332 80.1908 241.814C80.1908 241.998 79.9242 242.531 79.6743 243.347L217.108 244.747C217.025 243.331 216.958 242.464 216.958 242.414Z" fill="#FBF1DF"/>
<path d="M100.017 324.184C99.0435 323.337 97.9107 322.691 96.685 322.285C93.8527 321.036 89.7375 320.869 84.5561 322.085C85.4224 321.719 87.3717 320.669 88.2714 320.419C89.9624 319.94 91.6897 319.6 93.4362 319.403C95.2426 319.337 97.0144 318.889 98.6343 318.087C99.2827 317.639 99.7409 316.966 99.9196 316.199C100.098 315.432 99.9846 314.626 99.6006 313.938C99.0915 313.226 98.4439 312.625 97.6967 312.17C96.9495 311.715 96.1181 311.415 95.2522 311.289C91.3802 310.19 87.2548 310.389 83.5065 311.855C82.2072 312.377 80.9673 313.037 79.8078 313.821C80.9456 312.854 82.1794 312.005 83.4898 311.289C86.6053 309.623 91.5036 309.123 92.7198 305.191C92.9368 304.628 92.9368 304.005 92.7198 303.442C92.3386 302.707 91.7229 302.121 90.9704 301.776C87.9049 300.26 84.1062 300.959 80.974 302.109C79.1065 302.778 77.349 303.721 75.7592 304.908C71.7274 308.44 69.195 313.871 70.5945 319.236C70.8822 320.066 71.0232 320.94 71.011 321.819C70.8428 322.69 70.5917 323.544 70.2612 324.368C69.9803 325.017 69.8815 325.731 69.9754 326.433C70.0693 327.134 70.3525 327.797 70.7944 328.35C71.3109 328.916 72.0106 329.283 72.2439 330.016C72.4124 330.657 72.4576 331.324 72.3771 331.982C72.0954 333.244 72.1413 334.557 72.5104 335.797C72.877 336.63 73.5767 336.88 74.1765 337.463C74.7763 338.046 74.2931 339.212 74.1765 340.029C74.0745 341.444 74.279 342.865 74.7763 344.194C75.626 346.643 77.4753 349.592 80.4076 349.492C80.4466 349.446 80.4801 349.396 80.5075 349.342C80.8741 348.592 81.2406 347.876 81.6571 347.176C81.7571 346.96 81.8737 346.743 81.9904 346.543C82.4259 345.758 82.9276 345.011 83.4898 344.31C83.773 343.961 84.0896 343.644 84.3895 343.327C84.9483 342.711 85.5679 342.153 86.2388 341.661C88.0112 340.55 89.9443 339.718 91.9701 339.196C93.8706 338.685 95.6883 337.905 97.3681 336.88C98.0483 336.465 98.6195 335.894 99.0342 335.214C99.484 332.281 95.2356 331.648 93.0197 331.365C90.5339 331.041 88.0064 331.35 85.6723 332.265C85.6343 332.274 85.5942 332.27 85.559 332.253C85.5238 332.236 85.4958 332.207 85.4799 332.171C85.4639 332.135 85.4611 332.095 85.472 332.057C85.4828 332.019 85.5066 331.987 85.5391 331.965C86.8574 331.081 88.2714 330.349 89.7542 329.782C91.4413 329.325 93.1631 329.007 94.9024 328.833C95.6521 328.702 96.4085 328.613 97.1682 328.566C97.8371 328.553 98.5023 328.464 99.1508 328.3C99.6452 328.138 100.079 327.83 100.394 327.417C100.71 327.003 100.892 326.503 100.917 325.984C100.798 325.309 100.485 324.684 100.017 324.184Z" fill="#4B76C2"/>
<g style="mix-blend-mode:multiply">
<path d="M99.5675 313.922C99.9514 314.61 100.065 315.416 99.8865 316.183C99.7078 316.95 99.2495 317.623 98.6012 318.07C96.9813 318.872 95.2095 319.321 93.4031 319.386C91.6566 319.584 89.9292 319.923 88.2383 320.403C87.3386 320.669 85.3893 321.719 84.5229 322.069C89.7044 320.853 93.8196 321.019 96.6519 322.269H96.7685C96.7163 322.192 96.6769 322.108 96.6519 322.019C96.4353 321.236 97.385 320.253 98.118 319.92C98.7903 319.71 99.4064 319.35 99.92 318.869C100.434 318.387 100.831 317.795 101.084 317.137C101.199 316.434 101.116 315.713 100.845 315.054C100.575 314.395 100.127 313.825 99.5508 313.405C99.3676 313.255 99.1843 313.139 99.0011 313.005C99.2411 313.276 99.4327 313.586 99.5675 313.922Z" fill="#C0C2C9"/>
</g>
<g style="mix-blend-mode:multiply">
<path d="M90.887 301.827C91.6395 302.171 92.2551 302.758 92.6364 303.493C92.8533 304.056 92.8533 304.679 92.6364 305.242C91.4201 309.174 86.5219 309.657 83.4064 311.34C82.096 312.056 80.8622 312.905 79.7244 313.872C80.8839 313.087 82.1238 312.428 83.423 311.906C87.0139 310.509 90.9522 310.27 94.6856 311.223C94.3624 311.078 94.0761 310.862 93.8481 310.591C93.6202 310.32 93.4565 310 93.3694 309.657C93.1695 308.407 94.1192 307.225 93.9693 305.908C93.7941 304.718 93.2726 303.606 92.4698 302.71C92.0498 302.186 91.5043 301.777 90.8838 301.52C90.2634 301.264 89.5882 301.169 88.9211 301.243C89.599 301.351 90.2599 301.547 90.887 301.827Z" fill="#C0C2C9"/>
</g>
<g style="mix-blend-mode:multiply">
<path d="M101.65 325.867C101.444 325.339 101.128 324.861 100.723 324.465C100.318 324.069 99.833 323.763 99.3008 323.568C99.5619 323.746 99.8022 323.953 100.017 324.184C100.503 324.712 100.817 325.374 100.917 326.084C100.892 326.603 100.71 327.103 100.394 327.516C100.079 327.93 99.6453 328.238 99.1509 328.4C98.5024 328.564 97.8372 328.653 97.1683 328.666C96.4086 328.713 95.6522 328.802 94.9025 328.933C93.1632 329.107 91.4414 329.425 89.7543 329.882C88.2715 330.449 86.8575 331.181 85.5392 332.065C85.5067 332.087 85.4829 332.119 85.4721 332.157C85.4612 332.195 85.464 332.235 85.4799 332.271C85.4959 332.307 85.5239 332.336 85.5591 332.353C85.5943 332.37 85.6344 332.374 85.6724 332.365C88.0065 331.45 90.534 331.14 93.0198 331.465C94.1191 331.59 95.2059 331.807 96.2686 332.115C96.6188 331.671 97.0346 331.284 97.5015 330.965C98.5821 330.334 99.5977 329.597 100.534 328.766C101.417 327.866 102 327.133 101.65 325.867Z" fill="#C0C2C9"/>
</g>
<g style="mix-blend-mode:multiply">
<path d="M99.0009 334.314C99.077 334.643 99.077 334.985 99.0009 335.314C98.5863 335.994 98.015 336.566 97.3348 336.98C95.6551 338.005 93.8373 338.785 91.9368 339.296C89.911 339.819 87.9779 340.65 86.2055 341.762C85.5346 342.253 84.915 342.812 84.3562 343.428C84.0563 343.744 83.7398 344.061 83.4565 344.411C82.8943 345.111 82.3926 345.858 81.957 346.643C81.8404 346.843 81.7238 347.06 81.6239 347.276C81.2073 347.976 80.8408 348.693 80.4743 349.442C80.4468 349.496 80.4133 349.546 80.3743 349.592H80.1577L80.291 349.875C81.636 347.374 83.664 345.305 86.1389 343.911C88.4214 342.628 94.086 341.245 97.3848 338.913C98.6677 337.98 99.8839 337.013 99.3341 334.881C99.2653 334.67 99.1516 334.477 99.0009 334.314Z" fill="#C0C2C9"/>
</g>
<g style="mix-blend-mode:multiply">
<path d="M321.637 375.166C320.421 361.638 319.138 347.843 317.972 336.514C303.61 331.232 277.453 321.602 264.824 316.921C246.864 310.257 226.271 304.958 226.271 304.958L204.113 323.169C207.834 328.295 213.166 332.026 219.257 333.765C230.092 336.927 241.087 339.513 252.195 341.512C258.36 342.645 306.759 367.486 321.637 375.166Z" fill="#C0C2C9"/>
</g>
<path d="M258.61 333.548C258.61 333.548 309.575 356.14 330.834 360.572C352.093 365.004 360.09 352.741 363.639 338.413C368.337 319.37 351.227 261.774 347.245 255.11C343.263 248.446 298.929 267.072 298.929 267.072C298.929 267.072 320.188 311.39 317.972 315.821C315.756 320.253 264.808 305.175 264.808 305.175L258.61 333.548Z" fill="#F7A374"/>
<path d="M269.906 304.959C269.906 304.959 257.827 301.16 252.862 294.329C247.897 287.499 244.815 279.218 245.031 274.453C245.248 269.688 244.432 263.824 241.483 263.524C237.551 263.141 234.685 270.938 233.652 276.519C233.066 280.535 233.066 284.615 233.652 288.631C233.652 288.631 220.873 281.967 213.409 282.134C205.946 282.3 205.995 288.398 207.662 290.664C208.775 292.133 210.147 293.386 211.71 294.363C211.71 294.363 203.88 292.363 202.663 297.695C201.447 303.026 207.662 305.459 207.662 305.459C207.662 305.459 202.263 304.726 202.014 309.99C201.78 314.539 207.095 317.188 207.095 317.188C207.095 317.188 203.496 315.722 203.446 321.07C203.446 325.068 213.226 329.233 221.507 330.05C229.37 330.816 235.935 330.45 243.165 332.316C250.396 334.182 261.792 337.497 262.842 337.497C263.891 337.497 266.574 330.716 268.573 321.853C269.855 316.319 270.304 310.625 269.906 304.959Z" fill="#4B76C2"/>
<path d="M273.088 185.102C285.609 185.482 297.861 188.822 308.842 194.848C327.169 204.844 340.914 231.701 344.579 240.632C348.682 250.721 352.231 261.027 355.209 271.504C355.209 271.504 336.882 275.935 326.886 279.834C318.73 283.299 310.835 287.347 303.261 291.946C303.261 291.946 288.483 260.191 280.802 234.8C276.073 218.642 273.48 201.933 273.088 185.102Z" fill="#F4783B"/>
<path d="M253.895 250.678V256.593L289.332 255.993L289.049 249.195L253.895 250.678Z" fill="white"/>
<g style="mix-blend-mode:multiply">
<path d="M254.112 152.197C255.145 148.615 256.511 144.333 255.778 140.667C255.666 140.087 255.47 139.525 255.195 139.001C254.587 140.141 253.885 141.228 253.095 142.25C252.071 143.53 250.903 144.687 249.613 145.699C245.776 149.233 240.902 151.438 235.714 151.987C230.526 152.536 225.299 151.4 220.807 148.748C216.084 146.422 211.809 143.281 208.178 139.468C207.074 138.297 206.06 137.044 205.146 135.719C207.25 142.323 211.164 148.205 216.442 152.696C218.366 154.345 220.422 155.833 222.59 157.145C228.654 160.81 237.301 163.376 244.582 160.81C248.997 159.161 252.895 156.362 254.112 152.197Z" fill="#EBEBEE"/>
</g>
</svg>
