<svg width="284" height="284" viewBox="0 0 284 284" fill="none" xmlns="http://www.w3.org/2000/svg">
<rect width="284" height="284" fill=process.env.REACT_APP_COLOR_PRIMARY/>
<path d="M141.85 0C113.795 0 86.3695 8.31936 63.0424 23.906C39.7153 39.4927 21.534 61.6467 10.7978 87.5664C0.0614595 113.486 -2.74764 142.007 2.72567 169.524C8.19899 197.04 21.7089 222.315 41.547 242.153C61.385 261.991 86.6603 275.501 114.177 280.974C141.693 286.448 170.214 283.639 196.134 272.902C222.053 262.166 244.207 243.985 259.794 220.658C275.381 197.331 283.7 169.905 283.7 141.85C283.7 104.229 268.755 68.1489 242.153 41.5469C215.551 14.9449 179.471 0 141.85 0Z" fill="white"/>
<path d="M173.27 136.311C172.306 136.221 171.335 136.388 170.456 136.795C169.578 137.203 168.823 137.836 168.27 138.631C167.27 140.181 166.75 142.531 166.75 145.631C166.75 148.731 167.26 151.111 168.28 152.701C168.825 153.51 169.575 154.158 170.454 154.58C171.333 155.002 172.308 155.182 173.28 155.101C174.241 155.18 175.205 155.002 176.074 154.583C176.942 154.165 177.683 153.522 178.22 152.721C179.227 151.128 179.73 148.764 179.73 145.631C179.73 142.521 179.23 140.181 178.21 138.631C177.66 137.847 176.915 137.221 176.049 136.814C175.182 136.407 174.224 136.233 173.27 136.311V136.311Z" fill=process.env.REACT_APP_COLOR_PRIMARY/>
<path d="M210.42 136.251C209.541 136.182 208.658 136.329 207.848 136.677C207.038 137.025 206.325 137.566 205.77 138.251C204.77 139.561 204.29 141.711 204.25 144.721V145.651C204.25 149.031 204.753 151.451 205.76 152.911C206.299 153.657 207.021 154.251 207.856 154.637C208.692 155.022 209.613 155.185 210.53 155.111C214.383 155.111 216.307 151.937 216.3 145.591C216.3 142.491 215.827 140.157 214.88 138.591C214.422 137.83 213.764 137.209 212.978 136.796C212.191 136.384 211.306 136.195 210.42 136.251Z" fill=process.env.REACT_APP_COLOR_PRIMARY/>
<path d="M141.85 0C113.795 0 86.3695 8.31936 63.0424 23.906C39.7153 39.4927 21.534 61.6467 10.7978 87.5664C0.0614595 113.486 -2.74764 142.007 2.72567 169.524C8.19899 197.04 21.7089 222.315 41.547 242.153C61.385 261.991 86.6603 275.501 114.177 280.974C141.693 286.448 170.214 283.639 196.134 272.902C222.053 262.166 244.207 243.985 259.794 220.658C275.381 197.331 283.7 169.905 283.7 141.85C283.7 104.229 268.755 68.1489 242.153 41.5469C215.551 14.9449 179.471 0 141.85 0V0ZM70.3001 159.49C68.0534 161.183 64.6967 162.03 60.2301 162.03C58.2664 162.056 56.3045 161.899 54.3701 161.56C52.8125 161.27 51.2905 160.814 49.8301 160.2V153.1C51.5653 153.899 53.3737 154.529 55.2301 154.98C56.9518 155.452 58.7251 155.711 60.5101 155.75C63.6301 155.75 65.1901 154.84 65.1901 153.04C65.2014 152.738 65.1524 152.436 65.046 152.153C64.9395 151.869 64.7777 151.61 64.5701 151.39C63.9259 150.812 63.2017 150.331 62.4201 149.96C61.4201 149.42 60.0601 148.8 58.4201 148.08C56.5359 147.356 54.7435 146.413 53.0801 145.27C52.019 144.489 51.1671 143.459 50.6001 142.27C50.0539 140.963 49.7914 139.556 49.8301 138.14C49.7765 136.87 50.0467 135.607 50.6152 134.47C51.1837 133.333 52.0319 132.359 53.0801 131.64C55.2534 130.107 58.3267 129.343 62.3001 129.35C66.1147 129.372 69.8786 130.225 73.3301 131.85L70.7301 138.05C69.1601 137.37 67.7301 136.82 66.3101 136.38C64.9543 135.954 63.5412 135.738 62.1201 135.74C59.5801 135.74 58.3101 136.42 58.3101 137.74C58.3276 138.151 58.4497 138.55 58.665 138.9C58.8803 139.25 59.1815 139.539 59.5401 139.74C61.2465 140.738 63.0406 141.579 64.9001 142.25C66.8113 142.954 68.6284 143.891 70.3101 145.04C71.3853 145.822 72.2565 146.851 72.8501 148.04C73.4142 149.297 73.6909 150.663 73.6601 152.04C73.7548 153.462 73.4977 154.886 72.9117 156.185C72.3257 157.485 71.4288 158.62 70.3001 159.49V159.49ZM100.2 137.69C99.3693 137.486 98.5153 137.392 97.6601 137.41C95.3321 137.267 93.0378 138.022 91.2501 139.52C90.4664 140.285 89.8563 141.21 89.4612 142.231C89.0661 143.252 88.8952 144.347 88.9601 145.44V161.44H80.3701V129.97H86.8701L88.1401 135.27H88.5601C89.5159 133.535 90.8911 132.067 92.5601 131C94.1669 129.936 96.053 129.373 97.9801 129.38C98.9527 129.366 99.9243 129.449 100.88 129.63L100.2 137.69ZM115.15 161.46H106.56V129.97H115.15V161.46ZM114.38 124.94C113.401 125.758 112.141 126.16 110.87 126.06C107.75 126.06 106.2 124.65 106.2 121.83C106.2 119.01 107.75 117.63 110.87 117.63C113.99 117.63 115.55 119.03 115.55 121.83C115.585 122.402 115.499 122.974 115.297 123.51C115.095 124.046 114.783 124.533 114.38 124.94V124.94ZM145.52 161.46L136.45 148.7L132.76 151.7V161.5H124.17V117.63H132.76V137.18L132.31 144.34H132.42L136.17 139.55L144.98 129.97H154.67L142.17 143.63L155.43 161.46H145.52ZM184.52 157.69C181.82 160.577 178.057 162.023 173.23 162.03C170.434 162.082 167.673 161.392 165.23 160.03C162.924 158.708 161.071 156.721 159.91 154.33C158.619 151.622 157.982 148.649 158.05 145.65C158.05 140.51 159.383 136.51 162.05 133.65C164.717 130.79 168.493 129.363 173.38 129.37C176.176 129.326 178.934 130.016 181.38 131.37C183.682 132.679 185.536 134.652 186.7 137.03C187.992 139.727 188.629 142.69 188.56 145.68C188.56 150.8 187.207 154.803 184.5 157.69H184.52ZM223.61 154.42C222.79 156.681 221.323 158.649 219.39 160.08C217.519 161.415 215.269 162.116 212.97 162.08C211.306 162.157 209.647 161.835 208.133 161.139C206.62 160.443 205.295 159.394 204.27 158.08H203.82C204.12 160.707 204.27 162.227 204.27 162.64V175.4H195.68V129.97H202.68L203.89 134.06H204.29C205.225 132.554 206.547 131.325 208.117 130.502C209.687 129.679 211.449 129.292 213.22 129.38C214.919 129.316 216.607 129.676 218.131 130.429C219.656 131.181 220.968 132.302 221.95 133.69C224.05 136.563 225.103 140.563 225.11 145.69C225.155 148.67 224.639 151.631 223.59 154.42H223.61ZM240.78 161.42H232.18V129.97H240.78V161.42ZM239.95 124.94C238.974 125.756 237.718 126.158 236.45 126.06C233.33 126.06 231.77 124.65 231.77 121.83C231.77 119.01 233.33 117.61 236.45 117.63C239.563 117.63 241.12 119.03 241.12 121.83C241.155 122.402 241.069 122.974 240.867 123.51C240.665 124.046 240.353 124.533 239.95 124.94V124.94Z" fill=process.env.REACT_APP_COLOR_PRIMARY/>
</svg>
