<svg width="9" height="9" viewBox="0 0 9 9" fill="none" xmlns="http://www.w3.org/2000/svg">
<path d="M4.96955 0.275095C4.79351 0.0990065 4.55474 5.31763e-05 4.30575 0H0.93889C0.689881 0 0.451071 0.0989185 0.274994 0.274994C0.0989185 0.451071 0 0.689881 0 0.93889V4.30575C5.31763e-05 4.55474 0.0990065 4.79351 0.275095 4.96955L4.03066 8.72511C4.20672 8.90112 4.44549 9 4.69445 9C4.94341 9 5.18218 8.90112 5.35825 8.72511L8.72511 5.35825C8.90112 5.18218 9 4.94341 9 4.69445C9 4.44549 8.90112 4.20672 8.72511 4.03066L4.96955 0.275095ZM2.34723 3.28612C2.09815 3.28605 1.85931 3.18705 1.68323 3.01089C1.50716 2.83472 1.40827 2.59583 1.40834 2.34676C1.4084 2.09768 1.5074 1.85884 1.68356 1.68276C1.85973 1.50669 2.09862 1.4078 2.34769 1.40787C2.59677 1.40793 2.83561 1.50693 3.01169 1.68309C3.18776 1.85926 3.28665 2.09815 3.28658 2.34723C3.28652 2.5963 3.18752 2.83514 3.01136 3.01122C2.83519 3.18729 2.5963 3.28618 2.34723 3.28612Z" fill="#8D968D"/>
</svg>
