<svg width="253" height="175" viewBox="0 0 253 175" fill="none" xmlns="http://www.w3.org/2000/svg">
<path d="M71.5131 11H1.2804V124.908H71.5131V11Z" fill="#F5F9FF"/>
<path d="M3 0H0V125H3V0Z" fill="#E4E8ED"/>
<path d="M73 0H70V125H73V0Z" fill="#E4E8ED"/>
<path d="M72.7245 29.2959H1.49048V34.0022H72.7245V29.2959Z" fill="#E4E8ED"/>
<path d="M72.7245 56.8457H1.49048V61.5521H72.7245V56.8457Z" fill="#E4E8ED"/>
<path d="M72.7245 84.3955H1.49048V89.1019H72.7245V84.3955Z" fill="#E4E8ED"/>
<path d="M72.7245 111.946H1.49048V116.653H72.7245V111.946Z" fill="#E4E8ED"/>
<path d="M32.3975 97.9893H6.77759V112.24H32.3975V97.9893Z" fill="#E4E8ED"/>
<path d="M65.9465 97.9893H40.3267V112.24H65.9465V97.9893Z" fill="#E4E8ED"/>
<path d="M10.1746 42.496V41.6318H8.37848V42.244C8.37848 42.6464 8.21861 43.0324 7.93404 43.317C7.64947 43.6015 7.26351 43.7614 6.86107 43.7614C6.79422 43.7614 6.73011 43.788 6.68284 43.8352C6.63557 43.8825 6.60901 43.9466 6.60901 44.0135V57.2373H11.9455V44.0135C11.9455 43.9804 11.939 43.9476 11.9263 43.917C11.9137 43.8864 11.8951 43.8586 11.8717 43.8352C11.8483 43.8118 11.8205 43.7933 11.7899 43.7806C11.7593 43.7679 11.7266 43.7614 11.6935 43.7614H11.4414C11.2751 43.7617 11.1103 43.7292 10.9566 43.6657C10.8029 43.6022 10.6632 43.509 10.5455 43.3915C10.4278 43.274 10.3345 43.1344 10.2709 42.9807C10.2072 42.8271 10.1745 42.6624 10.1746 42.496Z" fill="#E4E8ED"/>
<path d="M10.6456 39.1611H7.90784V41.6321H10.6456V39.1611Z" fill="#E4E8ED"/>
<path d="M19.203 42.496V41.6318H17.4069V42.244C17.4069 42.6464 17.2471 43.0324 16.9625 43.317C16.6779 43.6015 16.292 43.7614 15.8895 43.7614C15.8227 43.7614 15.7585 43.788 15.7113 43.8352C15.664 43.8825 15.6375 43.9466 15.6375 44.0135V57.2373H20.974V44.0135C20.974 43.9466 20.9474 43.8825 20.9001 43.8352C20.8529 43.788 20.7887 43.7614 20.7219 43.7614H20.4698C20.3035 43.7617 20.1388 43.7292 19.985 43.6657C19.8313 43.6022 19.6916 43.509 19.574 43.3915C19.4563 43.274 19.363 43.1344 19.2993 42.9807C19.2357 42.8271 19.2029 42.6624 19.203 42.496Z" fill="#E4E8ED"/>
<path d="M19.674 39.1611H16.9363V41.6321H19.674V39.1611Z" fill="#E4E8ED"/>
<path d="M28.232 42.496V41.6318H26.4355V42.244C26.4355 42.6464 26.2756 43.0324 25.991 43.317C25.7065 43.6015 25.3205 43.7614 24.9181 43.7614C24.8512 43.7614 24.7871 43.788 24.7398 43.8352C24.6926 43.8825 24.666 43.9466 24.666 44.0135V57.2373H30.0025V44.0135C30.0025 43.9466 29.976 43.8825 29.9287 43.8352C29.8814 43.788 29.8173 43.7614 29.7505 43.7614H29.4984C29.3321 43.7616 29.1674 43.7291 29.0137 43.6656C28.86 43.6021 28.7204 43.5089 28.6028 43.3914C28.4851 43.2738 28.3918 43.1343 28.3282 42.9806C28.2646 42.827 28.2319 42.6623 28.232 42.496Z" fill="#E4E8ED"/>
<path d="M28.7026 39.1611H25.9648V41.6321H28.7026V39.1611Z" fill="#E4E8ED"/>
<path d="M37.2601 42.496V41.6318H35.4639V42.244C35.4639 42.6464 35.3041 43.0324 35.0195 43.317C34.7349 43.6015 34.349 43.7614 33.9465 43.7614C33.8797 43.7614 33.8156 43.788 33.7683 43.8352C33.721 43.8825 33.6945 43.9466 33.6945 44.0135V57.2373H39.031V44.0135C39.031 43.9466 39.0044 43.8825 38.9571 43.8352C38.9099 43.788 38.8458 43.7614 38.7789 43.7614H38.5268C38.3605 43.7617 38.1958 43.7292 38.0421 43.6657C37.8883 43.6022 37.7486 43.509 37.631 43.3915C37.5133 43.274 37.42 43.1344 37.3563 42.9807C37.2927 42.8271 37.26 42.6624 37.2601 42.496Z" fill="#E4E8ED"/>
<path d="M37.731 39.1611H34.9933V41.6321H37.731V39.1611Z" fill="#E4E8ED"/>
<path d="M46.2886 42.496V41.6318H44.4925V42.244C44.4925 42.6464 44.3326 43.0324 44.0481 43.317C43.7635 43.6015 43.3775 43.7614 42.9751 43.7614C42.9082 43.7614 42.8441 43.788 42.7968 43.8352C42.7496 43.8825 42.723 43.9466 42.723 44.0135V57.2373H48.0595V44.0135C48.0595 43.9466 48.033 43.8825 47.9857 43.8352C47.9384 43.788 47.8743 43.7614 47.8075 43.7614H47.5554C47.3891 43.7617 47.2243 43.7292 47.0706 43.6657C46.9169 43.6022 46.7772 43.509 46.6595 43.3915C46.5419 43.274 46.4485 43.1344 46.3849 42.9807C46.3212 42.8271 46.2885 42.6624 46.2886 42.496Z" fill="#E4E8ED"/>
<path d="M46.7596 39.1611H44.0219V41.6321H46.7596V39.1611Z" fill="#E4E8ED"/>
<path d="M55.317 42.496V41.6318H53.5209V42.244C53.5209 42.4433 53.4817 42.6406 53.4054 42.8248C53.3291 43.0089 53.2173 43.1762 53.0764 43.3171C52.9354 43.458 52.7681 43.5698 52.584 43.646C52.3998 43.7222 52.2025 43.7614 52.0032 43.7614C51.9363 43.7614 51.8722 43.788 51.8249 43.8352C51.7777 43.8825 51.7511 43.9466 51.7511 44.0135V57.2373H57.0876V44.0135C57.0876 43.9466 57.061 43.8825 57.0138 43.8352C56.9665 43.788 56.9024 43.7614 56.8355 43.7614H56.5835C56.4172 43.7616 56.2525 43.7291 56.0988 43.6656C55.9451 43.6021 55.8055 43.5089 55.6878 43.3914C55.5702 43.2738 55.4769 43.1343 55.4133 42.9806C55.3497 42.827 55.317 42.6623 55.317 42.496Z" fill="#E4E8ED"/>
<path d="M55.788 39.1611H53.0503V41.6321H55.788V39.1611Z" fill="#E4E8ED"/>
<path d="M64.3455 42.496V41.6318H62.5483V42.244C62.5483 42.6464 62.3884 43.0324 62.1038 43.317C61.8193 43.6015 61.4333 43.7614 61.0309 43.7614C60.964 43.7614 60.8999 43.788 60.8526 43.8352C60.8054 43.8825 60.7788 43.9466 60.7788 44.0135V57.2373H66.1153V44.0135C66.1153 43.9466 66.0888 43.8825 66.0415 43.8352C65.9942 43.788 65.9301 43.7614 65.8633 43.7614H65.6112C65.445 43.7615 65.2804 43.7289 65.1268 43.6654C64.9731 43.6018 64.8336 43.5086 64.716 43.3911C64.5985 43.2736 64.5052 43.1341 64.4417 42.9805C64.3781 42.8269 64.3454 42.6623 64.3455 42.496Z" fill="#E4E8ED"/>
<path d="M64.8165 39.1611H62.0787V41.6321H64.8165V39.1611Z" fill="#E4E8ED"/>
<path d="M7.61152 16.2529H14.8082C15.2584 16.2529 15.6902 16.4318 16.0085 16.7501C16.3269 17.0684 16.5057 17.5002 16.5057 17.9504V27.5867C16.5057 28.0399 16.3256 28.4746 16.0051 28.7951C15.6847 29.1156 15.25 29.2957 14.7967 29.2957H7.62304C7.16979 29.2957 6.73511 29.1156 6.41461 28.7951C6.09412 28.4746 5.91406 28.0399 5.91406 27.5867V17.9504C5.91406 17.5002 6.0929 17.0684 6.41124 16.7501C6.72957 16.4318 7.16132 16.2529 7.61152 16.2529V16.2529Z" fill="#E4E8ED"/>
<path d="M14.0956 14.8984H8.32373V16.2531H14.0956V14.8984Z" fill="#E4E8ED"/>
<path d="M14.9425 13.6123H7.47681V14.8985H14.9425V13.6123Z" fill="#E4E8ED"/>
<path d="M20.2849 16.2529H27.4816C27.9318 16.2529 28.3635 16.4318 28.6819 16.7501C29.0002 17.0684 29.179 17.5002 29.179 17.9504V27.5867C29.179 28.0399 28.999 28.4746 28.6785 28.7951C28.358 29.1156 27.9233 29.2957 27.4701 29.2957H20.2964C19.8431 29.2957 19.4084 29.1156 19.088 28.7951C18.7675 28.4746 18.5874 28.0399 18.5874 27.5867V17.9504C18.5874 17.5002 18.7662 17.0684 19.0846 16.7501C19.4029 16.4318 19.8347 16.2529 20.2849 16.2529V16.2529Z" fill="#E4E8ED"/>
<path d="M26.7689 14.8984H20.9971V16.2531H26.7689V14.8984Z" fill="#E4E8ED"/>
<path d="M27.6159 13.6123H20.1501V14.8985H27.6159V13.6123Z" fill="#E4E8ED"/>
<path d="M32.9578 16.2529H40.1545C40.6047 16.2529 41.0365 16.4318 41.3548 16.7501C41.6732 17.0684 41.852 17.5002 41.852 17.9504V27.5867C41.852 28.0399 41.6719 28.4746 41.3515 28.7951C41.031 29.1156 40.5963 29.2957 40.143 29.2957H32.9694C32.5161 29.2957 32.0814 29.1156 31.7609 28.7951C31.4404 28.4746 31.2604 28.0399 31.2604 27.5867V17.9504C31.2604 17.5002 31.4392 17.0684 31.7575 16.7501C32.0759 16.4318 32.5076 16.2529 32.9578 16.2529V16.2529Z" fill="#E4E8ED"/>
<path d="M39.4419 14.8984H33.67V16.2531H39.4419V14.8984Z" fill="#E4E8ED"/>
<path d="M40.2888 13.6123H32.8231V14.8985H40.2888V13.6123Z" fill="#E4E8ED"/>
<path d="M45.631 16.2529H52.8278C53.278 16.2529 53.7097 16.4318 54.028 16.7501C54.3464 17.0684 54.5252 17.5002 54.5252 17.9504V27.5867C54.5252 28.0399 54.3452 28.4746 54.0247 28.7951C53.7042 29.1156 53.2695 29.2957 52.8162 29.2957H45.6426C45.1893 29.2957 44.7546 29.1156 44.4341 28.7951C44.1136 28.4746 43.9336 28.0399 43.9336 27.5867V17.9504C43.9336 17.5002 44.1124 17.0684 44.4308 16.7501C44.7491 16.4318 45.1809 16.2529 45.631 16.2529V16.2529Z" fill="#E4E8ED"/>
<path d="M52.1151 14.8984H46.3433V16.2531H52.1151V14.8984Z" fill="#E4E8ED"/>
<path d="M52.962 13.6123H45.4963V14.8985H52.962V13.6123Z" fill="#E4E8ED"/>
<path d="M58.304 16.2529H65.5007C65.9509 16.2529 66.3827 16.4318 66.701 16.7501C67.0194 17.0684 67.1982 17.5002 67.1982 17.9504V27.5867C67.1982 28.0399 67.0181 28.4746 66.6976 28.7951C66.3771 29.1156 65.9425 29.2957 65.4892 29.2957H58.3155C57.8623 29.2957 57.4276 29.1156 57.1071 28.7951C56.7866 28.4746 56.6066 28.0399 56.6066 27.5867V17.9504C56.6066 17.5002 56.7854 17.0684 57.1037 16.7501C57.4221 16.4318 57.8538 16.2529 58.304 16.2529V16.2529Z" fill="#E4E8ED"/>
<path d="M64.7881 14.8984H59.0162V16.2531H64.7881V14.8984Z" fill="#E4E8ED"/>
<path d="M65.635 13.6123H58.1693V14.8985H65.635V13.6123Z" fill="#E4E8ED"/>
<path d="M19.8293 78.2109H7.86938V84.233H19.8293V78.2109Z" fill="#E4E8ED"/>
<path d="M34.8378 78.2109H22.8778V84.233H34.8378V78.2109Z" fill="#E4E8ED"/>
<path d="M49.8463 78.2109H37.8864V84.233H49.8463V78.2109Z" fill="#E4E8ED"/>
<path d="M64.8547 78.2109H52.8948V84.233H64.8547V78.2109Z" fill="#E4E8ED"/>
<path d="M163.473 46.4189H84.603V148.908H163.473V46.4189Z" fill="#F5F9FF"/>
<path d="M97.4427 101.359H89.6511V112.898H97.4427V101.359Z" fill="#E4E8ED"/>
<path d="M96.315 100.251H94.8505V101.36H96.315V100.251Z" fill="#E4E8ED"/>
<path d="M107.697 101.359H99.9056V112.898H107.697V101.359Z" fill="#E4E8ED"/>
<path d="M106.569 100.251H105.105V101.36H106.569V100.251Z" fill="#E4E8ED"/>
<path d="M117.951 101.359H110.16V112.898H117.951V101.359Z" fill="#E4E8ED"/>
<path d="M116.824 100.251H115.359V101.36H116.824V100.251Z" fill="#E4E8ED"/>
<path d="M128.206 101.359H120.415V112.898H128.206V101.359Z" fill="#E4E8ED"/>
<path d="M127.078 100.251H125.614V101.36H127.078V100.251Z" fill="#E4E8ED"/>
<path d="M138.46 101.359H130.669V112.898H138.46V101.359Z" fill="#E4E8ED"/>
<path d="M137.333 100.251H135.868V101.36H137.333V100.251Z" fill="#E4E8ED"/>
<path d="M148.715 101.359H140.923V112.898H148.715V101.359Z" fill="#E4E8ED"/>
<path d="M147.587 100.251H146.122V101.36H147.587V100.251Z" fill="#E4E8ED"/>
<path d="M158.969 101.359H151.177V112.898H158.969V101.359Z" fill="#E4E8ED"/>
<path d="M157.841 100.251H156.377V101.36H157.841V100.251Z" fill="#E4E8ED"/>
<path d="M87 29H84V149H87V29Z" fill="#E4E8ED"/>
<path d="M165 29H162V149H165V29Z" fill="#E4E8ED"/>
<path d="M165.109 62.9023H84.9735V67.1359H165.109V62.9023Z" fill="#E4E8ED"/>
<path d="M165.109 87.6846H84.9735V91.9181H165.109V87.6846Z" fill="#E4E8ED"/>
<path d="M165.109 112.467H84.9735V116.7H165.109V112.467Z" fill="#E4E8ED"/>
<path d="M165.109 137.249H84.9735V141.483H165.109V137.249Z" fill="#E4E8ED"/>
<path d="M113.654 75.8369H90.6086V88.6557H113.654V75.8369Z" fill="#E4E8ED"/>
<path d="M158.133 76.0449H149.891V88.3913H158.133V76.0449Z" fill="#E4E8ED"/>
<path d="M143.833 75.8369H120.787V88.6557H143.833V75.8369Z" fill="#E4E8ED"/>
<path d="M91.1783 125.962H97.6512C98.0562 125.962 98.4447 126.123 98.731 126.409C99.0174 126.696 99.1783 127.084 99.1783 127.489V136.157C99.1783 136.565 99.0164 136.956 98.7281 137.244C98.4398 137.532 98.0488 137.694 97.6411 137.694H91.1883C90.7806 137.694 90.3896 137.532 90.1014 137.244C89.8131 136.956 89.6511 136.565 89.6511 136.157V127.489C89.6511 127.084 89.812 126.696 90.0984 126.409C90.3848 126.123 90.7732 125.962 91.1783 125.962Z" fill="#E4E8ED"/>
<path d="M97.0106 124.743H91.8188V125.962H97.0106V124.743Z" fill="#E4E8ED"/>
<path d="M97.7725 123.587H91.0569V124.744H97.7725V123.587Z" fill="#E4E8ED"/>
<path d="M103.161 125.962H109.634C110.039 125.962 110.427 126.123 110.714 126.409C111 126.696 111.161 127.084 111.161 127.489V136.157C111.161 136.565 110.999 136.956 110.711 137.244C110.422 137.532 110.031 137.694 109.624 137.694H103.171C102.763 137.694 102.372 137.532 102.084 137.244C101.796 136.956 101.634 136.565 101.634 136.157V127.489C101.634 127.084 101.795 126.696 102.081 126.409C102.367 126.123 102.756 125.962 103.161 125.962Z" fill="#E4E8ED"/>
<path d="M108.994 124.743H103.802V125.962H108.994V124.743Z" fill="#E4E8ED"/>
<path d="M109.755 123.587H103.04V124.744H109.755V123.587Z" fill="#E4E8ED"/>
<path d="M115.143 125.962H121.616C122.021 125.962 122.41 126.123 122.696 126.409C122.982 126.696 123.143 127.084 123.143 127.489V136.157C123.143 136.565 122.981 136.956 122.693 137.244C122.405 137.532 122.014 137.694 121.606 137.694H115.154C114.746 137.694 114.355 137.532 114.067 137.244C113.778 136.956 113.616 136.565 113.616 136.157V127.489C113.616 127.084 113.777 126.696 114.063 126.409C114.35 126.123 114.738 125.962 115.143 125.962Z" fill="#E4E8ED"/>
<path d="M120.976 124.743H115.784V125.962H120.976V124.743Z" fill="#E4E8ED"/>
<path d="M121.737 123.587H115.022V124.744H121.737V123.587Z" fill="#E4E8ED"/>
<path d="M127.126 125.962H133.599C134.004 125.962 134.392 126.123 134.679 126.409C134.965 126.696 135.126 127.084 135.126 127.489V136.157C135.126 136.565 134.964 136.956 134.676 137.244C134.387 137.532 133.996 137.694 133.589 137.694H127.136C126.728 137.694 126.337 137.532 126.049 137.244C125.761 136.956 125.599 136.565 125.599 136.157V127.489C125.599 127.084 125.76 126.696 126.046 126.409C126.332 126.123 126.721 125.962 127.126 125.962Z" fill="#E4E8ED"/>
<path d="M132.958 124.743H127.766V125.962H132.958V124.743Z" fill="#E4E8ED"/>
<path d="M133.72 123.587H127.004V124.744H133.72V123.587Z" fill="#E4E8ED"/>
<path d="M139.109 125.962H145.581C145.987 125.962 146.375 126.123 146.661 126.409C146.948 126.696 147.109 127.084 147.109 127.489V136.157C147.109 136.565 146.947 136.956 146.658 137.244C146.37 137.532 145.979 137.694 145.571 137.694H139.119C138.711 137.694 138.32 137.532 138.032 137.244C137.743 136.956 137.581 136.565 137.581 136.157V127.489C137.581 127.084 137.742 126.696 138.029 126.409C138.315 126.123 138.704 125.962 139.109 125.962Z" fill="#E4E8ED"/>
<path d="M144.941 124.743H139.749V125.962H144.941V124.743Z" fill="#E4E8ED"/>
<path d="M145.703 123.587H138.987V124.744H145.703V123.587Z" fill="#E4E8ED"/>
<path d="M151.091 125.962H157.564C157.969 125.962 158.357 126.123 158.644 126.409C158.93 126.696 159.091 127.084 159.091 127.489V136.157C159.091 136.565 158.929 136.956 158.641 137.244C158.353 137.532 157.962 137.694 157.554 137.694H151.101C150.693 137.694 150.302 137.532 150.014 137.244C149.726 136.956 149.564 136.565 149.564 136.157V127.489C149.564 127.084 149.725 126.696 150.011 126.409C150.298 126.123 150.686 125.962 151.091 125.962Z" fill="#E4E8ED"/>
<path d="M156.923 124.743H151.731V125.962H156.923V124.743Z" fill="#E4E8ED"/>
<path d="M157.685 123.587H150.969V124.744H157.685V123.587Z" fill="#E4E8ED"/>
<path d="M94.7402 51.2116V50.0312H90.92V51.2116L89.5697 52.8576V64.0408H96.0898V52.859L94.7402 51.2116Z" fill="#E4E8ED"/>
<path d="M103.795 51.2116V50.0312H99.9758V51.2116L98.6255 52.8576V64.0408H105.147V52.859L103.795 51.2116Z" fill="#E4E8ED"/>
<path d="M112.853 51.2116V50.0312H109.032V51.2116L107.682 52.8576V64.0408H114.202V52.859L112.853 51.2116Z" fill="#E4E8ED"/>
<path d="M121.907 51.2116V50.0312H118.088V51.2116L116.738 52.8576V64.0408H123.259V52.859L121.907 51.2116Z" fill="#E4E8ED"/>
<path d="M130.963 51.2116V50.0312H127.144V51.2116L125.793 52.8576V64.0408H132.314V52.859L130.963 51.2116Z" fill="#E4E8ED"/>
<path d="M140.019 51.2116V50.0312H136.2V51.2116L134.849 52.8576V64.0408H141.37V52.859L140.019 51.2116Z" fill="#E4E8ED"/>
<path d="M149.075 51.2116V50.0312H145.255V51.2116L143.905 52.8576V64.0408H150.425V52.859L149.075 51.2116Z" fill="#E4E8ED"/>
<path d="M158.13 51.2116V50.0312H154.311V51.2116L152.961 52.8576V64.0408H159.481V52.859L158.13 51.2116Z" fill="#E4E8ED"/>
<path d="M251.51 11H179.141V124.095H251.51V11Z" fill="#F5F9FF"/>
<path d="M180 0H177V124H180V0Z" fill="#E4E8ED"/>
<path d="M253 0H250V124H253V0Z" fill="#E4E8ED"/>
<path d="M253 28.4834H178.65V33.1897H253V28.4834Z" fill="#E4E8ED"/>
<path d="M253 56.0342H178.65V60.7405H253V56.0342Z" fill="#E4E8ED"/>
<path d="M253 83.584H178.65V88.2903H253V83.584Z" fill="#E4E8ED"/>
<path d="M253 111.134H178.65V115.84H253V111.134Z" fill="#E4E8ED"/>
<path d="M188.742 14.5938H185.669C184.674 14.5938 183.868 15.4002 183.868 16.3949V27.0431C183.868 28.0378 184.674 28.8442 185.669 28.8442H188.742C189.737 28.8442 190.543 28.0378 190.543 27.0431V16.3949C190.543 15.4002 189.737 14.5938 188.742 14.5938Z" fill="#E4E8ED"/>
<path d="M188.084 12.8369H186.327V14.5934H188.084V12.8369Z" fill="#E4E8ED"/>
<path d="M198.033 14.5938H194.961C193.966 14.5938 193.159 15.4002 193.159 16.3949V27.0431C193.159 28.0378 193.966 28.8442 194.961 28.8442H198.033C199.028 28.8442 199.834 28.0378 199.834 27.0431V16.3949C199.834 15.4002 199.028 14.5938 198.033 14.5938Z" fill="#E4E8ED"/>
<path d="M197.375 12.8369H195.618V14.5934H197.375V12.8369Z" fill="#E4E8ED"/>
<path d="M207.325 14.5938H204.252C203.257 14.5938 202.451 15.4002 202.451 16.3949V27.0431C202.451 28.0378 203.257 28.8442 204.252 28.8442H207.325C208.319 28.8442 209.126 28.0378 209.126 27.0431V16.3949C209.126 15.4002 208.319 14.5938 207.325 14.5938Z" fill="#E4E8ED"/>
<path d="M206.667 12.8369H204.91V14.5934H206.667V12.8369Z" fill="#E4E8ED"/>
<path d="M216.616 14.5938H213.543C212.549 14.5938 211.742 15.4002 211.742 16.3949V27.0431C211.742 28.0378 212.549 28.8442 213.543 28.8442H216.616C217.611 28.8442 218.417 28.0378 218.417 27.0431V16.3949C218.417 15.4002 217.611 14.5938 216.616 14.5938Z" fill="#E4E8ED"/>
<path d="M215.958 12.8369H214.202V14.5934H215.958V12.8369Z" fill="#E4E8ED"/>
<path d="M225.907 14.5938H222.835C221.84 14.5938 221.033 15.4002 221.033 16.3949V27.0431C221.033 28.0378 221.84 28.8442 222.835 28.8442H225.907C226.902 28.8442 227.708 28.0378 227.708 27.0431V16.3949C227.708 15.4002 226.902 14.5938 225.907 14.5938Z" fill="#E4E8ED"/>
<path d="M225.249 12.8369H223.493V14.5934H225.249V12.8369Z" fill="#E4E8ED"/>
<path d="M235.199 14.5938H232.126C231.131 14.5938 230.325 15.4002 230.325 16.3949V27.0431C230.325 28.0378 231.131 28.8442 232.126 28.8442H235.199C236.193 28.8442 237 28.0378 237 27.0431V16.3949C237 15.4002 236.193 14.5938 235.199 14.5938Z" fill="#E4E8ED"/>
<path d="M234.541 12.8369H232.784V14.5934H234.541V12.8369Z" fill="#E4E8ED"/>
<path d="M244.49 14.5938H241.418C240.423 14.5938 239.616 15.4002 239.616 16.3949V27.0431C239.616 28.0378 240.423 28.8442 241.418 28.8442H244.49C245.485 28.8442 246.291 28.0378 246.291 27.0431V16.3949C246.291 15.4002 245.485 14.5938 244.49 14.5938Z" fill="#E4E8ED"/>
<path d="M243.832 12.8369H242.076V14.5934H243.832V12.8369Z" fill="#E4E8ED"/>
<path d="M188.742 42.4697H185.669C184.674 42.4697 183.868 43.2761 183.868 44.2709V54.9191C183.868 55.9138 184.674 56.7202 185.669 56.7202H188.742C189.737 56.7202 190.543 55.9138 190.543 54.9191V44.2709C190.543 43.2761 189.737 42.4697 188.742 42.4697Z" fill="#E4E8ED"/>
<path d="M188.084 40.7129H186.327V42.4694H188.084V40.7129Z" fill="#E4E8ED"/>
<path d="M198.033 42.4697H194.961C193.966 42.4697 193.159 43.2761 193.159 44.2709V54.9191C193.159 55.9138 193.966 56.7202 194.961 56.7202H198.033C199.028 56.7202 199.834 55.9138 199.834 54.9191V44.2709C199.834 43.2761 199.028 42.4697 198.033 42.4697Z" fill="#E4E8ED"/>
<path d="M197.375 40.7129H195.618V42.4694H197.375V40.7129Z" fill="#E4E8ED"/>
<path d="M207.325 42.4697H204.252C203.257 42.4697 202.451 43.2761 202.451 44.2709V54.9191C202.451 55.9138 203.257 56.7202 204.252 56.7202H207.325C208.319 56.7202 209.126 55.9138 209.126 54.9191V44.2709C209.126 43.2761 208.319 42.4697 207.325 42.4697Z" fill="#E4E8ED"/>
<path d="M206.667 40.7129H204.91V42.4694H206.667V40.7129Z" fill="#E4E8ED"/>
<path d="M216.616 42.4697H213.543C212.549 42.4697 211.742 43.2761 211.742 44.2709V54.9191C211.742 55.9138 212.549 56.7202 213.543 56.7202H216.616C217.611 56.7202 218.417 55.9138 218.417 54.9191V44.2709C218.417 43.2761 217.611 42.4697 216.616 42.4697Z" fill="#E4E8ED"/>
<path d="M215.958 40.7129H214.202V42.4694H215.958V40.7129Z" fill="#E4E8ED"/>
<path d="M225.907 42.4697H222.835C221.84 42.4697 221.033 43.2761 221.033 44.2709V54.9191C221.033 55.9138 221.84 56.7202 222.835 56.7202H225.907C226.902 56.7202 227.708 55.9138 227.708 54.9191V44.2709C227.708 43.2761 226.902 42.4697 225.907 42.4697Z" fill="#E4E8ED"/>
<path d="M225.249 40.7129H223.493V42.4694H225.249V40.7129Z" fill="#E4E8ED"/>
<path d="M235.199 42.4697H232.126C231.131 42.4697 230.325 43.2761 230.325 44.2709V54.9191C230.325 55.9138 231.131 56.7202 232.126 56.7202H235.199C236.193 56.7202 237 55.9138 237 54.9191V44.2709C237 43.2761 236.193 42.4697 235.199 42.4697Z" fill="#E4E8ED"/>
<path d="M234.541 40.7129H232.784V42.4694H234.541V40.7129Z" fill="#E4E8ED"/>
<path d="M244.49 42.4697H241.418C240.423 42.4697 239.616 43.2761 239.616 44.2709V54.9191C239.616 55.9138 240.423 56.7202 241.418 56.7202H244.49C245.485 56.7202 246.291 55.9138 246.291 54.9191V44.2709C246.291 43.2761 245.485 42.4697 244.49 42.4697Z" fill="#E4E8ED"/>
<path d="M243.832 40.7129H242.076V42.4694H243.832V40.7129Z" fill="#E4E8ED"/>
<path d="M246.671 97.7988H221.051V112.049H246.671V97.7988Z" fill="#E4E8ED"/>
<path d="M210.557 97.7988H184.937V112.049H210.557V97.7988Z" fill="#E4E8ED"/>
<path d="M188.248 69.5039V68.6396H186.451V69.2518C186.451 69.6542 186.291 70.0402 186.007 70.3248C185.722 70.6093 185.336 70.7692 184.934 70.7692C184.901 70.7692 184.868 70.7757 184.837 70.7884C184.807 70.8011 184.779 70.8196 184.756 70.843C184.732 70.8664 184.714 70.8942 184.701 70.9248C184.688 70.9554 184.682 70.9882 184.682 71.0213V84.2451H190.019V71.0213C190.019 70.9544 189.993 70.8903 189.946 70.843C189.898 70.7958 189.834 70.7692 189.767 70.7692H189.515C189.349 70.7696 189.184 70.7371 189.03 70.6737C188.877 70.6103 188.737 70.5171 188.619 70.3996C188.501 70.282 188.408 70.1424 188.344 69.9887C188.28 69.835 188.248 69.6702 188.248 69.5039Z" fill="#E4E8ED"/>
<path d="M188.718 66.1689H185.981V68.6395H188.718V66.1689Z" fill="#E4E8ED"/>
<path d="M197.276 69.5039V68.6396H195.48V69.2518C195.48 69.6542 195.32 70.0402 195.035 70.3248C194.751 70.6093 194.365 70.7692 193.962 70.7692C193.929 70.7692 193.896 70.7757 193.866 70.7884C193.835 70.8011 193.808 70.8196 193.784 70.843C193.761 70.8664 193.742 70.8942 193.73 70.9248C193.717 70.9554 193.71 70.9882 193.71 71.0213V84.2451H199.046V71.0213C199.046 70.9544 199.02 70.8903 198.973 70.843C198.925 70.7958 198.861 70.7692 198.794 70.7692H198.542C198.376 70.7694 198.211 70.7368 198.058 70.6733C197.904 70.6098 197.765 70.5166 197.647 70.3991C197.529 70.2815 197.436 70.142 197.372 69.9884C197.309 69.8348 197.276 69.6701 197.276 69.5039Z" fill="#E4E8ED"/>
<path d="M197.747 66.1689H195.009V68.6395H197.747V66.1689Z" fill="#E4E8ED"/>
<path d="M206.305 69.5039V68.6396H204.508V69.2518C204.508 69.6542 204.348 70.0402 204.064 70.3248C203.779 70.6093 203.393 70.7692 202.991 70.7692C202.924 70.7692 202.86 70.7958 202.813 70.843C202.765 70.8903 202.739 70.9544 202.739 71.0213V84.2451H208.075V71.0213C208.075 70.9544 208.048 70.8903 208.001 70.843C207.954 70.7958 207.89 70.7692 207.823 70.7692H207.571C207.405 70.7694 207.24 70.7368 207.086 70.6733C206.933 70.6098 206.793 70.5166 206.675 70.3991C206.558 70.2815 206.465 70.142 206.401 69.9884C206.337 69.8348 206.305 69.6701 206.305 69.5039Z" fill="#E4E8ED"/>
<path d="M206.775 66.1689H204.038V68.6395H206.775V66.1689Z" fill="#E4E8ED"/>
<path d="M215.334 69.5039V68.6396H213.537V69.2518C213.537 69.6542 213.377 70.0402 213.092 70.3248C212.808 70.6093 212.422 70.7692 212.019 70.7692C211.953 70.7692 211.888 70.7958 211.841 70.843C211.794 70.8903 211.767 70.9544 211.767 71.0213V84.2451H217.103V71.0213C217.103 70.9882 217.097 70.9554 217.084 70.9248C217.072 70.8942 217.053 70.8664 217.03 70.843C217.006 70.8196 216.978 70.8011 216.948 70.7884C216.917 70.7757 216.885 70.7692 216.851 70.7692H216.599C216.433 70.7693 216.269 70.7367 216.115 70.6732C215.961 70.6096 215.822 70.5165 215.704 70.3989C215.587 70.2814 215.493 70.1419 215.43 69.9883C215.366 69.8347 215.334 69.6701 215.334 69.5039Z" fill="#E4E8ED"/>
<path d="M215.804 66.1689H213.066V68.6395H215.804V66.1689Z" fill="#E4E8ED"/>
<path d="M224.362 69.5039V68.6396H222.565V69.2518C222.565 69.4511 222.526 69.6484 222.45 69.8325C222.373 70.0166 222.262 70.1839 222.121 70.3248C221.98 70.4657 221.813 70.5774 221.629 70.6537C221.444 70.73 221.247 70.7692 221.048 70.7692C220.981 70.7692 220.917 70.7958 220.87 70.843C220.822 70.8903 220.796 70.9544 220.796 71.0213V84.2451H226.132V71.0213C226.132 70.9544 226.106 70.8903 226.058 70.843C226.011 70.7958 225.947 70.7692 225.88 70.7692H225.628C225.462 70.7694 225.297 70.7369 225.143 70.6734C224.99 70.6099 224.85 70.5167 224.732 70.3992C224.615 70.2817 224.522 70.1421 224.458 69.9884C224.394 69.8348 224.362 69.6701 224.362 69.5039Z" fill="#E4E8ED"/>
<path d="M224.832 66.1689H222.095V68.6395H224.832V66.1689Z" fill="#E4E8ED"/>
<path d="M233.39 69.5039V68.6396H231.594V69.2518C231.594 69.6542 231.434 70.0402 231.149 70.3248C230.865 70.6093 230.479 70.7692 230.076 70.7692C230.043 70.7692 230.011 70.7757 229.98 70.7884C229.949 70.8011 229.922 70.8196 229.898 70.843C229.875 70.8664 229.856 70.8942 229.844 70.9248C229.831 70.9554 229.824 70.9882 229.824 71.0213V84.2451H235.161V71.0213C235.161 70.9544 235.134 70.8903 235.087 70.843C235.04 70.7958 234.976 70.7692 234.909 70.7692H234.657C234.49 70.7694 234.326 70.7369 234.172 70.6734C234.018 70.6099 233.879 70.5167 233.761 70.3992C233.643 70.2817 233.55 70.1421 233.487 69.9884C233.423 69.8348 233.39 69.6701 233.39 69.5039Z" fill="#E4E8ED"/>
<path d="M233.861 66.1689H231.123V68.6395H233.861V66.1689Z" fill="#E4E8ED"/>
<path d="M242.419 69.5039V68.6396H240.622V69.2518C240.622 69.6542 240.462 70.0402 240.178 70.3248C239.893 70.6093 239.507 70.7692 239.105 70.7692C239.072 70.7692 239.039 70.7757 239.008 70.7884C238.978 70.8011 238.95 70.8196 238.927 70.843C238.903 70.8664 238.885 70.8942 238.872 70.9248C238.859 70.9554 238.853 70.9882 238.853 71.0213V84.2451H244.189V71.0213C244.189 70.9544 244.163 70.8903 244.115 70.843C244.068 70.7958 244.004 70.7692 243.937 70.7692H243.685C243.519 70.7695 243.354 70.737 243.2 70.6735C243.047 70.61 242.907 70.5168 242.789 70.3993C242.672 70.2818 242.578 70.1422 242.515 69.9885C242.451 69.8349 242.419 69.6702 242.419 69.5039Z" fill="#E4E8ED"/>
<path d="M242.889 66.1689H240.152V68.6395H242.889V66.1689Z" fill="#E4E8ED"/>
<path d="M33.5031 174.078C51.2373 174.078 65.6138 171.55 65.6138 168.43C65.6138 165.31 51.2373 162.781 33.5031 162.781C15.7688 162.781 1.39233 165.31 1.39233 168.43C1.39233 171.55 15.7688 174.078 33.5031 174.078Z" fill="#E4E8ED"/>
<path d="M25.3072 33.6166C25.3072 33.6166 22.5964 36.3397 23.0356 44.5778C23.405 51.5059 16.1546 58.0795 19.9612 60.8609C23.9694 63.79 28.0509 62.0933 29.9953 62.2225L38.8339 62.0415C49.0234 56.7855 38.6371 55.1429 40.3742 45.6012C41.2627 40.7199 42.1468 36.1697 40.0048 32.8203L25.3072 33.6166Z" fill="#333333"/>
<path d="M39.5496 57.12C42.7654 61.3526 44.9931 69.5649 45.1613 72.9292C45.727 84.2418 50.6237 82.8495 56.1651 89.8008C56.6043 90.3516 57.2772 92.7435 55.4347 91.9222C47.7539 88.4924 41.0192 82.846 38.0088 74.5521C36.7747 71.1522 36.9772 69.2205 34.8027 65.5787C33.395 63.2228 30.1409 58.7095 33.485 55.6847C33.8439 55.3605 34.2712 55.3144 34.8365 55.0834C37.1102 54.1545 38.5526 55.8081 39.5496 57.12Z" fill="#D4908E"/>
<path d="M49.8021 83.9629C48.914 85.0018 48.0012 86.0175 47.0636 87.0101C47.9206 87.6865 48.8007 88.3295 49.7037 88.9391C50.6027 88.0071 51.4478 87.0246 52.2348 85.9964C51.4131 85.3306 50.5944 84.6634 49.8021 83.9629Z" fill="#28A96B"/>
<path d="M56.7286 96.1988C55.3011 95.3305 54.6897 94.3612 54.7815 92.6729" stroke="#D4908E" stroke-width="7.337" stroke-linecap="round" stroke-linejoin="round"/>
<path d="M53.5521 93.8157C52.3079 92.8907 52.0949 89.1368 53.1687 88.5378C54.0713 88.034 54.2448 87.9971 54.8447 88.2325C56.1881 88.8249 57.5 89.4862 58.7752 90.2138C59.9127 90.7997 60.3212 91.5178 59.5117 92.7265C59.268 93.091 58.0654 93.9786 57.725 94.2777C57.1176 94.8114 56.2045 94.5544 55.8009 94.3344C54.8579 93.8201 54.4762 93.6053 53.5521 93.8157Z" fill="#D4908E"/>
<path d="M73.8811 123.191L71.3438 123.091L68.8082 125.424L48.896 122.2L51.1605 111.541L49.7481 100.736L74.7331 101.728L73.2807 113.563L73.8811 123.191Z" fill="#BF955F"/>
<path d="M67.2861 107.494L65.7353 98.4982C65.4718 95.8498 62.8475 93.8787 60.4547 93.7838C58.0619 93.6889 56.9494 95.5182 56.4777 98.1372L54.8812 107.002" stroke="#533A39" stroke-width="2.541" stroke-linecap="round" stroke-linejoin="round"/>
<path d="M49.7482 100.734L49.2172 101.984L44.963 102.978L45.4461 106.674L69.5225 108.694L69.9481 103.968L70.7826 102.745L74.7354 101.724L49.7482 100.734Z" fill="#A17D50"/>
<path d="M71.9124 102.616C71.9124 102.616 76.6119 101.013 74.4514 99.2388C72.291 97.4649 69.0725 102.943 69.0725 102.943C69.0725 102.943 73.1896 96.9607 71.2075 96.0032C69.2253 95.0457 68.7852 99.6455 68.7852 99.6455C68.7852 99.6455 68.2745 96.8785 66.9322 97.7952C65.59 98.7118 67.2186 105.833 67.2186 105.833L71.9124 102.616Z" fill="#A1C750"/>
<path d="M56.9652 106.857C55.3186 108.221 53.6496 107.78 52.1225 106.283C50.5954 104.786 49.9388 102.966 51.4347 101.439C53.1406 99.6983 55.3375 99.7097 55.995 102.318C58.4453 102.888 58.7409 105.386 56.9652 106.857Z" fill="#FF4F5C"/>
<path d="M55.7791 102.55C55.7791 102.55 56.9812 100.695 58.4718 101.085" stroke="#A67836" stroke-width="1.27" stroke-linecap="round" stroke-linejoin="round"/>
<path d="M70.4137 88.8133L54.5145 121.129L51.5718 119.224L65.846 89.0949C65.9763 88.813 66.1631 88.5607 66.3946 88.3537C66.6261 88.1467 66.8976 87.9893 67.1923 87.8911C67.4869 87.7929 67.7986 87.7561 68.108 87.7829C68.4175 87.8097 68.7181 87.8996 68.9915 88.0469L70.4137 88.8133Z" fill="#EFC269"/>
<path d="M70.4137 88.8135L71.1538 89.2399C71.6018 89.4979 71.9352 89.9162 72.087 90.4104C72.2388 90.9045 72.1975 91.4379 71.9716 91.9028L57.0738 122.575L54.5167 121.129L70.4137 88.8135Z" fill="#EFC269"/>
<path d="M67.3701 92.1755L65.3879 91.1025" stroke="#FFE9D1" stroke-width="0.635" stroke-linecap="round" stroke-linejoin="round"/>
<path d="M64.6465 97.1784L62.6643 96.1055" stroke="#FFE9D1" stroke-width="0.635" stroke-linecap="round" stroke-linejoin="round"/>
<path d="M62.4088 102.302L60.4266 101.229" stroke="#FFE9D1" stroke-width="0.635" stroke-linecap="round" stroke-linejoin="round"/>
<path d="M59.6992 107.548L57.7167 106.475" stroke="#FFE9D1" stroke-width="0.635" stroke-linecap="round" stroke-linejoin="round"/>
<path d="M57.2634 112.769L55.2809 111.696" stroke="#FFE9D1" stroke-width="0.635" stroke-linecap="round" stroke-linejoin="round"/>
<path d="M54.7442 117.729L52.7616 116.656" stroke="#FFE9D1" stroke-width="0.635" stroke-linecap="round" stroke-linejoin="round"/>
<g style="mix-blend-mode:multiply">
<path d="M60.9449 99.4426L51.5718 119.225L54.5145 121.13L57.0715 122.576L68.7333 98.5664C66.2193 100.214 63.3904 100.896 60.9449 99.4426Z" fill="#FFE9D1"/>
</g>
<path d="M69.096 125.435L44.111 124.443L46.3755 113.784L44.963 102.979L69.9481 103.971L68.9818 114.682L69.096 125.435Z" fill="#E8B573"/>
<path d="M65.6135 107.428L64.7246 98.4652C64.6536 97.2283 64.1248 96.062 63.2411 95.1937C62.3574 94.3253 61.1821 93.817 59.9442 93.7676C58.7062 93.7183 57.4942 94.1315 56.5442 94.9268C55.5943 95.7221 54.9743 96.8425 54.8051 98.0699L53.2086 106.934" stroke="#7A5654" stroke-linecap="round" stroke-linejoin="round"/>
<path d="M57.1765 93.5693C59.0835 94.0129 59.6361 95.5589 59.001 97.3166" stroke="#D4908E" stroke-width="4.707" stroke-linecap="round" stroke-linejoin="round"/>
<path d="M57.9403 93.4131C60.258 94.1316 60.9708 95.0548 59.741 97.3374" stroke="#D4908E" stroke-width="4.707" stroke-linecap="round" stroke-linejoin="round"/>
<path d="M59.1501 92.3916C60.5793 93.8779 61.2583 95.318 60.3562 97.2892" stroke="#D4908E" stroke-width="4.707" stroke-linecap="round" stroke-linejoin="round"/>
<path d="M58.2213 91.2334C61.2769 92.627 62.6028 94.2797 60.084 97.0678" stroke="#D4908E" stroke-width="4.707" stroke-linecap="round" stroke-linejoin="round"/>
<path d="M33.7882 52.9863C36.6773 53.9236 37.7213 52.1365 40.599 54.7067C42.8455 56.7134 43.7498 63.5826 44.4473 67.1858C45.1448 70.7891 45.1197 74.7428 46.3917 78.321C47.068 80.2245 51.4689 82.258 50.608 84.7057C50.189 85.8942 48.7634 88.168 46.5028 87.6177C44.2422 87.0673 37.6611 76.5058 37.5149 76.0376C34.2749 65.66 25.8079 62.3541 33.7882 52.9863Z" fill="#2DBE78"/>
<path d="M14.333 152.577C14.333 152.577 13.1076 157.427 12.8665 158.454C12.6713 159.139 12.3029 159.762 11.797 160.264C11.797 160.264 15.554 162.206 16.9014 162.533C18.2489 162.861 17.8804 160.606 17.8804 160.606L17.5405 160.066C17.3553 159.772 17.2379 159.441 17.197 159.096C17.156 158.751 17.1925 158.402 17.3038 158.073L18.7606 153.763L14.333 152.577Z" fill="#DB9693"/>
<path d="M12.4083 163.906L10.9927 163.423C10.8779 163.384 10.7835 163.301 10.7301 163.192C10.6768 163.083 10.6688 162.957 10.7081 162.842L11.1407 161.578L14.0114 162.416L12.9893 163.623C12.9212 163.712 12.8332 163.784 12.7324 163.834C12.6315 163.883 12.5205 163.908 12.4083 163.906Z" fill="#0B4047"/>
<path d="M24.5722 165.826C24.6311 165.089 23.3205 164.534 23.3205 164.534C22.1584 164.007 21.0772 163.317 20.1095 162.485C19.3508 161.876 18.6502 161.197 18.0166 160.459C17.7496 160.606 17.4675 160.723 17.1751 160.81C17.1677 161.026 17.0816 161.45 17.0082 162.048C16.6129 161.593 16.511 160.95 16.0859 160.804C15.1871 160.665 14.3037 160.44 13.4476 160.133C12.7954 159.948 12.657 159.043 12.657 159.043C12.0127 158.8 11.7413 159.424 11.6438 159.708L11.2182 160.953L11.1703 161.091L11.0539 161.431C10.9028 161.873 10.7228 162.212 11.165 162.363C11.165 162.363 12.6684 162.846 15.6304 163.684C16.2453 164.258 16.7407 164.962 17.4795 165.304C19.6966 166.331 23.0069 166.562 23.0069 166.562C23.9125 166.641 24.5257 166.408 24.5722 165.826Z" fill="#0B4047"/>
<path d="M29.293 78.8516C30.3234 90.9363 18.2153 89.3833 22.2727 117.241C22.2727 117.241 18.5395 124.467 17.7309 128.904C15.9886 138.466 13.5145 154.211 13.1039 155.403L17.7902 157.211C18.5289 155.53 27.4799 132.63 31.4174 121.128C33.9051 113.862 40.8243 103.711 42.3536 92.0914C42.9211 87.7767 42.109 85.2398 41.6004 82.1214C35.8587 78.9271 29.293 78.8516 29.293 78.8516Z" fill="#333333"/>
<path d="M44.7564 157.857C44.7332 159.507 44.7494 162.174 44.7226 163.585C44.6958 164.995 44.4112 164.833 44.1433 165.938C45.7657 166.157 47.8932 166.907 49.4318 166.799C50.9703 166.691 50.1683 165.666 50.1134 164.785C49.9507 164.644 49.7959 164.495 49.6496 164.337C49.1784 163.662 48.9122 163.283 48.9579 162.4C49.0321 160.971 49.2306 159.381 49.3352 157.917C47.8111 157.893 46.2827 157.805 44.7564 157.857Z" fill="#FFAEAB"/>
<path d="M45.5839 169.246C45.0977 169.275 44.6098 169.236 44.1346 169.129C43.7252 169.05 43.7252 168.982 43.6853 168.606C43.6453 168.23 43.7889 167.719 43.7854 167.317C44.7806 167.356 45.7767 167.392 46.7632 167.458C46.5875 167.836 46.2537 168.481 46.0969 168.793C45.9401 169.105 45.811 169.222 45.5839 169.246Z" fill="#0B4047"/>
<path d="M57.6766 168.348C57.7148 167.462 56.8641 167.514 56.2496 167.332C55.0101 167.033 53.8049 166.606 52.6534 166.059C51.7977 165.635 50.9755 165.148 50.1939 164.6C49.9645 164.8 49.7177 164.98 49.4565 165.137C49.5149 165.545 49.551 165.957 49.5645 166.369C49.3449 166.1 48.7594 165.455 48.4511 165.437C47.6685 165.393 46.4106 165.455 45.8598 165.369C44.919 165.222 45.1698 164.985 44.6388 164.495C44.1469 164.467 43.8983 164.937 43.8456 165.337C43.7929 165.737 43.7516 166.328 43.7262 166.582C43.7007 166.835 43.7121 166.693 43.7046 166.82C43.6972 166.946 43.6607 167.088 43.6686 167.169C43.7016 167.591 43.4407 167.973 44.0362 168.047C45.5203 168.23 47.1137 168.202 48.6453 168.307C49.2879 168.77 49.9937 169.138 50.7411 169.399C52.5388 169.799 54.6773 169.559 56.2409 169.393C57.244 169.285 57.6459 169.049 57.6766 168.348Z" fill="#0B4047"/>
<path d="M19.5634 89.5543C19.9472 96.5772 20.3056 98.4578 24.6142 105.042C28.9228 111.627 34.5754 118.728 38.0368 126.966C36.9906 139.2 42.4885 150.229 44.3244 162.028C46.0154 162.248 47.654 161.879 49.3858 162.536C48.3818 147.431 48.727 138.119 47.5772 121.352C47.1652 115.356 42.6357 101.81 38.8322 92.1763C37.0942 87.7737 36.3963 86.4205 34.8609 83.9658C29.0115 84.7709 25.1452 87.5695 19.5634 89.5543Z" fill="#4D4D4D"/>
<path d="M43.6761 149.793C41.5376 139.984 43.0485 131.975 42.3071 128.297C41.5166 124.365 39.4119 121.438 37.305 118.125C35.9498 115.949 34.7153 113.701 33.6069 111.39C32.895 109.94 31.8062 108.092 32.8335 106.534C33.5309 105.48 34.2692 105.067 34.4735 103.653C34.6931 102.134 33.5511 89.2407 32.7606 84.3555C28.0211 85.4566 24.449 87.8177 19.562 89.5557C19.9459 96.5786 20.3043 98.4592 24.6129 105.044C28.9215 111.628 34.574 118.729 38.0354 126.968C36.9892 139.202 42.4872 150.231 44.3231 162.029C45.1887 162.106 46.0578 162.137 46.9267 162.122C45.4821 158.602 44.6889 154.44 43.6761 149.793Z" fill="#333333"/>
<path d="M35.0076 94.1514C35.0076 94.1514 33.9869 96.8024 30.0446 96.8024" stroke="#1A1A1A" stroke-miterlimit="10"/>
<path d="M30.4403 91.999C30.7319 95.4951 28.9523 97.1702 25.9916 98.6881" stroke="#A81C37" stroke-width="3" stroke-miterlimit="10"/>
<path d="M42.8662 85.9669C42.8662 85.9669 43.2461 87.87 36.2935 90.3669C30.0212 92.6196 21.6078 91.2273 18.8672 88.3263C18.766 88.2222 18.6984 88.0901 18.673 87.9472C18.6477 87.8042 18.6657 87.6569 18.7249 87.5243C19.0279 86.8141 19.6375 85.4118 19.9107 84.962C19.9107 84.962 24.0441 89.8864 32.4623 87.3017C40.8806 84.7169 41.3171 83.748 41.3171 83.748L42.8662 85.9669Z" fill="#333333"/>
<path d="M20.9435 86.7188C20.9435 86.7188 19.5318 87.707 19.7137 90.2961" stroke="#CC2749" stroke-width="3.263" stroke-miterlimit="10"/>
<path d="M26.2366 88.0645C25.3317 89.284 24.9002 90.7905 25.0222 92.3041" stroke="#CC2749" stroke-width="3.263" stroke-miterlimit="10"/>
<path d="M31.4174 88.501C31.6618 89.9173 32.0576 91.3034 32.5979 92.6352" stroke="#1A1A1A" stroke-miterlimit="10"/>
<path d="M36.3981 87.3281C36.4376 87.3435 36.7661 89.7697 37.0481 91.4496" stroke="#1A1A1A" stroke-miterlimit="10"/>
<path d="M39.0056 85.2725C40.3301 86.0425 41.338 87.2578 41.8499 88.7018" stroke="#1A1A1A" stroke-miterlimit="10"/>
<path d="M41.4124 79.4664C40.8129 76.2976 41.4216 76.0064 42.5851 70.7724C43.3449 67.3562 44.3551 64.9384 42.889 62.5193C39.2436 56.5057 40.8638 52.8651 34.3193 52.9306L29.9953 53.5867C24.8223 55.5491 22.2565 57.3938 22.2701 62.1798L25.3336 71.4409C26.1878 73.4449 25.3336 76.5119 24.6572 78.4326C24.1007 80.0137 23.2517 80.0453 22.7401 80.6286C21.3052 82.2677 23.2763 84.274 23.2763 84.274C23.2763 84.274 28.5345 90.8348 39.3622 88.6063C41.0575 88.1376 42.5663 87.1557 43.6813 85.7954C43.6813 85.7954 44.9669 85.0795 43.6374 83.3038C42.4437 81.7064 41.6781 80.8719 41.4124 79.4664Z" fill="#FFD101"/>
<path d="M37.4652 53.3623C39.1124 53.4999 40.7099 53.9945 42.1467 54.8117C43.1683 55.4046 45.2506 60.3602 45.1421 68.6831C44.9111 86.4511 48.896 97.4721 48.896 97.4721C48.896 97.4721 49.5904 100.716 42.8635 101.791C42.8635 101.791 42.3053 98.2442 42.3553 90.8432C42.4054 83.4421 42.4274 78.8248 42.4274 78.8248L42.1691 66.0913L37.4652 53.3623Z" fill="#2DBE78"/>
<path d="M43.5374 66.5252C43.7478 65.0899 43.6692 63.8021 42.8892 62.5188C41.9931 61.0058 41.2453 59.4098 40.6562 57.7529" stroke="#28A96B" stroke-width="0.5" stroke-miterlimit="10"/>
<path d="M35.6461 51.7041C36.3999 51.9358 37.0838 52.3523 37.6355 52.9158C38.1873 53.4792 38.5894 54.1716 38.8053 54.9301C39.2885 56.4166 39.5731 57.9604 39.6517 59.5215L38.0912 56.8301L37.7016 58.9466L36.4174 57.6312C36.4359 56.3926 36.3604 55.1545 36.1916 53.9274C36.0946 53.168 35.9116 52.4221 35.6461 51.7041Z" fill="#22915C"/>
<path d="M30.1824 53.9111C30.1824 53.9111 31.9344 58.4314 36.8807 57.5648C37.865 57.1757 36.705 53.4363 36.705 53.4363C36.6457 52.7502 36.1736 52.5478 35.6478 51.7027C35.5499 50.5261 35.556 48.7996 36.0998 47.561C35.4269 46.5232 31.3564 46.3102 30.1841 47.706C30.7094 49.7355 30.1824 53.9111 30.1824 53.9111Z" fill="#E39B98"/>
<path d="M31.879 49.8898C32.7393 50.4888 33.6984 50.9316 34.7123 51.1977C35.0114 51.2856 35.318 51.3664 35.6281 51.4358C35.5534 50.275 35.5934 48.7127 36.098 47.562C35.4252 46.5242 31.3546 46.3111 30.1824 47.7069C30.1947 47.7544 30.2061 47.8044 30.2171 47.8541C30.6345 48.6335 31.1989 49.3248 31.879 49.8898Z" fill="#BD817F"/>
<path d="M39.7307 41.8839C39.4633 42.0731 39.1846 42.246 38.8962 42.4017C38.746 42.4599 38.5993 42.527 38.457 42.6028C38.4205 42.6322 38.3748 42.6477 38.3279 42.6468L36.6589 33.8236L40.0074 32.8213C40.0074 32.8213 41.7726 36.8769 38.9094 41.496C38.9046 41.4974 39.7338 41.8817 39.7307 41.8839Z" fill="#333333"/>
<path d="M39.4936 37.3828C39.4936 37.3828 41.0879 39.7449 39.9301 43.3819C39.9301 43.3819 37.937 43.3103 38.2027 40.7906L39.4936 37.3828Z" fill="#333333"/>
<path d="M28.7993 36.0229C30.2856 34.1009 29.463 32.829 32.0806 32.7288C32.1685 32.7258 32.259 32.7288 32.349 32.7288C32.4368 32.7218 32.5295 32.7135 32.6165 32.7099C35.2333 32.612 36.2263 32.4385 37.9366 34.1866C40.1488 36.448 39.555 41.0461 39.6244 42.5126C39.8221 46.6881 38.9775 49.2157 36.1284 49.488C34.5472 49.7713 32.566 49.0787 30.1824 47.7062C28.4172 46.3679 27.4246 45.2093 27.2094 43.0475C27.064 41.5867 27.8704 37.2241 28.7993 36.0229Z" fill="#FFAEAB"/>
<path d="M40.0048 32.8226C38.179 29.4236 29.0572 30.2638 29.0572 30.2638C29.0572 30.2638 25.3073 31.1901 24.5422 36.1167C24.2264 39.1011 25.6907 42.1746 25.6907 42.1746L26.9174 41.775C26.9174 41.775 29.5504 40.9435 29.2579 38.7914C33.2652 38.7914 36.0981 37.3838 39.2823 34.3555C39.6517 33.9233 40.3566 33.4753 40.0048 32.8226Z" fill="#333333"/>
<path d="M28.0403 41.2669C27.7305 41.0717 27.3757 40.9596 27.01 40.9414C26.1175 40.9414 25.1403 41.3503 25.1403 42.5414C25.1403 43.7326 25.9089 44.719 27.3323 45.0449C27.6992 45.1397 28.0886 45.087 28.4172 44.8982C28.3794 43.6802 28.2535 42.4666 28.0403 41.2669Z" fill="#FFAEAB"/>
<path d="M29.1481 38.6348C29.1481 38.6348 30.9071 40.8861 29.5433 44.5781C29.5433 44.5781 28.3408 43.6997 28.0435 40.7219L29.1481 38.6348Z" fill="#333333"/>
<path d="M39.2655 33.4297C39.2655 33.4297 38.0841 38.0343 31.2343 39.2711" stroke="#333333" stroke-width="0.5" stroke-linecap="round" stroke-linejoin="round"/>
<path d="M30.8224 58.71C31.3675 59.4708 31.6631 60.3821 31.6683 61.318C31.732 64.1729 31.9344 69.7411 32.346 75.8865C32.9912 85.5292 31.4175 102.978 31.4175 102.978C31.4175 102.978 20.5884 104.376 15.025 99.6892C15.025 99.6892 16.199 94.5505 17.6743 87.3264C18.6621 82.4877 21.3219 79.6026 21.184 76.8505C20.6095 65.3969 15.13 59.5208 25.5976 54.8986C26.911 54.6224 28.1926 54.2125 29.4226 53.6754C30.2764 53.238 30.2426 57.4258 30.8224 58.71Z" fill="#2DBE78"/>
<path d="M23.6875 96.5467C24.2374 91.8472 27.7347 88.1746 32.3697 87.8179C32.5252 83.6064 32.5722 79.2666 32.346 75.8865C31.9344 69.7411 31.7311 64.1711 31.6683 61.318C31.6631 60.3821 31.3675 59.4708 30.8224 58.71C30.2426 57.4258 30.2764 53.238 29.4226 53.6754C28.1926 54.2125 26.911 54.6224 25.5976 54.8986C15.13 59.5208 20.6095 65.3956 21.184 76.8505C21.3219 79.6026 18.6621 82.4877 17.6743 87.3265C16.199 94.5527 15.025 99.6892 15.025 99.6892C17.9264 102.133 22.2574 102.921 25.7416 103.115C24.1653 101.552 23.3748 99.2166 23.6875 96.5467Z" fill="#28A96B"/>
<path d="M31.6682 61.3177L28.9648 60.1283L30.365 57.9688L31.6682 61.3177Z" fill="#B3362F"/>
<path d="M31.6683 61.3181C31.6683 61.3181 31.7952 59.6434 30.2237 53.5508L30.3871 51.4355C30.3871 51.4355 28.4173 52.5156 28.0457 54.3782C27.2667 56.9292 27.398 59.6715 28.4173 62.1363L30.1824 59.8086L31.6683 61.3181Z" fill="#22915C"/>
<path d="M28.3817 87.3426C27.2148 87.3575 24.9384 87.2684 23.1078 86.4756C23.0134 86.4354 22.9112 86.4169 22.8088 86.4216C22.7063 86.4263 22.6062 86.454 22.5159 86.5026C22.4256 86.5513 22.3475 86.6196 22.2872 86.7026C22.227 86.7856 22.1862 86.8811 22.1679 86.982L21.9663 88.0651C21.9369 88.2204 21.9622 88.3812 22.0378 88.52C22.1135 88.6588 22.2349 88.7672 22.3813 88.8267C24.2495 89.5996 26.2562 89.9817 28.2777 89.9497C28.4443 89.9436 28.6032 89.8778 28.7254 89.7643C28.8476 89.6508 28.9248 89.4971 28.9431 89.3313L29.0695 88.1016C29.0801 88.0053 29.0701 87.908 29.0403 87.8159C29.0104 87.7238 28.9614 87.6391 28.8964 87.5673C28.8314 87.4956 28.7519 87.4385 28.6632 87.3998C28.5745 87.361 28.4785 87.3415 28.3817 87.3426Z" fill="#22915C"/>
<path d="M23.3408 56.095C18.2742 58.4707 16.7255 59.9262 12.3484 63.7894C10.7339 65.2142 8.37713 67.4999 8.20715 69.1991C12.1653 69.9019 14.6907 69.4627 18.1332 69.0977C22.083 67.2939 27.4782 65.8208 29.9974 62.2246C31.6256 59.8972 27.5858 54.1041 23.3408 56.095Z" fill="#2DBE78"/>
<path d="M29.9953 62.2256C27.9899 65.0883 24.6173 66.3901 21.3329 67.7117" stroke="#B3362F" stroke-linecap="round" stroke-linejoin="round"/>
<path d="M20.6672 61.7129L35.7201 64.6727L41.0055 67.3022L21.6554 63.2281L20.6672 61.7129Z" fill="#A17D50"/>
<path d="M29.4693 61.026C29.4693 61.026 29.8931 62.0283 30.3078 61.8737C30.4253 61.8212 30.521 61.7294 30.5782 61.6141C30.6354 61.4988 30.6507 61.3671 30.6213 61.2417C30.6213 61.2417 31.1361 62.6379 31.5608 62.3278C31.9855 62.0178 31.4804 60.8249 31.4804 60.8249C31.4804 60.8249 33.0176 62.4249 33.3905 61.4587C33.7634 60.4924 31.3504 58.9042 30.9156 59.3694C30.9156 59.3694 31.4725 57.4013 30.6841 56.9713C29.8958 56.5413 30.0693 58.5573 30.0693 58.5573C30.0693 58.5573 29.3929 56.7794 28.7077 57.3038C28.0226 57.8282 29.1311 58.902 29.1311 58.902C29.1311 58.902 27.7472 57.84 27.4942 58.4958C27.2412 59.1515 28.2826 59.4572 28.2826 59.4572C28.2826 59.4572 27.6637 59.6184 27.8759 60.0594C28.088 60.5003 28.807 60.5245 28.807 60.5245C28.807 60.5245 28.7714 61.467 29.4693 61.026Z" fill="#A1C750"/>
<path opacity="0.3" d="M30.4975 57.2647C30.1659 57.5972 30.1461 58.234 30.1795 58.7391C30.1399 58.6267 30.0995 58.5133 30.0574 58.4014C30.0367 57.9371 30.0315 56.6151 30.6841 56.9713C30.7475 57.0063 30.8041 57.0523 30.8515 57.107C30.7849 57.1085 30.7194 57.1231 30.6586 57.1502C30.5978 57.1773 30.543 57.2162 30.4975 57.2647Z" fill="#5C9C32"/>
<path opacity="0.3" d="M31.5032 60.333C31.803 60.6998 32.1757 61.0004 32.5977 61.2158C32.7584 61.2975 33.289 61.5672 33.3935 61.2365C33.4085 61.1882 33.4148 61.1376 33.4124 61.0871C33.442 61.2104 33.4343 61.3397 33.3904 61.4587C33.083 62.2493 31.9982 61.3199 31.6156 60.9576C31.6012 60.7459 31.5635 60.5364 31.5032 60.333Z" fill="#5C9C32"/>
<path opacity="0.3" d="M30.0788 59.8009C29.8185 60.1935 29.5979 60.6108 29.42 61.0469L29.1016 60.9591L29.5408 59.6613C29.5408 59.6613 29.6084 59.2589 29.8873 59.2998C30.0722 59.327 30.1719 59.6266 30.0788 59.8009Z" fill="#5C9C32"/>
<path d="M29.1447 60.4664C31.4132 60.8283 30.9275 63.2053 30.9275 63.2053C31.0127 63.5398 31.0308 63.8879 30.9808 64.2295C30.9307 64.5711 30.8135 64.8993 30.6358 65.1953C30.706 66.1856 30.4575 67.1723 29.9265 68.0111C29.7069 69.4859 28.637 71.2713 27.7494 67.73C27.7494 67.73 26.8372 66.3175 27.2114 65.3034C26.8903 64.9248 26.643 64.2932 26.7748 63.9774C25.7769 60.513 28.5602 60.3733 29.1447 60.4664Z" fill="#EFC269"/>
<g style="mix-blend-mode:multiply" opacity="0.3">
<path d="M28.1068 63.3221C28.0802 63.292 28.0536 63.2606 28.0283 63.2288L28.0327 63.2227L28.1068 63.3221Z" fill="#EA882A"/>
</g>
<g opacity="0.5">
<path opacity="0.5" d="M30.6358 65.1945C30.6202 65.1468 30.6016 65.1002 30.58 65.0549C30.525 64.9369 30.4576 64.8252 30.3789 64.7215C30.3274 64.6538 30.2708 64.5901 30.2098 64.5309C30.1423 64.4663 30.0688 64.4083 29.9902 64.3578C29.909 64.3041 29.8219 64.2599 29.7306 64.2261C29.6846 64.2089 29.6377 64.1943 29.5901 64.1822C29.5422 64.1725 29.4939 64.1615 29.4456 64.1558C29.3972 64.1502 29.3485 64.1474 29.2998 64.1475H29.2273C29.2031 64.1475 29.179 64.151 29.1553 64.1527L29.0841 64.1593L29.0143 64.1721L28.9458 64.1848L28.879 64.2028C28.8353 64.2131 28.7923 64.2263 28.7503 64.2423C28.709 64.2581 28.6677 64.2704 28.6291 64.2863L28.5171 64.3368C28.4811 64.353 28.4477 64.3737 28.4148 64.3908C28.3818 64.4079 28.3506 64.4242 28.3221 64.4426L28.2408 64.4949L28.1697 64.5388L28.1113 64.5827L28.0015 64.6662L28.1205 64.6034L28.1829 64.57L28.2575 64.534C28.3102 64.5081 28.3704 64.4786 28.4367 64.4518C28.503 64.425 28.5755 64.3965 28.6519 64.3688C28.6901 64.3539 28.731 64.3451 28.7714 64.3328C28.8118 64.3205 28.854 64.31 28.8966 64.3012L28.9611 64.2867L29.0275 64.2775L29.0942 64.2682L29.1618 64.263C29.1842 64.263 29.2058 64.2595 29.2295 64.2586H29.298C29.3438 64.2591 29.3896 64.2624 29.435 64.2687C29.4789 64.2731 29.5259 64.2827 29.5707 64.2911C29.6153 64.3016 29.6593 64.3143 29.7025 64.3293C29.7881 64.3586 29.8707 64.3962 29.9489 64.4417C30.0236 64.4866 30.0949 64.5371 30.1619 64.5928C30.223 64.6454 30.2809 64.7016 30.3354 64.761C30.3859 64.8181 30.4311 64.8722 30.4672 64.9231C30.5032 64.9741 30.5357 65.0202 30.5598 65.0597C30.5877 65.1032 30.6131 65.1482 30.6358 65.1945Z" fill="#CD4F1F"/>
</g>
<g opacity="0.5">
<path opacity="0.5" d="M30.9293 63.2058C30.9246 63.1671 30.9173 63.1288 30.9074 63.0911C30.8966 63.0482 30.8832 63.006 30.8674 62.9646C30.8582 62.9409 30.8494 62.9146 30.838 62.8882L30.7989 62.8074C30.7845 62.7785 30.7687 62.7504 30.7514 62.7231C30.7348 62.6925 30.716 62.6632 30.6952 62.6352L30.6307 62.5474C30.607 62.5197 30.5806 62.4943 30.5551 62.4666L30.5156 62.4257L30.4717 62.3897C30.4423 62.3651 30.4128 62.341 30.3838 62.3173L30.2863 62.2571C30.2545 62.236 30.2208 62.2177 30.1858 62.2026C30.1184 62.1707 30.0484 62.1444 29.9767 62.124C29.9088 62.1029 29.8391 62.0882 29.7685 62.0801C29.7004 62.0722 29.6346 62.0625 29.5722 62.0616C29.5098 62.0608 29.4505 62.0652 29.3965 62.0673C29.3693 62.0673 29.3434 62.0673 29.3188 62.0722L29.2494 62.084L29.1369 62.1047C29.0746 62.117 29.0394 62.1249 29.0394 62.1249L29.1383 62.1284H29.2511H29.3201C29.3447 62.1284 29.3702 62.1324 29.3965 62.1345C29.4496 62.1398 29.5067 62.1451 29.5674 62.149C29.628 62.153 29.6899 62.1723 29.7553 62.182C29.8219 62.1951 29.8875 62.2127 29.9517 62.2347C30.0191 62.2554 30.0847 62.2814 30.148 62.3124C30.181 62.3261 30.2128 62.3427 30.2429 62.3621L30.3346 62.4161C30.3632 62.4385 30.3913 62.46 30.4199 62.4802L30.4638 62.5118L30.502 62.5478L30.5766 62.6181L30.6425 62.6932C30.6638 62.7172 30.6836 62.7424 30.7018 62.7688C30.7198 62.7942 30.7396 62.8171 30.7545 62.8425L30.7984 62.9146C30.8121 62.9379 30.8235 62.9585 30.8353 62.9822C30.8591 63.0261 30.8757 63.0648 30.8907 63.0968C30.9056 63.1289 30.9157 63.1557 30.9214 63.1741C30.9271 63.1926 30.9293 63.2058 30.9293 63.2058Z" fill="#CD4F1F"/>
</g>
<g opacity="0.5">
<path opacity="0.5" d="M27.0349 63.9715C27.1249 63.8652 27.2226 63.7655 27.327 63.6733C27.3709 63.632 27.424 63.5898 27.4785 63.5464C27.533 63.5029 27.5927 63.462 27.6542 63.4194C27.7157 63.3768 27.7824 63.3391 27.8505 63.3026C27.9186 63.2658 27.9887 63.2328 28.0605 63.2038C28.1321 63.1751 28.2055 63.1508 28.2801 63.1309C28.3509 63.112 28.4227 63.0973 28.4953 63.087C28.5308 63.0817 28.5655 63.0773 28.5998 63.0747C28.6341 63.072 28.6674 63.0681 28.6999 63.0681C28.7654 63.065 28.8277 63.0681 28.8853 63.0681C28.9428 63.0681 28.9955 63.076 29.0416 63.083C29.0878 63.09 29.1295 63.094 29.1629 63.1014L29.2683 63.1212C29.2683 63.1212 29.2323 63.1054 29.1673 63.0773C29.1352 63.0632 29.0948 63.0523 29.0487 63.0373C29.0026 63.0224 28.949 63.0114 28.891 62.9991C28.8281 62.988 28.7646 62.9808 28.7008 62.9776C28.6659 62.9749 28.6309 62.9741 28.5958 62.975C28.5593 62.9749 28.5228 62.9769 28.4865 62.9811C28.4488 62.9839 28.4113 62.9886 28.374 62.9952C28.3354 63.0008 28.2972 63.0086 28.2594 63.0184C28.1815 63.0376 28.1049 63.0619 28.0301 63.0909C27.955 63.1225 27.8817 63.1583 27.8105 63.1981C27.7413 63.238 27.6744 63.282 27.6103 63.3298C27.4948 63.4165 27.388 63.5141 27.2914 63.6215C27.2213 63.6989 27.157 63.7814 27.099 63.8683C27.0556 63.932 27.0349 63.9715 27.0349 63.9715Z" fill="#CD4F1F"/>
</g>
<path opacity="0.61" d="M29.5759 67.5564C29.4695 67.3867 29.3285 67.2412 29.1622 67.1295C29.005 67.0182 28.8134 66.9665 28.6215 66.9837C28.4277 67.0116 28.2485 67.1025 28.1116 67.2424C28.0743 67.2749 28.0422 67.3149 28.0075 67.3513C27.9728 67.3878 27.9443 67.4299 27.9126 67.4695L27.827 67.5973C27.8007 67.6412 27.7747 67.6851 27.7493 67.729C27.8595 67.5638 27.9903 67.4133 28.1384 67.2811C28.2738 67.1556 28.4441 67.0742 28.6268 67.0478C28.8076 67.0319 28.9885 67.0757 29.142 67.1726C29.224 67.2207 29.3009 67.2772 29.3712 67.3412C29.4455 67.407 29.5139 67.479 29.5759 67.5564Z" fill="#CD4F1F"/>
<g style="mix-blend-mode:multiply" opacity="0.48">
<path d="M28.4504 68.6905C28.1914 68.1977 28.0241 67.662 27.9567 67.1094C27.8737 66.5498 27.9444 65.9916 27.893 65.4311C27.8008 64.4258 27.4754 63.4749 27.359 62.4744C27.2909 61.9337 27.3122 61.3854 27.4222 60.8516C26.7485 61.2952 26.2618 62.1973 26.7748 63.9791C26.6431 64.2932 26.8903 64.9265 27.2114 65.3051C26.8372 66.3192 27.7494 67.7317 27.7494 67.7317C28.3033 69.9418 28.9287 70.0771 29.3745 69.5083C28.9857 69.3435 28.6612 69.0564 28.4504 68.6905Z" fill="#D5C20B"/>
</g>
<path d="M28.1995 60.6634C28.4043 60.4627 28.5608 60.218 28.6569 59.9479C28.7531 59.6777 28.7865 59.3892 28.7546 59.1042C28.6966 58.7254 28.4914 58.3848 28.1837 58.1564C28.0486 58.0649 27.8973 58.0002 27.7379 57.9658C28.3396 57.2899 28.1982 56.3799 27.7229 56.0667C27.5145 55.9615 27.2799 55.9194 27.0479 55.9457C26.816 55.972 26.5967 56.0655 26.4172 56.2147C26.4847 56.0747 26.4993 55.915 26.4581 55.7651C26.4169 55.6152 26.3227 55.4853 26.1931 55.3995C26.0634 55.3137 25.9071 55.2779 25.753 55.2985C25.599 55.3192 25.4576 55.395 25.3552 55.512C25.2489 55.2147 25.0484 54.9602 24.7842 54.7873C24.6964 54.7315 24.0279 54.32 23.5285 54.6924C23.3671 54.8297 23.2512 55.0128 23.1963 55.2175C23.1414 55.4221 23.15 55.6387 23.2211 55.8383C23.1269 55.6845 22.9831 55.5674 22.8135 55.5061C22.6439 55.4449 22.4585 55.4433 22.2878 55.5014C22.2079 55.5446 22.1376 55.6034 22.0809 55.6743C22.0242 55.7453 21.9824 55.8269 21.9579 55.9143C21.9295 56.0302 21.9282 56.1511 21.9542 56.2676C21.9801 56.3841 22.0327 56.493 22.1077 56.5858C22.0448 56.5153 21.9739 56.4524 21.8964 56.3983C21.6655 56.2536 21.4008 56.1719 21.1285 56.1612C20.8562 56.1505 20.5859 56.2112 20.3443 56.3372C20.0183 56.5431 19.7666 56.8477 19.6259 57.2066C19.4852 57.5655 19.4628 57.96 19.5621 58.3326C19.6228 58.5388 19.7321 58.7273 19.8809 58.8824C19.9798 58.975 20.0949 59.0486 20.2204 59.0994C19.5669 59.9005 19.743 60.9199 20.285 61.2678C20.5057 61.3777 20.7524 61.4249 20.9981 61.404C21.2439 61.3832 21.4791 61.2952 21.6782 61.1496C21.6014 61.3435 21.6003 61.5591 21.675 61.7537C21.7497 61.9483 21.8947 62.1078 22.0814 62.2006C22.2681 62.2934 22.4828 62.3127 22.683 62.2547C22.8833 62.1967 23.0545 62.0657 23.1627 61.8875L23.9831 61.8761C24.0196 62.0275 24.1011 62.1643 24.2168 62.2685C24.3326 62.3728 24.4772 62.4395 24.6316 62.4601C24.7859 62.4806 24.9429 62.4539 25.0819 62.3835C25.2208 62.3132 25.3353 62.2024 25.4101 62.0658C25.4779 62.2245 25.6004 62.3537 25.7553 62.4299C25.8791 62.4754 26.0122 62.4899 26.1429 62.472C26.2736 62.4542 26.3979 62.4046 26.505 62.3276C26.6597 62.2206 26.7798 62.0709 26.8507 61.8967C26.9426 61.6935 26.9769 61.469 26.9499 61.2476C27.4211 61.2019 27.8623 60.9956 28.1995 60.6634Z" fill="#A1C750"/>
<path d="M23.1113 66.9592C22.766 66.2931 22.5148 65.5823 22.3647 64.8471C22.1451 63.7517 22.2698 63.1469 22.1095 61.637C22.0435 61.0159 21.9457 60.3985 21.8165 59.7875C21.8367 59.7296 21.8726 59.6784 21.9201 59.6396C21.9677 59.6009 22.025 59.576 22.0858 59.5679C22.1336 59.5634 22.1818 59.5692 22.2272 59.5848C22.2727 59.6004 22.3143 59.6255 22.3493 59.6583C22.3998 60.0589 22.5772 60.3457 22.7665 60.3611C22.9295 60.3742 23.0766 60.1827 23.2295 59.9851C23.3586 59.8171 23.4595 59.6291 23.5281 59.4286C23.5775 59.3878 23.6387 59.364 23.7027 59.3607C23.7667 59.3575 23.8301 59.375 23.8833 59.4106C23.9366 59.4462 23.977 59.498 23.9984 59.5584C24.0199 59.6188 24.0213 59.6845 24.0024 59.7457C23.7679 60.2622 23.8193 60.6957 23.991 60.7805C24.1412 60.8547 24.4302 60.6852 24.6718 60.3931C24.7154 60.3647 24.7657 60.3484 24.8176 60.3458C24.8695 60.3432 24.9212 60.3543 24.9674 60.3782C24.9997 60.41 25.0254 60.448 25.0429 60.4898C25.0604 60.5317 25.0694 60.5766 25.0694 60.6219C25.0694 60.6673 25.0604 60.7122 25.0429 60.7541C25.0254 60.7959 24.9997 60.8339 24.9674 60.8657C24.4741 61.3587 24.1553 61.9993 24.0595 62.6902C23.9818 63.349 24.1636 63.8874 24.4926 64.8568C24.664 65.3625 24.8685 65.8563 25.1049 66.3351L23.1113 66.9592Z" fill="#A1C750"/>
<path opacity="0.3" d="M24.4922 64.8578C24.4483 64.7261 24.4043 64.6026 24.3666 64.4854C23.8617 64.117 23.4247 63.6635 23.0753 63.1454C22.5339 62.2268 22.3059 61.1572 22.4257 60.0977C22.4257 60.0652 22.4301 60.0318 22.4323 59.9985C22.3913 59.8894 22.3634 59.7759 22.3493 59.6603C22.3143 59.6274 22.2727 59.6024 22.2272 59.5868C22.1818 59.5712 22.1336 59.5654 22.0858 59.5698C22.025 59.578 21.9677 59.6028 21.9201 59.6416C21.8726 59.6803 21.8367 59.7315 21.8165 59.7894C21.946 60.4004 22.0438 61.0178 22.1095 61.6389C22.2698 63.1489 22.1446 63.7537 22.3647 64.849C22.5148 65.5842 22.766 66.295 23.1113 66.9612L25.1036 66.3384C24.8674 65.8589 24.6632 65.3643 24.4922 64.8578Z" fill="#5C9C32"/>
<path d="M24.2488 67.096C23.6985 67.2681 23.1895 67.2067 23.1122 66.9585C23.0349 66.7103 23.4196 66.3704 23.9677 66.1982C24.5159 66.0261 25.0267 66.0875 25.1044 66.3357C25.1821 66.5839 24.7987 66.9238 24.2488 67.096Z" fill="#D1EF51"/>
<path opacity="0.3" d="M21.2696 60.0107L21.2666 60.0134C21.2016 60.0762 21.2503 60.3208 21.3808 60.3467C21.421 60.349 21.461 60.34 21.4964 60.3208C21.5318 60.3015 21.5611 60.2728 21.581 60.2378C21.6496 60.1684 21.7179 60.0989 21.7861 60.0292C21.7865 59.9372 21.8201 59.8485 21.8806 59.7793C21.9411 59.7101 22.0246 59.665 22.1157 59.6524C22.2067 59.6397 22.2993 59.6603 22.3764 59.7104C22.4535 59.7605 22.51 59.8367 22.5354 59.9251L23.1332 60.0292C23.1376 59.9614 23.1559 59.8953 23.1871 59.835C23.2183 59.7747 23.2617 59.7215 23.3145 59.6788C23.3673 59.6361 23.4283 59.6048 23.4938 59.5869C23.5593 59.5689 23.6278 59.5648 23.6949 59.5746C23.7817 59.611 23.8554 59.6729 23.9061 59.7521C23.9569 59.8314 23.9823 59.9242 23.9791 60.0182C24.0615 60.015 24.1432 60.0352 24.2146 60.0764C24.2861 60.1177 24.3444 60.1784 24.3827 60.2514C24.4163 60.3278 24.425 60.4128 24.4073 60.4943C24.5049 60.4551 24.6131 60.4512 24.7133 60.4833C24.8134 60.5154 24.8992 60.5814 24.9559 60.67C24.9839 60.7259 25.0001 60.787 25.0035 60.8494C25.0069 60.9118 24.9975 60.9743 24.9758 61.0329C24.9541 61.0915 24.9206 61.1451 24.8773 61.1902C24.8341 61.2354 24.7821 61.2712 24.7244 61.2954L25.8844 61.5932C25.8844 61.5932 25.2106 60.8466 25.2256 60.4776C25.2256 60.4776 24.0098 59.9163 23.9334 59.3089C23.9334 59.3089 22.6211 59.514 22.3229 59.2285C21.9955 59.5197 21.643 59.7815 21.2696 60.0107Z" fill="#5C9C32"/>
<path d="M40.2242 61.8362C38.2825 60.7672 37.2065 63.1538 36.3777 63.4508C34.779 64.0217 32.7968 65.2515 32.8583 67.3518C32.9088 69.0774 36.3944 71.2747 38.3045 70.446C40.2146 69.6172 40.764 67.5178 40.5369 66.0596C40.3595 64.923 42.2419 62.947 40.2242 61.8362Z" fill="#A1C750"/>
<path opacity="0.3" d="M35.7254 69.78C38.5201 70.5319 39.6642 68.1549 39.2321 66.3665C39.2148 66.1753 39.2437 65.9828 39.3164 65.8052C39.3891 65.6275 39.5034 65.47 39.6497 65.3458C40.1266 64.8698 40.4531 64.2642 40.5888 63.6043C40.714 63.2281 40.6962 62.819 40.5388 62.4551C40.3813 62.0912 40.0953 61.7981 39.7354 61.6318C39.9056 61.6811 40.0696 61.7496 40.2242 61.8361C42.2419 62.9468 40.3595 64.9228 40.5361 66.0595C40.7627 67.5176 40.2128 69.617 38.3036 70.4458C36.3944 71.2746 32.9088 69.0772 32.8574 67.3516C32.8406 66.8524 32.9479 66.3568 33.1697 65.9093C33.103 66.3968 32.2671 68.5423 35.7254 69.78Z" fill="#5C9C32"/>
<path d="M39.8501 61.9922C39.8062 62.0594 39.894 62.1824 40.0407 62.2663C40.1874 62.3502 40.3455 62.3638 40.3894 62.2966C40.4334 62.2294 40.3455 62.1064 40.1988 62.0221C40.0521 61.9378 39.8936 61.925 39.8501 61.9922Z" fill="#B08247"/>
<path d="M39.9839 62.0672C39.9619 62.101 40.005 62.163 40.0796 62.2051C40.1543 62.2473 40.2334 62.2543 40.2553 62.22C40.2773 62.1858 40.2342 62.1247 40.1591 62.0821C40.084 62.0395 40.0058 62.0321 39.9839 62.0672Z" fill="#AA7D18"/>
<path d="M42.1696 60.4506C41.6662 60.5147 40.9486 61.1915 40.1707 62.178L40.0623 62.1424C40.5979 61.29 41.3115 60.5635 42.1542 60.0127C42.1581 60.1598 42.1647 60.3056 42.1696 60.4506Z" fill="#AA7D18"/>
<path d="M37.2131 57.5249L26.1416 82.4898L23.8529 81.1348L33.7618 57.8754C33.8522 57.6579 33.9862 57.4612 34.1554 57.2974C34.3247 57.1336 34.5257 57.0061 34.746 56.9229C34.9664 56.8397 35.2014 56.8024 35.4367 56.8134C35.672 56.8244 35.9026 56.8834 36.1142 56.9869L37.2131 57.5249Z" fill="#EFC269"/>
<path d="M37.2132 57.5264L37.7868 57.8272C38.134 58.0093 38.3993 58.3161 38.5292 58.686C38.6591 59.0558 38.644 59.4612 38.4869 59.8203L28.1217 83.5097L26.1409 82.4912L37.2132 57.5264Z" fill="#EFC269"/>
<path d="M35.0075 60.1644L33.4734 59.4111" stroke="#FFE9D1" stroke-width="0.482" stroke-linecap="round" stroke-linejoin="round"/>
<path d="M33.0944 64.0374L31.5603 63.2842" stroke="#FFE9D1" stroke-width="0.482" stroke-linecap="round" stroke-linejoin="round"/>
<path d="M31.5528 67.9866L30.0187 67.2334" stroke="#FFE9D1" stroke-width="0.482" stroke-linecap="round" stroke-linejoin="round"/>
<path d="M29.6572 72.0433L28.123 71.29" stroke="#FFE9D1" stroke-width="0.482" stroke-linecap="round" stroke-linejoin="round"/>
<path d="M27.9685 76.0726L26.4343 75.3193" stroke="#FFE9D1" stroke-width="0.482" stroke-linecap="round" stroke-linejoin="round"/>
<path d="M26.209 79.9066L24.6748 79.1533" stroke="#FFE9D1" stroke-width="0.482" stroke-linecap="round" stroke-linejoin="round"/>
<g style="mix-blend-mode:multiply">
<path d="M30.3581 65.8642L23.8513 81.1376L26.14 82.4925L28.1208 83.511L36.2351 64.9678C34.3773 66.2924 32.2542 66.8919 30.3581 65.8642Z" fill="#FFE9D1"/>
</g>
<path d="M41.0142 67.301L21.6555 63.2275L17.0163 85.2749L36.375 89.3483L41.0142 67.301Z" fill="#BF955F"/>
<path d="M17.0156 85.2657L15.8552 80.3268L20.6667 61.7129L21.6549 63.2286L17.0156 85.2657Z" fill="#E8B573"/>
<path d="M33.2486 75.5746C28.8127 73.6258 23.8277 73.639 19.9706 71.0068C18.6132 72.5116 17.159 73.9261 15.6172 75.2412C21.1982 77.6349 26.3079 77.1904 32.6996 78.0807C32.7115 78.0807 32.6996 78.0328 32.7119 78.0315C32.9536 78.0246 33.1886 77.9503 33.3903 77.8171C33.5921 77.6839 33.7526 77.4969 33.8539 77.2774C33.9301 77.1266 33.975 76.9619 33.9857 76.7932C33.9964 76.6246 33.9727 76.4555 33.9161 76.2963C33.8595 76.137 33.7712 75.991 33.6565 75.8669C33.5417 75.7429 33.403 75.6434 33.2486 75.5746Z" fill="#FFAEAB"/>
<path d="M25.9627 73.4365C23.833 72.891 21.7775 72.2401 19.9706 71.0068C18.6132 72.5116 17.159 73.9261 15.6172 75.2412C18.8717 76.6374 21.9676 77.067 25.2498 77.3599C25.4975 76.0546 25.7158 74.7432 25.9627 73.4365Z" fill="#28A96B"/>
<path d="M38.1226 73.1865C36.6566 73.2779 34.8945 73.7918 34.4298 75.4142" stroke="#FFAEAB" stroke-width="7.337" stroke-linecap="round" stroke-linejoin="round"/>
<path d="M34.1022 73.8116C32.565 73.5239 29.5946 76.3313 30.2666 77.2422C31.8917 79.4435 32.7178 79.5845 34.7847 80.325C35.9618 80.7462 38.4301 80.6399 38.8153 79.0974C38.9321 78.6323 38.4696 77.4614 38.4147 76.9524C38.3163 76.045 36.119 75.0449 35.6477 74.9158C34.5414 74.614 34.7236 74.4638 34.1022 73.8116Z" fill="#FFAEAB"/>
<path d="M36.9731 76.5502C37.7703 78.0813 39.9914 77.6895 40.8645 76.1826" stroke="#FFAEAB" stroke-width="4.707" stroke-linecap="round" stroke-linejoin="round"/>
<path d="M37.5803 77.362C38.9744 77.8451 40.3223 76.1682 39.9191 74.916" stroke="#FFAEAB" stroke-width="4.707" stroke-linecap="round" stroke-linejoin="round"/>
<path d="M38.1056 79.0562C38.6116 79.0618 39.1108 78.9393 39.5568 78.7002C40.0028 78.461 40.3811 78.113 40.6565 77.6885" stroke="#FFAEAB" stroke-width="4.707" stroke-linecap="round" stroke-linejoin="round"/>
<path d="M34.5018 79.0586C35.1136 80.1794 37.4665 80.3323 39.6432 79.7833" stroke="#FFAEAB" stroke-width="4.707" stroke-linecap="round" stroke-linejoin="round"/>
<path d="M8.20728 69.1994C8.16165 69.5311 8.22795 69.8685 8.3957 70.1582C10.1705 73.0736 19.0789 77.6884 22.5926 77.6884C23.5083 77.6884 23.8948 74.5432 24.3336 72.9849C23.6032 71.7503 19.1404 69.7098 18.1311 69.098C18.3679 68.9816 11.7547 68.1708 8.20728 69.1994Z" fill="#2DBE78"/>
<path d="M12.5383 68.6872C11.0789 68.6747 9.62369 68.8464 8.20728 69.1984C8.16165 69.5301 8.22795 69.8675 8.3957 70.1572C10.1705 73.0726 19.0789 77.6873 22.5926 77.6873C22.9597 77.6873 23.2408 77.1787 23.4749 76.4729C19.1062 75.0117 15.2302 72.4902 12.5383 68.6872Z" fill="#28A96B"/>
<path d="M207.905 173.641C225.639 173.641 240.016 171.112 240.016 167.992C240.016 164.873 225.639 162.344 207.905 162.344C190.171 162.344 175.794 164.873 175.794 167.992C175.794 171.112 190.171 173.641 207.905 173.641Z" fill="#E4E8ED"/>
<path d="M139.084 174.08C157.666 174.08 172.728 171.551 172.728 168.432C172.728 165.312 157.666 162.783 139.084 162.783C120.503 162.783 105.44 165.312 105.44 168.432C105.44 171.551 120.503 174.08 139.084 174.08Z" fill="#E4E8ED"/>
<path d="M147.481 95.1357V135.067" stroke="#A6A6A6" stroke-miterlimit="10"/>
<path d="M137.415 96.2158V135.066" stroke="#A6A6A6" stroke-miterlimit="10"/>
<path d="M168.253 102.92L152.219 95.5498C150.049 94.5523 147.621 94.2581 145.275 94.7083L99.0004 103.779L106.577 109.678" stroke="#A6A6A6" stroke-linecap="round" stroke-linejoin="round"/>
<path d="M127.35 98.1797V135.067" stroke="#A6A6A6" stroke-miterlimit="10"/>
<path d="M117.284 100.079V135.067" stroke="#A6A6A6" stroke-miterlimit="10"/>
<path d="M107.219 102.092V135.068" stroke="#A6A6A6" stroke-miterlimit="10"/>
<path d="M152.417 167.328C155.388 167.328 157.796 164.92 157.796 161.95C157.796 158.979 155.388 156.571 152.417 156.571C149.447 156.571 147.039 158.979 147.039 161.95C147.039 164.92 149.447 167.328 152.417 167.328Z" fill="#BA3A43"/>
<path d="M154.891 161.949C154.891 162.438 154.745 162.916 154.474 163.322C154.202 163.729 153.816 164.046 153.364 164.233C152.912 164.42 152.415 164.469 151.935 164.373C151.456 164.278 151.015 164.043 150.669 163.697C150.324 163.351 150.088 162.91 149.993 162.431C149.897 161.951 149.946 161.454 150.133 161.002C150.32 160.55 150.637 160.164 151.044 159.892C151.45 159.621 151.928 159.476 152.417 159.476C152.742 159.476 153.064 159.539 153.364 159.664C153.664 159.788 153.937 159.97 154.166 160.2C154.396 160.429 154.578 160.702 154.702 161.002C154.827 161.302 154.891 161.624 154.891 161.949Z" fill="#808080"/>
<path d="M152.94 155.57L154.031 161.661C154.065 161.901 154.048 162.146 153.98 162.38C153.911 162.613 153.794 162.829 153.635 163.012C153.475 163.196 153.279 163.343 153.058 163.444C152.837 163.545 152.596 163.598 152.353 163.597C152.018 163.597 151.69 163.498 151.411 163.311C151.132 163.125 150.914 162.859 150.786 162.549L148.049 155.354L152.94 155.57Z" fill="#808080"/>
<path d="M152.417 163.216C153.117 163.216 153.685 162.648 153.685 161.948C153.685 161.248 153.117 160.681 152.417 160.681C151.717 160.681 151.15 161.248 151.15 161.948C151.15 162.648 151.717 163.216 152.417 163.216Z" fill="#122847"/>
<path d="M115.933 167.328C118.904 167.328 121.312 164.92 121.312 161.95C121.312 158.979 118.904 156.571 115.933 156.571C112.963 156.571 110.555 158.979 110.555 161.95C110.555 164.92 112.963 167.328 115.933 167.328Z" fill="#BA3A43"/>
<path d="M118.406 161.949C118.406 162.438 118.261 162.916 117.99 163.322C117.718 163.729 117.332 164.046 116.88 164.233C116.428 164.42 115.931 164.469 115.451 164.373C114.972 164.278 114.531 164.043 114.185 163.697C113.84 163.351 113.604 162.91 113.509 162.431C113.413 161.951 113.462 161.454 113.649 161.002C113.836 160.55 114.153 160.164 114.56 159.892C114.966 159.621 115.444 159.476 115.933 159.476C116.258 159.476 116.58 159.539 116.88 159.664C117.18 159.788 117.453 159.97 117.682 160.2C117.912 160.429 118.094 160.702 118.218 161.002C118.343 161.302 118.407 161.624 118.406 161.949Z" fill="#808080"/>
<path d="M116.456 155.57L117.547 161.661C117.582 161.901 117.564 162.146 117.496 162.38C117.427 162.613 117.31 162.829 117.151 163.012C116.991 163.196 116.795 163.343 116.574 163.444C116.352 163.545 116.112 163.598 115.869 163.597C115.534 163.597 115.206 163.498 114.927 163.311C114.648 163.125 114.431 162.859 114.303 162.549L111.565 155.354L116.456 155.57Z" fill="#808080"/>
<path d="M117.201 161.948C117.201 162.199 117.127 162.444 116.987 162.652C116.848 162.86 116.65 163.023 116.419 163.118C116.187 163.214 115.932 163.239 115.687 163.19C115.441 163.142 115.215 163.021 115.038 162.844C114.861 162.667 114.74 162.441 114.691 162.195C114.642 161.949 114.667 161.695 114.763 161.463C114.859 161.232 115.021 161.034 115.23 160.894C115.438 160.755 115.683 160.681 115.933 160.681C116.27 160.681 116.592 160.814 116.83 161.052C117.067 161.29 117.201 161.612 117.201 161.948Z" fill="#122847"/>
<path d="M157.348 135.067H106.576V109.678L168.253 102.92L164.133 129.262C163.88 130.88 163.057 132.353 161.813 133.418C160.569 134.482 158.986 135.067 157.348 135.067V135.067Z" stroke="#A6A6A6" stroke-miterlimit="10"/>
<path d="M106.577 135.067L100.165 130.287L99 103.779L106.577 109.679L106.577 135.067Z" stroke="#A6A6A6" stroke-linecap="round" stroke-linejoin="round"/>
<path d="M157.835 103.952V135.067" stroke="#A6A6A6" stroke-miterlimit="10"/>
<path d="M147.481 105.196V135.068" stroke="#A6A6A6" stroke-miterlimit="10"/>
<path d="M137.126 106.33V135.067" stroke="#A6A6A6" stroke-miterlimit="10"/>
<path d="M126.771 107.466V135.068" stroke="#A6A6A6" stroke-miterlimit="10"/>
<path d="M116.415 108.601V135.068" stroke="#A6A6A6" stroke-miterlimit="10"/>
<path d="M99.0004 114.66L106.577 118.993" stroke="#A6A6A6" stroke-miterlimit="10"/>
<path d="M99.6978 124.019L106.577 127.953" stroke="#A6A6A6" stroke-miterlimit="10"/>
<path d="M165.739 118.993H106.577" stroke="#A6A6A6" stroke-linecap="round" stroke-linejoin="round"/>
<path d="M164.338 127.952H106.577" stroke="#A6A6A6" stroke-linecap="round" stroke-linejoin="round"/>
<path d="M104.011 133.154V107.863" stroke="#A6A6A6" stroke-linecap="round" stroke-linejoin="round"/>
<path d="M100.99 130.901V105.722" stroke="#A6A6A6" stroke-linecap="round" stroke-linejoin="round"/>
<path d="M151.19 135.067L158.781 149.432C159.08 149.999 159.228 150.633 159.21 151.273C159.192 151.914 159.009 152.539 158.678 153.088C158.347 153.636 157.88 154.09 157.322 154.406C156.765 154.721 156.135 154.886 155.494 154.887H105.772C105.288 154.887 104.814 155.023 104.403 155.28C103.993 155.537 103.663 155.904 103.451 156.339C103.239 156.775 103.154 157.261 103.206 157.743C103.257 158.224 103.443 158.682 103.742 159.062L103.97 159.353C104.212 159.661 104.52 159.91 104.872 160.081C105.224 160.252 105.61 160.341 106.001 160.341H162.016C162.657 160.341 163.287 160.175 163.845 159.86C164.403 159.545 164.87 159.091 165.2 158.542C165.531 157.993 165.714 157.368 165.732 156.728C165.75 156.087 165.603 155.453 165.303 154.887L154.568 135.067" stroke="#A6A6A6" stroke-linecap="round" stroke-linejoin="round"/>
<path d="M163.567 171.683C166.308 170.537 167.601 167.387 166.456 164.646C165.311 161.906 162.16 160.612 159.42 161.757C156.679 162.903 155.385 166.053 156.531 168.794C157.676 171.535 160.826 172.828 163.567 171.683Z" fill="#EB4755"/>
<path d="M163.967 166.721C163.967 167.21 163.822 167.688 163.551 168.095C163.279 168.502 162.893 168.819 162.441 169.006C161.989 169.193 161.491 169.242 161.012 169.147C160.532 169.051 160.091 168.816 159.745 168.47C159.399 168.124 159.164 167.683 159.068 167.204C158.973 166.724 159.022 166.227 159.209 165.775C159.396 165.323 159.714 164.936 160.12 164.665C160.527 164.393 161.005 164.248 161.494 164.248C162.15 164.248 162.779 164.509 163.243 164.972C163.707 165.436 163.967 166.065 163.967 166.721Z" fill="#A6A6A6"/>
<path d="M162.016 160.341L163.107 166.432C163.142 166.672 163.125 166.917 163.056 167.151C162.988 167.384 162.87 167.6 162.711 167.783C162.552 167.967 162.355 168.114 162.134 168.215C161.913 168.316 161.673 168.369 161.43 168.369C161.094 168.369 160.766 168.269 160.487 168.082C160.208 167.896 159.991 167.63 159.863 167.32L157.125 160.126L162.016 160.341Z" fill="#A6A6A6"/>
<path d="M162.761 166.721C162.761 166.971 162.687 167.216 162.547 167.425C162.408 167.633 162.21 167.795 161.979 167.891C161.747 167.987 161.492 168.012 161.246 167.963C161.001 167.914 160.775 167.793 160.598 167.616C160.421 167.439 160.3 167.213 160.251 166.967C160.202 166.722 160.227 166.467 160.323 166.235C160.419 166.004 160.582 165.806 160.79 165.667C160.998 165.527 161.243 165.453 161.494 165.453C161.83 165.453 162.152 165.587 162.39 165.825C162.628 166.062 162.761 166.385 162.761 166.721Z" fill="#0B4047"/>
<path d="M130.246 167.95C130.925 165.058 129.131 162.163 126.239 161.485C123.347 160.806 120.452 162.6 119.773 165.491C119.095 168.383 120.888 171.278 123.78 171.957C126.672 172.636 129.567 170.842 130.246 167.95Z" fill="#EB4755"/>
<path d="M127.483 166.722C127.483 167.211 127.338 167.689 127.066 168.096C126.795 168.503 126.408 168.82 125.957 169.007C125.505 169.194 125.007 169.243 124.528 169.148C124.048 169.053 123.607 168.817 123.261 168.471C122.915 168.125 122.68 167.685 122.584 167.205C122.489 166.725 122.538 166.228 122.725 165.776C122.912 165.324 123.229 164.938 123.636 164.666C124.042 164.394 124.521 164.249 125.01 164.249C125.666 164.249 126.295 164.51 126.758 164.973C127.222 165.437 127.483 166.066 127.483 166.722Z" fill="#A6A6A6"/>
<path d="M125.532 160.342L126.623 166.433C126.658 166.673 126.64 166.918 126.572 167.152C126.504 167.385 126.386 167.601 126.227 167.784C126.068 167.968 125.871 168.115 125.65 168.216C125.429 168.317 125.189 168.37 124.946 168.37C124.61 168.369 124.282 168.27 124.003 168.083C123.724 167.897 123.507 167.631 123.379 167.321L120.641 160.127L125.532 160.342Z" fill="#A6A6A6"/>
<path d="M126.277 166.721C126.277 166.971 126.203 167.216 126.064 167.424C125.924 167.633 125.726 167.795 125.495 167.891C125.263 167.987 125.009 168.012 124.763 167.963C124.517 167.914 124.291 167.793 124.114 167.616C123.937 167.439 123.816 167.213 123.767 166.968C123.719 166.722 123.744 166.467 123.839 166.236C123.935 166.004 124.098 165.806 124.306 165.667C124.514 165.528 124.759 165.453 125.01 165.453C125.346 165.453 125.668 165.587 125.906 165.824C126.144 166.062 126.277 166.385 126.277 166.721Z" fill="#0B4047"/>
<path d="M153.828 154.888L159.217 160.342" stroke="#A6A6A6" stroke-linecap="round" stroke-linejoin="round"/>
<path d="M114.85 154.888L120.239 160.342" stroke="#A6A6A6" stroke-linecap="round" stroke-linejoin="round"/>
<path d="M183.38 93.1514L168.253 102.919" stroke="#A6A6A6" stroke-linecap="round" stroke-linejoin="round"/>
<path d="M172.499 89.9365L158.926 98.6328" stroke="#A6A6A6" stroke-linecap="round" stroke-linejoin="round"/>
<path d="M172.498 89.3291C172.498 89.6368 172.407 89.9376 172.236 90.1934C172.065 90.4492 171.822 90.6486 171.538 90.7664C171.254 90.8841 170.941 90.9149 170.639 90.8549C170.337 90.7949 170.06 90.6467 169.842 90.4291C169.625 90.2116 169.477 89.9344 169.417 89.6326C169.357 89.3308 169.388 89.018 169.505 88.7338C169.623 88.4495 169.822 88.2066 170.078 88.0356C170.334 87.8647 170.635 87.7734 170.943 87.7734C171.355 87.7734 171.751 87.9373 172.043 88.2291C172.334 88.5208 172.498 88.9165 172.498 89.3291Z" fill="#FF4F5C"/>
<path d="M183.791 92.2918C185.438 91.9668 186.401 91.1059 186.671 89.4756" stroke="#FFAEAB" stroke-width="7.337" stroke-linecap="round" stroke-linejoin="round"/>
<path d="M186.47 91.4715L170.943 87.7725V90.886L186.11 95.7612L186.47 91.4715Z" fill="#EB4755"/>
<path d="M188.253 93.615C188.253 94.0389 188.127 94.4533 187.892 94.8058C187.656 95.1582 187.321 95.433 186.93 95.5952C186.538 95.7574 186.107 95.7998 185.691 95.7171C185.276 95.6344 184.894 95.4303 184.594 95.1306C184.294 94.8308 184.09 94.4489 184.007 94.0331C183.925 93.6174 183.967 93.1864 184.129 92.7948C184.292 92.4031 184.566 92.0684 184.919 91.8329C185.271 91.5974 185.686 91.4717 186.11 91.4717C186.678 91.4717 187.223 91.6975 187.625 92.0994C188.027 92.5014 188.253 93.0466 188.253 93.615Z" fill="#EB4755"/>
<path d="M194.179 73.6041C196.87 68.2897 201.031 56.7584 205.243 54.0234C208.766 51.7356 213.9 49.5088 216.359 54.6032C217.993 57.9881 203.086 71.9307 198.791 77.7897C196.307 81.1777 183.549 85.9506 178.24 86.6432C175.814 86.9599 177.293 83.6566 178.682 82.8595C183.983 79.8184 189.287 77.4313 194.179 73.6041Z" fill="#DB9693"/>
<path d="M209.66 51.8096C202.139 53.1614 202.592 57.124 198.004 61.7563C198.179 67.0127 201.399 69.2974 205.412 72.0227C211.037 70.8034 212.191 63.6778 212.753 59.3547C213.315 55.0316 212.129 54.505 209.66 51.8096Z" fill="#E6BC00"/>
<path d="M175.18 90.5665C176.733 89.9516 177.487 89.0925 177.665 87.4121" stroke="#DB9693" stroke-width="7.337" stroke-linecap="round" stroke-linejoin="round"/>
<path d="M178.697 88.752C180.083 88.037 180.875 84.3692 179.915 83.5984C179.108 82.9506 178.94 82.8807 178.309 83.012C176.888 83.3694 175.487 83.8001 174.11 84.3024C172.89 84.6903 172.378 85.3359 172.983 86.6614C173.446 87.3083 173.953 87.9222 174.501 88.4986C175.013 89.1271 175.956 89.0314 176.392 88.882C177.411 88.5324 177.819 88.3884 178.697 88.752Z" fill="#DB9693"/>
<path d="M175.156 87.8906C173.195 88.0048 172.412 89.448 172.757 91.2844" stroke="#DB9693" stroke-width="4.707" stroke-linecap="round" stroke-linejoin="round"/>
<path d="M174.428 87.6084C172.012 87.9255 171.178 88.7271 172.023 91.1813" stroke="#DB9693" stroke-width="4.707" stroke-linecap="round" stroke-linejoin="round"/>
<path d="M173.394 86.3916C171.736 87.6249 170.85 88.9363 171.422 91.0278" stroke="#DB9693" stroke-width="4.707" stroke-linecap="round" stroke-linejoin="round"/>
<path d="M174.496 85.4043C171.231 86.2682 169.696 87.6882 171.726 90.8548" stroke="#DB9693" stroke-width="4.707" stroke-linecap="round" stroke-linejoin="round"/>
<path d="M232.718 147.923L235.827 154.105L231.722 156.23L228.104 149.973L232.718 147.923Z" fill="#D99491"/>
<path d="M219.975 80.9873C219.412 87.0417 219.827 93.1796 219.631 99.2143C222.027 107.303 221.513 114.265 224.648 122.561C227.847 131.027 230.947 140.797 234.214 149.596C232.457 150.67 230.53 151.532 228.701 152.514C221.513 143.497 215.565 133.559 211.015 122.964C207.534 110.685 204.323 100.408 203.153 87.5297C208.667 85.086 214.278 82.9585 219.975 80.9873Z" fill="#262626"/>
<path d="M205.769 90.8311C206.081 93.0073 205.729 94.577 204.217 96.1226" stroke="#808080" stroke-miterlimit="10"/>
<path d="M237.592 155.42C237.321 155.01 237.065 154.446 236.788 154.073C236.748 153.997 236.693 153.929 236.626 153.876C236.559 153.822 236.482 153.782 236.399 153.759C236.316 153.736 236.23 153.73 236.145 153.742C236.06 153.754 235.978 153.784 235.904 153.828C235.326 154.041 234.667 154.494 234.117 154.718C233.758 154.876 233.369 154.957 232.976 154.956C232.584 154.956 232.195 154.873 231.836 154.715C231.559 154.619 231.529 154.413 231.18 154.327C229.959 154.023 228.717 154.07 227.886 155.231C227.055 156.393 226.696 157.64 225.531 158.679C224.367 159.717 222.828 160.898 223.261 162.781C228.03 160.336 232.82 157.883 237.592 155.42Z" fill="#122847"/>
<path d="M224.006 164.076L238.347 156.716C238.096 156.286 237.845 155.857 237.594 155.427L223.253 162.788L224.006 164.076Z" fill="#BFAA7E"/>
<path d="M231.736 150.952C223.216 135.238 219.339 124.098 217.873 105.943C217.437 102.166 217.19 98.3704 217.135 94.5693" stroke="#808080" stroke-width="0.811" stroke-miterlimit="10" stroke-dasharray="4.05 4.05"/>
<path d="M199.198 159.303C198.483 161.656 197.763 164.006 197.038 166.356C195.525 165.998 194.011 165.641 192.499 165.282C193.113 162.797 193.727 160.311 194.339 157.825C195.959 158.317 197.578 158.81 199.198 159.303Z" fill="#FFAEAB"/>
<path d="M210.345 133.274C215.673 122.272 221.827 113.32 225.058 103.129C226.677 98.0212 226.484 94.7843 226.491 89.8327C222.52 88.3953 218.426 87.3235 214.26 86.6309C207.128 87.8905 204.329 111.118 200.891 122.659C199.478 127.402 192.008 151.91 193.314 159.548C194.751 161.541 197.135 160.849 198.98 161.67C203.586 152.805 205.755 142.752 210.345 133.274Z" fill="#333333"/>
<path d="M226.489 89.8317C222.518 88.3943 218.424 87.3226 214.258 86.6299C214.196 86.6409 214.136 86.6576 214.075 86.6738C214.75 87.6097 215.363 88.5897 215.907 89.6073C218.416 94.2967 219.672 99.9598 218.287 105.19C217.359 108.697 215.564 111.958 214.006 115.209C212.235 119.07 210.673 123.024 209.328 127.053C206.874 134.007 204.442 140.808 200.582 147.121C198.172 151.063 195.036 155.435 193.818 160.11C195.268 161.404 197.336 160.94 198.977 161.67C203.584 152.807 205.753 142.753 210.343 133.276C215.671 122.274 221.825 113.321 225.056 103.13C226.675 98.0211 226.482 94.7842 226.489 89.8317Z" fill="#262626"/>
<path d="M197.388 168.597C197.488 168.1 197.696 167.49 197.752 167.016C197.777 166.932 197.785 166.844 197.775 166.757C197.765 166.67 197.738 166.586 197.694 166.51C197.651 166.435 197.592 166.368 197.522 166.316C197.452 166.264 197.372 166.226 197.287 166.206C196.71 165.945 195.93 165.916 195.375 165.691C194.635 165.401 194.028 164.848 193.669 164.138C193.514 163.888 193.675 163.655 193.435 163.368C192.594 162.36 191.848 161.649 190.381 161.937C188.914 162.225 187.74 162.951 186.097 163.048C184.455 163.145 182.715 163.327 181.598 164.805C186.846 166.075 192.12 167.353 197.388 168.597Z" fill="#0B4047"/>
<path d="M181.211 166.338C186.48 167.608 191.749 168.877 197.019 170.145L197.394 168.604C192.124 167.337 186.853 166.068 181.583 164.797C181.459 165.311 181.335 165.825 181.211 166.338Z" fill="#EFD49E"/>
<path d="M196.304 161.053C202.717 145.514 204.605 136.497 213.186 118.45C215.089 114.449 222.582 102.186 223.402 98.0502C224.223 93.9142 224.152 90.9895 224.516 87.002" stroke="#808080" stroke-width="0.84" stroke-miterlimit="10" stroke-dasharray="4.2 4.2"/>
<path d="M221.956 98.3965C219.261 97.0639 217.571 95.7318 217.202 92.6191" stroke="#808080" stroke-miterlimit="10"/>
<path d="M202.947 88.212C202.532 90.6325 208.123 92.1056 214.488 91.7568C221.012 91.3993 227.458 90.6553 226.44 87.3815C225.711 85.0366 220.862 82.8643 214.488 82.8643C208.113 82.8643 203.442 85.3229 202.947 88.212Z" fill="#333333"/>
<path d="M202.543 61.5359C203.189 58.3178 203.884 55.6637 205.244 53.8146C206.548 52.1224 208.136 51.1877 213.487 51.2295C213.514 51.2295 213.527 51.2009 213.549 51.1855L215.94 51.5918C223.565 52.6481 225.339 55.5574 225.339 62.2324L226.09 76.7785L226.99 87.1587C226.99 87.1587 212.994 93.2636 202.809 87.2425C202.809 87.2425 202.841 82.1719 203.311 79.9285C203.948 76.8852 202.02 64.143 202.543 61.5359Z" fill="#FFD101"/>
<path d="M226.09 76.7804L225.339 62.2344C225.339 55.5585 223.566 52.6496 215.94 51.5938L213.549 51.1875C213.527 51.2007 213.513 51.2314 213.487 51.2314C212.784 51.2257 212.148 51.238 211.567 51.2661C215.602 52.8161 218.757 57.1466 220.23 60.9545C221.391 63.9552 221.648 67.2879 221.465 70.4756C221.294 73.4517 221.119 76.5753 220.674 79.5233C220.301 82.2565 218.921 84.7518 216.804 86.5202C215.513 87.572 214.286 88.6986 213.128 89.8942C220.491 89.9926 226.989 87.1602 226.989 87.1602L226.09 76.7804Z" fill="#E6BC00"/>
<path d="M210.791 78.8291C210.791 78.8291 217.054 79.1137 217.699 79.8511C218.344 80.5886 204.664 79.9877 204.664 79.9877C204.664 79.9877 203.238 78.913 210.791 78.8291Z" fill="#E6BC00"/>
<path d="M209.063 58.3955H210.303C209.399 61.319 208.869 64.3451 208.725 67.4018L207.466 66.9929C207.6 64.0673 208.137 61.1742 209.063 58.3955Z" fill="#2DBE78"/>
<path d="M210.303 58.3945C210.303 58.3945 208.475 64.5873 208.725 67.4009" stroke="#28A96B" stroke-width="0.5" stroke-miterlimit="10"/>
<path d="M215.837 52.2785C215.837 52.2785 216.504 56.5595 210.093 56.2081C206.417 55.6191 209.858 52.2487 209.858 52.2487C209.858 52.2487 210.719 49.4031 209.646 46.9607C210.352 45.8732 214.619 45.6496 215.847 47.1131C215.294 49.2388 215.837 52.2785 215.837 52.2785Z" fill="#E39B98"/>
<path d="M209.062 57.6601L207.126 59.1973L208.611 54.7139L209.062 57.6601Z" fill="#28A96B"/>
<path d="M210.537 57.0784C210.537 57.0784 209.146 55.4884 210.122 51.3775L210.177 49.3896C210.177 49.3896 209.063 49.7551 207.712 51.9225C207.712 51.9225 205.372 54.2943 207.127 59.198L208.559 55.7867L209.063 58.3929L210.537 57.0784Z" fill="#2DBE78"/>
<path d="M210.303 55.7637L209.062 58.3927H212.455L210.303 55.7637Z" fill="#28A96B"/>
<path d="M215.618 48.709C215.618 48.709 217.245 49.2057 218.546 51.6003C219.219 52.8388 217.797 54.2698 216.877 55.6849C215.642 57.5875 212.452 60.3993 212.452 60.3993L210.3 55.7644C210.3 55.7644 212.647 54.9141 215.467 51.2564L215.618 48.709Z" fill="#2DBE78"/>
<path d="M204.399 41.1489C204.676 42.264 205.418 43.0454 206.055 42.8934C206.692 42.7414 206.983 41.7133 206.704 40.5994C206.425 39.4856 205.685 38.7108 205.049 38.8615C204.414 39.0121 204.123 40.0359 204.399 41.1489Z" fill="#E39B98"/>
<path d="M206.988 43.5138H206.022C205.916 43.5148 205.812 43.4949 205.714 43.4554C205.616 43.4158 205.527 43.3574 205.452 43.2835C205.377 43.2095 205.317 43.1214 205.276 43.0243C205.235 42.9272 205.213 42.823 205.213 42.7176C205.213 42.7176 204.961 37.1774 204.961 34.688C204.961 32.1986 205.554 31.5068 205.554 31.5068L209.064 32.557L206.988 43.5138Z" fill="#333333"/>
<path d="M217.299 34.8641C215.741 32.8495 216.603 31.5165 213.859 31.4137C213.768 31.4102 213.672 31.4137 213.578 31.4137C213.484 31.4067 213.388 31.3979 213.297 31.3944C210.554 31.2916 209.513 31.1098 207.72 32.9421C205.401 35.3138 206.023 40.1324 205.95 41.67C205.743 46.0471 207.348 48.3639 210.334 48.649C211.99 48.9463 214.918 48.1487 216.213 46.9304C217.508 45.712 218.739 44.4967 218.964 42.2309C219.117 40.6967 218.273 36.1233 217.299 34.8641Z" fill="#FFAEAB"/>
<path d="M217.687 44.002C217.687 44.002 216.617 50.4144 210.537 50.8136C204.458 51.2129 204.708 48.5161 204.96 45.6165C205.211 42.7169 205.951 41.6672 205.951 41.6672C205.951 41.6672 205.76 44.7996 206.474 45.757C207.188 46.7145 209.759 46.9341 211.144 46.7145C212.53 46.4949 216.383 41.5244 216.383 41.5244L217.687 44.002Z" fill="#333333"/>
<path d="M213.422 46.0782C213.422 46.0782 212.404 44.0873 211.498 43.6946C210.944 43.4539 208.012 43.7495 208.012 43.7495C207.509 43.5519 207.02 43.3196 206.549 43.0543C205.87 42.6559 205.486 44.2985 205.495 45.2867L205.927 45.2503L206.456 43.8958C206.885 44.328 207.43 44.627 208.025 44.7571C208.95 44.7889 209.876 44.739 210.792 44.6077C210.792 44.6077 211.846 46.2767 211.841 47.1898L213.422 46.0782Z" fill="#333333"/>
<path d="M204.506 30.32C205.942 25.1562 217.993 30.2247 217.993 30.2247C217.993 30.2247 221.02 30.9023 221.243 34.6606C221.575 37.7891 220.554 41.3141 220.554 41.3141L219.269 40.8956L218.211 44.0056H217.45C217.216 44.0057 216.991 43.918 216.819 43.76C216.647 43.602 216.54 43.3851 216.52 43.1522L216.132 38.6583C215.891 37.6701 217.707 36.7495 217.383 36.1509C212.888 36.7003 205.704 34.9329 205 33.6105C203.705 33.256 204.298 31.0692 204.506 30.32Z" fill="#333333"/>
<path d="M218.094 40.3618C218.419 40.1573 218.791 40.0398 219.174 40.0205C220.11 40.0205 220.865 40.5146 220.865 41.7633C220.865 43.0119 220.467 44.0252 218.837 44.323C218.452 44.4155 218.046 44.3607 217.699 44.1692C217.739 42.8922 217.871 41.6197 218.094 40.3618Z" fill="#FFAEAB"/>
<path d="M186.953 90.8985C189.405 90.9895 190.384 88.5747 190.132 87.7736C189.763 86.5974 190.337 86.0607 189.876 85.7357C189.521 85.4871 189.141 84.9126 188.51 85.033C187.06 85.3132 184.941 85.7019 183.549 85.95C182.333 86.167 181.583 86.7608 182.094 88.1206C182.491 88.8424 182.933 89.5392 183.416 90.2072C183.879 90.9025 186.592 90.8871 186.953 90.8985Z" fill="#FFAEAB"/>
<path d="M184.898 89.9004C183.199 90.2175 180.936 90.846 181.293 92.7113" stroke="#FFAEAB" stroke-width="4.707" stroke-linecap="round" stroke-linejoin="round"/>
<path d="M183.966 89.109C182.246 89.0945 179.591 89.3084 180.579 92.5199" stroke="#FFAEAB" stroke-width="4.707" stroke-linecap="round" stroke-linejoin="round"/>
<path d="M182.568 87.9512C181.126 88.6807 179.399 90.0725 180.003 92.294" stroke="#FFAEAB" stroke-width="4.707" stroke-linecap="round" stroke-linejoin="round"/>
<path d="M183.791 87.1094C180.991 87.3562 177.846 88.9211 179.504 92.292" stroke="#FFAEAB" stroke-width="4.707" stroke-linecap="round" stroke-linejoin="round"/>
<path d="M209.869 60.5936C208.376 64.2351 206.73 68.8107 206.132 71.7402C204.125 74.9025 202.789 75.1427 199.572 77.4095C196.112 79.8471 191.035 83.3475 187.255 85.9872C187.869 86.9999 188.535 87.9802 189.251 88.9241C193.818 86.5577 200.28 85.5506 204.403 83.0291C209.486 79.9217 210.394 80.5511 214.573 74.5806C216.523 71.796 222.895 63.2868 221.979 57.1349C218.385 55.8023 212.963 57.4353 209.869 60.5936Z" fill="#FFAEAB"/>
<path d="M207.676 64.316C207.656 64.3985 207.62 64.4764 207.57 64.5452C207.416 65.3503 207.349 66.1699 207.372 66.9894C209.765 70.547 213.421 72.6323 217.721 73.2911C221.312 70.1069 223.321 64.6928 223.24 59.9393C223.226 59.1048 223.437 56.9712 223.243 56.232C219.902 48.0439 209.127 58.5321 207.676 64.316Z" fill="#FFD101"/>
<path d="M223.241 59.9365C223.321 64.6905 221.312 70.1046 217.722 73.2884" stroke="#E5BC00" stroke-width="0.5" stroke-linecap="round" stroke-linejoin="round"/>
<path d="M99.4081 88.5L106.408 96M112.908 82L115.408 90M124.908 75L125.908 88M137.408 87V78.5M145.408 88L151.408 75M156.908 90.5L162.908 84" stroke="#808080" stroke-linecap="round"/>
</svg>
