<svg width="50" height="50" viewBox="0 0 50 50" fill="none" xmlns="http://www.w3.org/2000/svg">
<path d="M48.4375 28.125H43.75V3.125C43.75 1.40313 42.35 0 40.625 0H9.375C7.65312 0 6.25 1.40313 6.25 3.125V28.125H1.5625C0.7 28.125 0 28.825 0 29.6875V46.875C0 48.6 1.40313 50 3.125 50H46.875C48.6 50 50 48.6 50 46.875V29.6875C50 28.825 49.3 28.125 48.4375 28.125ZM9.375 3.125H40.625V28.125H39.0625C38.4719 28.125 37.9313 28.4594 37.6656 28.9875L34.9719 34.375H15.0312L12.3375 28.9875C12.0719 28.4594 11.5312 28.125 10.9375 28.125H9.375V3.125Z" fill="#9FA3A6"/>
<path d="M15.625 12.5C17.3509 12.5 18.75 11.1009 18.75 9.375C18.75 7.64911 17.3509 6.25 15.625 6.25C13.8991 6.25 12.5 7.64911 12.5 9.375C12.5 11.1009 13.8991 12.5 15.625 12.5Z" fill="#9FA3A6"/>
<path d="M29.5219 10.2375C29.2562 9.70938 28.7156 9.375 28.125 9.375C27.5312 9.375 26.9906 9.70937 26.7281 10.2406L22.8031 18.1094L21.6125 16.3219C21.3219 15.8844 20.8344 15.625 20.3125 15.625C19.7906 15.625 19.3031 15.8844 19.0125 16.3219L12.5 25H37.5C36.6625 23.2594 34.0844 19.3594 29.5219 10.2375Z" fill="#9FA3A6"/>
</svg>
