<svg width="17" height="21" viewBox="0 0 17 21" fill="none" xmlns="http://www.w3.org/2000/svg">
<path d="M8.52 10.56C11.171 10.56 13.32 8.41093 13.32 5.75996C13.32 3.10899 11.171 0.959961 8.52 0.959961C5.86903 0.959961 3.72 3.10899 3.72 5.75996C3.72 8.41093 5.86903 10.56 8.52 10.56Z" fill="#DFE4E9"/>
<path d="M8.52 11.52C6.48313 11.52 4.5297 12.3292 3.08942 13.7694C1.64914 15.2097 0.839996 17.1632 0.839996 19.2V19.68C0.839996 19.8073 0.890568 19.9294 0.980585 20.0194C1.0706 20.1094 1.19269 20.16 1.32 20.16H15.72C15.8473 20.16 15.9694 20.1094 16.0594 20.0194C16.1494 19.9294 16.2 19.8073 16.2 19.68V19.2C16.2 17.1632 15.3909 15.2097 13.9506 13.7694C12.5103 12.3292 10.5569 11.52 8.52 11.52Z" fill="#DFE4E9"/>
</svg>
