<svg width="12" height="12" viewBox="0 0 12 12" fill="none" xmlns="http://www.w3.org/2000/svg">
<path d="M6 0C2.68027 0 0 2.68027 0 6C0 9.31973 2.68027 12 6 12C9.31973 12 12 9.31973 12 6C12 2.68027 9.31973 0 6 0ZM6.94688 9.33333C6.94688 9.62656 6.69376 9.88021 6.4 9.88021H5.57344C5.28021 9.88021 5.02656 9.62709 5.02656 9.33333V5.84013C5.02656 5.53336 5.27968 5.29325 5.57344 5.29325H6.4C6.69323 5.29325 6.94688 5.54637 6.94688 5.84013V9.33333ZM5.98647 4.3864C5.37292 4.3864 4.86668 3.87963 4.86668 3.25307C4.86668 2.62651 5.37345 2.11973 5.98647 2.11973C6.61303 2.11973 7.1198 2.62651 7.1198 3.25307C7.1198 3.88015 6.61355 4.3864 5.98647 4.3864Z" fill="#9FA3A6"/>
</svg>
