<svg width="12" height="10" viewBox="0 0 12 10" fill="none" xmlns="http://www.w3.org/2000/svg">
<path d="M11.8331 3.16689L9.99999 0.33313H1.99999L0.16687 3.16625C0.16687 3.79937 0.69999 4.33313 1.33375 4.33313C1.96687 4.33313 2.50063 3.83313 2.50063 3.16625C2.50063 3.79937 3.03375 4.33313 3.66751 4.33313C4.30063 4.33313 4.83439 3.83313 4.83439 3.16625C4.83439 3.79937 5.36751 4.33313 6.00127 4.33313C6.63439 4.33313 7.16815 3.83313 7.16815 3.16625C7.16815 3.79937 7.70127 4.33313 8.33503 4.33313C8.96815 4.33313 9.50191 3.83313 9.50191 3.16625C9.50191 3.79937 10.035 4.33313 10.6688 4.33313C11.3 4.33313 11.8332 3.83313 11.8332 3.16687L11.8331 3.16689Z" fill="#87CAFE"/>
<path d="M10.6669 5.66692C10.3 5.66692 9.96688 5.60004 9.66688 5.46692V8.00004H2.33312V5.46692C2.03312 5.60004 1.7 5.66692 1.33312 5.66692C1.23312 5.66692 1.1 5.66692 1 5.63379V9.33316H10.9994L11 5.63315C10.9 5.6669 10.7669 5.66691 10.6669 5.66691L10.6669 5.66692Z" fill="#87CAFE"/>
</svg>
