<svg width="16" height="12" viewBox="0 0 16 12" fill="none" xmlns="http://www.w3.org/2000/svg">
<path d="M11.5 8.5C11.7761 8.5 12 8.27614 12 8C12 7.72386 11.7761 7.5 11.5 7.5C11.2239 7.5 11 7.72386 11 8C11 8.27614 11.2239 8.5 11.5 8.5Z" fill="white"/>
<path d="M8.5 4.5C8.77614 4.5 9 4.27614 9 4C9 3.72386 8.77614 3.5 8.5 3.5C8.22386 3.5 8 3.72386 8 4C8 4.27614 8.22386 4.5 8.5 4.5Z" fill="white"/>
<path d="M15 0.5H5.5C5.367 0.5 5.24 0.553 5.146 0.646L4.5 1.293L3.854 0.646C3.76 0.553 3.633 0.5 3.5 0.5H1C0.449 0.5 0 0.949 0 1.5V10.5C0 11.052 0.449 11.5 1 11.5H3.5C3.633 11.5 3.76 11.447 3.854 11.354L4.5 10.707L5.146 11.353C5.24 11.447 5.367 11.5 5.5 11.5H15C15.552 11.5 16 11.052 16 10.5V1.5C16 0.949 15.552 0.5 15 0.5ZM5 9.5H4V8.5H5V9.5ZM5 7.5H4V6.5H5V7.5ZM5 5.5H4V4.5H5V5.5ZM5 3.5H4V2.5H5V3.5ZM8.5 2.5C9.327 2.5 10 3.173 10 4C10 4.827 9.327 5.5 8.5 5.5C7.673 5.5 7 4.827 7 4C7 3.173 7.673 2.5 8.5 2.5ZM7.5 9.5C7.387 9.5 7.274 9.462 7.18 9.384C6.968 9.207 6.939 8.892 7.116 8.68L12.116 2.68C12.294 2.467 12.609 2.441 12.82 2.616C13.032 2.793 13.06 3.108 12.883 3.321L7.883 9.321C7.785 9.438 7.643 9.5 7.5 9.5ZM11.5 9.5C10.673 9.5 10 8.827 10 8C10 7.173 10.673 6.5 11.5 6.5C12.327 6.5 13 7.173 13 8C13 8.827 12.327 9.5 11.5 9.5Z" fill="white"/>
</svg>
