<svg width="96" height="96" viewBox="0 0 96 96" fill="none" xmlns="http://www.w3.org/2000/svg">
<circle cx="48" cy="55" r="22" fill="white"/>
<g filter="url(#filter0_d)">
<path d="M48 25C32.5384 25 20 37.5384 20 53C20 68.4616 32.5384 81 48 81C63.4616 81 76 68.4616 76 53C76 37.5384 63.4616 25 48 25ZM48.5934 69.3024H48.5866C45.7817 69.3011 43.0256 68.5979 40.5779 67.2632L31.6942 69.593L34.0718 60.9113C32.605 58.3709 31.8334 55.4887 31.8347 52.536C31.8386 43.299 39.3564 35.7841 48.5934 35.7841C53.0761 35.7858 57.2841 37.5307 60.4478 40.697C63.612 43.8638 65.3535 48.073 65.3517 52.5493C65.3479 61.7867 57.8292 69.3024 48.5934 69.3024Z" fill="#40D2A7"/>
</g>
<g filter="url(#filter1_d)">
<path d="M48.599 38.6133C40.9158 38.6133 34.6674 44.8592 34.6639 52.5368C34.6631 55.1678 35.3997 57.73 36.7938 59.947L37.1249 60.4738L35.7175 65.6122L40.9893 64.2297L41.4982 64.5313C43.6365 65.8002 46.0881 66.4714 48.5875 66.4723H48.593C56.2702 66.4723 62.5187 60.226 62.5221 52.5479C62.5234 48.827 61.0759 45.3287 58.4462 42.6969C55.8165 40.0651 52.319 38.6146 48.599 38.6133ZM56.7919 58.5234C56.4428 59.5009 54.7702 60.3934 53.9656 60.5139C53.244 60.6216 52.3314 60.6664 51.3283 60.3481C50.7199 60.155 49.9401 59.8974 48.9408 59.4663C44.7405 57.6531 41.9972 53.425 41.7878 53.1456C41.5785 52.8662 40.078 50.8757 40.078 48.8151C40.078 46.7549 41.1598 45.7419 41.5435 45.3232C41.9276 44.9041 42.3813 44.7994 42.6603 44.7994C42.9393 44.7994 43.2187 44.8019 43.4627 44.8139C43.7199 44.8267 44.0651 44.7161 44.4047 45.5325C44.7538 46.3708 45.5912 48.431 45.6959 48.6403C45.8005 48.8501 45.8702 49.0945 45.7309 49.3739C45.5912 49.6533 45.1272 50.2562 44.6841 50.8056C44.4983 51.0359 44.256 51.241 44.5004 51.6601C44.7444 52.0788 45.5852 53.4498 46.8298 54.5598C48.4294 55.986 49.7786 56.4277 50.1973 56.6375C50.6156 56.8469 50.86 56.8118 51.1044 56.5328C51.3483 56.2534 52.1511 55.3105 52.4301 54.8914C52.7091 54.4722 52.9885 54.5423 53.3722 54.682C53.7563 54.8213 55.8148 55.8343 56.2335 56.0436C56.6522 56.2534 56.9312 56.3581 57.0358 56.5328C57.1409 56.7076 57.1409 57.5454 56.7919 58.5234Z" fill="#43D2AA"/>
</g>
<defs>
<filter id="filter0_d" x="0" y="0" width="96" height="96" filterUnits="userSpaceOnUse" color-interpolation-filters="sRGB">
<feFlood flood-opacity="0" result="BackgroundImageFix"/>
<feColorMatrix in="SourceAlpha" type="matrix" values="0 0 0 0 0 0 0 0 0 0 0 0 0 0 0 0 0 0 127 0"/>
<feOffset dy="-5"/>
<feGaussianBlur stdDeviation="10"/>
<feColorMatrix type="matrix" values="0 0 0 0 0.529412 0 0 0 0 0.792157 0 0 0 0 0.996078 0 0 0 0.16 0"/>
<feBlend mode="normal" in2="BackgroundImageFix" result="effect1_dropShadow"/>
<feBlend mode="normal" in="SourceGraphic" in2="effect1_dropShadow" result="shape"/>
</filter>
<filter id="filter1_d" x="14.6639" y="13.6133" width="67.8582" height="67.859" filterUnits="userSpaceOnUse" color-interpolation-filters="sRGB">
<feFlood flood-opacity="0" result="BackgroundImageFix"/>
<feColorMatrix in="SourceAlpha" type="matrix" values="0 0 0 0 0 0 0 0 0 0 0 0 0 0 0 0 0 0 127 0"/>
<feOffset dy="-5"/>
<feGaussianBlur stdDeviation="10"/>
<feColorMatrix type="matrix" values="0 0 0 0 0.529412 0 0 0 0 0.792157 0 0 0 0 0.996078 0 0 0 0.16 0"/>
<feBlend mode="normal" in2="BackgroundImageFix" result="effect1_dropShadow"/>
<feBlend mode="normal" in="SourceGraphic" in2="effect1_dropShadow" result="shape"/>
</filter>
</defs>
</svg>
