<svg width="276" height="185" viewBox="0 0 276 185" fill="none" xmlns="http://www.w3.org/2000/svg">
<path opacity="0.47" d="M0.278946 65.1461C1.51033 53.2656 7.5011 41.3655 17.9092 32.8752C34.1126 19.6366 58.6523 16.3343 80.1721 19.4217C89.1827 20.7211 98.1249 22.9976 107.35 22.2941C120.808 21.2683 132.652 14.1263 144.888 8.89921C161.561 1.78652 180.666 -2.02384 198.404 1.10261C218.517 4.64919 235.013 17.9757 237.007 35.6304C237.906 43.6322 228.876 57.711 231.749 65.2927C234.662 72.9818 255.859 96.5572 255.36 114.476C254.852 133.039 244.431 153.814 207.716 174.407C171 195 49.3065 179.431 27.0003 160C4.69397 140.569 10.2863 130.684 15.5441 118.022C19.5412 108.389 8.62497 100.426 4.40309 91.4474C0.630768 83.4554 -0.620163 73.8513 0.278946 65.1461Z" fill="#E1E2FE"/>
<path fill-rule="evenodd" clip-rule="evenodd" d="M161.003 86.8129C161.003 86.8129 169.066 85.4157 171.961 76.7806C174.855 68.1455 178.121 60.3239 186.068 59.9315C194.014 59.5391 202.04 60.8043 204.32 56.5282C206.599 52.252 218.601 46.665 224.389 56.3692C230.176 66.0734 227.103 71.0515 234.246 71.1986C241.388 71.3458 241.494 64.4783 248.506 68.9303C255.517 73.3824 247.84 77.6855 258.226 79.6663C268.612 81.647 272.956 82.2678 275.687 83.7987C278.418 85.3295 263.231 83.5821 231.803 85.6373C200.375 87.6925 161 86.8129 161 86.8129" fill="#F5E3EC"/>
<path fill-rule="evenodd" clip-rule="evenodd" d="M2.00337 162.813C2.00337 162.813 10.0665 161.416 12.961 152.781C15.8554 144.145 19.1208 136.324 27.0676 135.931C35.0143 135.539 43.0403 136.804 45.3195 132.528C47.5987 128.252 59.6015 122.665 65.3887 132.369C71.176 142.073 68.1029 147.051 75.2455 147.199C82.3882 147.346 82.4944 140.478 89.5055 144.93C96.5167 149.382 88.8396 153.686 99.2257 155.666C109.612 157.647 113.956 158.268 116.687 159.799C119.418 161.329 104.231 159.582 72.8028 161.637C41.3748 163.693 2 162.813 2 162.813" fill="#F5E3EC"/>
<mask id="mask0" mask-type="alpha" maskUnits="userSpaceOnUse" x="0" y="0" width="256" height="185">
<path d="M0.278458 65.1461C1.50984 53.2656 7.50061 41.3655 17.9087 32.8752C34.1121 19.6366 58.6518 16.3343 80.1716 19.4217C89.1822 20.7211 98.1244 22.9976 107.35 22.2941C120.807 21.2683 132.652 14.1263 144.888 8.89921C161.56 1.78652 180.666 -2.02384 198.404 1.10261C218.516 4.64919 235.013 17.9757 237.007 35.6304C237.906 43.6322 228.876 57.711 231.749 65.2927C234.661 72.9818 255.858 96.5572 255.36 114.476C254.852 133.039 244.43 153.814 207.715 174.407C171 195 49.3061 179.431 26.9998 160C4.69348 140.569 10.2859 130.684 15.5437 118.022C19.5408 108.389 8.62448 100.426 4.4026 91.4474C0.63028 83.4554 -0.620651 73.8513 0.278458 65.1461Z" fill="#E1E2FE"/>
</mask>
<g mask="url(#mask0)">
<path fill-rule="evenodd" clip-rule="evenodd" d="M109.5 170.5L108 187.5C108 187.5 171.132 210.808 181.5 184.5C183.453 179.544 179.665 163.664 178 155.5C183.898 153.706 114.448 169.672 114.448 169.672L109.5 170.5Z" fill="#F48046"/>
</g>
<path fill-rule="evenodd" clip-rule="evenodd" d="M92.0495 130.521C91.2612 132.406 90.0876 134.362 88.728 136.275C90.5004 136.049 92.6494 135.776 94.7012 135.424C95.1995 136.943 95.7859 138.431 96.4574 139.881C96.9563 140.969 100.126 149.259 100.28 149.413C100.313 149.446 100.348 149.476 100.386 149.502C100.481 149.569 100.581 149.626 100.687 149.672H100.697C100.757 149.7 100.822 149.726 100.891 149.753H100.9L101.112 149.828L101.146 149.839L101.37 149.909L101.409 149.92L101.632 149.981L101.727 150.006L101.95 150.06L102.075 150.089L102.267 150.132L102.433 150.167L102.504 150.181L102.578 150.196L102.653 150.211L102.802 150.241L102.88 150.256L102.957 150.27H102.974L103.276 150.323L103.36 150.337L103.687 150.392H103.697L103.784 150.405C107.08 144.917 110.02 137.426 111.902 131.796C113.784 126.166 111.087 144.893 111.087 151.241C111.087 157.294 133.537 153.65 137.903 153.757H138.003C138.102 153.757 138.201 153.757 138.298 153.757H138.414C138.503 153.757 138.589 153.749 138.675 153.746L138.827 153.737L139.047 153.719L139.251 153.7L139.403 153.681L139.643 153.647C139.599 153.61 138.55 152.592 136.649 140.268C135.074 130.04 135.851 120.664 136.198 117.51L136.172 117.479L136.146 117.448L136.121 117.416L136.072 117.357L136.054 117.337L136.047 117.328L136.023 117.298L136 117.27L135.977 117.243L135.953 117.214L135.932 117.188L135.91 117.161L135.889 117.136L135.866 117.11L135.846 117.085L135.825 117.06L135.805 117.036L135.785 117.012L135.765 116.989L135.746 116.966V116.96L135.733 116.944L135.714 116.921L135.697 116.9L135.679 116.878L135.662 116.858L135.645 116.838L135.628 116.818L135.619 116.806L135.613 116.799L135.597 116.78L135.582 116.762L135.567 116.744L135.553 116.727L135.539 116.71L135.526 116.694L135.513 116.681L135.501 116.666L135.488 116.651L135.477 116.636L135.466 116.623L135.455 116.609L135.443 116.597L135.433 116.584L135.425 116.576L135.416 116.565L135.406 116.553L135.398 116.543L135.39 116.533L135.382 116.525L135.376 116.516V116.508V116.502L135.37 116.495C134.425 116.461 133.518 116.109 132.798 115.497C125.75 109.622 133.524 97.8729 133.41 92.8801C132.419 93.2677 131.406 93.5955 130.376 93.8617C128.508 94.3567 126.55 94.402 124.662 93.9939C124.778 94.0937 124.838 94.156 124.83 94.166C124.823 94.176 124.184 95.6478 121.817 95.6478C119.673 95.6478 113.585 97.5075 109.383 101.845C108.967 102.309 108.546 102.793 108.121 103.3C107.996 103.464 107.871 103.613 107.746 103.743C102.909 109.572 97.2419 118.228 92.0894 130.55L92.0495 130.521ZM112.855 85.7183C112.855 85.7183 111.882 86.3606 110.485 87.4906C112.415 87.9708 114.286 88.5096 115.973 89.0348C114.867 87.9945 113.825 86.8869 112.855 85.7183Z" fill=process.env.REACT_APP_COLOR_PRIMARY/>
<path fill-rule="evenodd" clip-rule="evenodd" d="M122.055 102.06C122.055 102.06 116.442 100.084 111.489 105.359C106.536 110.634 94.3831 131.751 94.5415 133.587C94.6126 134.409 94.0501 131.373 93.5112 127.151C98.2583 116.602 103.324 108.997 107.706 103.714C107.831 103.589 107.948 103.436 108.081 103.271C108.51 102.764 108.93 102.279 109.343 101.817C113.551 97.4789 119.633 95.6192 121.777 95.6192C124.147 95.6192 124.79 94.1375 124.79 94.1375C124.79 94.1375 124.738 94.0651 124.622 93.9653C124.994 94.0485 125.368 94.1113 125.744 94.1537C124.3 97.1471 122.11 101.718 122.058 102.06" fill="#F46925"/>
<path fill-rule="evenodd" clip-rule="evenodd" d="M103.692 150.407H103.701L103.789 150.421C107.085 144.933 110.025 137.442 111.907 131.812C113.789 126.181 111.092 144.908 111.092 151.257C111.092 151.445 111.115 151.632 111.161 151.814C113.781 151.701 116.234 151.373 116.234 151.373C116.234 151.373 117.302 130.065 116.656 123.823C116.01 117.58 109.767 119.194 107.721 129.098C105.676 139.001 99.6217 146.223 99.6217 146.223L99.3086 149.964C101.363 149.502 101.955 150.113 103.692 150.403" fill="#F46925"/>
<path fill-rule="evenodd" clip-rule="evenodd" d="M173.06 90.8732C179.232 93.1308 188.008 98.6799 188.31 115.526C188.593 131.274 178.478 159.628 165.562 167.163C152.647 174.697 101.951 169.869 92.5358 173.189C91.2748 172.591 87.0877 165.719 88.3362 163.185C88.3362 163.185 93.4139 152.546 99.9471 148.936C100.025 149.116 100.139 149.278 100.28 149.414C102.217 151.352 127.083 151.997 136.284 153.612C137.396 153.814 138.534 153.832 139.651 153.666C139.608 153.628 138.559 152.611 136.658 140.286C135.083 130.059 135.86 120.683 136.207 117.529C135.649 116.854 135.323 116.466 135.323 116.466C143.79 116.826 158.503 94.852 159.873 89.3166C160.215 87.9334 160.497 86.7922 160.728 85.8555C161.166 87.336 160.895 88.4673 162.349 88.7891C163.804 89.1108 168.971 89.5811 173.057 90.8782" fill=process.env.REACT_APP_COLOR_PRIMARY/>
<path fill-rule="evenodd" clip-rule="evenodd" d="M173.06 90.873C179.232 93.1306 188.008 98.6797 188.31 115.525C188.593 131.273 178.478 159.628 165.562 167.162C152.647 174.697 101.952 169.869 92.5359 173.189C91.4533 172.675 88.2141 167.539 88.1094 164.491C88.1194 164.491 130.973 166.71 148.407 162.405C165.842 158.101 169.072 150.781 175.746 129.9C182.42 109.02 173.163 99.5478 168.427 96.7489C163.691 93.95 156.828 96.4907 156.828 96.4907L157.826 93.9101C158.893 91.9694 159.62 90.3517 159.877 89.3127L160.366 87.3283C160.42 87.2684 160.628 87.0352 160.933 86.7134C161.131 87.7611 161.197 88.5294 162.353 88.7851C163.805 89.1081 168.975 89.5771 173.061 90.8743" fill="#F46925"/>
<path fill-rule="evenodd" clip-rule="evenodd" d="M146.482 63.3179C145.579 63.1683 149.872 69.9372 154.231 71.2294C157.192 72.1025 159.704 77.3759 160.355 82.5384C159.632 83.5861 159.117 84.4442 159.117 84.4442C159.117 84.4442 159.99 84.3881 160.517 85.3173C160.496 86.7629 160.296 88.1299 159.882 89.3086C157.783 95.283 140.509 121.922 132.759 115.465C125.01 109.008 135.18 95.4451 133.081 91.5686C130.982 87.6921 145.538 63.4202 145.538 63.4202C145.538 63.4202 146.439 63.3142 146.482 63.3154" fill="#FFA87B"/>
<path fill-rule="evenodd" clip-rule="evenodd" d="M137.018 116.338C135.414 116.759 133.95 116.569 132.725 115.547C131.769 114.764 131.012 113.766 130.516 112.633C130.474 112.384 130.454 112.214 130.454 112.214C130.454 112.214 132.444 113.863 134.892 113.675C137.34 113.487 139.194 112.264 139.008 112.248C138.851 112.236 138.846 115.098 137.012 116.339" fill="#FEFEFE"/>
<path fill-rule="evenodd" clip-rule="evenodd" d="M133.47 94.3928C133.694 96.6096 133.46 98.8489 132.78 100.971C131.651 104.413 130.805 110.45 135.774 105.315C140.743 100.18 149.845 91.8047 150.41 87.6288C150.975 83.453 141.979 81.4162 141.698 81.5571C141.418 81.6981 133.405 94.419 133.466 94.3928" fill="#D97B4B"/>
<path fill-rule="evenodd" clip-rule="evenodd" d="M136.336 116.407C136.336 116.407 139.171 114.69 138.847 111.058C138.523 107.426 136.103 104.762 139.493 100.321C142.883 95.881 143.932 97.4975 148.775 88.456C153.619 79.4146 153.377 79.0104 153.377 79.0104L160.748 78.8296C160.748 78.8296 161.227 79.5118 161.41 81.0896C160.584 82.166 159.816 83.286 159.11 84.4448C159.11 84.4448 160.293 84.3687 160.732 85.8505C160.81 86.1174 160.867 86.3718 160.914 86.6138C160.38 88.7878 159.408 91.4782 157.737 94.7522C151.764 106.458 146.668 111.604 142.804 113.561C140.893 114.529 139.371 115.498 138.24 115.965C137.084 116.442 136.338 116.407 136.338 116.407" fill="#D0393B"/>
<path fill-rule="evenodd" clip-rule="evenodd" d="M136.336 116.407C136.336 116.407 139.171 114.689 138.847 111.057C138.523 107.425 136.103 104.761 139.493 100.321C142.883 95.8803 143.932 97.4968 148.775 88.4553C151.135 84.0512 152.287 81.6976 152.848 80.4404L155.708 80.3394C156.111 80.8869 152.948 84.4553 149.236 92.4491C145.524 100.443 139.548 102.053 140.113 106.012C140.678 109.971 140.878 112.812 137.307 116.273C136.991 116.36 136.664 116.405 136.336 116.407Z" fill="#F46925"/>
<path fill-rule="evenodd" clip-rule="evenodd" d="M88.3366 163.183C86.5203 161.852 84.8291 160.358 83.2839 158.72C77.3581 152.511 67.1267 141.009 69.1024 137.624C70.3721 135.446 71.7591 134.204 73.0001 133.518L74.5305 136.701C74.548 137.064 74.6652 137.367 74.9396 137.55C75.9138 138.2 83.2964 139.07 86.9309 138.955C87.279 138.974 87.6281 138.949 87.9699 138.88C88.5 138.813 88.843 138.703 88.9278 138.542C89.0077 138.453 89.0798 138.357 89.1436 138.255C90.8112 136.49 88.9016 131.894 88.4476 130.127C87.9761 127.322 88.8305 123.824 89.9144 123.443C91.113 123.018 94.3596 123.088 94.3596 128.45C94.3596 133.812 94.5006 137.13 97.3232 139.741C100.244 142.443 99.9287 146.406 100.209 149.412C94.4981 152.568 88.3353 163.183 88.3353 163.183" fill="#FFA87B"/>
<path fill-rule="evenodd" clip-rule="evenodd" d="M88.3363 163.183C86.5198 161.853 84.8286 160.359 83.2836 158.721C78.4928 153.702 70.8907 145.225 69.1895 140.372C70.1349 140.746 71.684 142.045 73.6597 142.899C76.8876 144.298 84.5246 143.235 88.1355 142.685C91.7463 142.134 91.4719 147.635 93.6796 150.168C95.0903 151.79 96.37 151.884 97.1084 151.745C92.471 156.055 88.3301 163.186 88.3301 163.186" fill="#D97B4B"/>
<path fill-rule="evenodd" clip-rule="evenodd" d="M65.979 118.924C65.979 118.924 65.4252 117.327 66.5714 115.982C67.6079 114.766 81.3154 114.812 84.0781 114.839C84.9188 114.847 85.7507 115.837 86.5814 118.082C87.5592 120.709 88.9948 124.612 88.9948 124.612C88.6693 125.384 88.4323 126.45 88.3488 127.584C88.2565 128.437 88.249 129.346 88.4498 130.127L88.4722 130.212V130.235L88.491 130.301V130.308C88.8103 131.454 89.5798 133.612 89.7856 135.547C89.8717 136.637 89.732 137.625 89.1383 138.253C89.0743 138.355 89.0021 138.45 88.9225 138.54C88.8402 138.701 88.4947 138.811 87.9646 138.878C87.6228 138.947 87.2737 138.972 86.9256 138.953C83.2861 139.068 75.9085 138.205 74.9344 137.549C74.66 137.365 74.5427 137.062 74.5253 136.699C71.6565 130.723 68.7741 125.053 65.974 118.922" fill="#04213B"/>
<path fill-rule="evenodd" clip-rule="evenodd" d="M127.129 94.2391C126.733 95.0648 125.161 98.4574 124.317 101.828C123.349 105.703 125.449 104.331 127.87 108.448C130.291 112.565 131.099 113.604 131.099 113.604C131.099 113.604 129.411 111.826 130.565 104.217C131.719 96.6089 133.98 96.1799 133.558 93.5095C133.522 93.2687 133.476 93.0405 133.425 92.8247C132.414 93.2241 131.379 93.5606 130.327 93.8325C129.282 94.1079 128.205 94.2446 127.125 94.2391" fill="#D0393B"/>
<path fill-rule="evenodd" clip-rule="evenodd" d="M131.371 114.004L128.627 113.256C128.627 113.256 126.581 109.327 125.344 107.927C124.107 106.528 121.738 104.86 122.061 102.065C122.311 99.8763 124.048 95.8114 124.791 94.1426C125.544 94.2917 126.308 94.3681 127.075 94.3708C126.6 95.3761 125.13 98.6115 124.324 101.833C123.356 105.709 125.455 104.337 127.876 108.454C128.714 109.878 129.359 110.933 129.844 111.705C130.533 112.803 130.898 113.327 131.035 113.514L130.973 113.42C131.002 113.47 131.034 113.517 131.068 113.563C131.192 113.752 131.305 113.911 131.373 114.003" fill="#F46925"/>
<path fill-rule="evenodd" clip-rule="evenodd" d="M98.22 70.1022C95.2377 77.8228 108.073 100.925 118.099 91.8746C113.442 88.4695 110.881 80.7003 108.151 74.6535C105.578 68.956 102.731 64.9896 101.732 61.163C97.2658 44.0754 99.678 49.4187 113.173 48.0255C131.35 46.1459 135.375 40.2089 138.318 39.8908C141.262 39.5728 144.929 55.1873 140.176 64.724C129.354 86.4153 156.325 96.3822 168.441 74.631C182.065 53.2753 170.799 6.47643 132.451 12.5369C77.8209 21.1693 103.7 55.9207 98.22 70.1022Z" fill="#F46925"/>
<path fill-rule="evenodd" clip-rule="evenodd" d="M157.995 17.9155C151.5 13.2095 143.003 10.8696 132.451 12.5372C117.983 14.8222 109.171 18.9382 103.917 24.0184C105.009 28.3639 108.789 31.4671 119.009 28.1743C138.133 22.014 146.655 15.9336 157.992 17.9155" fill=process.env.REACT_APP_COLOR_PRIMARY/>
<path fill-rule="evenodd" clip-rule="evenodd" d="M148.986 67.8176C148.986 67.8176 154.84 68.9913 157.691 70.9595C160.542 72.9277 156.341 79.1765 152.467 81.0374C148.593 82.8983 148.986 67.8164 148.986 67.8164V67.8176ZM131.731 43.2451C135.194 41.5413 136.886 40.0509 138.318 39.8962C141.258 39.5794 144.929 55.1927 140.175 64.7294C129.481 86.1662 155.697 96.1481 168.007 75.3835C172.871 64.1469 173.691 50.4568 168.631 41.2757C158.86 23.5619 138.998 32.894 138.998 32.894C138.998 32.894 135.256 36.7481 131.731 43.2389V43.2451Z" fill="#D0393B"/>
<path fill-rule="evenodd" clip-rule="evenodd" d="M135.224 41.3161C136.548 40.5328 137.479 39.9815 138.318 39.8905C141.258 39.5737 144.929 55.187 140.175 64.7236C134.999 75.0997 138.473 82.7891 144.828 85.6117C136.83 81.1427 141.62 72.2147 144.587 62.935C146.253 57.7252 146.277 52.0838 145.747 47.8431C144.269 36.0189 138.998 32.8945 138.998 32.8945C138.998 32.8945 137.403 36.2622 135.221 41.3174" fill="#04213B"/>
<path fill-rule="evenodd" clip-rule="evenodd" d="M101.732 61.1624C101.732 61.1624 102.924 64.7645 101.808 68.7159C99.9123 75.4175 103.279 85.5166 109.34 89.3433C113.439 91.9314 115.114 92.8356 117.9 90.4658C120.687 88.096 116.431 72.429 114.328 69.5902C112.225 66.7515 101.731 61.1587 101.731 61.1587" fill="#04213B"/>
<path fill-rule="evenodd" clip-rule="evenodd" d="M99.846 49.9043C100.165 53.3967 100.735 57.3705 101.741 61.2208C102.738 65.0474 105.587 69.0137 108.16 74.7113C110.891 80.758 109.081 87.3549 118.109 91.9323C121.028 94.0664 124.345 95.2039 128.069 94.7374C136.289 93.7047 140.617 89.9367 143.161 84.773C137.913 81.4154 135.479 74.2049 140.18 64.7818C144.937 55.2451 141.263 39.6318 138.324 39.9486C135.386 40.2654 131.36 46.2037 113.179 48.0821C104.76 48.9551 100.656 47.199 99.8423 49.9043" fill="#FFA87B"/>
<path fill-rule="evenodd" clip-rule="evenodd" d="M100.018 51.6451C100.364 54.8542 100.937 58.0349 101.732 61.163C101.871 61.6898 102.038 62.209 102.231 62.7183C102.245 62.7183 109.872 62.2319 120.237 59.7249C129.794 57.4162 139.618 54.1122 141.975 59.1225C143.638 50.0897 140.728 39.6276 138.32 39.8871C135.381 40.2051 131.351 46.1421 113.175 48.0218C110.812 48.2535 108.438 48.3389 106.065 48.2774C103.741 49.4412 101.677 50.5874 100.015 51.6451" fill="#D97B4B"/>
<path fill-rule="evenodd" clip-rule="evenodd" d="M96.3086 43.4435C94.3247 47.3969 92.709 51.5245 91.4817 55.7741C89.4861 62.7475 100.193 61.0812 113.134 58.9833C126.076 56.8854 138.933 53.8034 141.239 48.0809C143.545 42.3584 139.155 33.0949 138.998 32.8954C138.841 32.6958 127.868 40.4775 114.867 41.6624C101.865 42.8473 96.3061 43.4448 96.3061 43.4448" fill="#00386C"/>
<path fill-rule="evenodd" clip-rule="evenodd" d="M97.1098 44.9165C96.7007 44.9327 93.5189 53.5888 93.5239 55.7964C93.5289 58.0041 98.0864 58.3459 106.207 57.1984C114.83 55.981 99.3474 52.5623 97.1098 44.9165Z" fill="#93B5CC"/>
<path fill-rule="evenodd" clip-rule="evenodd" d="M116.234 151.374C116.234 151.374 145.192 151.998 152.188 150.376C159.184 148.755 162.952 134.123 164.459 126.374C165.965 118.624 160.799 117.118 159.719 117.768C158.639 118.417 158.104 139.617 154.337 144.353C150.57 149.089 116.23 151.375 116.23 151.375" fill="#F48046"/>
<path fill-rule="evenodd" clip-rule="evenodd" d="M67.7229 118.897L69.3855 118.74C69.5686 118.736 69.7492 118.784 69.9064 118.878C70.0635 118.972 70.1908 119.109 70.2735 119.273L73.0175 125.096C73.1684 125.42 73.0175 125.712 72.6832 125.745L71.0219 125.901C70.8386 125.905 70.6579 125.857 70.5008 125.763C70.3436 125.669 70.2163 125.532 70.1338 125.368L67.3961 119.544C67.2439 119.22 67.3961 118.928 67.7291 118.897" fill="#33454B"/>
<path fill-rule="evenodd" clip-rule="evenodd" d="M67.7115 118.998L69.3329 118.844C69.5108 118.84 69.6863 118.887 69.8388 118.978C69.9914 119.07 70.1148 119.203 70.1948 119.362L72.8577 125.026C73.0061 125.342 72.8577 125.625 72.5334 125.65L70.9182 125.802C70.7401 125.806 70.5643 125.76 70.4115 125.668C70.2586 125.577 70.135 125.443 70.0551 125.284L67.3922 119.62C67.2438 119.305 67.3922 119.022 67.7165 118.997" fill="#93B5CC"/>
<path fill-rule="evenodd" clip-rule="evenodd" d="M67.7113 118.998L69.3328 118.844C69.5108 118.841 69.6863 118.887 69.839 118.979C69.9918 119.07 70.1155 119.203 70.1959 119.362L70.6424 120.313L69.3951 123.896L67.3883 119.627C67.2399 119.311 67.3883 119.028 67.7126 119.003" fill="#93B5CC"/>
<path fill-rule="evenodd" clip-rule="evenodd" d="M69.1722 119.512C69.4412 119.564 69.685 119.705 69.8644 119.912C70.0438 120.119 70.1483 120.38 70.1613 120.653C70.1613 121.191 69.731 121.552 69.1897 121.458C68.921 121.406 68.6775 121.265 68.4983 121.058C68.3192 120.851 68.2148 120.59 68.2019 120.317C68.1968 120.195 68.2199 120.073 68.2695 119.962C68.3191 119.85 68.3938 119.752 68.4877 119.674C68.5816 119.596 68.6923 119.541 68.811 119.513C68.9298 119.485 69.0534 119.485 69.1722 119.512Z" fill="#272E30"/>
<path fill-rule="evenodd" clip-rule="evenodd" d="M78.5928 117.425C80.7456 117.387 82.508 117.439 82.7674 117.58C83.1354 117.781 83.6967 118.857 84.3278 120.414C83.497 120.482 82.6614 120.469 81.8332 120.374C80.3527 120.197 79.063 118.24 78.5903 117.425" fill="#93B5CC"/>
<path fill-rule="evenodd" clip-rule="evenodd" d="M141.93 125.602L142.304 127.108C142.304 127.108 144.834 127.431 150.215 127.216C155.595 127 155.92 124.846 155.92 124.846L141.93 125.602Z" fill="#F46925"/>
<path fill-rule="evenodd" clip-rule="evenodd" d="M177.615 153.308L178.238 155.927L173.957 159.045C175.36 156.975 176.303 155.647 177.616 153.308" fill="#F46925"/>
<path fill-rule="evenodd" clip-rule="evenodd" d="M125.087 87.0071C122.407 87.704 119.762 87.8625 118.024 87.7902C117.852 87.7831 117.721 87.6349 117.732 87.4631C117.743 87.2912 117.89 87.1606 118.062 87.1676C119.745 87.2364 122.321 87.0818 124.93 86.4036C127.607 85.7074 130.28 84.4694 132.07 82.3934C132.182 82.263 132.378 82.2413 132.512 82.3492C132.646 82.4572 132.668 82.6538 132.556 82.7845C130.65 85.0057 127.831 86.2936 125.087 87.0071Z" fill="#D97B4B"/>
</svg>
