<svg width="22" height="22" viewBox="0 0 22 22" fill="none" xmlns="http://www.w3.org/2000/svg">
<path d="M20.5001 18.0004H17.0001C14.7945 18.0004 13.0001 16.206 13.0001 14.0004C13.0001 11.7948 14.7945 10.0004 17.0001 10.0004H20.5001C20.7765 10.0004 21.0001 9.77675 21.0001 9.50037V8.00037C21.0001 6.95186 20.1868 6.09916 19.1593 6.01647L16.2877 1.00083C16.0216 0.536952 15.5919 0.205404 15.0777 0.0677315C14.566 -0.0690033 14.0309 0.00280947 13.5728 0.269388L3.72892 6.00034H2.00002C0.897003 6.00034 0 6.8973 0 8.00037V20.0004C0 21.1034 0.896956 22.0004 2.00002 22.0004H19.0001C20.1031 22.0004 21.0001 21.1035 21.0001 20.0004V18.5004C21.0001 18.224 20.7765 18.0004 20.5001 18.0004ZM16.9078 4.0974L17.9973 6.00034H13.6393L16.9078 4.0974ZM5.71642 6.00034L14.0762 1.13363C14.3023 1.0013 14.5665 0.966141 14.8189 1.03355C15.0743 1.10189 15.2872 1.26694 15.4195 1.49789L15.4206 1.49972L7.69038 6.00034H5.71642Z" fill="#4E5356"/>
<path d="M20.5 11H17C15.3457 11 14 12.3457 14 14C14 15.6543 15.3457 17 17 17H20.5C21.3272 17 22 16.3272 22 15.5V12.5C22 11.6728 21.3272 11 20.5 11ZM17 15C16.4488 15 16 14.5513 16 14C16 13.4488 16.4488 13 17 13C17.5513 13 18 13.4488 18 14C18 14.5513 17.5513 15 17 15Z" fill="#4E5356"/>
</svg>
