<svg width="66" height="65" viewBox="0 0 66 65" fill="none" xmlns="http://www.w3.org/2000/svg">
<g filter="url(#filter0_d)">
<path d="M32.5347 25C25.613 25 20 30.5975 20 37.5C20 44.4025 25.613 50 32.5347 50C39.4564 50 45.0695 44.4025 45.0695 37.5C45.0695 30.5975 39.4564 25 32.5347 25ZM32.8004 44.7779H32.7973C31.5417 44.7773 30.3078 44.4633 29.2121 43.8675L25.2351 44.9076L26.2995 41.0318C25.6429 39.8977 25.2975 38.611 25.298 37.2929C25.2998 33.1692 28.6652 29.8143 32.8004 29.8143C34.8071 29.8151 36.6909 30.5941 38.1072 32.0076C39.5237 33.4213 40.3033 35.3004 40.3026 37.2988C40.3008 41.4227 36.935 44.7779 32.8004 44.7779Z" fill="#40D2A7"/>
</g>
<g filter="url(#filter1_d)">
<path d="M32.8027 31.0773C29.3632 31.0773 26.566 33.8657 26.5645 37.2932C26.5641 38.4677 26.8938 39.6116 27.5179 40.6013L27.6661 40.8365L27.0361 43.1305L29.3961 42.5132L29.6239 42.6479C30.5812 43.2144 31.6787 43.514 32.7976 43.5144H32.8001C36.2369 43.5144 39.0342 40.7259 39.0357 37.2982C39.0363 35.637 38.3883 34.0753 37.211 32.9004C36.0338 31.7254 34.4681 31.0779 32.8027 31.0773ZM36.4704 39.9658C36.3142 40.4022 35.5654 40.8006 35.2052 40.8544C34.8822 40.9025 34.4736 40.9225 34.0245 40.7804C33.7522 40.6942 33.4031 40.5792 32.9558 40.3867C31.0754 39.5773 29.8473 37.6897 29.7536 37.565C29.6599 37.4403 28.9882 36.5516 28.9882 35.6317C28.9882 34.712 29.4724 34.2597 29.6442 34.0728C29.8161 33.8857 30.0193 33.839 30.1442 33.839C30.2691 33.839 30.3942 33.8401 30.5034 33.8455C30.6185 33.8512 30.773 33.8018 30.9251 34.1663C31.0814 34.5405 31.4562 35.4602 31.5031 35.5537C31.55 35.6473 31.5811 35.7564 31.5188 35.8812C31.4562 36.0059 31.2485 36.2751 31.0502 36.5203C30.967 36.6231 30.8585 36.7147 30.9679 36.9018C31.0772 37.0887 31.4536 37.7008 32.0107 38.1963C32.7268 38.833 33.3308 39.0302 33.5183 39.1239C33.7055 39.2173 33.8149 39.2017 33.9243 39.0771C34.0335 38.9524 34.3929 38.5314 34.5178 38.3443C34.6427 38.1572 34.7678 38.1885 34.9396 38.2509C35.1115 38.3131 36.033 38.7653 36.2205 38.8588C36.4079 38.9524 36.5328 38.9991 36.5797 39.0771C36.6267 39.1552 36.6267 39.5292 36.4704 39.9658Z" fill="#43D2AA"/>
</g>
<defs>
<filter id="filter0_d" x="0" y="0" width="65.0695" height="65" filterUnits="userSpaceOnUse" color-interpolation-filters="sRGB">
<feFlood flood-opacity="0" result="BackgroundImageFix"/>
<feColorMatrix in="SourceAlpha" type="matrix" values="0 0 0 0 0 0 0 0 0 0 0 0 0 0 0 0 0 0 127 0"/>
<feOffset dy="-5"/>
<feGaussianBlur stdDeviation="10"/>
<feColorMatrix type="matrix" values="0 0 0 0 0.529412 0 0 0 0 0.792157 0 0 0 0 0.996078 0 0 0 0.16 0"/>
<feBlend mode="normal" in2="BackgroundImageFix" result="effect1_dropShadow"/>
<feBlend mode="normal" in="SourceGraphic" in2="effect1_dropShadow" result="shape"/>
</filter>
<filter id="filter1_d" x="6.56445" y="6.07733" width="52.4712" height="52.4371" filterUnits="userSpaceOnUse" color-interpolation-filters="sRGB">
<feFlood flood-opacity="0" result="BackgroundImageFix"/>
<feColorMatrix in="SourceAlpha" type="matrix" values="0 0 0 0 0 0 0 0 0 0 0 0 0 0 0 0 0 0 127 0"/>
<feOffset dy="-5"/>
<feGaussianBlur stdDeviation="10"/>
<feColorMatrix type="matrix" values="0 0 0 0 0.529412 0 0 0 0 0.792157 0 0 0 0 0.996078 0 0 0 0.16 0"/>
<feBlend mode="normal" in2="BackgroundImageFix" result="effect1_dropShadow"/>
<feBlend mode="normal" in="SourceGraphic" in2="effect1_dropShadow" result="shape"/>
</filter>
</defs>
</svg>
